<svg viewBox="0 0 14 14" fill="none" width="32" height="32" xmlns="http://www.w3.org/2000/svg" xmlns:xlink="http://www.w3.org/1999/xlink">
    <path fill="#363636" fill-opacity="0.7" d="M11.5352 6.2075c-2e-4-2.8806-2.3361-5.2158-5.2168-5.2158-2.8806 2e-4-5.2157 2.3353-5.2159 5.2158 0 2.8807 2.3352 5.2166 5.2159 5.2168 2.8808 0 5.2168-2.336 5.2168-5.2168zM12.5352 6.2075c0 1.5883-0.598 3.036-1.5782 4.1348L14 13.2905l-0.3477 0.3594-0.3476 0.3584-3.0713-2.9746c-1.0689 0.8682-2.4307 1.3906-3.915 1.3906-3.433-2e-4-6.2159-2.7838-6.2159-6.2168 2e-4-3.4328 2.783-6.2156 6.2159-6.2158 3.4329 0 6.2166 2.7829 6.2168 6.2158z" />
</svg>