<svg viewBox="0 0 15 15" fill="none" width="32" height="32" xmlns="http://www.w3.org/2000/svg" xmlns:xlink="http://www.w3.org/1999/xlink">
    <path stroke="#fff" d="M7.6221 0.5c3.8485 2e-4 6.8778 3.1347 6.8779 7.0215v19e-4c0.013 3.8131-3.0497 6.912-6.8408 6.9327-0.7131-1e-4-1.1924-0.0518-1.624-0.1905-0.4314-0.1386-0.8505-0.3743-1.4258-0.792l-0.3916-0.2851-0.2969 0.3838c-0.2853 0.3684-0.9509 0.7524-1.5703 0.8838-0.3078 0.0652-0.5281 0.0502-0.6484 39e-4-0.0524-0.0202-0.0754-0.0414-0.087-0.0567-0.0109-0.0146-0.0321-0.0499-0.039-0.1299-4e-3-0.7717-0.1315-1.4537-0.2969-2.1191l-0.1768-0.6729C0.814 10.3797 0.5 9.1996 0.5 7.4824 0.5 3.5065 3.7468 0.5 7.6221 0.5zM7.7481 3.1914C5.4398 3.0718 3.6797 4.6963 3.2988 7.1016l0 9e-4c-0.1537 0.9754-0.0927 2.0408 0.0606 2.878 0.0766 0.4184 0.1799 0.7989 0.3017 1.0937 0.0604 0.1461 0.1318 0.2891 0.2188 0.4082 0.0765 0.1048 0.2186 0.2663 0.4404 0.3252l0.0108 2e-3c0.2263 0.0547 0.4331-0.0277 0.5312-0.0723 0.1244-0.0565 0.2487-0.1353 0.3604-0.2148 0.1157-0.0825 0.2325-0.1787 0.3437-0.2754 0.5276 0.2951 1.1124 0.4766 1.7178 0.5254h78e-4l88e-4 9e-4c2.3596 0.1138 4.3721-1.6905 4.5303-4.0527l9e-4-0.0137c0.0858-2.2071-1.4847-4.1026-3.6103-4.4589l0-0.0323z" />
</svg>