<svg viewBox="0 0 14 15" fill="none" width="29.866667" height="32" xmlns="http://www.w3.org/2000/svg" xmlns:xlink="http://www.w3.org/1999/xlink">
    <path fill="#fff" d="M11.4326 6.2158C11.4325 3.3352 9.0965 1 6.2158 1 3.3353 1.0002 1.0002 3.3353 1 6.2158c0 2.8807 2.3352 5.2166 5.2158 5.2168 2.8808 0 5.2168-2.336 5.2168-5.2168zM12.4326 6.2158c0 1.5883-0.598 3.036-1.5781 4.1348l3.043 2.9482-0.3477 0.3594-0.3477 0.3584-3.0712-2.9746c-1.069 0.8682-2.4307 1.3906-3.9151 1.3906C2.7829 12.4324 0 9.6488 0 6.2158 2e-4 2.783 2.783 2e-4 6.2158 0c3.433 0 6.2167 2.7829 6.2168 6.2158z" />
</svg>