<svg viewBox="0 0 17 18" fill="none" width="30.222222" height="32" xmlns="http://www.w3.org/2000/svg" xmlns:xlink="http://www.w3.org/1999/xlink">
    <path fill="#fff" d="M13.8497 2.2478c-0.1784 88e-4-0.3465 0.0637-0.4959 0.1252l-21e-4 0c-0.1515 0.0638-0.8716 0.3846-1.9652 0.8702-1.0937 0.4878-2.5131 1.1206-3.9221 1.749-2.814 1.2546-5.5802 2.4895-5.5802 2.4895l0.0332-0.0132c0 0-0.191 0.0659-0.3902 0.211-0.1017 0.0703-0.2137 0.1669-0.3113 0.3186-0.0975 0.1516-0.1763 0.3845-0.1473 0.624 0.0477 0.4065 0.2968 0.6504 0.4752 0.7844 0.1806 0.1362 0.3528 0.2 0.3528 0.2l42e-4 0 2.594 0.925c0.1162 0.3955 0.7906 2.7422 0.9525 3.2827 0.0954 0.323 0.1888 0.5252 0.305 0.679 0.0561 0.0791 0.1225 0.145 0.2013 0.1977 0.0311 0.0198 0.0644 0.0352 0.0976 0.0484 0.0103 66e-4 0.0207 87e-4 0.0332 0.0109l-0.027-65e-4c83e-4 22e-4 0.0145 87e-4 0.0207 0.0109 0.0208 66e-4 0.0353 88e-4 0.0623 0.0132 0.4109 0.1319 0.7408-0.1384 0.7408-0.1384l0.0187-0.0154 1.5315-1.4765 2.567 2.0852 0.0581 0.0263c0.5354 0.2483 1.077 0.1099 1.3634-0.134 0.2885-0.2461 0.4005-0.5603 0.4005-0.5603l0.0187-0.0505 1.9839-10.7601c0.056-0.2658 0.0706-0.5141 83e-4-0.7558-0.0623-0.2417-0.222-0.468-0.415-0.5889-0.1951-0.123-0.3881-0.1604-0.5666-0.1516zM13.7958 3.4014c-21e-4 0.0351 41e-4 0.0307-0.0104 0.0988v66e-4l-1.9652 10.648c-83e-4 0.0154-0.0228 0.0483-0.0623 0.0813-0.0415 0.0351-0.0747 0.0571-0.2469-0.0154l-3.1398-2.5488-1.8967 1.8303 0.3984-2.6938c0 0 4.9182-4.8538 5.1299-5.0626 0.2117-0.2087 0.1411-0.2526 0.1411-0.2526 0.0145-0.2549-0.3196-0.0747-0.3196-0.0747L5.356 9.6614l-21e-4-0.011-3.1004-1.1052 0-22e-4c-2e-3 0-62e-4-22e-4-83e-4-22e-4 21e-4 0 0.0166-66e-4 0.0166-66e-4l0.0166-88e-4 0.0167-66e-4c0 0 2.7683-1.2349 5.5822-2.4895 1.4091-0.6284 2.8285-1.2612 3.9201-1.749 1.0915-0.4856 1.8988-0.8416 1.9444-0.8613 0.0436-0.0176 0.0228-0.0176 0.054-0.0176z" />
</svg>