<svg viewBox="0 0 19 11" fill="none" width="55.272727" height="32" xmlns="http://www.w3.org/2000/svg" xmlns:xlink="http://www.w3.org/1999/xlink">
    <path stroke="#fff" clip-rule="evenodd" d="M8.0425 0.5056c-0.3424 0.0243-0.7764 0.089-0.95 0.1416-0.2983 0.0904-0.6699 0.4127-0.6011 0.5213 0.0126 0.02 0.0818 0.047 0.1536 0.06 0.3228 0.0586 0.595 0.2374 0.717 0.471 0.2086 0.3994 0.3024 1.6485 0.1902 2.5327-0.0742 0.5845-0.1055 0.72-0.2154 0.932-0.295 0.5685-0.9723 0.1083-1.7188-1.1678-0.2657-0.4541-1.0133-1.9116-1.1801-2.3005-0.2016-0.47-0.2654-0.5566-0.4947-0.6705L3.7497 0.9292 2.2895 0.9395c-1.3186 92e-4-1.4713 0.0161-1.5743 0.0711-0.1632 0.0871-0.233 0.2061-0.2114 0.3609 0.0231 0.1658 0.577 1.3683 0.9851 2.1389 0.7946 1.5004 1.4676 2.5898 2.187 3.5404 1.0581 1.3981 1.5262 1.8517 2.6073 2.5264 0.5047 0.3151 0.8691 0.4913 1.3194 0.6383 0.6189 0.202 0.8883 0.2409 1.8121 0.2616 0.9195 0.0205 1.1837-54e-4 1.3785-0.1352 0.1605-0.1069 0.2101-0.2545 0.2401-0.7132 0.0295-0.4527 0.12-0.8409 0.2444-1.0482 0.1098-0.183 0.3483-0.3943 0.4507-0.3992 0.3571-0.0172 0.5571 0.1277 1.3031 0.9447 0.6995 0.7659 0.9581 0.9913 1.3445 1.1721 0.1742 0.0815 0.388 0.1641 0.4751 0.1836 0.211 0.0473 3.0609-59e-4 3.2448-0.0605 0.1822-0.0542 0.3784-0.2422 0.3829-0.3669 0.0123-0.3412-0.0386-0.495-0.283-0.8555-0.3211-0.4738-0.5971-0.7764-1.5364-1.6848-0.9976-0.9647-1.0672-1.0545-1.0687-1.3772-12e-4-0.2709 0.1285-0.4791 1.0042-1.6124 1.2354-1.5987 1.7301-2.3709 1.8676-2.9153 0.0807-0.3193 0.0348-0.4734-0.1734-0.5821L18.141 0.9497 16.3641 0.9612c-1.2561 82e-4-1.8023 0.0233-1.8636 0.0516-0.1193 0.055-0.2457 0.2557-0.4041 0.6415-0.4221 1.0277-1.291 2.5081-1.8637 3.1751-0.2279 0.2655-0.582 0.5371-0.7002 0.5371-0.1649 0-0.3009-0.104-0.404-0.309l-0.0952-0.1894 97e-4-1.7845c0.0103-1.9191 59e-4-1.9758-0.1759-2.2292-0.1791-0.2496-0.6157-0.3352-1.7866-0.3502-0.4741-61e-4-0.9413-55e-4-1.038 14e-4z" fill-rule="evenodd" />
</svg>