<svg width="205" height="397" viewBox="0 0 205 397" fill="none" xmlns="http://www.w3.org/2000/svg">
<path d="M22.072 22.6449L22.072 90.8663L2.00685 90.8663L2.00685 3.05176e-05L21.4987 2.96656e-05L202.658 51.596L202.658 73.9543L22.072 22.6449Z" fill="#D9D9D9" fill-opacity="0.25"/>
<path d="M1.52757e-05 156.967C1.46074e-05 141.679 4.39523 129.927 13.1857 121.71C21.785 113.684 33.9196 109.671 49.5895 109.671L55.8957 109.671C77.4896 109.671 91.2485 117.315 97.1725 132.602C103.288 117.315 117.429 109.671 139.596 109.671L154.501 109.671C170.171 109.671 182.401 113.684 191.192 121.71C200.173 129.927 204.664 141.679 204.664 156.967C204.664 172.255 200.173 184.007 191.192 192.224C182.401 200.25 170.171 204.263 154.501 204.263L139.596 204.263C117.62 204.263 103.479 196.524 97.1725 181.045C91.2485 196.524 77.4896 204.263 55.8957 204.263L49.5895 204.263C33.9196 204.263 21.785 200.25 13.1857 192.224C4.39523 184.007 1.59439e-05 172.255 1.52757e-05 156.967ZM20.0651 156.967C20.0651 173.784 30.0977 182.192 50.1628 182.192L59.9087 182.192C78.6361 182.192 87.9999 173.784 87.9999 156.967C87.9999 140.151 78.6361 131.742 59.9087 131.742L50.1628 131.742C30.0977 131.742 20.0651 140.151 20.0651 156.967ZM108.065 156.967C108.065 173.784 117.715 182.192 137.016 182.192L153.928 182.192C174.184 182.192 184.312 173.784 184.312 156.967C184.312 140.342 174.184 131.934 153.928 131.742L137.016 131.742C117.715 131.742 108.065 140.151 108.065 156.967Z" fill="#D9D9D9" fill-opacity="0.25"/>
<path d="M1.53383e-05 269.237C1.46784e-05 254.141 4.58632 242.579 13.7589 234.553C22.5494 226.91 34.7795 223.088 50.4494 223.088L152.781 223.088C187.37 223.088 204.664 238.566 204.664 269.524C204.664 284.429 200.078 295.8 190.905 303.635C182.306 311.087 170.076 314.814 154.215 314.814L150.488 314.814L150.488 293.889L155.648 293.889C174.758 293.889 184.312 285.958 184.312 270.097C184.312 253.663 173.611 245.446 152.208 245.446L107.205 245.446C121.346 250.988 128.417 261.785 128.417 277.837C128.417 302.679 112.651 315.1 81.1204 315.1L50.4494 315.1C34.7795 315.1 22.5494 311.279 13.7589 303.635C4.58632 295.8 1.59982e-05 284.334 1.53383e-05 269.237ZM20.3518 269.237C20.3518 285.098 30.0021 293.029 49.3029 293.029L79.4005 293.029C98.7012 293.029 108.352 285.098 108.352 269.237C108.352 253.376 98.7012 245.446 79.4005 245.446L49.3029 245.446C30.0021 245.446 20.3518 253.376 20.3518 269.237Z" fill="#D9D9D9" fill-opacity="0.25"/>
<path d="M38.4107 368.959C43.5703 377.367 46.4368 386.635 47.01 396.763L28.6648 396.763C28.0915 380.138 19.2055 368.672 2.00685 362.366L2.00685 346.887L202.658 346.887L202.658 368.959L38.4107 368.959Z" fill="#D9D9D9" fill-opacity="0.25"/>
</svg>
