<svg width="21" height="20" viewBox="0 0 21 20" fill="none" xmlns="http://www.w3.org/2000/svg">
<path d="M10.0034 0.0508184C9.82993 0.130507 9.67525 0.294569 9.60962 0.468006C9.57212 0.561756 9.55806 2.35707 9.55806 6.23363V11.868L8.00181 10.3118C7.144 9.45394 6.37993 8.73207 6.30962 8.70863C5.96743 8.57738 5.569 8.71801 5.39087 9.03207C5.28306 9.22426 5.25962 9.53832 5.344 9.70238C5.419 9.84769 9.83462 14.2727 9.98931 14.3571C10.1534 14.4414 10.4627 14.4414 10.6268 14.3571C10.6971 14.3196 11.7612 13.2789 12.9893 12.0461C15.4034 9.62738 15.3331 9.70707 15.2581 9.28988C15.2159 9.07426 14.9674 8.82113 14.7237 8.75082C14.3159 8.62426 14.2924 8.64301 12.5956 10.3352L11.0581 11.8633L11.0487 6.16332C11.0346 0.486756 11.0346 0.458632 10.9362 0.332068C10.8846 0.261756 10.7862 0.158631 10.7206 0.111756C10.5612 -0.00543118 10.1909 -0.0382433 10.0034 0.0508184Z" fill="white"/>
<path d="M0.434696 12.0977C0.256571 12.1774 0.101883 12.3649 0.0362581 12.5899C0.00344562 12.7071 -0.00592938 13.2836 0.00344562 14.3524C0.0221956 15.9274 0.0268831 15.9508 0.153446 16.368C0.476883 17.4321 1.16126 18.243 2.12688 18.7118C2.96595 19.1196 2.24407 19.0868 10.3066 19.0868C18.3691 19.0868 17.6472 19.1196 18.4863 18.7118C19.4753 18.2336 20.1972 17.3477 20.4878 16.2743C20.5769 15.9321 20.5909 15.7586 20.605 14.2821C20.6238 12.6696 20.6238 12.6649 20.5159 12.4586C20.3753 12.1868 20.2113 12.0696 19.9253 12.0414C19.63 12.0133 19.3628 12.1539 19.2175 12.4071C19.1238 12.5758 19.1191 12.6461 19.1191 14.0289C19.1191 15.6508 19.0863 15.918 18.8284 16.4055C18.6363 16.7711 18.2331 17.1743 17.9003 17.3383C17.3238 17.6243 17.7175 17.6102 10.3066 17.6102C2.90032 17.6102 3.30813 17.6243 2.7222 17.3383C2.36595 17.1696 1.96282 16.7618 1.78001 16.3961C1.52688 15.8993 1.49407 15.6414 1.49407 14.0289C1.49407 12.6461 1.48938 12.5758 1.39563 12.4071C1.21282 12.0836 0.786258 11.9477 0.434696 12.0977Z" fill="white"/>
</svg>
