<svg width="48" height="40" viewBox="0 0 48 40" fill="none" xmlns="http://www.w3.org/2000/svg">
<path d="M9.65015 1.55983C8.79111 2.41886 8.05641 3.23268 8.0112 3.36832C7.97729 3.51526 7.98859 3.75263 8.0225 3.89957C8.10162 4.23866 8.65547 4.48733 8.96066 4.32908C9.07369 4.26127 9.75187 3.61699 10.464 2.90489L11.7638 1.59374H15.6634H19.563L20.6141 2.64492C21.1793 3.22138 21.654 3.73002 21.654 3.77523C21.654 3.82045 21.0776 3.85435 20.3768 3.85435H19.1108L17.664 5.30115C16.3981 6.5671 16.2172 6.80446 16.2512 7.07574C16.2738 7.25659 16.4094 7.49395 16.5902 7.61828C17.0311 7.94607 17.3476 7.77653 18.6587 6.45407L19.789 5.32376H22.8296H25.8814L26.7517 6.17149C27.6899 7.08704 28.0177 7.21137 28.4359 6.79316C28.8767 6.35234 28.7411 6.03585 27.6108 4.90554L26.5596 3.85435H25.271H23.9712L22.0835 1.95544L20.1846 0.067819L15.7086 0.0339097L11.2213 4.71293e-07L9.65015 1.55983Z" fill="#3D8CD1"/>
<path d="M3.09438 7.4375L0.969402 9.55118V11.5631V13.5751H0.562491C0.155579 13.5751 -0.262635 13.7446 -0.409575 13.9594C-0.454788 14.0272 -0.5 15.4853 -0.5 17.2034C-0.5 19.5205 -0.466091 20.3569 -0.35306 20.5039C-0.273938 20.6056 0.992008 21.0464 2.7779 21.5664L5.77322 22.4593L5.80713 24.7312L5.82973 27.0145L5.36631 27.3875C4.37163 28.19 3.29784 29.9872 3.01526 31.2983C2.83441 32.1461 2.85702 33.7511 3.06047 34.5423C3.67084 36.9499 5.68279 39.0296 8.07905 39.7304C11.843 40.8381 15.9799 38.4193 16.9294 34.5536L17.1667 33.5816L22.6487 33.6042L28.1307 33.6381L28.2777 34.3728C28.6846 36.3621 30.2218 38.3402 32.0642 39.2105C33.3189 39.8096 34.031 39.9678 35.3873 39.9565C36.3142 39.9452 36.6872 39.8887 37.4671 39.6287C39.6825 38.8827 41.2988 37.2551 42.0448 35.0284C42.2031 34.5536 42.3387 34.0337 42.3387 33.8754V33.5816H44.1246C45.7523 33.5816 45.9557 33.5589 46.4078 33.3216C46.6791 33.1859 47.0634 32.8808 47.2443 32.6434L47.5947 32.2026L47.6286 27.8961C47.6512 23.6009 47.6512 23.5783 47.4025 23.1262C47.1878 22.7645 46.6678 22.3576 44.6672 21.0125C43.2995 20.097 42.124 19.2831 42.0448 19.204C41.9657 19.1249 41.4119 17.452 40.8128 15.4966C40.225 13.5412 39.6825 11.7892 39.6034 11.6196C39.4112 11.1223 39.0721 10.7606 38.5748 10.4893C38.134 10.252 37.9305 10.2407 35.3873 10.2068C33.6806 10.1841 32.5616 10.2068 32.3694 10.2859C32.0981 10.3876 31.646 11.224 29.1141 16.2878L26.1753 22.1767V24.5504C26.1753 26.7658 26.164 26.924 25.9831 26.8675C25.5762 26.7432 19.9134 25.059 12.216 22.7871C7.86429 21.4985 3.56911 20.2326 2.66487 19.9613L1.02592 19.4753L0.992008 17.3164L0.969402 15.1575H4.47336H7.97732L7.64953 15.7453C6.51922 17.7798 6.28186 18.2659 6.28186 18.5597C6.28186 18.978 6.55313 19.2266 7.02786 19.2266C7.47998 19.2266 7.44608 19.2605 8.83636 16.706L9.68409 15.1575H12.962H16.2399L16.1042 15.4062C16.0364 15.5531 15.4148 16.6834 14.7479 17.9268C14.0697 19.1814 13.5158 20.3004 13.5158 20.4248C13.5158 20.7186 13.968 21.1482 14.2844 21.1482C14.4201 21.1482 14.6235 21.0577 14.7366 20.9447C14.8383 20.843 15.6182 19.4979 16.4546 17.9494L17.9693 15.1575H21.6202H25.2824L25.0902 15.5192C24.9885 15.7227 24.1407 17.2825 23.2139 18.978C21.8801 21.4194 21.5297 22.1428 21.5636 22.4254C21.6315 23.081 22.5244 23.2844 22.8748 22.7306C22.9539 22.6062 24.6268 19.5092 26.5822 15.8583C28.549 12.2074 30.267 9.11035 30.3914 8.96341L30.6174 8.71475H36.0655C42.1127 8.71475 41.9996 8.72605 41.9996 7.99135C41.9996 7.22274 42.2144 7.24534 35.9638 7.24534C29.7471 7.24534 29.9053 7.22274 29.2497 7.98005C29.0689 8.1722 28.3003 9.51727 27.543 10.9528L26.164 13.5751H14.2958H2.4388V11.9022V10.2407L4.16818 8.51129L5.88625 6.79322H8.14687H10.4075L12.0803 8.46608L13.7419 10.1276V10.8171C13.7419 11.3484 13.7984 11.5857 13.9793 11.8118C14.2958 12.2187 14.7705 12.2074 15.0983 11.8005C15.313 11.5179 15.3356 11.371 15.3017 10.4893L15.2678 9.50596L13.1654 7.41489L11.0744 5.32382H8.14687H5.21937L3.09438 7.4375ZM38.0888 12.0152C38.1792 12.1622 38.7104 13.7672 39.2643 15.5757L40.2703 18.8875H37.9757H35.6812L35.4551 18.5937C35.2404 18.3111 35.2178 18.1415 35.2178 16.3669C35.2178 14.728 35.1839 14.4115 35.0256 14.2307C34.7883 13.9594 34.257 13.9707 33.9744 14.2533C33.7597 14.468 33.7484 14.6263 33.7484 16.5139C33.7484 18.0963 33.7823 18.6502 33.9179 18.978C34.144 19.5092 34.4831 19.8709 35.0143 20.1422C35.3986 20.3343 35.7038 20.3569 38.2131 20.3569H40.9824L43.5142 22.0411C44.9045 22.9679 46.0687 23.8157 46.114 23.9174C46.1479 24.0191 46.1818 24.3808 46.1818 24.7199V25.3303H44.7124C43.3899 25.3303 43.2204 25.3529 43.0169 25.5564C42.8926 25.6807 42.7909 25.9068 42.7909 26.065C42.7909 26.2232 42.8926 26.4493 43.0169 26.5736C43.2204 26.7771 43.3899 26.7997 44.7124 26.7997H46.1818V29.2186V31.6487L45.8879 31.8748C45.6166 32.0895 45.4358 32.1122 43.9664 32.1122H42.3387V31.8409C42.3387 31.2418 41.751 29.7272 41.1971 28.9021C38.6652 25.1042 33.4545 24.5843 30.2331 27.8057C29.2497 28.789 28.5376 30.0776 28.2777 31.3209L28.1307 32.0556L22.6487 32.0895L17.1554 32.1122L16.9746 31.287C16.2738 28.1674 13.6515 25.9294 10.4075 25.7033C9.58236 25.6468 8.71202 25.7711 7.67214 26.0763L7.41217 26.1441V24.5391C7.41217 23.0697 7.42347 22.9453 7.61562 23.0019C13.4932 24.7877 25.9266 28.3821 26.2205 28.3821C26.7518 28.3821 27.2152 28.1448 27.4865 27.7379C27.6786 27.4553 27.7125 27.1275 27.7577 24.8217L27.8143 22.2219L30.4479 16.9886L33.0702 11.7666H35.5004C37.8966 11.7666 37.9305 11.7666 38.0888 12.0152ZM11.7186 27.4892C13.561 28.0204 15.0305 29.6142 15.4939 31.5696C16.1382 34.2823 14.7253 36.9612 12.0464 38.1028C11.1083 38.4984 9.32239 38.5549 8.31641 38.2158C5.49064 37.2777 3.80648 34.2936 4.52988 31.5131C5.12894 29.2186 6.90353 27.6022 9.22066 27.2631C10.0119 27.1388 10.7692 27.2066 11.7186 27.4892ZM36.7437 27.3875C38.507 27.8283 40.1007 29.3994 40.6546 31.2418C40.9711 32.2591 40.9145 33.8867 40.5415 34.8475C39.999 36.2491 38.6765 37.5715 37.2749 38.1141C36.3142 38.4871 34.6865 38.5436 33.6693 38.2271C30.4931 37.2664 28.8089 33.8189 30.0297 30.7445C30.5609 29.3655 31.8042 28.1335 33.1832 27.5909C34.257 27.1614 35.5682 27.0936 36.7437 27.3875Z" fill="#3D8CD1"/>
<path d="M8.94964 30.0325C8.28276 30.2698 7.78543 30.6994 7.42373 31.3436C6.53078 32.8922 7.09594 34.7233 8.72358 35.5145C9.36786 35.8423 9.5261 35.8649 10.1817 35.8197C12.4875 35.6275 13.7196 33.2539 12.5553 31.2532C11.8771 30.089 10.2721 29.5464 8.94964 30.0325ZM10.6338 31.4793C11.6737 31.9201 11.7641 33.446 10.8034 34.1129C10.4417 34.3729 9.58262 34.3616 9.18701 34.0903C8.26016 33.4912 8.37319 31.9201 9.36786 31.4906C9.83129 31.2871 10.1478 31.2871 10.6338 31.4793Z" fill="#3D8CD1"/>
<path d="M34.0879 30.089C31.2621 31.3662 31.9177 35.5371 34.9921 35.8083C37.1623 36.0118 38.79 33.9207 38.0892 31.8636C37.5466 30.2472 35.6138 29.3995 34.0879 30.089ZM36.0207 31.581C36.8684 32.1461 36.9928 33.186 36.292 33.8868C35.8173 34.3615 35.2521 34.4633 34.6869 34.192C33.7262 33.7173 33.4662 32.5983 34.1557 31.8636C34.7322 31.2645 35.3877 31.1628 36.0207 31.581Z" fill="#3D8CD1"/>
</svg>
