<svg width="38" height="37" viewBox="0 0 38 37" fill="none" xmlns="http://www.w3.org/2000/svg">
<path d="M17.3104 0.608636C9.09346 5.5807 0.189989 11.0731 0.110494 11.2104C-0.0268159 11.4489 -0.0412696 36.3165 0.0960404 36.6055C0.291165 37.0319 -1.00244 37.003 18.51 37.003C38.0225 37.003 36.7289 37.0319 36.924 36.6055C36.9891 36.461 37.0107 33.4546 37.0107 23.9152C37.0107 13.2484 36.9963 11.3839 36.9096 11.2176C36.8301 11.0731 34.7271 9.75782 28.9817 6.2528C18.286 -0.265812 18.7341 0.00158127 18.51 0.00158127C18.3944 0.00158127 17.9102 0.247294 17.3104 0.608636ZM27.1172 6.80927L35.5654 11.962V23.7562V35.5576H34.12H32.6746V25.8737C32.6746 18.524 32.653 16.1536 32.5879 16.009C32.4 15.6043 32.5518 15.6116 26.8643 15.6116C22.9545 15.6116 21.5742 15.6332 21.4369 15.6983C21.2273 15.7922 21.0394 16.0958 21.0394 16.3342C21.0394 16.5727 21.2273 16.8763 21.4369 16.9702C21.5742 17.0352 22.8606 17.0569 26.4234 17.0569H31.2293V26.3073V35.5576H27.1822H23.1352V31.5106C23.1352 27.1095 23.1352 27.1528 22.7377 26.9722C22.6004 26.9071 21.2418 26.8854 17.426 26.8854H12.2949V23.9224C12.2949 20.6993 12.2877 20.6414 11.8975 20.468C11.7602 20.403 10.8929 20.3813 8.7538 20.3813H5.79079V18.7191V17.0569H10.5966C14.1595 17.0569 15.4458 17.0352 15.5832 16.9702C15.7927 16.8763 15.9806 16.5727 15.9806 16.3342C15.9806 16.0958 15.7927 15.7922 15.5832 15.6983C15.3158 15.5754 5.01029 15.5754 4.7429 15.6983C4.32374 15.8862 4.34542 15.3369 4.34542 25.8737V35.5576H2.90005H1.45469V23.7562L1.46191 11.962L9.9679 6.78036C14.6437 3.92576 18.5173 1.60594 18.5678 1.62762C18.6184 1.6493 22.4631 3.98357 27.1172 6.80927ZM10.8496 24.356V26.8854H8.32019H5.79079V24.356V21.8266H8.32019H10.8496V24.356ZM8.68153 29.1257C8.68153 30.0002 8.7538 30.2387 9.0501 30.3977C9.42589 30.5928 9.88118 30.4555 10.0402 30.1014C10.0908 29.993 10.1269 29.581 10.1269 29.1257V28.3308H11.5723H13.0176V31.9442V35.5576H9.40421H5.79079V31.9442V28.3308H7.23616H8.68153V29.1257ZM17.3537 29.1257C17.3537 30.0002 17.426 30.2387 17.7223 30.3977C18.0981 30.5928 18.5534 30.4555 18.7124 30.1014C18.763 29.993 18.7991 29.581 18.7991 29.1257V28.3308H20.2445H21.6898V31.9442V35.5576H18.0764H14.463V31.9442V28.3308H15.9084H17.3537V29.1257Z" fill="#3D8CD1"/>
<path d="M17.831 6.57791C17.3757 6.69354 16.7253 7.08379 16.4074 7.42345C16.2484 7.59689 16.0099 7.95823 15.887 8.22563C15.6774 8.66646 15.6558 8.77487 15.6558 9.4036C15.6558 10.054 15.6702 10.1191 15.9232 10.6394C16.2484 11.297 16.6675 11.7017 17.3396 12.0197C17.7805 12.2293 17.8889 12.251 18.5104 12.251C19.1319 12.251 19.2403 12.2293 19.6811 12.0197C20.3532 11.7017 20.7724 11.297 21.0976 10.6394C21.3505 10.1191 21.365 10.054 21.365 9.39637C21.365 8.73873 21.3505 8.67369 21.0976 8.15336C20.6061 7.17051 19.7389 6.58513 18.6694 6.53455C18.3658 6.52009 17.99 6.54177 17.831 6.57791ZM19.3053 8.19672C19.7317 8.47857 19.9196 8.83991 19.9196 9.39637C19.9196 9.96007 19.7317 10.3142 19.2836 10.6105C18.8789 10.8779 18.1779 10.8923 17.766 10.6322C17.2168 10.2925 16.9638 9.62041 17.13 8.97722C17.2312 8.60865 17.6721 8.13168 18.0189 8.0305C18.402 7.91487 18.9946 7.98714 19.3053 8.19672Z" fill="#3D8CD1"/>
<path d="M18.156 15.7127C17.5273 16.0596 17.7947 17.0569 18.5101 17.0569C18.8787 17.0569 19.2328 16.7028 19.2328 16.3414C19.2328 15.7994 18.633 15.4453 18.156 15.7127Z" fill="#3D8CD1"/>
</svg>
