<svg width="51" height="51" viewBox="0 0 51 51" fill="none" xmlns="http://www.w3.org/2000/svg">
<path d="M12.9095 5.66777C10.6583 6.75351 8.90516 7.65996 8.72586 7.82929C8.50672 8.04843 8.14813 8.76562 7.4409 10.4092C6.90301 11.6742 6.47469 12.8197 6.47469 12.9691C6.47469 13.5469 7.20184 13.8557 7.65008 13.4672C7.75965 13.3775 8.23778 12.4014 8.70594 11.3057L9.55262 9.31347L9.88133 9.3334C10.21 9.35332 23.6872 12.999 23.7768 13.0887C23.8067 13.1086 23.1692 17.6309 22.3624 23.1293L20.8981 33.1201L18.8263 35.2119C16.9735 37.0746 16.7345 37.3535 16.6249 37.7818L16.4954 38.25H11.3456C7.35125 38.25 6.17586 38.2201 6.10614 38.1205C6.05633 38.0607 4.99051 35.7896 3.73543 33.0902L1.46434 28.1795L4.03426 22.183C5.60809 18.5174 6.60418 16.067 6.59422 15.8877C6.58426 15.3598 5.88699 15.041 5.44871 15.3598C5.3491 15.4295 4.10399 18.2186 2.66961 21.5654C0.298908 27.0838 0.0498847 27.6914 0.0598456 28.1895C0.0598456 28.6975 0.249103 29.1457 2.42059 33.8174C4.6618 38.6285 5.01043 39.276 5.5284 39.5748C5.66785 39.6645 7.35125 39.7043 11.3954 39.7441L17.0632 39.7939L17.9497 41.7861C18.4378 42.8818 18.9259 43.8779 19.0454 43.9975C19.1649 44.117 19.4339 44.2863 19.663 44.376C20.2108 44.5752 35.0925 47.2148 35.6802 47.2148C36.2977 47.2148 47.7827 45.7406 48.1612 45.6211C48.7688 45.4119 49.0577 44.9736 50.004 42.8619C50.512 41.7463 50.9403 40.6605 50.9702 40.4613C50.9901 40.2322 50.6813 38.4393 50.1235 35.69C49.3466 31.8352 49.1972 31.2375 48.9681 30.9387C48.7987 30.7096 47.8823 30.082 46.3384 29.1258C45.0434 28.3189 43.9079 27.5818 43.8182 27.4922C43.6987 27.3527 43.6489 26.8348 43.5493 25.002L43.4397 22.6811L42.9218 21.1271C42.4636 19.7625 42.354 19.5234 41.9954 19.1648C41.4974 18.6568 41.3878 18.627 38.5389 18.1687L36.2778 17.8102L36.238 17.3121C36.1782 16.7244 35.9093 16.4057 35.471 16.4057C35.0327 16.4057 34.7638 16.6846 34.7638 17.1527C34.7638 17.591 34.8136 17.5811 33.6481 17.3818C32.5923 17.2125 32.1938 17.2723 31.5962 17.6707C30.9886 18.0791 30.8292 18.4277 30.0423 20.9678L29.4048 23.0596L29.3151 25.8287C29.2554 27.3428 29.1856 28.6178 29.1557 28.6576C29.1159 28.6875 28.3589 28.8668 27.4723 29.0561C24.0557 29.7533 24.4641 29.6039 23.5378 30.5104C23.0796 30.9486 22.711 31.2475 22.711 31.1578C22.711 31.0781 23.3087 26.9145 24.0458 21.9041L25.3905 12.7898L27.3927 9.63222L29.4048 6.48457L31.7655 8.45683L34.1263 10.4391L34.2856 12.232C34.3753 13.2281 34.5048 14.1246 34.5645 14.2342C34.7936 14.6725 35.6104 14.6127 35.8296 14.1445C35.979 13.8059 35.6602 10.2398 35.4311 9.81152C35.2319 9.41308 35.0028 9.21386 32.2735 6.92285C30.9886 5.84707 29.7534 4.88086 29.5343 4.78125C29.2056 4.63183 28.1098 4.52226 23.5577 4.19355C20.4897 3.96445 17.7106 3.78515 17.3819 3.79511C16.8141 3.79511 16.5751 3.90468 12.9095 5.66777ZM22.8604 5.63789C25.5997 5.83711 27.8509 6.0164 27.8708 6.02636C27.8907 6.04629 24.5638 11.3555 24.3546 11.6344C24.3347 11.6543 12.0528 8.34726 11.5548 8.17793C11.3257 8.09824 11.3655 8.06836 12.0528 7.73965C12.7102 7.43086 13.6764 6.97265 16.4356 5.63789C16.844 5.43867 17.3321 5.27929 17.5313 5.27929C17.7206 5.27929 20.1212 5.43867 22.8604 5.63789ZM36.8755 19.4238C38.9374 19.7525 40.6905 20.0514 40.7802 20.0812C41.0093 20.1709 41.1089 20.3801 41.5472 21.7049C41.9755 22.9799 42.0153 23.3086 41.7663 23.5277C41.4974 23.7469 34.1761 26.3168 34.0366 26.2371C33.8075 26.0977 31.5264 24.2748 31.2077 23.976C31.0284 23.8066 30.879 23.5875 30.879 23.4978C30.879 23.3285 31.8452 20.1111 32.1241 19.3641C32.2835 18.9357 32.5823 18.7166 32.921 18.7863C33.0306 18.8062 34.8036 19.0951 36.8755 19.4238ZM42.2245 27.8807C42.3141 29.7234 42.3141 30.0521 42.1847 30.2414C42.105 30.3609 41.9655 30.4904 41.8659 30.5203C41.338 30.6697 34.445 32.0842 34.4151 32.0543C34.3753 32.0145 34.6542 27.7611 34.704 27.7213C34.7139 27.7014 36.3575 27.1137 38.3597 26.4064L41.9854 25.1215L42.0552 25.4303C42.095 25.6096 42.1647 26.7053 42.2245 27.8807ZM32.0544 26.5957C33.0604 27.4125 33.17 27.532 33.17 27.8209C33.16 28.0699 32.9011 31.7256 32.8811 31.8551C32.8612 31.9248 30.8989 30.8789 30.7893 30.7395C30.6798 30.61 30.6698 30.102 30.7296 28.1396C30.7694 26.7949 30.8292 25.6992 30.869 25.6992C30.8989 25.6992 31.4368 26.1076 32.0544 26.5957ZM45.4917 30.351C46.7268 31.118 47.0057 31.3271 46.8962 31.4268C46.8265 31.4965 45.671 32.2635 44.3263 33.1201C42.9815 33.9867 41.7862 34.7836 41.6667 34.8932C41.2085 35.3016 41.5272 36.1582 42.1349 36.1582C42.3042 36.1582 43.36 35.5307 45.163 34.3652C46.687 33.3691 47.9421 32.5723 47.962 32.5922C47.972 32.6121 48.3206 34.3553 48.7489 36.477L49.5159 40.3318L48.6991 42.1547C48.2509 43.1607 47.8325 44.0373 47.7628 44.107C47.6333 44.2564 36.2878 45.7506 36.2181 45.6311C36.1284 45.4717 35.3514 40.9195 35.3913 40.81C35.4212 40.7303 36.3973 40.0529 37.5727 39.3059C38.7382 38.5488 39.794 37.8217 39.9235 37.6822C40.0431 37.5527 40.1427 37.3336 40.1427 37.1941C40.1427 36.8854 39.7243 36.457 39.4255 36.457C39.296 36.457 38.1106 37.1543 36.7261 38.0607L34.2557 39.6545L27.6616 39.8437C24.0358 39.9533 20.5595 40.043 19.9419 40.043H18.8163L18.4876 39.3059C18.2983 38.8975 18.119 38.4691 18.0792 38.3496C18.0194 38.1604 18.4975 37.6424 21.5257 34.6043L25.0518 31.0781L26.9743 30.6797C28.0302 30.4605 28.9565 30.2812 29.0362 30.2812C29.1358 30.2812 29.1856 30.3809 29.1856 30.5502C29.1956 30.9387 29.5044 31.5762 29.8431 31.8949C30.0024 32.0344 30.8292 32.5025 31.6759 32.9209C32.9807 33.5783 33.2895 33.6979 33.7179 33.6979C34.2956 33.6979 42.1249 32.0344 42.613 31.8053C43.3003 31.4766 43.8282 30.59 43.8282 29.7434C43.8282 29.5441 43.8581 29.3848 43.888 29.3848C43.9179 29.3848 44.645 29.8131 45.4917 30.351ZM33.8673 41.1686C33.8673 41.1785 34.0466 42.1746 34.2657 43.3799C34.4848 44.5752 34.6542 45.5613 34.6343 45.5713C34.6243 45.5912 31.6759 45.0732 28.0899 44.4258C24.504 43.7783 21.2468 43.2006 20.8583 43.1408L20.1411 43.0213L19.8223 42.324C19.643 41.9355 19.5136 41.6068 19.5335 41.5969C19.5534 41.577 22.4919 41.4873 26.0479 41.3977C29.6139 41.308 32.662 41.2184 32.8214 41.1984C33.2895 41.1586 33.8673 41.1387 33.8673 41.1686Z" fill="#3D8CD1"/>
<path d="M36.3973 20.908C36.1383 21.0176 35.8594 21.3961 35.8594 21.6252C35.8594 21.7148 35.949 21.9041 36.0686 22.0535C36.2578 22.2926 36.3375 22.3125 36.965 22.3125C37.752 22.3125 38.0508 22.1232 38.0508 21.6252C38.0508 21.1371 37.7619 20.8881 37.1443 20.8582C36.8455 20.8383 36.5068 20.8582 36.3973 20.908Z" fill="#3D8CD1"/>
<path d="M27.034 34.4051C26.5559 34.6143 26.4363 35.202 26.7949 35.5605C26.9543 35.7199 27.1236 35.7598 27.6914 35.7598C28.2691 35.7598 28.4086 35.7299 28.5879 35.5406C29.2852 34.7836 28.1197 33.9369 27.034 34.4051Z" fill="#3D8CD1"/>
<path d="M30.5305 36.3475C30.0424 36.5566 29.893 37.1742 30.2316 37.5527C30.381 37.7121 30.5404 37.752 31.0683 37.752C31.915 37.752 32.174 37.5926 32.174 37.0646C32.174 36.5467 31.915 36.3275 31.2476 36.2877C30.9687 36.2777 30.64 36.2977 30.5305 36.3475Z" fill="#3D8CD1"/>
<path d="M11.8735 14.9414C11.5747 15.2203 11.5846 15.7383 11.8835 16.0172C12.0628 16.1865 12.2421 16.2363 12.6704 16.2363C13.3776 16.2363 13.5171 16.1766 13.7063 15.818C13.8358 15.5689 13.8358 15.4693 13.7362 15.2303C13.5768 14.8318 13.3676 14.7422 12.6803 14.7422C12.2221 14.7422 12.0428 14.792 11.8735 14.9414Z" fill="#3D8CD1"/>
<path d="M14.5032 26.6057C14.1745 26.8647 14.1446 27.3926 14.4435 27.6914C14.7224 27.9703 15.8081 27.9803 16.1468 27.7113C16.4755 27.4424 16.4456 26.9344 16.097 26.6256C15.7284 26.3168 14.8917 26.2969 14.5032 26.6057Z" fill="#3D8CD1"/>
<path d="M5.51837 27.532C5.04024 27.7512 4.92071 28.3289 5.2793 28.6875C5.43868 28.8469 5.60801 28.8867 6.16583 28.8867C6.79337 28.8867 6.87305 28.8668 7.06231 28.6277C7.33126 28.2891 7.3213 28.06 7.05235 27.7412C6.76348 27.4225 5.99649 27.3129 5.51837 27.532Z" fill="#3D8CD1"/>
<path d="M16.4955 29.6936C16.1568 29.9625 16.1369 30.4805 16.4556 30.7793C16.625 30.9287 16.8043 30.9785 17.2426 30.9785C17.9697 30.9785 18.0992 30.9287 18.2884 30.5602C18.4179 30.3111 18.4179 30.2115 18.3183 29.9725C18.159 29.584 17.9498 29.4844 17.3023 29.4844C16.9039 29.4844 16.6947 29.5441 16.4955 29.6936Z" fill="#3D8CD1"/>
<path d="M12.9493 33.0703C12.6505 33.3691 12.6804 33.8971 13.0091 34.1561C13.3079 34.3951 14.0649 34.4449 14.4833 34.2557C14.812 34.1063 14.9814 33.6879 14.8519 33.3393C14.7124 32.9807 14.4534 32.8711 13.7562 32.8711C13.278 32.8711 13.1087 32.9109 12.9493 33.0703Z" fill="#3D8CD1"/>
</svg>
