<svg width="49" height="49" viewBox="0 0 49 49" fill="none" xmlns="http://www.w3.org/2000/svg">
<g clip-path="url(#clip0_740_11369)">
<path d="M25.6582 12.964C25.3736 13.0684 24.9656 13.2771 24.7568 13.429C24.1495 13.8465 17.6404 20.441 17.3747 20.9154C17.0616 21.4562 16.8339 22.3292 16.8339 22.9744C16.8339 23.3729 16.8054 23.4773 16.6821 23.4773C16.4639 23.4773 4.42293 26.2954 3.92952 26.4662C3.02812 26.7698 2.11722 27.6807 1.76614 28.6201C1.66177 28.8952 1.31069 30.698 0.978597 32.6147C0.428263 35.8313 0.390309 36.135 0.504171 36.5525C0.655988 37.1313 1.03553 37.6057 1.5574 37.8714C1.95591 38.0801 2.08875 38.0896 3.90106 38.0896C5.75132 38.0896 5.82723 38.0801 6.017 37.8809C6.22574 37.6531 6.2637 37.3305 6.11188 37.0459C5.95058 36.7422 5.47615 36.6663 3.82515 36.6663C2.34494 36.6663 2.20262 36.6473 2.03182 36.4766C1.92745 36.3722 1.84205 36.2204 1.84205 36.135C1.84205 35.708 3.01863 29.2748 3.14198 29.0281C3.41714 28.4967 3.65436 28.2215 4.07185 27.9748L4.48935 27.7376L8.076 29.2653C10.2014 30.1857 11.9283 30.8594 12.3269 30.9448L13.01 31.0966L13.5129 32.0075C13.7976 32.5009 14.1012 32.9848 14.1961 33.0797C14.4143 33.2979 14.9552 33.2979 15.1449 33.0797C15.4486 32.7381 15.4391 32.5104 15.088 31.8841C14.8982 31.552 14.7464 31.2484 14.7464 31.2199C14.7464 31.1535 18.1149 31.163 21.8154 31.2484L24.4722 31.3053L24.6904 31.7323C24.8896 32.1308 24.8991 32.2637 24.8991 34.2562C24.8991 36.1539 24.8802 36.3627 24.7283 36.505C24.567 36.6473 23.808 36.6663 16.5587 36.6853L8.55992 36.7138L8.33219 36.9794C8.05703 37.3021 8.04754 37.5108 8.30373 37.8429L8.4935 38.0896H16.6536C24.5386 38.0896 24.8232 38.0801 25.1743 37.9093C25.6392 37.6626 26.0947 37.1407 26.2275 36.6948C26.3034 36.4576 26.3224 35.5467 26.3034 34.057L26.275 31.7797L25.9713 31.1345C25.6962 30.5557 25.3451 30.1667 22.6978 27.4814C21.0658 25.8304 19.5856 24.3597 19.4148 24.2174C19.244 24.0846 18.9119 23.8853 18.6747 23.7904L18.2382 23.6196L18.2762 22.908C18.3046 22.4146 18.39 22.0635 18.5418 21.7694C18.6652 21.5132 19.4338 20.6592 20.43 19.6534C23.1722 16.8733 23.0394 16.9302 26.6925 16.9302C28.9318 16.9302 29.3208 16.9492 29.8237 17.1105C30.5638 17.3382 31.2754 17.7937 31.6739 18.2966C31.8447 18.5053 32.9928 20.3461 34.2169 22.3861L36.4561 26.0866L36.6175 27.396C36.7693 28.5726 36.8072 28.7149 37.0255 28.8857C37.3481 29.1419 37.6707 29.123 37.9648 28.8288C38.1641 28.6201 38.1925 28.5347 38.1451 28.1931C37.9838 26.988 37.9743 26.7983 38.0787 26.7983C38.1451 26.7983 38.7903 26.9501 39.5114 27.1304C40.5077 27.3771 40.8873 27.4435 41.0676 27.3676C41.523 27.1968 41.6464 26.5895 41.2953 26.2479C41.1435 26.1151 40.5362 25.9158 39.3217 25.6122L37.5663 25.1662L35.2891 21.4088C32.7556 17.2054 32.3476 16.693 31.1426 16.1047C30.0799 15.5828 29.5865 15.5069 26.9392 15.5069H24.5765L24.994 15.08C25.2312 14.8427 25.6298 14.5391 25.8859 14.4158L26.3604 14.1785H33.5052C41.2478 14.1785 40.9442 14.1596 41.6464 14.6909C41.8077 14.8143 42.0639 15.1464 42.2157 15.4215L42.5003 15.9339L42.5478 18.2586L42.5952 20.5833L42.8609 21.0293C43.0317 21.3139 43.8382 22.1299 45.1097 23.297C47.5103 25.4889 47.5767 25.5932 47.5767 27.007V27.9369L47.1117 27.7092C46.4665 27.3771 44.1039 26.7888 43.8382 26.8932C43.5346 27.007 43.3733 27.2442 43.3733 27.5574C43.3733 28.0413 43.601 28.1836 44.9484 28.5062C46.3811 28.8668 46.5614 28.9427 46.9789 29.3791C47.4533 29.8725 47.5767 30.2711 47.5767 31.3433C47.5767 32.1213 47.5482 32.3206 47.3964 32.5009L47.2161 32.7286L43.8762 32.7571L40.5267 32.7855L39.4545 32.349C38.5626 31.998 38.2685 31.9221 37.7561 31.9221C37.0729 31.9221 36.3233 32.1593 35.8109 32.5388L35.4883 32.776H32.063C28.742 32.776 28.6186 32.7855 28.4573 32.9658C28.2201 33.2315 28.2391 33.6869 28.4953 33.9431C28.6945 34.1519 28.761 34.1519 31.5885 34.1803L34.473 34.2088L34.3782 34.465C34.2643 34.7591 34.2358 36.135 34.3307 36.4576C34.3971 36.6663 34.3971 36.6663 33.268 36.6663C31.9965 36.6663 31.617 36.7612 31.4557 37.1028C31.3039 37.4349 31.3229 37.5488 31.5506 37.8429L31.7404 38.0896H37.0824H42.4149L42.8324 37.8809C43.0791 37.748 43.3733 37.4918 43.5441 37.2546C43.8097 36.8656 43.8287 36.7802 43.8287 36.0211C43.8287 35.3 43.8003 35.1387 43.5725 34.7307C43.4207 34.4745 43.3069 34.2562 43.3069 34.2468C43.3069 34.2278 44.2367 34.1993 45.3753 34.1803C47.6905 34.1424 47.9372 34.076 48.5066 33.3928C48.9715 32.8235 49 32.5768 49 29.1894C49 26.3333 48.981 26.0012 48.8102 25.4509C48.7058 25.1093 48.4971 24.6634 48.3453 24.4546C48.1934 24.2459 47.1971 23.2685 46.1249 22.3007C45.0622 21.3234 44.1418 20.422 44.0754 20.2892C44.009 20.1373 43.9711 19.3877 43.9711 18.2301C43.9711 16.9966 43.9236 16.1996 43.8287 15.7536C43.582 14.5676 42.8229 13.6092 41.7033 13.0684L41.1719 12.8027L33.676 12.7837C26.256 12.7648 26.1706 12.7648 25.6582 12.964ZM18.1054 25.0903C18.3426 25.2042 19.3673 26.1531 20.7716 27.5574L23.0489 29.8346H22.1C19.2345 29.8251 12.8772 29.6353 12.5356 29.5405C12.0232 29.4076 6.94687 27.2537 7.0038 27.1968C7.03227 27.1778 9.17667 26.6559 11.7765 26.0392C16.8813 24.8341 17.4127 24.7488 18.1054 25.0903ZM40.0428 34.1234C41.7887 34.8256 42.0259 34.9394 42.2252 35.243C42.377 35.4613 42.4529 35.708 42.4529 35.9737C42.4529 36.6853 42.5478 36.6663 39.0845 36.6663H36.0007L35.8489 36.4291C35.735 36.2583 35.6971 35.9926 35.6971 35.5182C35.7066 34.7022 35.9817 34.1614 36.5985 33.7439C37.4524 33.1556 37.6707 33.1746 40.0428 34.1234Z" fill="#3D8CD1"/>
<path d="M28.6948 39.2947C28.6189 39.3232 26.9394 39.9874 24.9658 40.7749C21.0471 42.331 20.8193 42.4544 20.1646 43.4792C19.4815 44.5419 19.2632 46.0221 19.6143 47.0753C19.8325 47.6921 20.4208 48.3657 21.0471 48.6978L21.531 48.954L31.01 48.9825L40.489 49.0015L40.7168 48.7927C41.1058 48.4322 40.9635 47.8628 40.4511 47.6826C40.2518 47.6161 39.1606 47.5782 37.3958 47.5782C34.8149 47.5782 34.6536 47.5687 34.72 47.4074C35.0236 46.7147 35.0806 46.3731 35.128 45.3484C35.147 44.6557 35.128 43.9915 35.0521 43.6594C34.5682 41.3253 31.9589 39.2093 29.5772 39.2378C29.1692 39.2378 28.7707 39.2663 28.6948 39.2947ZM30.972 40.9552C32.1581 41.5055 33.2683 42.6442 33.5814 43.6594C33.8281 44.4375 33.7522 46.1359 33.4486 46.7527C33.0216 47.6351 33.3916 47.5877 27.2051 47.5592C21.8631 47.5307 21.7777 47.5307 21.512 47.3315C20.7719 46.7812 20.6485 45.6995 21.1799 44.6083C21.3602 44.2477 21.6448 43.8587 21.8346 43.6974C22.0623 43.5076 23.4002 42.9193 25.611 42.0274L29.0269 40.6516L29.7385 40.68C30.2509 40.699 30.602 40.7844 30.972 40.9552Z" fill="#3D8CD1"/>
<path d="M39.9195 41.79C39.483 41.9703 39.3786 42.5776 39.7297 42.9097C40.3654 43.5075 41.3238 42.6535 40.7734 41.9988C40.5742 41.7616 40.2041 41.6667 39.9195 41.79Z" fill="#3D8CD1"/>
</g>
<defs>
<clipPath id="clip0_740_11369">
<rect width="49" height="49" fill="white"/>
</clipPath>
</defs>
</svg>
