<svg width="42" height="42" viewBox="0 0 42 42" fill="none" xmlns="http://www.w3.org/2000/svg">
<path d="M20.4991 7.00933C13.6166 11.1739 6.15913 15.7743 6.09255 15.8893C5.97754 16.0891 5.96543 36.918 6.08044 37.1601C6.24388 37.5173 5.16036 37.4931 21.5039 37.4931C37.8474 37.4931 36.7639 37.5173 36.9274 37.1601C36.9818 37.0391 37 34.521 37 26.5308C37 17.5963 36.9879 16.0346 36.9153 15.8954C36.8487 15.7743 35.0872 14.6726 30.2749 11.7369C21.3163 6.2769 21.6915 6.50087 21.5039 6.50087C21.4071 6.50087 21.0015 6.70667 20.4991 7.00933ZM28.7132 12.2029L35.7894 16.5189V26.3976V36.2824H34.5787H33.3681V28.1712C33.3681 22.0151 33.3499 20.0297 33.2955 19.9086C33.1381 19.5696 33.2652 19.5757 28.5014 19.5757C25.2266 19.5757 24.0704 19.5939 23.9554 19.6483C23.7799 19.727 23.6225 19.9813 23.6225 20.181C23.6225 20.3808 23.7799 20.635 23.9554 20.7137C24.0704 20.7682 25.1479 20.7863 28.1321 20.7863H32.1575V28.5344V36.2824H28.7677H25.3779V32.8927C25.3779 29.2063 25.3779 29.2426 25.045 29.0913C24.93 29.0368 23.792 29.0186 20.5959 29.0186H16.2982V26.5368C16.2982 23.8371 16.2921 23.7887 15.9653 23.6434C15.8502 23.5889 15.1239 23.5708 13.3321 23.5708H10.8503V22.1786V20.7863H14.8757C17.8599 20.7863 18.9374 20.7682 19.0524 20.7137C19.2279 20.635 19.3853 20.3808 19.3853 20.181C19.3853 19.9813 19.2279 19.727 19.0524 19.6483C18.8284 19.5454 10.1966 19.5454 9.97263 19.6483C9.62154 19.8057 9.6397 19.3457 9.6397 28.1712V36.2824H8.42907H7.21844V26.3976L7.22449 16.5189L14.3491 12.1787C18.2655 9.78773 21.51 7.84467 21.5523 7.86283C21.5947 7.88099 24.815 9.83616 28.7132 12.2029ZM15.0875 26.9V29.0186H12.9689H10.8503V26.9V24.7814H12.9689H15.0875V26.9ZM13.2716 30.8951C13.2716 31.6275 13.3321 31.8273 13.5803 31.9605C13.8951 32.1239 14.2764 32.0089 14.4096 31.7123C14.452 31.6215 14.4822 31.2765 14.4822 30.8951V30.2293H15.6929H16.9035V33.2558V36.2824H13.8769H10.8503V33.2558V30.2293H12.061H13.2716V30.8951ZM20.5354 30.8951C20.5354 31.6275 20.5959 31.8273 20.8441 31.9605C21.1589 32.1239 21.5402 32.0089 21.6734 31.7123C21.7158 31.6215 21.746 31.2765 21.746 30.8951V30.2293H22.9567H24.1673V33.2558V36.2824H21.1407H18.1141V33.2558V30.2293H19.3248H20.5354V30.8951Z" fill="#3D8CD1"/>
<path d="M20.9353 12.0093C20.5539 12.1061 20.0091 12.433 19.7428 12.7175C19.6096 12.8627 19.4099 13.1654 19.307 13.3894C19.1314 13.7586 19.1133 13.8494 19.1133 14.376C19.1133 14.9208 19.1254 14.9753 19.3372 15.4111C19.6096 15.962 19.9607 16.3009 20.5237 16.5673C20.8929 16.7428 20.9837 16.761 21.5043 16.761C22.0249 16.761 22.1156 16.7428 22.4849 16.5673C23.0478 16.3009 23.3989 15.962 23.6713 15.4111C23.8832 14.9753 23.8953 14.9208 23.8953 14.37C23.8953 13.8191 23.8832 13.7647 23.6713 13.3288C23.2597 12.5056 22.5333 12.0153 21.6375 11.9729C21.3832 11.9608 21.0685 11.979 20.9353 12.0093ZM22.1701 13.3652C22.5273 13.6012 22.6846 13.9039 22.6846 14.37C22.6846 14.8421 22.5273 15.1387 22.152 15.3869C21.813 15.6109 21.2258 15.623 20.8808 15.4051C20.4208 15.1206 20.2089 14.5576 20.3481 14.0189C20.4329 13.7102 20.8021 13.3107 21.0927 13.2259C21.4135 13.1291 21.9098 13.1896 22.1701 13.3652Z" fill="#3D8CD1"/>
<path d="M21.2075 19.6605C20.6809 19.951 20.9049 20.7864 21.5041 20.7864C21.8129 20.7864 22.1095 20.4898 22.1095 20.1871C22.1095 19.7331 21.6071 19.4365 21.2075 19.6605Z" fill="#3D8CD1"/>
</svg>
