<svg width="42" height="42" viewBox="0 0 42 42" fill="none" xmlns="http://www.w3.org/2000/svg">
<g clip-path="url(#clip0_740_11447)">
<path d="M19.6381 0.689079C10.3112 6.33283 0.204913 12.5672 0.114679 12.7231C-0.0411807 12.9938 -0.0575869 41.2207 0.0982724 41.5488C0.319757 42.0328 -1.1486 42 20.9998 42C43.1483 42 41.6799 42.0328 41.9014 41.5488C41.9752 41.3848 41.9998 37.9723 41.9998 27.1442C41.9998 15.0363 41.9834 12.9199 41.885 12.7313C41.7948 12.5672 39.4076 11.0742 32.8862 7.09572C20.7455 -0.303499 21.2541 1.67846e-05 20.9998 1.67846e-05C20.8686 1.67846e-05 20.319 0.278923 19.6381 0.689079ZM30.7698 7.72736L40.3592 13.5762V26.9637V40.3594H38.7186H37.078V29.3672C37.078 21.0246 37.0534 18.334 36.9795 18.1699C36.7662 17.7106 36.9385 17.7188 30.4826 17.7188C26.0448 17.7188 24.478 17.7434 24.3221 17.8172C24.0842 17.9238 23.8709 18.2684 23.8709 18.5391C23.8709 18.8098 24.0842 19.1543 24.3221 19.261C24.478 19.3348 25.9381 19.3594 29.9823 19.3594H35.4373V29.8594V40.3594H30.8436H26.2498V35.7656C26.2498 30.7699 26.2498 30.8192 25.7987 30.6141C25.6428 30.5403 24.1006 30.5156 19.7694 30.5156H13.9451V27.1524C13.9451 23.4938 13.9369 23.4281 13.494 23.2313C13.3381 23.1574 12.3537 23.1328 9.92562 23.1328H6.56233V21.2461V19.3594H12.0174C16.0616 19.3594 17.5217 19.3348 17.6776 19.261C17.9155 19.1543 18.1287 18.8098 18.1287 18.5391C18.1287 18.2684 17.9155 17.9238 17.6776 17.8172C17.3741 17.6778 5.6764 17.6778 5.37288 17.8172C4.8971 18.0305 4.92171 17.4071 4.92171 29.3672V40.3594H3.28108H1.64046V26.9637L1.64866 13.5762L11.3037 7.69455C16.6112 4.45431 21.008 1.82111 21.0655 1.84572C21.1229 1.87033 25.4869 4.51994 30.7698 7.72736ZM12.3045 27.6446V30.5156H9.43343H6.56233V27.6446V24.7735H9.43343H12.3045V27.6446ZM9.84358 33.0586C9.84358 34.0512 9.92562 34.3219 10.2619 34.5024C10.6885 34.7238 11.2053 34.568 11.3858 34.166C11.4432 34.043 11.4842 33.5754 11.4842 33.0586V32.1563H13.1248H14.7655V36.2578V40.3594H10.6639H6.56233V36.2578V32.1563H8.20296H9.84358V33.0586ZM19.6873 33.0586C19.6873 34.0512 19.7694 34.3219 20.1057 34.5024C20.5323 34.7238 21.0491 34.568 21.2295 34.166C21.2869 34.043 21.328 33.5754 21.328 33.0586V32.1563H22.9686H24.6092V36.2578V40.3594H20.5076H16.4061V36.2578V32.1563H18.0467H19.6873V33.0586Z" fill="#3D8CD1"/>
<path d="M20.2289 7.46484C19.7121 7.59609 18.9738 8.03906 18.6129 8.42461C18.4324 8.62149 18.1617 9.03164 18.0223 9.33516C17.7844 9.83555 17.7598 9.95859 17.7598 10.6723C17.7598 11.4105 17.7762 11.4844 18.0633 12.075C18.4324 12.8215 18.9082 13.2809 19.6711 13.6418C20.1715 13.8797 20.2945 13.9043 21 13.9043C21.7055 13.9043 21.8285 13.8797 22.3289 13.6418C23.0918 13.2809 23.5676 12.8215 23.9367 12.075C24.2238 11.4844 24.2402 11.4105 24.2402 10.6641C24.2402 9.91758 24.2238 9.84375 23.9367 9.25313C23.3789 8.1375 22.3945 7.47305 21.1805 7.41563C20.8359 7.39922 20.4094 7.42383 20.2289 7.46484ZM21.9023 9.30234C22.3863 9.62227 22.5996 10.0324 22.5996 10.6641C22.5996 11.3039 22.3863 11.7059 21.8777 12.0422C21.4184 12.3457 20.6227 12.3621 20.1551 12.0668C19.5316 11.6813 19.2445 10.9184 19.4332 10.1883C19.548 9.76992 20.0484 9.22852 20.4422 9.11367C20.877 8.98242 21.5496 9.06445 21.9023 9.30234Z" fill="#3D8CD1"/>
<path d="M20.5978 17.8336C19.8841 18.2273 20.1876 19.3594 20.9998 19.3594C21.4181 19.3594 21.8201 18.9574 21.8201 18.5473C21.8201 17.932 21.1392 17.5301 20.5978 17.8336Z" fill="#3D8CD1"/>
</g>
<defs>
<clipPath id="clip0_740_11447">
<rect width="42" height="42" fill="white"/>
</clipPath>
</defs>
</svg>
