<svg width="53" height="53" viewBox="0 0 53 53" fill="none" xmlns="http://www.w3.org/2000/svg">
<g clip-path="url(#clip0_740_11505)">
<path d="M21.0654 0.0932534C20.2373 0.310636 19.6162 0.766105 18.1774 2.21532C16.5315 3.89228 16.5729 3.86122 14.2231 4.38915C12.0492 4.86532 11.0865 5.61064 10.4965 7.27724C10.4137 7.50497 10.217 8.29169 10.041 9.037C9.8754 9.78232 9.61661 10.569 9.48204 10.8071C9.34747 11.0452 8.62286 11.8216 7.87755 12.5358C6.73888 13.6434 6.46974 13.954 6.19024 14.5544C5.8797 15.1962 5.84864 15.3618 5.85899 16.1485C5.86934 16.8731 5.94181 17.2665 6.30411 18.4259C6.8838 20.2581 6.93556 20.8999 6.5836 22.0489C5.94181 24.1503 5.77618 24.8749 5.82794 25.5477C5.9004 26.5829 6.34552 27.3489 7.48419 28.4358C9.62696 30.4958 9.58556 30.4337 10.1031 32.5868C10.2998 33.4253 10.5793 34.3466 10.7139 34.6468C11.2522 35.8372 12.277 36.5515 14.0264 36.9655C14.544 37.0794 14.9684 37.1933 14.9891 37.214C15.0098 37.2347 14.0678 39.9778 12.8981 43.3214C11.7283 46.6649 10.7656 49.4702 10.7656 49.5427C10.7656 49.6151 10.8795 49.8015 11.0037 49.9567C11.3246 50.3294 11.4695 50.319 13.9643 49.7911C15.9 49.377 15.9828 49.3667 16.1484 49.553C16.2416 49.6565 16.9145 50.4536 17.6391 51.3128C18.4465 52.2962 19.0469 52.9173 19.2022 52.9587C19.5334 53.0415 19.8543 52.9276 20.0199 52.6585C20.0924 52.5343 21.0654 49.8429 22.1627 46.6649L24.1709 40.9095L24.9473 40.661C26.1791 40.278 27.059 40.3298 28.7774 40.8784C29.9367 41.2511 30.3197 41.3339 31.0547 41.3442C32.3176 41.3649 32.9904 41.013 34.2326 39.7294C35.7647 38.1249 36.3754 37.5763 36.4789 37.6901C36.5203 37.7522 40.2469 48.3936 40.2262 48.4143C40.2158 48.4247 39.4188 48.2694 38.4561 48.0727C37.483 47.8761 36.5928 47.7415 36.4686 47.7726C36.3443 47.8036 35.7336 48.4454 35.0815 49.2321C34.2844 50.1948 33.891 50.5882 33.8496 50.495C33.8082 50.4226 33.2285 48.7974 32.566 46.8927C31.3342 43.3421 31.1479 42.9591 30.651 42.9591C30.299 42.9591 29.916 43.3628 29.916 43.7147C29.916 44.2323 32.8766 52.6067 33.1354 52.8138C33.3838 53.0208 33.6633 53.0519 33.9531 52.8966C34.0566 52.8448 34.7813 52.027 35.568 51.0851C36.3443 50.1431 37.0068 49.377 37.0379 49.377C37.0586 49.377 38.0006 49.5634 39.1186 49.8015C41.5926 50.319 41.6858 50.319 41.9963 49.9567C42.1205 49.8015 42.2344 49.6151 42.2344 49.5427C42.2344 49.4702 41.2717 46.6649 40.102 43.3214C38.9322 39.9778 37.9902 37.2347 38.0109 37.214C38.0316 37.1933 38.4664 37.0794 38.9736 36.9655C40.7231 36.5515 41.7479 35.8372 42.2861 34.6468C42.4207 34.3466 42.7002 33.4253 42.8969 32.5868C43.4145 30.4337 43.3731 30.4958 45.5158 28.4358C46.6545 27.3489 47.0996 26.5829 47.1721 25.5477C47.2238 24.8749 47.0582 24.1503 46.4164 22.0489C46.0748 20.8999 46.1162 20.2581 46.6856 18.4259C47.0479 17.2872 47.1307 16.8731 47.141 16.1485C47.1514 15.3515 47.1203 15.1962 46.8098 14.5544C46.5303 13.954 46.2611 13.6434 45.1225 12.5358C44.3772 11.8216 43.6525 11.0452 43.518 10.8071C43.3834 10.569 43.1246 9.78232 42.959 9.037C42.783 8.29169 42.5863 7.50497 42.5035 7.27724C41.9135 5.61064 40.9508 4.86532 38.777 4.38915C36.4272 3.86122 36.4686 3.89228 34.7813 2.18427C32.8973 0.289933 32.4936 0.0621987 31.1065 0.0621987C30.2887 0.0518472 29.9988 0.113957 28.7256 0.517668C26.7795 1.13876 26.1791 1.13876 24.2744 0.528019C22.8873 0.0829019 21.7072 -0.0827231 21.0654 0.0932534ZM24.0777 2.08075C25.382 2.49482 25.6098 2.52587 26.5518 2.52587C27.4731 2.51552 27.7422 2.46376 28.974 2.08075C31.4584 1.29403 31.8311 1.3665 33.2492 2.86747C35.2574 4.99989 35.7336 5.28974 37.9799 5.79696C40.6713 6.40771 40.7852 6.52157 41.5408 9.74091C41.9652 11.5524 42.2654 12.0183 44.2219 13.8401C44.6566 14.2438 45.1432 14.7718 45.3088 15.0202C45.7229 15.6413 45.6918 16.4384 45.2053 17.9601C44.46 20.2892 44.4496 20.9724 45.1328 23.1669C45.9402 25.8169 45.9402 25.8376 43.901 27.8458C42.1102 29.6159 41.9756 29.8436 41.4477 31.9968C41.0233 33.7358 40.9404 33.9946 40.6092 34.4501C40.2572 34.9263 39.574 35.2368 38.1559 35.5474C35.7336 36.096 35.2781 36.3548 33.5908 38.156C31.8104 40.0606 31.5309 40.1331 29.0051 39.3153C27.7733 38.9116 27.618 38.8909 26.5 38.8909C25.382 38.8909 25.2268 38.9116 23.9949 39.3153C21.4691 40.1331 21.1897 40.0606 19.4092 38.156C17.7012 36.3444 17.2664 36.0856 14.8441 35.5474C13.426 35.2368 12.7428 34.9263 12.3908 34.4501C12.0596 33.9946 11.9768 33.7358 11.5524 31.9968C11.0244 29.8436 10.8899 29.6159 9.09903 27.8458C7.05977 25.8376 7.04942 25.7962 7.8879 23.1669C8.28126 21.9143 8.32266 21.697 8.32266 20.7032C8.32266 19.7095 8.28126 19.4921 7.87755 18.2188C7.63946 17.4528 7.41173 16.5833 7.38067 16.2831C7.29786 15.5067 7.5877 14.9788 8.67462 13.9436C10.8174 11.9147 11.0969 11.4593 11.5938 9.22333C12.1838 6.59403 12.3908 6.387 15.0408 5.79696C17.2561 5.28974 17.7219 5.01025 19.7404 2.88818C20.2063 2.40165 20.7859 1.89443 21.0344 1.77021C21.6451 1.45966 22.2662 1.52177 24.0777 2.08075ZM17.0387 38.0007C17.2664 38.1663 17.7943 38.7046 18.2188 39.1808C19.6162 40.7231 20.4029 41.2304 21.6555 41.3753L22.3387 41.4581L20.7549 46.0024C19.875 48.4972 19.14 50.5571 19.1193 50.5882C19.0883 50.6089 18.55 49.9981 17.9186 49.2321C17.2664 48.4454 16.6557 47.8036 16.5315 47.7726C16.4072 47.7415 15.517 47.8761 14.5543 48.0727C13.5916 48.2798 12.7945 48.4351 12.7842 48.4143C12.7428 48.3626 16.5108 37.6798 16.5729 37.6798C16.6039 37.6798 16.8213 37.8247 17.0387 38.0007Z" fill="#3D8CD1"/>
<path d="M25.1025 5.85914C19.1607 6.51129 14.2437 10.4345 12.3804 16.0451C11.8422 17.6703 11.6558 18.84 11.6662 20.7033C11.6662 23.2394 12.1734 25.3511 13.2914 27.5043C17.1422 34.8746 26.1066 37.6902 33.4252 33.8498C37.4416 31.7277 40.2882 27.8459 41.1474 23.2912C41.4062 21.9662 41.4062 19.4611 41.1578 18.1154C40.8058 16.1797 39.9259 14.0058 38.8183 12.3703C38.0109 11.1798 37.6279 10.9625 37.1 11.4179C36.6859 11.7802 36.748 12.0804 37.4623 13.157C39.0875 15.5689 39.7707 17.7841 39.7914 20.5998C39.7914 22.3181 39.6672 23.2084 39.1703 24.7404C38.4871 26.8832 37.3898 28.6429 35.775 30.206C34.6466 31.2929 33.7668 31.9347 32.5453 32.5558C28.8705 34.4295 24.3986 34.4709 20.7031 32.6697C19.3884 32.0382 18.3843 31.324 17.2664 30.2474C15.2271 28.2806 13.9435 25.9101 13.3845 23.1048C13.1257 21.7591 13.1465 19.4197 13.4466 18.0222C13.9849 15.455 15.2375 13.1363 17.0697 11.3041C18.9847 9.38902 21.2724 8.16754 24.0156 7.58785C25.2267 7.33941 27.7732 7.33941 28.9843 7.58785C30.9097 8.00191 32.3693 8.61266 34.0256 9.72027C35.1021 10.4449 35.4644 10.5173 35.806 10.0826C36.2408 9.53395 36.0027 9.15094 34.6363 8.2607C32.2658 6.70797 29.7607 5.92125 26.914 5.84879C26.148 5.82809 25.3302 5.83844 25.1025 5.85914Z" fill="#3D8CD1"/>
<path d="M31.6239 15.0098C31.4273 15.0719 30.1644 16.2623 28.0837 18.343L24.8437 21.583L22.9597 19.699C21.9142 18.6742 20.9618 17.7736 20.8376 17.7115C20.5271 17.5562 19.937 17.5666 19.5333 17.7426C19.0054 17.9703 17.639 19.4402 17.5044 19.9268C17.2663 20.817 17.3181 20.8895 20.465 24.0467C23.5497 27.1521 23.9224 27.4316 24.8437 27.4316C25.8167 27.4316 26.0445 27.235 30.5577 22.7113C34.2325 19.0158 34.7708 18.4258 34.8329 18.0842C34.9675 17.3492 34.8226 17.018 33.9738 16.1277C33.539 15.6723 33.0628 15.2375 32.9179 15.165C32.5349 14.9684 31.9863 14.9062 31.6239 15.0098ZM29.2948 21.79C25.4958 25.5787 25.1749 25.8789 24.8437 25.8789C24.5228 25.8789 24.264 25.6512 21.7175 23.115L18.9433 20.3408L19.5644 19.7197L20.1855 19.0986L22.3386 21.2518C24.295 23.1979 24.5228 23.3945 24.8437 23.3945C25.1749 23.3945 25.4648 23.1254 28.6738 19.9268L32.1415 16.459L32.7626 17.0801L33.3837 17.7012L29.2948 21.79Z" fill="#3D8CD1"/>
</g>
<defs>
<clipPath id="clip0_740_11505">
<rect width="53" height="53" fill="white"/>
</clipPath>
</defs>
</svg>
