<svg width="55" height="55" viewBox="0 0 55 55" fill="none" xmlns="http://www.w3.org/2000/svg">
<path d="M52.6904 12.1601C53.1953 12.4501 53.3242 13.0087 52.9805 13.4169C52.873 13.5673 51.2402 14.3085 48.7158 15.372C46.4707 16.3173 44.623 17.1015 44.6123 17.123C44.5801 17.1552 49.5107 31.2812 49.5752 31.3456C49.5967 31.3671 50.209 31.1953 50.9395 30.9482C51.6699 30.7011 52.3682 30.5078 52.5078 30.5078C52.8623 30.5078 53.2812 30.9697 53.2812 31.3456C53.2812 31.915 53.0127 32.0869 51.1328 32.7099C49.2422 33.3437 48.7695 33.4081 48.4688 33.1074C48.3613 32.9999 48.0713 32.3124 47.8135 31.582C47.5557 30.8408 47.3301 30.2285 47.3193 30.207C47.2871 30.1747 45.9873 30.7978 45.8906 30.8837C45.8691 30.9052 46.0195 31.163 46.2236 31.4638C47.1689 32.8388 46.9541 34.2675 45.6113 35.5351C45.0312 36.0829 44.29 36.5126 43.9141 36.5234C43.7637 36.5234 43.7422 36.6201 43.7959 37.329C43.8818 38.4247 43.6777 38.9404 42.7861 39.8749C41.8408 40.8417 41.2822 41.0888 40.1543 41.0029C39.3379 40.9384 39.3164 40.9384 39.3164 41.1747C39.3164 41.8945 37.9092 43.4521 36.9961 43.7636C36.4268 43.957 35.5996 43.9892 35.1914 43.8388C34.9551 43.7421 34.9229 43.7636 34.8477 44.0751C34.7295 44.6552 34.418 45.1494 33.7627 45.7831C32.9785 46.5458 32.377 46.8359 31.5283 46.8359C30.873 46.8359 30.1211 46.5781 29.7236 46.2236C29.5518 46.0517 29.4766 46.0732 28.7139 46.4706C27.2744 47.2119 25.8135 47.0937 24.75 46.1591C24.2129 45.6865 23.7402 44.8378 23.7402 44.3329C23.7402 44.1718 23.7188 44.0429 23.6973 44.0429C23.6758 44.0429 23.3213 44.204 22.9238 44.3867C22.2578 44.7089 22.0859 44.7411 21.2158 44.7411C20.3457 44.7411 20.1953 44.7089 19.6689 44.4189C18.7451 43.914 18.1973 43.1083 18.0791 42.1093C18.0469 41.8085 18.0146 41.5722 18.0039 41.5722C17.9932 41.5722 17.7354 41.6689 17.4238 41.787C16.2959 42.2167 15.0176 41.9482 14.1367 41.0995C13.4814 40.455 13.1914 39.8427 13.127 38.9726L13.0732 38.2529L12.5254 38.5322C11.6982 38.9511 10.5381 39.0048 9.76465 38.6503C8.92676 38.2636 8.54004 37.8876 8.14258 37.0927C7.85254 36.5019 7.79883 36.2656 7.79883 35.6747C7.80957 34.9013 8.06738 34.1816 8.55078 33.5478L8.81934 33.204L8.59375 32.0976C8.46484 31.496 8.35742 30.9911 8.34668 30.9804C8.33594 30.9697 8.22852 30.9374 8.11035 30.8945C7.91699 30.8408 7.85254 30.9589 7.51953 31.915C7.14355 33.0107 6.85352 33.4081 6.43457 33.4081C6.05859 33.4081 2.09473 31.8613 1.84766 31.6142C1.5791 31.3349 1.53613 30.873 1.77246 30.54C2.08398 30.0995 2.39551 30.1318 4.15723 30.787C5.05957 31.1308 5.83301 31.3779 5.86523 31.3349C6.00488 31.1953 10.8389 17.2412 10.7637 17.1767C10.7207 17.1445 8.77637 16.3495 6.44531 15.4257C1.86914 13.6103 1.64355 13.4814 1.76172 12.8476C1.83691 12.4394 2.18066 12.1386 2.56738 12.1386C2.96484 12.1386 12.2461 15.8662 12.5469 16.1454C12.7725 16.3495 12.7939 16.4462 12.7402 16.9296L12.6758 17.4775L13.7607 17.7675C14.3623 17.9287 14.9102 18.0898 14.9854 18.1113C15.0605 18.1435 15.2646 18.0361 15.458 17.8857C15.834 17.5634 16.0703 17.499 19.5078 16.8115C22.5586 16.2099 25.3623 15.791 26.4365 15.791C27.1562 15.791 27.3389 15.8339 28.1016 16.2099C28.5742 16.4355 29.4873 16.9511 30.1318 17.3486C31.5176 18.1972 35.1807 20.6679 35.5244 20.9687C35.6748 21.1083 35.8145 21.4628 35.9326 22.0107C36.04 22.4619 36.4805 23.8369 36.9102 25.0615C37.877 27.79 37.8877 27.9619 37.2002 28.5634C36.9316 28.8105 36.3945 29.165 36.0078 29.3476C34.3428 30.164 32.1299 29.7128 31.002 28.3163C30.5723 27.7792 30.3574 27.3925 29.917 26.2753L29.584 25.416L27.7686 25.0185C26.2002 24.6747 25.9102 24.5781 25.7061 24.331C25.5664 24.1806 25.459 23.9335 25.459 23.7831C25.459 23.4394 25.9102 22.9882 26.2539 22.9882C26.3936 22.9882 27.2852 23.1494 28.2197 23.3535C29.1543 23.5576 30.0889 23.7509 30.3037 23.7831C30.8193 23.8691 30.9697 24.0624 31.3027 25.0615C32.0332 27.2529 32.7959 28.037 34.1816 28.037C34.7402 28.037 35.8789 27.6181 35.8789 27.4247C35.8789 27.3818 35.5459 26.3505 35.127 25.1367C34.7188 23.9228 34.332 22.7411 34.2783 22.5048C34.1709 22.0966 34.0635 21.9999 31.5605 20.3456C27.9619 17.9501 27.2959 17.5849 26.4795 17.5312C25.5449 17.4667 22.7627 17.9072 18.0576 18.8632C16.7363 19.1318 16.5859 19.1962 16.1455 19.5722C15.8877 19.7978 15.5869 19.9804 15.4902 19.9804C15.3936 19.9804 14.5879 19.787 13.707 19.54C12.8262 19.3036 12.0742 19.1425 12.0312 19.1962C11.9346 19.2929 8.47559 29.1328 8.51855 29.1757C8.5293 29.1972 8.78711 29.3046 9.07715 29.4335C9.8291 29.7558 10.0977 30.0351 10.0977 30.4863C10.0977 30.7011 10.1514 31.1738 10.2158 31.5497C10.3125 32.1191 10.3662 32.2265 10.5166 32.1728C11.2471 31.8935 15.5547 29.412 18.8311 27.371C21.0117 26.0175 22.9238 24.8896 23.0957 24.8466C23.3428 24.8036 23.4717 24.8574 23.7402 25.1152C24.084 25.4589 24.1162 25.6093 23.9658 26.0283C23.8369 26.372 16.9512 30.6367 13.2666 32.6562C10.3232 34.2675 9.86133 34.5576 9.64648 34.9443C9.29199 35.6103 9.625 36.6523 10.3125 37.0068C10.9355 37.329 11.2256 37.2324 14.5127 35.6103C16.2529 34.7509 17.7676 34.0527 17.8965 34.0527C18.0254 34.0527 18.251 34.1494 18.4121 34.2783C18.627 34.4501 18.6914 34.5898 18.6914 34.9013C18.6914 35.4062 18.6055 35.4921 16.7148 36.6952C15.8018 37.2753 15.1465 37.7802 15.0176 37.9736C14.6094 38.6503 14.8779 39.6279 15.5977 40.0683C16.2529 40.4658 16.5 40.3906 19.1426 38.9404C20.6357 38.124 21.71 37.5976 21.8926 37.5976C22.3438 37.5976 22.666 37.9521 22.666 38.457C22.666 38.9296 22.5371 39.0478 20.7109 40.2831C19.9053 40.8202 19.7656 41.0458 19.7656 41.7441C19.7656 42.1308 19.8301 42.2919 20.1201 42.6142C20.4316 42.9472 20.5605 43.0117 21.0762 43.0546C21.6562 43.0976 21.7314 43.0654 23.2676 42.2812C24.9863 41.3788 25.1904 41.3466 25.6416 41.8515C25.9531 42.1952 25.9531 42.4638 25.6523 42.9472C25.1904 43.6884 25.416 44.7089 26.1143 45.0742C26.5439 45.289 27.3281 45.2675 27.833 45.0097L28.2627 44.7841L28.0586 44.4941C27.7578 44.0644 27.6074 43.538 27.6074 42.9365C27.6074 41.9911 27.8008 41.5937 28.6816 40.6913C29.3584 40.0038 29.584 39.8427 30.0674 39.7031C30.3896 39.6064 30.8301 39.5312 31.0449 39.5312C31.4424 39.5312 31.4424 39.5204 31.5068 39.0478C31.6035 38.3603 31.9043 37.8447 32.624 37.1572C33.4082 36.3945 33.8164 36.1904 34.6543 36.1152L35.3311 36.0615L35.3955 35.621C35.5244 34.8906 35.7285 34.5038 36.3838 33.8163C37.168 32.9892 37.8447 32.6562 38.7363 32.6562H39.4023L39.4775 32.248C39.5957 31.6035 39.8965 31.0234 40.4229 30.454C41.4004 29.3691 42.5713 29.0038 43.7959 29.4228L44.4727 29.6484L45.5684 29.1005C46.1807 28.7997 46.6855 28.5419 46.707 28.5204C46.7285 28.499 43.5059 19.2177 43.4521 19.1425C43.4307 19.121 42.1738 19.3574 40.6377 19.6581C39.1123 19.9482 37.7803 20.1953 37.6729 20.1953C37.3613 20.1953 36.9531 19.7119 36.9531 19.3359C36.9531 18.6699 37.1787 18.5732 40.1543 17.9931C42.4316 17.5527 42.8613 17.4345 42.7969 17.2949C42.625 16.8544 42.625 16.371 42.8184 16.1454C43.0117 15.9199 52.0352 12.0312 52.3467 12.0312C52.4219 12.0312 52.5723 12.0956 52.6904 12.1601ZM41.7656 31.5605C40.8848 32.4843 40.9492 32.871 42.1631 34.0419C42.8828 34.7402 42.9795 34.8046 43.3984 34.8046C43.7852 34.8046 43.9141 34.7402 44.4189 34.2568C45.375 33.3544 45.332 32.8925 44.1826 31.7861C43.3877 31.0126 43.2266 30.9267 42.7002 30.9804C42.3564 31.0234 42.1738 31.1415 41.7656 31.5605ZM37.9629 34.6435C37.4258 35.0517 37.1143 35.5458 37.1143 36.0185C37.1143 36.4052 37.2109 36.5126 38.5752 37.8769C39.8428 39.123 40.0791 39.3163 40.3799 39.3163C40.8525 39.3163 41.2715 39.08 41.7227 38.5429C42.1738 38.0273 42.2275 37.5331 41.9053 37.0068C41.6904 36.6415 39.4131 34.4716 39.123 34.3535C38.833 34.2245 38.3389 34.3535 37.9629 34.6435ZM33.9238 38.2421C33.6553 38.4677 33.376 38.8115 33.3008 38.9833C33.0537 39.6064 33.2148 39.9394 34.3643 41.0781C35.3418 42.0556 35.46 42.1415 35.9219 42.1845C36.4053 42.249 36.4375 42.2275 36.9961 41.6689C37.6406 41.0244 37.791 40.6484 37.5977 40.1865C37.5332 40.0146 36.9961 39.413 36.4268 38.8437C35.4062 37.8447 35.3525 37.8124 34.8906 37.8124C34.4824 37.8124 34.332 37.8769 33.9238 38.2421ZM30.4111 41.4111C30.2393 41.497 29.9277 41.7656 29.7129 42.0234C29.4014 42.3779 29.3262 42.5605 29.3262 42.9257C29.3262 43.3124 29.4014 43.4521 29.8311 43.9462C31.1416 45.3857 31.9795 45.4716 32.8711 44.247C33.4297 43.4736 33.3545 43.1943 32.3018 42.1415C31.335 41.1747 31.0557 41.0673 30.4111 41.4111Z" fill="#3D8CD1"/>
</svg>
