<svg width="177" height="46" viewBox="0 0 177 46" fill="none" xmlns="http://www.w3.org/2000/svg">
<path d="M42.3574 36.9996V36.207H47.8463V36.9996H45.5446V43.5852H44.6591V36.9996H42.3574Z" fill="white"/>
<path d="M56.8931 39.8956C56.8931 40.6742 56.7537 41.3468 56.4748 41.9135C56.196 42.4801 55.8142 42.9173 55.328 43.2241C54.8418 43.5325 54.287 43.6856 53.6629 43.6856C53.0387 43.6856 52.4839 43.5325 51.9977 43.2241C51.5116 42.9173 51.129 42.4801 50.8502 41.9135C50.5713 41.3468 50.4326 40.6742 50.4326 39.8956C50.4326 39.117 50.5713 38.4452 50.8502 37.8785C51.129 37.3119 51.5116 36.8747 51.9977 36.5679C52.4839 36.2595 53.0387 36.1064 53.6629 36.1064C54.287 36.1064 54.8418 36.2595 55.328 36.5679C55.8142 36.8747 56.196 37.3119 56.4748 37.8785C56.7537 38.4452 56.8931 39.1178 56.8931 39.8956ZM56.0354 39.8956C56.0354 39.2576 55.9302 38.7182 55.7193 38.2781C55.509 37.8388 55.2236 37.5061 54.8652 37.2802C54.5067 37.055 54.106 36.9417 53.6629 36.9417C53.2198 36.9417 52.8183 37.055 52.4598 37.2802C52.1014 37.5061 51.8167 37.8388 51.6057 38.2781C51.3955 38.7182 51.2896 39.2569 51.2896 39.8956C51.2896 40.5344 51.3955 41.0738 51.6057 41.5139C51.8167 41.9532 52.1014 42.2859 52.4598 42.5118C52.8183 42.737 53.219 42.8503 53.6629 42.8503C54.1067 42.8503 54.5067 42.737 54.8652 42.5118C55.2236 42.2859 55.509 41.9532 55.7193 41.5139C55.9302 41.0738 56.0354 40.5351 56.0354 39.8956Z" fill="white"/>
<path d="M59.8882 43.5845V36.207H62.3614C62.9359 36.207 63.4061 36.3108 63.7718 36.5183C64.1375 36.7266 64.4083 37.007 64.5843 37.3595C64.7609 37.7127 64.8493 38.1064 64.8493 38.5406C64.8493 38.9748 64.7617 39.3707 64.5857 39.7261C64.4113 40.0816 64.1412 40.3642 63.7762 40.5739C63.4119 40.7844 62.9447 40.8896 62.376 40.8896H60.6036V40.097H62.3476C62.7403 40.097 63.0564 40.0279 63.2944 39.8917C63.5323 39.7548 63.7054 39.5694 63.8149 39.3354C63.9229 39.1014 63.9776 38.8364 63.9776 38.5406C63.9776 38.2448 63.9229 37.9813 63.8149 37.748C63.7061 37.5155 63.5309 37.3315 63.2907 37.1983C63.0498 37.0658 62.7315 36.9981 62.3337 36.9981H60.7759V43.5838H59.8889L59.8882 43.5845Z" fill="white"/>
<path d="M72.1941 36.207V36.9996H68.6638V43.5852H67.7769V36.2078H72.1941V36.207Z" fill="white"/>
<path d="M81.251 39.8956C81.251 40.6742 81.1116 41.3468 80.8327 41.9135C80.5539 42.4801 80.1721 42.9173 79.6859 43.2241C79.1997 43.5325 78.6449 43.6856 78.0208 43.6856C77.3966 43.6856 76.8418 43.5325 76.3556 43.2241C75.8695 42.9173 75.4869 42.4801 75.2081 41.9135C74.9292 41.3468 74.7905 40.6742 74.7905 39.8956C74.7905 39.117 74.9292 38.4452 75.2081 37.8785C75.4869 37.3119 75.8695 36.8747 76.3556 36.5679C76.8418 36.2595 77.3966 36.1064 78.0208 36.1064C78.6449 36.1064 79.1997 36.2595 79.6859 36.5679C80.1721 36.8747 80.5539 37.3119 80.8327 37.8785C81.1116 38.4452 81.251 39.1178 81.251 39.8956ZM80.3925 39.8956C80.3925 39.2576 80.2874 38.7182 80.0765 38.2781C79.8662 37.8388 79.5808 37.5061 79.2224 37.2802C78.8639 37.055 78.4632 36.9417 78.02 36.9417C77.5769 36.9417 77.1754 37.055 76.817 37.2802C76.4586 37.5061 76.1739 37.8388 75.9629 38.2781C75.7527 38.7182 75.6468 39.2569 75.6468 39.8956C75.6468 40.5344 75.7527 41.0738 75.9629 41.5139C76.1739 41.9532 76.4586 42.2859 76.817 42.5118C77.1754 42.737 77.5762 42.8503 78.02 42.8503C78.4639 42.8503 78.8639 42.737 79.2224 42.5118C79.5808 42.2859 79.8662 41.9532 80.0765 41.5139C80.2874 41.0738 80.3925 40.5351 80.3925 39.8956Z" fill="white"/>
<path d="M84.2456 43.5845V36.207H86.805C87.3145 36.207 87.735 36.2953 88.0664 36.472C88.3971 36.6486 88.6446 36.8848 88.8059 37.1814C88.968 37.4779 89.049 37.8062 89.049 38.1668C89.049 38.4839 88.9935 38.7452 88.8833 38.952C88.7716 39.1595 88.6263 39.3221 88.4468 39.4421C88.2672 39.5628 88.0723 39.6511 87.8628 39.7092V39.7813C88.0869 39.7953 88.3124 39.8748 88.538 40.019C88.765 40.1633 88.9541 40.3693 89.1059 40.6387C89.2585 40.908 89.3352 41.237 89.3352 41.6263C89.3352 42.0155 89.2512 42.3283 89.0848 42.6241C88.9183 42.92 88.6548 43.1533 88.2949 43.3262C87.9358 43.4991 87.4678 43.586 86.8904 43.586H84.2456V43.5845ZM85.1326 39.4487H86.7765C87.043 39.4487 87.2846 39.3965 87.4999 39.2905C87.7153 39.1845 87.8868 39.0359 88.0146 38.8438C88.1423 38.651 88.2059 38.4251 88.2059 38.166C88.2059 37.8415 88.0942 37.5663 87.8701 37.3396C87.6459 37.1129 87.2912 36.9989 86.8057 36.9989H85.1333V39.4487H85.1326ZM85.1326 42.7927H86.8904C87.47 42.7927 87.881 42.6786 88.1248 42.4519C88.3694 42.2253 88.4913 41.9501 88.4913 41.6255C88.4913 41.3753 88.4278 41.1442 88.3022 40.9323C88.1759 40.7196 87.9956 40.5489 87.7627 40.4201C87.5291 40.2913 87.2532 40.2273 86.9335 40.2273H85.1326V42.7927Z" fill="white"/>
<path d="M92.95 39.3052H95.0363C95.5604 39.3052 96.0036 39.392 96.3642 39.565C96.7248 39.7379 96.9985 39.9822 97.1862 40.2965C97.373 40.6114 97.4665 40.9816 97.4665 41.4092C97.4665 41.8367 97.373 42.2135 97.1862 42.5402C96.9993 42.867 96.7255 43.1231 96.3642 43.3071C96.0036 43.4925 95.5604 43.5845 95.0363 43.5845H92.2915V36.207H93.1785V42.8066H95.0363C95.3706 42.8066 95.6532 42.7389 95.8853 42.6035C96.1167 42.4674 96.2934 42.2923 96.4138 42.0774C96.5343 41.8625 96.5941 41.6351 96.5941 41.3952C96.5941 41.0419 96.4598 40.7373 96.1912 40.4819C95.9211 40.2266 95.5371 40.0985 95.0363 40.0985H92.95V39.3052ZM99.0674 36.2078V43.5852H98.1819V36.2078H99.0674Z" fill="white"/>
<path d="M102.349 36.2075H103.221V42.0145H103.293L107.295 36.2075H108.153V43.5849H107.267V37.7926H107.196L103.208 43.5849H102.349V36.2075H102.349ZM105.951 34.3633H106.737C106.737 34.7526 106.604 35.0705 106.337 35.3178C106.07 35.565 105.708 35.6887 105.251 35.6887C104.794 35.6887 104.442 35.565 104.177 35.3178C103.912 35.0705 103.778 34.7526 103.778 34.3633H104.565C104.565 34.5502 104.616 34.715 104.72 34.8563C104.823 34.9984 105.001 35.0683 105.251 35.0683C105.502 35.0683 105.68 34.9976 105.789 34.8563C105.897 34.7143 105.952 34.5502 105.952 34.3633H105.951Z" fill="white"/>
<path d="M115.125 45.3715V42.7922H115.597C115.759 42.6428 115.912 42.4323 116.056 42.16C116.2 41.887 116.323 41.5227 116.424 41.065C116.525 40.608 116.592 40.0259 116.626 39.3202L116.783 36.208H121.129V42.7936H121.971V45.3583H121.129V43.5862H115.969V45.373H115.126L115.125 45.3715ZM116.655 42.7929H120.285V36.9998H117.583L117.469 39.3202C117.44 39.8581 117.39 40.3453 117.318 40.7809C117.247 41.2166 117.156 41.6022 117.044 41.937C116.932 42.2719 116.802 42.5574 116.655 42.7929Z" fill="white"/>
<path d="M130.99 39.8956C130.99 40.6742 130.851 41.3468 130.572 41.9135C130.293 42.4801 129.911 42.9173 129.425 43.2241C128.939 43.5325 128.384 43.6856 127.76 43.6856C127.136 43.6856 126.581 43.5325 126.095 43.2241C125.609 42.9173 125.226 42.4801 124.947 41.9135C124.668 41.3468 124.53 40.6742 124.53 39.8956C124.53 39.117 124.668 38.4452 124.947 37.8785C125.226 37.3119 125.609 36.8747 126.095 36.5679C126.581 36.2595 127.136 36.1064 127.76 36.1064C128.384 36.1064 128.939 36.2595 129.425 36.5679C129.911 36.8747 130.293 37.3119 130.572 37.8785C130.851 38.4452 130.99 39.1178 130.99 39.8956ZM130.132 39.8956C130.132 39.2576 130.027 38.7182 129.816 38.2781C129.605 37.8388 129.32 37.5061 128.962 37.2802C128.603 37.055 128.202 36.9417 127.759 36.9417C127.316 36.9417 126.915 37.055 126.556 37.2802C126.198 37.5061 125.913 37.8388 125.702 38.2781C125.492 38.7182 125.386 39.2569 125.386 39.8956C125.386 40.5344 125.492 41.0738 125.702 41.5139C125.913 41.9532 126.198 42.2859 126.556 42.5118C126.915 42.737 127.315 42.8503 127.759 42.8503C128.203 42.8503 128.603 42.737 128.962 42.5118C129.32 42.2859 129.605 41.9532 129.816 41.5139C130.027 41.0738 130.132 40.5351 130.132 39.8956Z" fill="white"/>
<path d="M133.985 36.207H135.044L137.531 42.3313H137.617L140.104 36.207H141.163V43.5845H140.333V37.9791H140.262L137.975 43.5845H137.174L134.887 37.9791H134.815V43.5845H133.985V36.207Z" fill="white"/>
<path d="M42.1335 12.5024H57.5898V16.6412H47.2049V29.6667H42.1328V12.5024H42.1335ZM80.4374 29.5939H75.3653L74.1338 26.4287H66.3571L65.1256 29.5939H60.0536L66.6229 12.5517H73.8681L80.4374 29.5939ZM67.9515 22.29H72.5402L70.5116 17.0069H69.9801L67.9515 22.29ZM86.4993 12.5517H102.101V16.6905H91.5713V18.7113H98.1165C100.016 18.7113 101.425 19.1418 102.343 20.0013C103.261 20.8616 103.72 22.2495 103.72 24.1643C103.72 26.0792 103.265 27.4391 102.356 28.2913C101.446 29.1435 100.057 29.5777 98.1895 29.5939H86.5008V12.5517H86.4993ZM98.1158 25.7716C98.6144 25.7716 98.9889 25.6214 99.2385 25.3212C99.4882 25.0209 99.613 24.6272 99.613 24.14C99.613 23.6529 99.4882 23.2636 99.2385 22.9714C98.9889 22.6793 98.6144 22.5336 98.1158 22.5336H91.5706V25.7716H98.1158ZM110.022 12.5517H125.624V16.6905H115.094V18.7113H121.639C123.539 18.7113 124.948 19.1418 125.866 20.0013C126.784 20.8616 127.243 22.2495 127.243 24.1643C127.243 26.0792 126.788 27.4391 125.878 28.2913C124.969 29.1435 123.58 29.5777 121.712 29.5939H110.024V12.5517H110.022ZM121.639 25.7716C122.137 25.7716 122.512 25.6214 122.761 25.3212C123.011 25.0209 123.136 24.6272 123.136 24.14C123.136 23.6529 123.011 23.2636 122.761 22.9714C122.512 22.6793 122.137 22.5336 121.639 22.5336H115.093V25.7716H121.639ZM138.617 29.5939H133.545V12.5517H145.137C147.343 12.5517 148.981 13.0507 150.052 14.0493C151.123 15.0472 151.658 16.6588 151.658 18.882C151.658 21.1052 151.122 22.7168 150.052 23.7147C148.981 24.7126 147.343 25.2123 145.137 25.2123H138.616V29.5946L138.617 29.5939ZM138.617 21.0728H144.558C145.234 21.0728 145.742 20.8741 146.08 20.476C146.418 20.0786 146.587 19.5384 146.587 18.857C146.587 18.1755 146.418 17.6641 146.08 17.2748C145.742 16.8855 145.234 16.6905 144.558 16.6905H138.617V21.0728ZM157.261 21.0728C157.261 17.9076 158.082 15.5947 159.725 14.1339C161.367 12.6731 163.766 11.9424 166.922 11.9424C170.078 11.9424 172.477 12.6731 174.119 14.1339C175.762 15.5947 176.583 17.9076 176.583 21.0728C176.583 24.2379 175.762 26.5715 174.119 28.0234C172.477 29.4761 170.078 30.2025 166.922 30.2025C163.766 30.2025 161.367 29.4761 159.725 28.0234C158.082 26.5708 157.261 24.2541 157.261 21.0728ZM162.284 21.0485C162.284 22.591 162.678 23.8118 163.468 24.7126C164.256 25.6133 165.415 26.0637 166.945 26.0637C168.475 26.0637 169.626 25.6178 170.399 24.7244C171.172 23.8317 171.558 22.6064 171.558 21.0478C171.558 19.4891 171.168 18.333 170.387 17.4323C169.605 16.5315 168.458 16.0811 166.945 16.0811C165.433 16.0811 164.236 16.5278 163.455 17.4205C162.674 18.3131 162.284 19.523 162.284 21.0478L162.284 21.0485Z" fill="white"/>
<path d="M20.0595 12.3724L13.8765 18.5554H18.6365H26.0822V28.1796L16.2965 35.5495L7.31614 28.5202L6.88662 28.1796V12.3724V6.77898H13.8226L14.4888 6.15238L21.0798 0H0V9.89664V31.7283L1.24826 32.6674L10.4216 39.5803L16.1346 43.8849L32.2655 31.7283V23.5578V16.9941V12.3724H20.0595Z" fill="#3D8CD1"/>
</svg>
