<svg width="144" height="40" viewBox="0 0 144 40" fill="none" xmlns="http://www.w3.org/2000/svg">
<path d="M23.0205 12.6383L18.2643 17.3945H21.9259H27.6533V24.7977L20.1259 30.4669L13.2179 25.0597L12.8875 24.7977V12.6383V8.33569H18.2229L18.7353 7.85369L23.8053 3.12109H7.59009V10.7339V27.5275L8.55029 28.2499L15.6067 33.5675L20.0013 36.8787L32.4097 27.5275V21.2425V16.1935V12.6383H23.0205Z" fill="#3D8CD1"/>
<path d="M40.1729 31.5814V30.9717H44.3951V31.5814H42.6245V36.6472H41.9434V31.5814H40.1729Z" fill="white"/>
<path d="M51.3544 33.8093C51.3544 34.4082 51.2471 34.9256 51.0326 35.3615C50.8181 35.7974 50.5244 36.1336 50.1504 36.3697C49.7765 36.6069 49.3497 36.7246 48.8696 36.7246C48.3895 36.7246 47.9627 36.6069 47.5887 36.3697C47.2147 36.1336 46.9205 35.7974 46.706 35.3615C46.4915 34.9256 46.3848 34.4082 46.3848 33.8093C46.3848 33.2104 46.4915 32.6935 46.706 32.2577C46.9205 31.8218 47.2147 31.4855 47.5887 31.2495C47.9627 31.0123 48.3895 30.8945 48.8696 30.8945C49.3497 30.8945 49.7765 31.0123 50.1504 31.2495C50.5244 31.4855 50.8181 31.8218 51.0326 32.2577C51.2471 32.6935 51.3544 33.2109 51.3544 33.8093ZM50.6946 33.8093C50.6946 33.3185 50.6137 32.9036 50.4514 32.565C50.2897 32.2271 50.0701 31.9712 49.7944 31.7974C49.5187 31.6242 49.2104 31.537 48.8696 31.537C48.5287 31.537 48.2199 31.6242 47.9442 31.7974C47.6684 31.9712 47.4494 32.2271 47.2872 32.565C47.1254 32.9036 47.044 33.3179 47.044 33.8093C47.044 34.3006 47.1254 34.7156 47.2872 35.0541C47.4494 35.3921 47.6684 35.6479 47.9442 35.8217C48.2199 35.9949 48.5282 36.0821 48.8696 36.0821C49.211 36.0821 49.5187 35.9949 49.7944 35.8217C50.0701 35.6479 50.2897 35.3921 50.4514 35.0541C50.6137 34.7156 50.6946 34.3012 50.6946 33.8093Z" fill="white"/>
<path d="M53.6584 36.6467V30.9717H55.5609C56.0029 30.9717 56.3645 31.0515 56.6458 31.2111C56.9272 31.3713 57.1355 31.587 57.2708 31.8582C57.4067 32.1299 57.4747 32.4327 57.4747 32.7667C57.4747 33.1007 57.4073 33.4053 57.2719 33.6787C57.1377 33.9521 56.93 34.1695 56.6492 34.3308C56.369 34.4927 56.0096 34.5737 55.5722 34.5737H54.2088V33.964H55.5503C55.8524 33.964 56.0955 33.9108 56.2786 33.8061C56.4616 33.7008 56.5947 33.5581 56.679 33.3781C56.7621 33.1981 56.8042 32.9943 56.8042 32.7667C56.8042 32.5392 56.7621 32.3365 56.679 32.1571C56.5953 31.9782 56.4605 31.8367 56.2758 31.7342C56.0905 31.6323 55.8456 31.5802 55.5396 31.5802H54.3413V36.6461H53.659L53.6584 36.6467Z" fill="white"/>
<path d="M63.1242 30.9717V31.5814H60.4086V36.6472H59.7263V30.9722H63.1242V30.9717Z" fill="white"/>
<path d="M70.0912 33.8093C70.0912 34.4082 69.9839 34.9256 69.7694 35.3615C69.5549 35.7974 69.2612 36.1336 68.8873 36.3697C68.5133 36.6069 68.0865 36.7246 67.6064 36.7246C67.1263 36.7246 66.6995 36.6069 66.3255 36.3697C65.9515 36.1336 65.6573 35.7974 65.4428 35.3615C65.2283 34.9256 65.1216 34.4082 65.1216 33.8093C65.1216 33.2104 65.2283 32.6935 65.4428 32.2577C65.6573 31.8218 65.9515 31.4855 66.3255 31.2495C66.6995 31.0123 67.1263 30.8945 67.6064 30.8945C68.0865 30.8945 68.5133 31.0123 68.8873 31.2495C69.2612 31.4855 69.5549 31.8218 69.7694 32.2577C69.9839 32.6935 70.0912 33.2109 70.0912 33.8093ZM69.4308 33.8093C69.4308 33.3185 69.35 32.9036 69.1877 32.565C69.026 32.2271 68.8064 31.9712 68.5307 31.7974C68.255 31.6242 67.9467 31.537 67.6058 31.537C67.265 31.537 66.9561 31.6242 66.6804 31.7974C66.4047 31.9712 66.1857 32.2271 66.0234 32.565C65.8617 32.9036 65.7803 33.3179 65.7803 33.8093C65.7803 34.3006 65.8617 34.7156 66.0234 35.0541C66.1857 35.3921 66.4047 35.6479 66.6804 35.8217C66.9561 35.9949 67.2644 36.0821 67.6058 36.0821C67.9472 36.0821 68.255 35.9949 68.5307 35.8217C68.8064 35.6479 69.026 35.3921 69.1877 35.0541C69.35 34.7156 69.4308 34.3012 69.4308 33.8093Z" fill="white"/>
<path d="M72.3945 36.6467V30.9717H74.3633C74.7552 30.9717 75.0787 31.0396 75.3336 31.1755C75.588 31.3113 75.7784 31.493 75.9025 31.7212C76.0271 31.9493 76.0895 32.2018 76.0895 32.4792C76.0895 32.7231 76.0468 32.9241 75.962 33.0832C75.8761 33.2428 75.7643 33.3679 75.6262 33.4602C75.488 33.553 75.3381 33.6209 75.177 33.6657V33.7211C75.3493 33.7319 75.5229 33.793 75.6964 33.904C75.871 34.0149 76.0165 34.1734 76.1333 34.3806C76.2506 34.5878 76.3096 34.8409 76.3096 35.1403C76.3096 35.4398 76.245 35.6804 76.117 35.9079C75.9889 36.1355 75.7862 36.3149 75.5094 36.448C75.2331 36.581 74.8732 36.6478 74.429 36.6478H72.3945V36.6467ZM73.0768 33.4653H74.3414C74.5463 33.4653 74.7322 33.4251 74.8979 33.3436C75.0635 33.2621 75.1955 33.1477 75.2938 33C75.392 32.8516 75.4409 32.6779 75.4409 32.4786C75.4409 32.2289 75.355 32.0172 75.1826 31.8429C75.0102 31.6685 74.7373 31.5808 74.3638 31.5808H73.0774V33.4653H73.0768ZM73.0768 36.0376H74.429C74.8748 36.0376 75.191 35.9498 75.3785 35.7755C75.5667 35.6011 75.6604 35.3894 75.6604 35.1397C75.6604 34.9473 75.6116 34.7695 75.515 34.6065C75.4179 34.4429 75.2792 34.3116 75.1 34.2125C74.9203 34.1134 74.7081 34.0642 74.4621 34.0642H73.0768V36.0376Z" fill="white"/>
<path d="M79.0902 33.3549H80.6951C81.0983 33.3549 81.4392 33.4217 81.7166 33.5547C81.994 33.6877 82.2045 33.8757 82.3489 34.1174C82.4926 34.3597 82.5645 34.6444 82.5645 34.9733C82.5645 35.3022 82.4926 35.592 82.3489 35.8434C82.2051 36.0947 81.9945 36.2917 81.7166 36.4332C81.4392 36.5759 81.0983 36.6467 80.6951 36.6467H78.5837V30.9717H79.266V36.0483H80.6951C80.9523 36.0483 81.1696 35.9962 81.3482 35.8921C81.5262 35.7873 81.6621 35.6526 81.7547 35.4873C81.8474 35.322 81.8934 35.1471 81.8934 34.9626C81.8934 34.6908 81.7901 34.4565 81.5835 34.2601C81.3757 34.0636 81.0803 33.9651 80.6951 33.9651H79.0902V33.3549ZM83.7959 30.9722V36.6472H83.1148V30.9722H83.7959Z" fill="white"/>
<path d="M86.3203 30.9723H86.9913V35.4393H87.0464L90.1253 30.9723H90.7851V36.6473H90.104V32.1917H90.0489L86.9812 36.6473H86.3209V30.9723H86.3203ZM89.0915 29.5537H89.6963C89.6963 29.8532 89.5935 30.0977 89.3886 30.2879C89.183 30.4781 88.9045 30.5732 88.553 30.5732C88.2015 30.5732 87.9308 30.4781 87.727 30.2879C87.5226 30.0977 87.4198 29.8532 87.4198 29.5537H88.0251C88.0251 29.6975 88.0645 29.8243 88.1448 29.933C88.2239 30.0422 88.3604 30.096 88.553 30.096C88.7456 30.096 88.8832 30.0417 88.9668 29.933C89.05 29.8237 89.0921 29.6975 89.0921 29.5537H89.0915Z" fill="white"/>
<path d="M96.1482 38.0215V36.0374H96.5109C96.6356 35.9225 96.7535 35.7606 96.8642 35.5511C96.9748 35.3411 97.0691 35.0609 97.1472 34.7088C97.2247 34.3573 97.2763 33.9095 97.3022 33.3666L97.4234 30.9727H100.766V36.0385H101.414V38.0113H100.766V36.6482H96.7968V38.0226H96.1488L96.1482 38.0215ZM97.3246 36.038H100.117V31.5818H98.0389L97.9507 33.3666C97.9288 33.7804 97.8901 34.1552 97.8351 34.4903C97.78 34.8254 97.7098 35.122 97.6239 35.3796C97.5374 35.6372 97.4375 35.8568 97.3246 36.038Z" fill="white"/>
<path d="M108.352 33.8093C108.352 34.4082 108.245 34.9256 108.03 35.3615C107.816 35.7974 107.522 36.1336 107.148 36.3697C106.774 36.6069 106.347 36.7246 105.867 36.7246C105.387 36.7246 104.96 36.6069 104.587 36.3697C104.213 36.1336 103.918 35.7974 103.704 35.3615C103.489 34.9256 103.383 34.4082 103.383 33.8093C103.383 33.2104 103.489 32.6935 103.704 32.2577C103.918 31.8218 104.213 31.4855 104.587 31.2495C104.96 31.0123 105.387 30.8945 105.867 30.8945C106.347 30.8945 106.774 31.0123 107.148 31.2495C107.522 31.4855 107.816 31.8218 108.03 32.2577C108.245 32.6935 108.352 33.2109 108.352 33.8093ZM107.692 33.8093C107.692 33.3185 107.611 32.9036 107.449 32.565C107.287 32.2271 107.067 31.9712 106.792 31.7974C106.516 31.6242 106.208 31.537 105.867 31.537C105.526 31.537 105.217 31.6242 104.941 31.7974C104.666 31.9712 104.447 32.2271 104.284 32.565C104.123 32.9036 104.041 33.3179 104.041 33.8093C104.041 34.3006 104.123 34.7156 104.284 35.0541C104.447 35.3921 104.666 35.6479 104.941 35.8217C105.217 35.9949 105.525 36.0821 105.867 36.0821C106.208 36.0821 106.516 35.9949 106.792 35.8217C107.067 35.6479 107.287 35.3921 107.449 35.0541C107.611 34.7156 107.692 34.3012 107.692 33.8093Z" fill="white"/>
<path d="M110.656 30.9717H111.47L113.384 35.6826H113.45L115.363 30.9717H116.177V36.6467H115.539V32.3348H115.484L113.725 36.6467H113.109L111.35 32.3348H111.295V36.6467H110.656V30.9717Z" fill="white"/>
<path d="M40.0006 12.7384H51.89V15.9221H43.9016V25.9417H40V12.7384H40.0006ZM69.4651 25.8857H65.5635L64.6162 23.451H58.6341L57.6868 25.8857H53.7852L58.8385 12.7763H64.4118L69.4651 25.8857ZM59.8605 20.2673H63.3903L61.8298 16.2034H61.421L59.8605 20.2673ZM74.1281 12.7763H86.1293V15.96H78.0296V17.5144H83.0644C84.5255 17.5144 85.6093 17.8456 86.3157 18.5068C87.0215 19.1685 87.3748 20.2362 87.3748 21.7091C87.3748 23.1821 87.0249 24.2282 86.3252 24.8837C85.6256 25.5392 84.557 25.8732 83.1205 25.8857H74.1292V12.7763H74.1281ZM83.0638 22.9454C83.4474 22.9454 83.7354 22.83 83.9275 22.599C84.1195 22.368 84.2155 22.0652 84.2155 21.6904C84.2155 21.3157 84.1195 21.0162 83.9275 20.7915C83.7354 20.5668 83.4474 20.4547 83.0638 20.4547H78.0291V22.9454H83.0638ZM92.2225 12.7763H104.224V15.96H96.1241V17.5144H101.159C102.62 17.5144 103.704 17.8456 104.41 18.5068C105.116 19.1685 105.469 20.2362 105.469 21.7091C105.469 23.1821 105.119 24.2282 104.42 24.8837C103.72 25.5392 102.651 25.8732 101.215 25.8857H92.2236V12.7763H92.2225ZM101.158 22.9454C101.542 22.9454 101.83 22.83 102.022 22.599C102.214 22.368 102.31 22.0652 102.31 21.6904C102.31 21.3157 102.214 21.0162 102.022 20.7915C101.83 20.5668 101.542 20.4547 101.158 20.4547H96.1235V22.9454H101.158ZM114.219 25.8857H110.317V12.7763H119.234C120.931 12.7763 122.191 13.1601 123.014 13.9283C123.838 14.6959 124.25 15.9356 124.25 17.6458C124.25 19.3559 123.838 20.5956 123.014 21.3632C122.191 22.1308 120.931 22.5152 119.234 22.5152H114.218V25.8862L114.219 25.8857ZM114.219 19.331H118.789C119.309 19.331 119.699 19.1782 119.959 18.8719C120.219 18.5662 120.349 18.1507 120.349 17.6265C120.349 17.1023 120.219 16.7089 119.959 16.4095C119.699 16.11 119.309 15.96 118.789 15.96H114.219V19.331ZM128.56 19.331C128.56 16.8963 129.192 15.1171 130.455 13.9934C131.719 12.8697 133.564 12.3076 135.992 12.3076C138.419 12.3076 140.264 12.8697 141.528 13.9934C142.791 15.1171 143.423 16.8963 143.423 19.331C143.423 21.7657 142.791 23.5608 141.528 24.6777C140.264 25.7951 138.419 26.3538 135.992 26.3538C133.564 26.3538 131.719 25.7951 130.455 24.6777C129.192 23.5602 128.56 21.7782 128.56 19.331ZM132.424 19.3123C132.424 20.4988 132.727 21.438 133.334 22.1308C133.941 22.8237 134.833 23.1702 136.01 23.1702C137.187 23.1702 138.072 22.8271 138.666 22.1399C139.261 21.4532 139.558 20.5107 139.558 19.3118C139.558 18.1128 139.258 17.2235 138.657 16.5306C138.056 15.8377 137.173 15.4913 136.01 15.4913C134.846 15.4913 133.926 15.8349 133.325 16.5215C132.724 17.2082 132.424 18.1388 132.424 19.3118L132.424 19.3123Z" fill="white"/>
</svg>
