<svg width="187" height="52" viewBox="0 0 187 52" fill="none" xmlns="http://www.w3.org/2000/svg">
<path d="M29.9267 16.4299L23.7436 22.613H28.5037H35.9493V32.2371L26.1637 39.6071L17.1833 32.5777L16.7538 32.2371V16.4299V10.8365H23.6898L24.3559 10.2099L30.9469 4.05756H9.86719V13.9542V35.7859L11.1154 36.725L20.2888 43.6379L26.0017 47.9424L42.1327 35.7859V27.6154V21.0517V16.4299H29.9267Z" fill="#3D8CD1"/>
<path d="M52.2251 41.0572V40.2646H57.714V41.0572H55.4123V47.6428H54.5268V41.0572H52.2251Z" fill="black"/>
<path d="M66.7608 43.9537C66.7608 44.7323 66.6214 45.4049 66.3425 45.9716C66.0636 46.5382 65.6819 46.9753 65.1957 47.2822C64.7095 47.5906 64.1547 47.7436 63.5305 47.7436C62.9064 47.7436 62.3516 47.5906 61.8654 47.2822C61.3792 46.9753 60.9967 46.5382 60.7179 45.9716C60.439 45.4049 60.3003 44.7323 60.3003 43.9537C60.3003 43.1751 60.439 42.5032 60.7179 41.9366C60.9967 41.3699 61.3792 40.9328 61.8654 40.6259C62.3516 40.3176 62.9064 40.1645 63.5305 40.1645C64.1547 40.1645 64.7095 40.3176 65.1957 40.6259C65.6819 40.9328 66.0636 41.3699 66.3425 41.9366C66.6214 42.5032 66.7608 43.1759 66.7608 43.9537ZM65.903 43.9537C65.903 43.3157 65.7979 42.7763 65.587 42.3362C65.3767 41.8968 65.0913 41.5642 64.7329 41.3383C64.3744 41.1131 63.9737 40.9998 63.5305 40.9998C63.0874 40.9998 62.6859 41.1131 62.3275 41.3383C61.9691 41.5642 61.6844 41.8968 61.4734 42.3362C61.2632 42.7763 61.1573 43.3149 61.1573 43.9537C61.1573 44.5925 61.2632 45.1319 61.4734 45.572C61.6844 46.0113 61.9691 46.3439 62.3275 46.5699C62.6859 46.795 63.0867 46.9084 63.5305 46.9084C63.9744 46.9084 64.3744 46.795 64.7329 46.5699C65.0913 46.3439 65.3767 46.0113 65.587 45.572C65.7979 45.1319 65.903 44.5932 65.903 43.9537Z" fill="black"/>
<path d="M69.7559 47.6428V40.2653H72.2291C72.8036 40.2653 73.2737 40.3691 73.6395 40.5766C74.0052 40.7849 74.276 41.0652 74.452 41.4177C74.6286 41.771 74.7169 42.1647 74.7169 42.5989C74.7169 43.0331 74.6293 43.429 74.4534 43.7844C74.2789 44.1399 74.0088 44.4225 73.6438 44.6322C73.2796 44.8427 72.8124 44.9479 72.2437 44.9479H70.4713V44.1553H72.2152C72.608 44.1553 72.9241 44.0862 73.162 43.95C73.4 43.8131 73.573 43.6277 73.6825 43.3937C73.7906 43.1596 73.8453 42.8947 73.8453 42.5989C73.8453 42.303 73.7906 42.0396 73.6825 41.8063C73.5738 41.5738 73.3986 41.3898 73.1584 41.2566C72.9175 41.1241 72.5992 41.0564 72.2014 41.0564H70.6435V47.6421H69.7566L69.7559 47.6428Z" fill="black"/>
<path d="M82.0618 40.2653V41.0579H78.5315V47.6435H77.6445V40.2661H82.0618V40.2653Z" fill="black"/>
<path d="M91.1187 43.9537C91.1187 44.7323 90.9793 45.4049 90.7004 45.9716C90.4216 46.5382 90.0398 46.9753 89.5536 47.2822C89.0674 47.5906 88.5126 47.7436 87.8885 47.7436C87.2643 47.7436 86.7095 47.5906 86.2233 47.2822C85.7371 46.9753 85.3546 46.5382 85.0758 45.9716C84.7969 45.4049 84.6582 44.7323 84.6582 43.9537C84.6582 43.1751 84.7969 42.5032 85.0758 41.9366C85.3546 41.3699 85.7371 40.9328 86.2233 40.6259C86.7095 40.3176 87.2643 40.1645 87.8885 40.1645C88.5126 40.1645 89.0674 40.3176 89.5536 40.6259C90.0398 40.9328 90.4216 41.3699 90.7004 41.9366C90.9793 42.5032 91.1187 43.1759 91.1187 43.9537ZM90.2602 43.9537C90.2602 43.3157 90.1551 42.7763 89.9441 42.3362C89.7339 41.8968 89.4485 41.5642 89.09 41.3383C88.7316 41.1131 88.3308 40.9998 87.8877 40.9998C87.4446 40.9998 87.0431 41.1131 86.6847 41.3383C86.3263 41.5642 86.0416 41.8968 85.8306 42.3362C85.6203 42.7763 85.5145 43.3149 85.5145 43.9537C85.5145 44.5925 85.6203 45.1319 85.8306 45.572C86.0416 46.0113 86.3263 46.3439 86.6847 46.5699C87.0431 46.795 87.4439 46.9084 87.8877 46.9084C88.3316 46.9084 88.7316 46.795 89.09 46.5699C89.4485 46.3439 89.7339 46.0113 89.9441 45.572C90.1551 45.1319 90.2602 44.5932 90.2602 43.9537Z" fill="black"/>
<path d="M94.1133 47.6428V40.2653H96.6727C97.1822 40.2653 97.6027 40.3536 97.9341 40.5302C98.2648 40.7069 98.5123 40.9431 98.6736 41.2397C98.8357 41.5362 98.9167 41.8644 98.9167 42.225C98.9167 42.5422 98.8612 42.8035 98.751 43.0103C98.6393 43.2178 98.494 43.3804 98.3144 43.5004C98.1349 43.6211 97.9399 43.7094 97.7304 43.7675V43.8396C97.9545 43.8536 98.1801 43.9331 98.4057 44.0773C98.6327 44.2216 98.8218 44.4276 98.9736 44.697C99.1262 44.9663 99.2028 45.2952 99.2028 45.6845C99.2028 46.0738 99.1189 46.3866 98.9525 46.6824C98.786 46.9783 98.5225 47.2115 98.1626 47.3845C97.8034 47.5574 97.3355 47.6443 96.7581 47.6443H94.1133V47.6428ZM95.0002 43.507H96.6442C96.9106 43.507 97.1523 43.4547 97.3676 43.3488C97.583 43.2428 97.7545 43.0941 97.8823 42.9021C98.01 42.7093 98.0735 42.4833 98.0735 42.2243C98.0735 41.8998 97.9618 41.6245 97.7377 41.3979C97.5136 41.1712 97.1588 41.0572 96.6734 41.0572H95.001V43.507H95.0002ZM95.0002 46.851H96.7581C97.3377 46.851 97.7487 46.7369 97.9925 46.5102C98.2371 46.2836 98.359 46.0083 98.359 45.6838C98.359 45.4336 98.2955 45.2025 98.1699 44.9906C98.0436 44.7779 97.8633 44.6072 97.6304 44.4784C97.3968 44.3496 97.1209 44.2856 96.8011 44.2856H95.0002V46.851Z" fill="black"/>
<path d="M102.818 43.3628H104.904C105.428 43.3628 105.871 43.4496 106.232 43.6225C106.592 43.7955 106.866 44.0398 107.054 44.354C107.241 44.669 107.334 45.0392 107.334 45.4667C107.334 45.8943 107.241 46.2711 107.054 46.5978C106.867 46.9245 106.593 47.1806 106.232 47.3646C105.871 47.5501 105.428 47.6421 104.904 47.6421H102.159V40.2646H103.046V46.8642H104.904C105.238 46.8642 105.521 46.7965 105.753 46.6611C105.984 46.525 106.161 46.3498 106.281 46.1349C106.402 45.92 106.462 45.6926 106.462 45.4527C106.462 45.0995 106.327 44.7948 106.059 44.5395C105.789 44.2841 105.405 44.1561 104.904 44.1561H102.818V43.3628ZM108.935 40.2653V47.6428H108.05V40.2653H108.935Z" fill="black"/>
<path d="M112.216 40.2653H113.089V46.0724H113.16L117.163 40.2653H118.021V47.6428H117.135V41.8505H117.064L113.076 47.6428H112.217V40.2653H112.216ZM115.819 38.4211H116.605C116.605 38.8104 116.471 39.1283 116.205 39.3756C115.938 39.6229 115.576 39.7465 115.119 39.7465C114.662 39.7465 114.31 39.6229 114.045 39.3756C113.779 39.1283 113.646 38.8104 113.646 38.4211H114.433C114.433 38.6081 114.484 38.7729 114.588 38.9142C114.691 39.0562 114.868 39.1261 115.119 39.1261C115.369 39.1261 115.548 39.0555 115.657 38.9142C115.765 38.7722 115.82 38.6081 115.82 38.4211H115.819Z" fill="black"/>
<path d="M124.993 49.4296V46.8502H125.465C125.627 46.7008 125.78 46.4904 125.924 46.2181C126.068 45.945 126.19 45.5808 126.292 45.123C126.393 44.666 126.46 44.0839 126.493 43.3782L126.651 40.2661H130.997V46.8517H131.839V49.4163H130.997V47.6443H125.836V49.431H124.994L124.993 49.4296ZM126.523 46.8509H130.153V41.0579H127.451L127.336 43.3782C127.308 43.9162 127.258 44.4033 127.186 44.839C127.115 45.2746 127.023 45.6603 126.912 45.9951C126.799 46.3299 126.669 46.6155 126.523 46.8509Z" fill="black"/>
<path d="M140.858 43.9537C140.858 44.7323 140.719 45.4049 140.44 45.9716C140.161 46.5382 139.779 46.9753 139.293 47.2822C138.807 47.5906 138.252 47.7436 137.628 47.7436C137.004 47.7436 136.449 47.5906 135.963 47.2822C135.476 46.9753 135.094 46.5382 134.815 45.9716C134.536 45.4049 134.397 44.7323 134.397 43.9537C134.397 43.1751 134.536 42.5032 134.815 41.9366C135.094 41.3699 135.476 40.9328 135.963 40.6259C136.449 40.3176 137.004 40.1645 137.628 40.1645C138.252 40.1645 138.807 40.3176 139.293 40.6259C139.779 40.9328 140.161 41.3699 140.44 41.9366C140.719 42.5032 140.858 43.1759 140.858 43.9537ZM139.999 43.9537C139.999 43.3157 139.894 42.7763 139.683 42.3362C139.473 41.8968 139.188 41.5642 138.829 41.3383C138.471 41.1131 138.07 40.9998 137.627 40.9998C137.184 40.9998 136.782 41.1131 136.424 41.3383C136.066 41.5642 135.781 41.8968 135.57 42.3362C135.36 42.7763 135.254 43.3149 135.254 43.9537C135.254 44.5925 135.36 45.1319 135.57 45.572C135.781 46.0113 136.066 46.3439 136.424 46.5699C136.782 46.795 137.183 46.9084 137.627 46.9084C138.071 46.9084 138.471 46.795 138.829 46.5699C139.188 46.3439 139.473 46.0113 139.683 45.572C139.894 45.1319 139.999 44.5932 139.999 43.9537Z" fill="black"/>
<path d="M143.853 40.2653H144.912L147.399 46.3895H147.485L149.972 40.2653H151.03V47.6428H150.201V42.0374H150.13L147.842 47.6428H147.042L144.755 42.0374H144.683V47.6428H143.853V40.2653Z" fill="black"/>
<path d="M52.0007 16.56H67.457V20.6988H57.072V33.7243H52V16.56H52.0007ZM90.3046 33.6515H85.2325L84.001 30.4863H76.2243L74.9928 33.6515H69.9208L76.49 16.6093H83.7353L90.3046 33.6515ZM77.8186 26.3476H82.4074L80.3788 21.0645H79.8473L77.8186 26.3476ZM96.3665 16.6093H111.968V20.7481H101.439V22.7689H107.984C109.883 22.7689 111.292 23.1994 112.21 24.0589C113.128 24.9192 113.587 26.3071 113.587 28.222C113.587 30.1368 113.132 31.4967 112.223 32.3489C111.313 33.2011 109.924 33.6353 108.057 33.6515H96.3679V16.6093H96.3665ZM107.983 29.8292C108.482 29.8292 108.856 29.679 109.106 29.3788C109.355 29.0785 109.48 28.6848 109.48 28.1977C109.48 27.7105 109.355 27.3212 109.106 27.029C108.856 26.7369 108.482 26.5912 107.983 26.5912H101.438V29.8292H107.983ZM119.889 16.6093H135.491V20.7481H124.961V22.7689H131.507C133.406 22.7689 134.815 23.1994 135.733 24.0589C136.651 24.9192 137.11 26.3071 137.11 28.222C137.11 30.1368 136.655 31.4967 135.746 32.3489C134.836 33.2011 133.447 33.6353 131.579 33.6515H119.891V16.6093H119.889ZM131.506 29.8292C132.004 29.8292 132.379 29.679 132.629 29.3788C132.878 29.0785 133.003 28.6848 133.003 28.1977C133.003 27.7105 132.878 27.3212 132.629 27.029C132.379 26.7369 132.004 26.5912 131.506 26.5912H124.961V29.8292H131.506ZM148.484 33.6515H143.412V16.6093H155.004C157.21 16.6093 158.848 17.1083 159.919 18.1069C160.99 19.1048 161.525 20.7164 161.525 22.9396C161.525 25.1628 160.989 26.7744 159.919 27.7723C158.848 28.7702 157.21 29.2699 155.004 29.2699H148.483V33.6522L148.484 33.6515ZM148.484 25.1304H154.426C155.102 25.1304 155.609 24.9317 155.947 24.5336C156.285 24.1362 156.454 23.596 156.454 22.9146C156.454 22.2331 156.285 21.7217 155.947 21.3324C155.609 20.9431 155.102 20.7481 154.426 20.7481H148.484V25.1304ZM167.128 25.1304C167.128 21.9653 167.95 19.6523 169.592 18.1915C171.235 16.7308 173.633 16 176.789 16C179.945 16 182.344 16.7308 183.986 18.1915C185.629 19.6523 186.45 21.9653 186.45 25.1304C186.45 28.2955 185.629 30.6291 183.986 32.0811C182.344 33.5337 179.945 34.2601 176.789 34.2601C173.633 34.2601 171.235 33.5337 169.592 32.0811C167.95 30.6284 167.128 28.3117 167.128 25.1304ZM172.151 25.1061C172.151 26.6486 172.546 27.8695 173.335 28.7702C174.123 29.671 175.282 30.1213 176.812 30.1213C178.343 30.1213 179.493 29.6754 180.266 28.782C181.039 27.8893 181.425 26.664 181.425 25.1054C181.425 23.5467 181.035 22.3906 180.254 21.4899C179.473 20.5891 178.325 20.1387 176.812 20.1387C175.3 20.1387 174.103 20.5854 173.322 21.4781C172.541 22.3708 172.151 23.5806 172.151 25.1054L172.151 25.1061Z" fill="#312F30"/>
</svg>
