<svg width="14" height="14" viewBox="0 0 14 14" fill="none" xmlns="http://www.w3.org/2000/svg">
<path d="M11.5352 6.20752C11.535 3.32688 9.19906 0.991699 6.31836 0.991699C3.43781 0.991871 1.10269 3.32698 1.10254 6.20752C1.10254 9.08819 3.43771 11.4241 6.31836 11.4243C9.19916 11.4243 11.5352 9.08829 11.5352 6.20752ZM12.5352 6.20752C12.5352 7.7958 11.9372 9.24348 10.957 10.3423L14 13.2905L13.6523 13.6499L13.3047 14.0083L10.2334 11.0337C9.16448 11.9019 7.80274 12.4243 6.31836 12.4243C2.88543 12.4241 0.102539 9.64048 0.102539 6.20752C0.102694 2.77469 2.88553 -0.00812891 6.31836 -0.00830078C9.75134 -0.00830078 12.535 2.77459 12.5352 6.20752Z" fill="#363636" fill-opacity="0.7"/>
</svg>
