<svg width="411" height="20" viewBox="0 0 411 20" fill="none" xmlns="http://www.w3.org/2000/svg">
<g opacity="0.5">
<path fill-rule="evenodd" clip-rule="evenodd" d="M13 6V3C13 2.735 13.1054 2.48 13.2929 2.293C13.4804 2.105 13.7348 2 14 2C14.2652 2 14.5196 2.105 14.7071 2.293C14.8946 2.48 15 2.735 15 3V6H13ZM10 6V1C10 0.735 10.1054 0.479999 10.2929 0.292999C10.4804 0.104999 10.7348 0 11 0C11.2652 0 11.5196 0.104999 11.7071 0.292999C11.8946 0.479999 12 0.735 12 1V6H10ZM7 6V3C7 2.735 7.10536 2.48 7.29289 2.293C7.48043 2.105 7.73478 2 8 2C8.26522 2 8.51957 2.105 8.70711 2.293C8.89464 2.48 9 2.735 9 3V6H7ZM4 6V5C4 4.735 4.10536 4.48 4.29289 4.293C4.48043 4.105 4.73478 4 5 4C5.26522 4 5.51957 4.105 5.70711 4.293C5.89464 4.48 6 4.735 6 5V6H4Z" fill="white" fill-opacity="0.2"/>
<path d="M14 2.5C14.133 2.5 14.2603 2.553 14.3535 2.64648L14.3545 2.64746C14.4472 2.7402 14.5 2.86746 14.5 3V5.5H13.5V3C13.5 2.86746 13.5528 2.7402 13.6455 2.64746L13.6465 2.64648C13.7397 2.553 13.867 2.5 14 2.5ZM11 0.5C11.133 0.5 11.2603 0.553002 11.3535 0.646484L11.3545 0.647461C11.4472 0.740198 11.5 0.867463 11.5 1V5.5H10.5V1C10.5 0.867463 10.5528 0.740198 10.6455 0.647461L10.6465 0.646484C10.7397 0.553002 10.867 0.5 11 0.5ZM8 2.5C8.133 2.5 8.2602 2.55294 8.35352 2.64648L8.35449 2.64746C8.44722 2.74016 8.5 2.8674 8.5 3V5.5H7.5V3C7.5 2.8674 7.55278 2.74016 7.64551 2.64746L7.64648 2.64648C7.7398 2.55294 7.867 2.5 8 2.5ZM5 4.5C5.133 4.5 5.2602 4.55294 5.35352 4.64648L5.35449 4.64746C5.44722 4.74015 5.5 4.8674 5.5 5V5.5H4.5V5C4.5 4.8674 4.55278 4.74016 4.64551 4.64746L4.64648 4.64648C4.7398 4.55294 4.867 4.5 5 4.5Z" stroke="white" stroke-opacity="0.2"/>
</g>
<path fill-rule="evenodd" clip-rule="evenodd" d="M17 16V9C17 8.735 16.8946 8.48 16.7071 8.293C16.5196 8.105 16.2652 8 16 8C15.7348 8 15.4804 8.105 15.2929 8.293C15.1054 8.48 15 8.735 15 9V12.051C14.8348 12.022 14.6677 12.005 14.5 12C13.5717 12 12.6815 12.369 12.0251 13.025C11.3688 13.681 11 14.572 11 15.5C11.0059 15.668 11.0246 15.835 11.056 16H0V6H20V16H17ZM5 9C4.60444 9 4.21775 9.11701 3.88885 9.33701C3.55996 9.55701 3.30361 9.86899 3.15224 10.235C3.00086 10.6 2.96127 11.002 3.03844 11.39C3.11561 11.778 3.30608 12.135 3.58578 12.414C3.86549 12.694 4.22186 12.884 4.60982 12.962C4.99778 13.039 5.39991 12.999 5.76537 12.848C6.13082 12.696 6.44317 12.44 6.66293 12.111C6.8827 11.782 7 11.396 7 11C7 10.47 6.78929 9.961 6.41422 9.586C6.03914 9.211 5.53043 9 5 9Z" fill="white" fill-opacity="0.2"/>
<path d="M19.5 6.5V15.5H17.5V9C17.5 8.60295 17.3423 8.22064 17.0605 7.93945H17.0615C16.7798 7.65696 16.3974 7.5 16 7.5C15.6026 7.5 15.2202 7.65696 14.9385 7.93945C14.6571 8.22059 14.5 8.60318 14.5 9V11.5C13.4392 11.5 12.4219 11.9215 11.6719 12.6709C10.9217 13.4208 10.5 14.4395 10.5 15.5H0.5V6.5H19.5ZM5 8.5C4.50583 8.5 4.02274 8.64671 3.61133 8.92188C3.20079 9.19649 2.87978 9.58563 2.69043 10.043C2.50112 10.4994 2.45148 11.0025 2.54785 11.4873C2.6322 11.9114 2.8249 12.3067 3.10645 12.6328L3.23242 12.7676C3.58238 13.1178 4.02802 13.3549 4.51172 13.4521H4.5127C4.99768 13.5484 5.49995 13.4989 5.95605 13.3105L5.95703 13.3096C6.41308 13.1199 6.80424 12.8002 7.0791 12.3887C7.35361 11.9776 7.5 11.4949 7.5 11C7.5 10.3374 7.23647 9.70123 6.76758 9.23242C6.29888 8.76386 5.66318 8.5 5 8.5Z" stroke="white" stroke-opacity="0.2"/>
<g opacity="0.7">
<path d="M5 13C6.10457 13 7 12.105 7 11C7 9.895 6.10457 9 5 9C3.89543 9 3 9.895 3 11C3 12.105 3.89543 13 5 13Z" fill="white" fill-opacity="0.2"/>
<path d="M5 9.5C5.8285 9.5 6.5 10.1712 6.5 11C6.5 11.8288 5.8285 12.5 5 12.5C4.1715 12.5 3.5 11.8288 3.5 11C3.5 10.1712 4.1715 9.5 5 9.5Z" stroke="white" stroke-opacity="0.2"/>
</g>
<g opacity="0.5">
<path fill-rule="evenodd" clip-rule="evenodd" d="M17 16.937C16.4192 17.873 15.6094 18.645 14.647 19.181C13.6847 19.717 12.6015 19.999 11.5 20H10.5C9.21674 20 7.96219 19.62 6.89445 18.908C5.82672 18.196 4.99356 17.185 4.5 16H11.056C11.0246 15.835 11.0059 15.668 11 15.5C11 14.572 11.3688 13.681 12.0251 13.025C12.6815 12.369 13.5717 12 14.5 12C14.6677 12.005 14.8348 12.022 15 12.051V9C15 8.735 15.1054 8.48 15.2929 8.293C15.4804 8.105 15.7348 8 16 8C16.2652 8 16.5196 8.105 16.7071 8.293C16.8946 8.48 17 8.735 17 9V16.937Z" fill="white" fill-opacity="0.2"/>
<path d="M16 8.5C16.133 8.5 16.2603 8.553 16.3535 8.64648L16.3545 8.64746C16.4472 8.7402 16.5 8.86746 16.5 9V16.7861C15.9701 17.5984 15.2521 18.2714 14.4033 18.7441C13.5154 19.2386 12.5162 19.499 11.5 19.5H10.5C9.31554 19.5 8.15747 19.1494 7.17188 18.4922C6.40147 17.9785 5.76413 17.2956 5.30469 16.5H11.6602L11.5469 15.9062C11.5207 15.7687 11.5053 15.6294 11.5 15.4893C11.5028 14.6976 11.8191 13.9385 12.3789 13.3789C12.9396 12.8186 13.6988 12.5023 14.4912 12.5C14.6329 12.5045 14.7738 12.5195 14.9131 12.5439L15.5 12.6465V9C15.5 8.86746 15.5528 8.7402 15.6455 8.64746L15.6465 8.64648C15.7397 8.553 15.867 8.5 16 8.5Z" stroke="white" stroke-opacity="0.2"/>
</g>
<path fill-rule="evenodd" clip-rule="evenodd" d="M69.1079 16.0002C69.1079 16.0002 68.8779 14.6002 68.8009 14.2482H65.4829C65.3909 14.5232 64.9319 16.0002 64.9319 16.0002H62.2249L66.0639 6.84419C66.1593 6.57219 66.3446 6.3402 66.5893 6.1872C66.834 6.0352 67.1235 5.97019 67.4099 6.00419H69.4099L71.5099 16.0042H69.1099L69.1079 16.0002ZM67.7769 9.55918L67.5929 8.70518C67.4709 9.08618 67.2409 9.68218 67.2569 9.66618C67.2569 9.66618 66.4309 11.8782 66.2319 12.4582H68.3729C68.2659 11.9552 67.7769 9.55918 67.7769 9.55918ZM62.2089 8.30918C61.6042 8.03618 60.945 7.90519 60.2819 7.92719C59.2569 7.92719 58.7979 8.3542 58.7819 8.7812C58.7819 9.2552 59.3329 9.55919 60.2499 10.0172C61.7339 10.7172 62.4219 11.5892 62.4069 12.7332C62.3919 14.7922 60.6329 16.1332 57.9069 16.1332C56.9237 16.1362 55.9487 15.9552 55.0319 15.6002L55.3829 13.3572L55.7349 13.5252C56.486 13.8942 57.315 14.0782 58.1519 14.0592C58.4873 14.1242 58.8351 14.0602 59.1248 13.8792C59.4145 13.6972 59.6243 13.4122 59.7119 13.0822C59.7119 12.6402 59.3759 12.3192 58.3659 11.8312C57.3869 11.3592 56.0869 10.5662 56.1019 9.1312C56.1179 7.1942 57.9069 5.83118 60.4619 5.83118C61.2554 5.82618 62.0431 5.9652 62.7869 6.2422L62.4349 8.40919L62.2089 8.30918ZM50.8289 16.0002L52.4509 6.00019H55.0359L53.4149 16.0002H50.8289ZM44.6039 16.0002L42.5969 8.47218L42.4399 7.86118C42.7936 8.03818 43.1286 8.25018 43.4399 8.49418C44.3813 9.26218 45.1862 10.1842 45.8209 11.2202L45.8129 11.1772L45.8629 11.4362L46.1389 12.8092L48.6729 6.00019H51.4109L47.3419 16.0002H44.5999H44.6039Z" fill="white" fill-opacity="0.2"/>
<path d="M60.4624 6.33105H60.4653C61.0621 6.32732 61.6546 6.41347 62.2251 6.58301L62.0425 7.70605C61.4787 7.50575 60.8823 7.40888 60.2817 7.42676C59.7063 7.42679 59.2309 7.54633 58.8804 7.77539C58.5225 8.00939 58.2977 8.36184 58.2827 8.7627L58.2817 8.77148V8.78125C58.2818 9.24852 58.5668 9.57247 58.8687 9.80273C59.1657 10.0293 59.5785 10.2409 60.0269 10.4648L60.0366 10.4697C60.7379 10.8005 61.2073 11.1522 61.4985 11.5195C61.7813 11.8761 61.9127 12.2674 61.9067 12.7266V12.7295C61.9004 13.6019 61.5317 14.3066 60.8716 14.8066C60.1991 15.3161 59.1936 15.6328 57.9067 15.6328H57.9058C57.1183 15.6352 56.3365 15.5105 55.5894 15.2666L55.7729 14.0918C56.5109 14.41 57.3085 14.569 58.1147 14.5576C58.5558 14.6288 59.0093 14.5417 59.3901 14.3037L59.3911 14.3027C59.7877 14.0536 60.0747 13.6631 60.1948 13.2109L60.2124 13.1475V13.082C60.2124 12.6999 60.0527 12.3827 59.7593 12.1084C59.5575 11.9198 59.2846 11.7441 58.9448 11.5635L58.5835 11.3809L58.2222 11.1973C57.8599 11.0018 57.5008 10.7689 57.2114 10.4854C56.8347 10.1161 56.5964 9.68251 56.6021 9.13672V9.13574C56.6148 7.58897 58.0496 6.33105 60.4624 6.33105ZM67.3511 6.50098L67.3804 6.50391H69.0034L70.894 15.5039H69.5317C69.5147 15.4026 69.496 15.289 69.4761 15.1719C69.4099 14.7832 69.3312 14.3319 69.2896 14.1416L69.2036 13.748H65.1226L65.0083 14.0898C64.9602 14.2337 64.821 14.6777 64.6958 15.0781C64.6485 15.2295 64.6026 15.376 64.564 15.5H62.9771L66.5249 7.03711L66.5308 7.02344L66.5356 7.00977C66.5933 6.84529 66.7055 6.70503 66.853 6.6123C67.002 6.51978 67.178 6.48043 67.3511 6.50098ZM54.4487 6.5L52.9897 15.5H51.4165L52.8765 6.5H54.4487ZM50.6675 6.5L47.0054 15.5H44.9888L43.2515 8.99121C44.0714 9.68283 44.7788 10.4978 45.3472 11.4082L45.3716 11.5312L45.3726 11.5352L45.6489 12.9082L45.9946 14.6299L46.6079 12.9834L49.02 6.5H50.6675ZM67.1167 8.55273C67.0591 8.73255 66.974 8.9682 66.9028 9.16406C66.8683 9.25906 66.8369 9.3467 66.8149 9.4082C66.8043 9.43811 66.7932 9.46871 66.7856 9.49219C66.7842 9.49661 66.7819 9.50506 66.7788 9.51562V9.5166C66.7727 9.53298 66.7639 9.55725 66.7524 9.58789C66.7294 9.64958 66.696 9.73849 66.6558 9.84668C66.5752 10.0632 66.4658 10.358 66.3501 10.6709C66.1196 11.2939 65.8612 11.9989 65.7593 12.2959L65.5317 12.958H68.9907L68.8618 12.3545C68.8088 12.1053 68.6607 11.3826 68.5249 10.7197C68.4571 10.3889 68.3927 10.0733 68.3452 9.84082C68.3215 9.72496 68.3012 9.62986 68.2876 9.56348C68.2808 9.53027 68.2756 9.50399 68.272 9.48633C68.2702 9.4775 68.269 9.47036 68.2681 9.46582C68.2676 9.46369 68.2673 9.46204 68.2671 9.46094V9.45898L68.2661 9.4541L68.0815 8.59961L67.688 6.77051L67.1167 8.55273ZM67.2622 9.54297L66.9038 9.3125C66.9197 9.2966 66.9601 9.25855 67.022 9.22559C67.0518 9.2097 67.1081 9.18428 67.1821 9.17285L67.2622 9.54297Z" stroke="white" stroke-opacity="0.2"/>
<g opacity="0.5">
<path fill-rule="evenodd" clip-rule="evenodd" d="M43.4348 8.49426C43.1235 8.25026 42.7885 8.03827 42.4348 7.86127L42.2878 7.30728C41.5577 6.87728 40.7775 6.53828 39.9648 6.29828V5.98828H43.9358C44.1739 5.98928 44.4045 6.07128 44.5892 6.22128C44.774 6.37128 44.9016 6.58026 44.9508 6.81326L45.8108 11.2203C45.1776 10.1843 44.3744 9.26326 43.4348 8.49426Z" fill="white" fill-opacity="0.2"/>
<path d="M43.9336 6.48828L44.0264 6.49609C44.1171 6.51205 44.2027 6.55115 44.2744 6.60938C44.346 6.66753 44.4007 6.74316 44.4346 6.82812L44.4619 6.91699L44.9072 9.2002C44.5483 8.81046 44.1634 8.44422 43.752 8.10742L43.7432 8.10059C43.4661 7.88342 43.1709 7.69105 42.8623 7.52246L42.7715 7.17871L42.7188 6.98047L42.542 6.87598L42.252 6.71191C42.1093 6.63367 41.9643 6.55999 41.8184 6.48828H43.9336Z" stroke="white" stroke-opacity="0.2"/>
</g>
<path d="M109.994 9.203C109.998 9.302 110 9.401 110 9.5C110 13.642 106.642 17 102.5 17C98.358 17 95 13.642 95 9.5C95 5.358 98.358 2 102.5 2C104.024 2 105.441 2.45399 106.624 3.23499L108.257 1.94199C106.66 0.723986 104.664 0 102.5 0C97.253 0 93 4.253 93 9.5C93 14.747 97.253 19 102.5 19C107.747 19 112 14.747 112 9.5C112 8.895 111.943 8.303 111.835 7.729L109.994 9.203Z" fill="white" fill-opacity="0.2"/>
<path d="M102.5 0.5C104.317 0.5 106.007 1.03965 107.421 1.96484L106.589 2.62402C105.392 1.91036 103.994 1.5 102.5 1.5C98.0819 1.5 94.5 5.08186 94.5 9.5C94.5 13.9181 98.0819 17.5 102.5 17.5C106.918 17.5 110.5 13.9181 110.5 9.5C110.5 9.47981 110.498 9.45964 110.498 9.43945L111.461 8.66797C111.486 8.942 111.5 9.21946 111.5 9.5C111.5 14.4709 107.471 18.5 102.5 18.5C97.5291 18.5 93.5 14.4709 93.5 9.5C93.5 4.52914 97.5291 0.5 102.5 0.5Z" stroke="white" stroke-opacity="0.2"/>
<path d="M102.5 12L111.049 5.35101C110.757 4.75201 110.405 4.18799 109.999 3.66699L102.5 9.5L99 7.31299V9.80499L102.5 12Z" fill="white" fill-opacity="0.2"/>
<path d="M109.9 4.37598C110.086 4.64386 110.257 4.92303 110.413 5.21094L102.469 11.3896L99.5 9.52832V8.21484L102.235 9.92383L102.531 10.1094L102.807 9.89453L109.9 4.37598Z" stroke="white" stroke-opacity="0.2"/>
<g opacity="0.5">
<path fill-rule="evenodd" clip-rule="evenodd" d="M148 17.9999C146.595 17.9999 145.215 17.6279 144 16.9209C145.216 16.2199 146.226 15.2119 146.928 13.9969C147.63 12.7819 148 11.4029 148 9.99986C148 8.59686 147.63 7.21785 146.928 6.00285C146.226 4.78785 145.216 3.77987 144 3.07887C145.063 2.46287 146.253 2.09987 147.478 2.01787C148.704 1.93587 149.932 2.13685 151.067 2.60585C152.202 3.07485 153.214 3.79885 154.024 4.72185C154.835 5.64485 155.422 6.74185 155.74 7.92885C156.058 9.11485 156.098 10.3589 155.858 11.5628C155.618 12.7678 155.104 13.9009 154.356 14.8749C153.607 15.8489 152.645 16.6368 151.543 17.1788C150.44 17.7208 149.228 18.0019 148 17.9999Z" fill="white" fill-opacity="0.2"/>
<path d="M147.512 2.5166C148.661 2.43978 149.812 2.62877 150.876 3.06836C151.807 3.45311 152.65 4.02076 153.354 4.73633L153.648 5.05176C154.409 5.91702 154.959 6.94583 155.257 8.05859C155.555 9.17017 155.592 10.3361 155.367 11.4648C155.142 12.5946 154.66 13.6571 153.959 14.5703C153.257 15.4833 152.355 16.2224 151.322 16.7305C150.288 17.2386 149.152 17.5018 148.001 17.5H148C146.963 17.5 145.942 17.2825 144.998 16.8672C145.958 16.1705 146.765 15.2797 147.361 14.2471C148.107 12.9562 148.5 11.4908 148.5 10C148.5 8.50924 148.107 7.04383 147.361 5.75293C146.765 4.72042 145.959 3.82852 144.999 3.13184C145.793 2.78361 146.643 2.57475 147.512 2.5166Z" stroke="white" stroke-opacity="0.2"/>
</g>
<path fill-rule="evenodd" clip-rule="evenodd" d="M140 10C140 11.403 140.37 12.782 141.072 13.997C141.775 15.212 142.784 16.22 144 16.921C142.784 17.626 141.404 17.998 139.998 18C138.593 18.002 137.212 17.633 135.994 16.932C134.776 16.23 133.764 15.22 133.061 14.003C132.358 12.786 131.988 11.406 131.988 10C131.988 8.59401 132.358 7.21402 133.061 5.99702C133.764 4.78002 134.776 3.77 135.994 3.068C137.212 2.367 138.593 1.99801 139.998 2.00001C141.404 2.00201 142.784 2.37402 144 3.07902C142.784 3.78002 141.775 4.788 141.072 6.003C140.37 7.218 140 8.59701 140 10Z" fill="white" fill-opacity="0.2"/>
<path d="M139.997 2.5C141.034 2.50148 142.056 2.71858 143 3.13281C142.041 3.82948 141.236 4.72093 140.639 5.75293C139.893 7.04391 139.5 8.50911 139.5 10C139.5 11.4909 139.893 12.9561 140.639 14.2471C141.236 15.2789 142.042 16.1696 143 16.8662C142.056 17.2806 141.034 17.4985 139.997 17.5C138.68 17.5018 137.386 17.1561 136.244 16.499C135.102 15.8408 134.153 14.8937 133.494 13.7529C132.835 12.612 132.488 11.3182 132.488 10C132.488 8.68181 132.835 7.38803 133.494 6.24707C134.153 5.10631 135.102 4.1592 136.244 3.50098C137.386 2.84391 138.68 2.49821 139.997 2.5Z" stroke="white" stroke-opacity="0.2"/>
<g opacity="0.75">
<path fill-rule="evenodd" clip-rule="evenodd" d="M144 16.9211C142.784 16.2201 141.774 15.2121 141.072 13.9971C140.37 12.7821 140 11.4031 140 10.0001C140 8.59709 140.37 7.21808 141.072 6.00308C141.774 4.78808 142.784 3.7801 144 3.0791C145.216 3.7801 146.226 4.78808 146.928 6.00308C147.63 7.21808 148 8.59709 148 10.0001C148 11.4031 147.63 12.7821 146.928 13.9971C146.226 15.2121 145.216 16.2201 144 16.9211Z" fill="white" fill-opacity="0.2"/>
<path d="M144 3.66309C145.029 4.3106 145.886 5.19849 146.495 6.25293C147.153 7.39192 147.5 8.68492 147.5 10C147.5 11.3151 147.153 12.6081 146.495 13.7471C145.886 14.8014 145.028 15.6884 144 16.3359C142.972 15.6884 142.114 14.8014 141.505 13.7471C140.847 12.6081 140.5 11.3151 140.5 10C140.5 8.68492 140.847 7.39192 141.505 6.25293C142.114 5.19849 142.971 4.3106 144 3.66309Z" stroke="white" stroke-opacity="0.2"/>
</g>
<path fill-rule="evenodd" clip-rule="evenodd" d="M188.839 14.2682L186.819 15.0023C186.754 15.0253 186.683 15.0212 186.621 14.9922C186.559 14.9642 186.511 14.9122 186.486 14.8482L185.439 12.0162H180.539L179.495 14.8423C179.47 14.9063 179.422 14.9582 179.36 14.9862C179.298 15.0152 179.228 15.0193 179.163 14.9973L177.146 14.2632C177.114 14.2532 177.085 14.2372 177.059 14.2152C177.034 14.1942 177.013 14.1672 176.998 14.1382C176.983 14.1082 176.974 14.0752 176.972 14.0422C176.97 14.0092 176.974 13.9752 176.985 13.9442L181.063 3.24423C181.227 2.87123 181.496 2.55424 181.838 2.33124C182.179 2.10924 182.578 1.99023 182.985 1.99023C183.392 1.99023 183.791 2.10924 184.132 2.33124C184.474 2.55424 184.743 2.87123 184.907 3.24423L189 13.9503C189.011 13.9813 189.015 14.0152 189.013 14.0482C189.011 14.0812 189.002 14.1132 188.987 14.1432C188.972 14.1732 188.951 14.1993 188.926 14.2213C188.9 14.2423 188.871 14.2582 188.839 14.2682ZM183.309 5.94424L182.988 5.04425V5.03723L181.143 10.0002H184.835L183.309 5.94424ZM176.984 17.0002H189.016C189.272 17.0082 189.514 17.1153 189.692 17.2993C189.87 17.4833 189.97 17.7293 189.97 17.9843C189.97 18.2403 189.87 18.4863 189.692 18.6703C189.514 18.8543 189.272 18.9612 189.016 18.9692H176.984C176.728 18.9612 176.486 18.8543 176.308 18.6703C176.13 18.4863 176.03 18.2403 176.03 17.9843C176.03 17.7293 176.13 17.4833 176.308 17.2993C176.486 17.1153 176.728 17.0082 176.984 17.0002Z" fill="white" fill-opacity="0.2"/>
<path d="M189 17.5L189.093 17.5117C189.184 17.5324 189.267 17.5788 189.333 17.6465C189.421 17.7379 189.47 17.86 189.47 17.9844C189.47 18.1098 189.421 18.2311 189.333 18.3223C189.245 18.4126 189.127 18.4657 189 18.4697H177C176.873 18.4658 176.755 18.4127 176.667 18.3223C176.579 18.2311 176.53 18.1099 176.53 17.9844C176.53 17.86 176.579 17.7379 176.667 17.6465C176.733 17.5788 176.816 17.5323 176.907 17.5117L177 17.5H189ZM182.985 2.49023C183.256 2.49025 183.523 2.55965 183.759 2.69043L183.859 2.75C184.12 2.91996 184.324 3.16152 184.449 3.44531L188.438 13.8809L186.872 14.4502L185.908 11.8428L185.787 11.5166H180.191L180.07 11.8428L179.108 14.4453L177.544 13.876L181.523 3.43652C181.632 3.19157 181.803 2.97954 182.016 2.81738L182.111 2.75C182.371 2.58071 182.675 2.49023 182.985 2.49023ZM182.519 4.86328L180.674 9.82617L180.423 10.5H185.557L185.303 9.82422L183.777 5.76855L183.458 4.87598L183.167 4.97949L182.519 4.86328Z" stroke="white" stroke-opacity="0.2"/>
<path fill-rule="evenodd" clip-rule="evenodd" d="M219.01 15.0002V9.65523H218.766L217.026 15.0002H214.96H214.954L213.218 9.65523H212.976V15.0002H210V6.00023H212.976C213.343 5.99523 213.702 6.10825 214 6.32125C214.299 6.53425 214.522 6.83724 214.636 7.18624L215.859 11.3462H216.116L217.341 7.18624C217.456 6.83624 217.68 6.53223 217.981 6.31923C218.281 6.10523 218.642 5.99423 219.01 6.00023H221.986V15.0002H219.01Z" fill="white" fill-opacity="0.2"/>
<path d="M212.982 6.5C213.242 6.49646 213.497 6.57645 213.709 6.72754L213.71 6.72852C213.92 6.87809 214.077 7.09003 214.158 7.33398L215.379 11.4873L215.484 11.8467H216.49L216.596 11.4873L217.815 7.3418L217.816 7.34277C217.898 7.0943 218.056 6.8784 218.27 6.72754L218.271 6.72656C218.484 6.57531 218.74 6.49572 219.002 6.5H221.486V14.5H219.51V9.15527H218.403L218.291 9.5L216.663 14.5H215.317L213.693 9.50098L213.581 9.15527H212.476V14.5H210.5V6.5H212.982Z" stroke="white" stroke-opacity="0.2"/>
<path fill-rule="evenodd" clip-rule="evenodd" d="M229.978 15V9.655H229.751L227.87 14.14C227.754 14.396 227.567 14.614 227.331 14.767C227.095 14.919 226.819 15 226.538 15H224.013V6H227.013V11.345H227.251L229.156 6.85501L229.171 6.82101C229.291 6.57601 229.478 6.36901 229.71 6.22501C229.942 6.08001 230.21 6.004 230.483 6.004H233.008V15.004H229.98L229.978 15Z" fill="white" fill-opacity="0.2"/>
<path d="M226.513 6.5V11.8447H227.583L227.711 11.54L229.616 7.0498L229.621 7.04102C229.699 6.88022 229.822 6.74375 229.974 6.64941H229.975C230.127 6.55463 230.303 6.50396 230.483 6.50391H232.508V14.5039H230.478V9.15527H229.418L229.291 9.46191L227.412 13.9375C227.335 14.1046 227.214 14.2469 227.06 14.3467C226.905 14.4463 226.724 14.4999 226.539 14.5H224.513V6.5H226.513Z" stroke="white" stroke-opacity="0.2"/>
<path fill-rule="evenodd" clip-rule="evenodd" d="M241.547 12.0142H238.019V15.0002H235.019V9.99316H244.972C244.663 10.6292 244.173 11.1602 243.564 11.5192C242.955 11.8792 242.253 12.0512 241.547 12.0142Z" fill="white" fill-opacity="0.2"/>
<path d="M244.037 10.4932C243.877 10.6701 243.698 10.8294 243.501 10.9658L243.31 11.0889C242.786 11.3987 242.181 11.5465 241.573 11.5146H237.519V14.5H235.519V10.4932H244.037Z" stroke="white" stroke-opacity="0.2"/>
<g opacity="0.7">
<path fill-rule="evenodd" clip-rule="evenodd" d="M244.919 9.00601H239.507C237.035 9.00601 234.979 7.706 234.546 6H241.569C243.459 6 244.991 7.11699 244.991 8.49399C244.991 8.66699 244.967 8.83901 244.919 9.00601Z" fill="white" fill-opacity="0.2"/>
<path d="M241.569 6.5C242.42 6.50008 243.169 6.75219 243.694 7.13477C244.22 7.51772 244.491 8.00462 244.491 8.49414C244.491 8.49805 244.49 8.50195 244.49 8.50586H239.507C237.52 8.50584 235.94 7.62226 235.289 6.5H241.569Z" stroke="white" stroke-opacity="0.2"/>
</g>
<path fill-rule="evenodd" clip-rule="evenodd" d="M281 19C285.971 19 290 14.971 290 10C290 5.029 285.971 1 281 1C276.029 1 272 5.029 272 10C272 14.971 276.029 19 281 19ZM281 13.5C282.933 13.5 284.5 11.933 284.5 10C284.5 8.067 282.933 6.5 281 6.5C279.067 6.5 277.5 8.067 277.5 10C277.5 11.933 279.067 13.5 281 13.5Z" fill="white" fill-opacity="0.2"/>
<path d="M281 1.5C285.695 1.5 289.5 5.30514 289.5 10C289.5 14.6949 285.695 18.5 281 18.5C276.305 18.5 272.5 14.6949 272.5 10C272.5 5.30514 276.305 1.5 281 1.5ZM281 6C278.791 6 277 7.79086 277 10C277 12.2091 278.791 14 281 14C283.209 14 285 12.2091 285 10C285 7.79086 283.209 6 281 6Z" stroke="white" stroke-opacity="0.2"/>
<path d="M272 4H265L268.733 16H272V4Z" fill="white" fill-opacity="0.2"/>
<path d="M271.5 4.5V15.5H269.101L265.68 4.5H271.5Z" stroke="white" stroke-opacity="0.2"/>
<path d="M322.17 10.606L325.84 18.28H320.08L317.068 11.983C316.584 12.342 316.2 12.832 315.969 13.403C315.813 13.789 315.727 14.212 315.727 14.655C315.727 15.482 316.027 16.239 316.523 16.819C316.034 18.095 314.809 19 313.375 19C311.511 19 310 17.472 310 15.586C310 15.178 310.071 14.787 310.201 14.424C310.883 11.929 313.221 9.89501 315.83 9.39401L312.16 1.72H317.92L320.932 8.017C321.417 7.658 321.8 7.16798 322.031 6.59698C322.187 6.21098 322.273 5.788 322.273 5.345C322.273 4.518 321.973 3.761 321.477 3.181C321.966 1.905 323.191 1 324.625 1C326.489 1 328 2.528 328 4.414C328 4.822 327.929 5.21301 327.8 5.57501C327.117 8.07001 324.779 10.105 322.17 10.606Z" fill="white" fill-opacity="0.2"/>
<path d="M324.625 1.5C326.208 1.5 327.5 2.79882 327.5 4.41406C327.5 4.76369 327.439 5.09802 327.329 5.40723L327.322 5.4248L327.317 5.44336C326.689 7.73843 324.514 9.64688 322.076 10.1152L321.439 10.2373L321.719 10.8213L325.046 17.7803H320.396L317.52 11.7676L317.257 11.2197L316.771 11.5811C316.214 11.9941 315.772 12.5585 315.506 13.2158C315.326 13.6605 315.227 14.1472 315.227 14.6553C315.227 15.4891 315.493 16.2624 315.944 16.8906C315.471 17.8472 314.496 18.5 313.375 18.5C311.792 18.5 310.5 17.2012 310.5 15.5859C310.5 15.2364 310.561 14.9025 310.672 14.5928L310.684 14.5557C311.311 12.2608 313.485 10.3532 315.924 9.88477L316.561 9.7627L316.281 9.17871L312.954 2.21973H317.604L320.48 8.23242L320.742 8.7793L321.229 8.41895C321.788 8.0055 322.228 7.44112 322.494 6.78418C322.674 6.3395 322.773 5.85285 322.773 5.34473C322.773 4.5104 322.506 3.73677 322.055 3.1084C322.529 2.15208 323.504 1.5 324.625 1.5Z" stroke="white" stroke-opacity="0.2"/>
<path d="M353.921 14.205V8.349H357.348V6.21799H348V8.349H351.426V14.205H353.921ZM360.841 6.21799H358.346V14.205H360.841V6.21799ZM362.667 6.21799V14.205H364.963V9.79199L369.237 14.205H371.366V6.21799H369.071V10.597L364.896 6.21799H362.667ZM376.27 11.185L379.148 14.205H382.358L378.349 10.044L382.208 6.21799H379.181L376.27 9.22101H375.605V6.21799H373.193V14.205H375.605V11.185H376.27ZM387.321 6C384.077 6 382.131 7.846 382.131 10.228C382.131 12.611 384.077 14.457 387.321 14.457C390.548 14.457 392.494 12.611 392.494 10.228C392.494 7.846 390.548 6 387.321 6ZM387.321 12.51C385.707 12.51 384.676 11.537 384.676 10.228C384.676 8.919 385.707 7.96301 387.321 7.96301C388.917 7.96301 389.965 8.919 389.965 10.228C389.965 11.537 388.917 12.51 387.321 12.51ZM401.64 6.21799H393.64V14.205H396.052V11.419H401.291V9.65799H396.052V8.24799H401.64V6.21799ZM410.72 6.21799H402.72V14.205H405.132V11.419H410.371V9.65799H405.132V8.24799H410.72V6.21799Z" fill="white" fill-opacity="0.2"/>
<path d="M387.321 6.5C388.841 6.50006 390.011 6.93452 390.793 7.60156C391.57 8.26455 391.994 9.18137 391.994 10.2275C391.994 11.2745 391.57 12.1923 390.793 12.8555C390.011 13.5226 388.841 13.957 387.321 13.957C385.793 13.957 384.618 13.5226 383.834 12.8555C383.055 12.1924 382.631 11.2744 382.631 10.2275C382.631 9.18138 383.055 8.26448 383.834 7.60156C384.618 6.93453 385.793 6.5 387.321 6.5ZM410.22 6.71777V7.74805H404.632V10.1582H409.871V10.9189H404.632V13.7051H403.22V6.71777H410.22ZM401.14 6.71777V7.74805H395.552V10.1582H400.791V10.9189H395.552V13.7051H394.14V6.71777H401.14ZM375.105 6.71777V9.7207H376.481L376.629 9.56934L379.394 6.71777H380.993L377.997 9.68848L377.646 10.0361L377.989 10.3906L381.183 13.7051H379.362L376.632 10.8398L376.484 10.6846H375.105V13.7051H373.693V6.71777H375.105ZM364.682 6.71777L368.709 10.9424L369.571 11.8457V6.71777H370.866V13.7051H369.448L365.322 9.44434L364.463 8.55664V13.7051H363.167V6.71777H364.682ZM360.341 6.71777V13.7051H358.846V6.71777H360.341ZM356.848 6.71777V7.84863H353.421V13.7051H351.926V7.84863H348.5V6.71777H356.848ZM387.321 7.46289C386.417 7.46289 385.631 7.73167 385.063 8.22852C384.492 8.72919 384.176 9.43416 384.176 10.2275C384.176 11.0206 384.491 11.7296 385.062 12.2344C385.628 12.7359 386.414 13.0098 387.321 13.0098C388.22 13.0097 389.005 12.7354 389.572 12.2354C390.143 11.7319 390.465 11.0231 390.465 10.2275C390.465 9.43158 390.143 8.72684 389.57 8.22754C389.002 7.73212 388.218 7.46295 387.321 7.46289Z" stroke="white" stroke-opacity="0.2"/>
</svg>
