<svg width="13" height="21" viewBox="0 0 13 21" fill="none" xmlns="http://www.w3.org/2000/svg">
<path d="M10.2799 0C10.1066 0 9.89326 0.126667 9.63992 0.380001L0.279922 9.72C0.266588 9.74667 0.219922 9.81333 0.139921 9.92C0.0465883 10.0267 -7.82013e-05 10.14 -7.82013e-05 10.26C-7.82013e-05 10.4467 0.0932549 10.6333 0.279922 10.82L9.63992 20.16C9.89326 20.4133 10.1066 20.54 10.2799 20.54C10.3733 20.54 10.4599 20.52 10.5399 20.48C10.6066 20.44 10.6799 20.3867 10.7599 20.32C10.8266 20.24 10.8733 20.1867 10.8999 20.16L12.0399 18.98L12.2799 18.7C12.3733 18.6067 12.4199 18.4867 12.4199 18.34C12.4199 18.1933 12.3999 18.0867 12.3599 18.02C12.3199 17.94 12.2399 17.84 12.1199 17.72L4.63992 10.28L12.1199 2.82C12.2399 2.7 12.3199 2.60667 12.3599 2.54C12.3999 2.46 12.4199 2.34667 12.4199 2.2C12.4199 2.05333 12.3733 1.93333 12.2799 1.84L12.0399 1.56L10.8999 0.380001C10.8733 0.353333 10.8333 0.306666 10.7799 0.239999C10.7133 0.173333 10.6466 0.119999 10.5799 0.079999C10.4999 0.0266663 10.3999 0 10.2799 0Z" fill="#3D8CD1"/>
</svg>
