<svg width="56" height="43" viewBox="0 0 56 43" fill="none" xmlns="http://www.w3.org/2000/svg">
<path d="M52.991 5.35409C48.199 6.46952 44.2428 8.97925 41.1224 12.8833C38.1134 16.6757 36.609 20.9144 36.609 25.5992C38.2806 22.8106 41.2338 21.4163 45.4687 21.4163C48.3662 21.4163 50.8179 22.476 52.8239 24.5953C54.9413 26.7147 56 29.3359 56 32.4591C56 35.4708 54.8856 37.9805 52.6567 39.9883C50.5393 41.9961 47.809 43 44.4657 43C39.8965 43 36.3303 40.8807 33.7672 36.642C31.8726 33.6303 30.9254 29.8936 30.9254 25.4319C30.9254 20.0778 32.8756 14.8911 36.7761 9.8716C40.7881 4.7406 45.4687 1.45007 50.8179 0L52.991 5.35409ZM22.0657 5.35409C17.2736 6.46952 13.3174 8.97925 10.197 12.8833C7.18806 16.6757 5.68358 20.9144 5.68358 25.5992C7.35522 22.8106 10.3085 21.4163 14.5433 21.4163C17.4408 21.4163 19.8925 22.476 21.8985 24.5953C24.0159 26.7147 25.0746 29.3359 25.0746 32.4591C25.0746 35.4708 23.9602 37.9805 21.7313 39.9883C19.6139 41.9961 16.8836 43 13.5403 43C8.97114 43 5.40497 40.8807 2.84179 36.642C0.947264 33.6303 0 29.8936 0 25.4319C0 20.0778 1.95025 14.8911 5.85075 9.8716C9.86269 4.7406 14.5433 1.45007 19.8925 0L22.0657 5.35409Z" fill="#3D8CD1"/>
</svg>
