<svg width="15" height="15" fill="none" xmlns="http://www.w3.org/2000/svg"><path d="M7.622 0C11.759 0 15 3.37 15 7.522c.014 4.087-3.27 7.413-7.339 7.435-1.472 0-2.156-.216-3.346-1.079-.752.971-3.133 1.73-3.237.432 0-.975-.215-1.8-.459-2.699C.33 10.505 0 9.27 0 7.483 0 3.213 3.489 0 7.622 0zm0 1C4.005 1 1 3.8 1 7.483c0 1.646.298 2.773.585 3.868l.18.681c.15.607.274 1.249.303 1.962a1.59 1.59 0 00.18-.027c.24-.051.515-.157.766-.299.258-.146.43-.297.511-.402l.594-.767.784.57c.556.403.926.605 1.285.72.36.116.78.167 1.47.167 3.513-.02 6.354-2.892 6.342-6.43v-.004C14 3.899 11.183 1 7.622 1zm.151 1.692l.95.05-.001.102a4.85 4.85 0 013.61 4.883l-.002.027c-.176 2.632-2.42 4.646-5.054 4.519l-.016-.001-.016-.001a4.709 4.709 0 01-1.614-.431c-.04.03-.078.062-.117.09a2.724 2.724 0 01-.445.263c-.113.051-.455.2-.855.103l-.022-.006a1.318 1.318 0 01-.714-.512 2.478 2.478 0 01-.279-.512 6.095 6.095 0 01-.33-1.196c-.162-.88-.227-2.003-.062-3.046.414-2.617 2.364-4.466 4.967-4.332zm-.051.998C5.709 3.586 4.14 4.986 3.793 7.18c-.287 1.816.222 4.029.655 4.144.208.05.73-.373 1.057-.7a3.716 3.716 0 001.82.65 3.838 3.838 0 004.007-3.586 3.843 3.843 0 00-3.61-3.994V3.69z" fill="#fff"/></svg>