<svg width="17" height="18" fill="none" xmlns="http://www.w3.org/2000/svg"><path d="M13.85 2.248a1.508 1.508 0 00-.496.125h-.002c-.152.064-.872.385-1.966.87-1.093.488-2.513 1.12-3.922 1.75-2.814 1.254-5.58 2.489-5.58 2.489l.033-.013s-.19.065-.39.21c-.101.07-.214.167-.311.319a.979.979 0 00-.147.624c.047.407.296.65.475.784.18.137.353.2.353.2H1.9l2.594.925c.116.396.79 2.743.952 3.283.096.323.19.525.305.68a.788.788 0 00.202.197.58.58 0 00.13.06l-.027-.007c.009.002.015.008.021.01a.3.3 0 00.062.014c.411.132.741-.139.741-.139l.019-.015 1.531-1.477 2.567 2.086.059.026c.535.248 1.076.11 1.363-.134.288-.246.4-.56.4-.56l.02-.05 1.983-10.76c.056-.267.07-.515.008-.757a1.013 1.013 0 00-.415-.589.951.951 0 00-.566-.151zM13.796 3.4c-.002.036.004.031-.01.1v.006L11.82 14.155c-.008.015-.023.048-.062.081-.042.035-.075.057-.247-.015l-3.14-2.55-1.897 1.831.399-2.694 5.13-5.062c.211-.209.14-.253.14-.253.015-.255-.319-.075-.319-.075L5.356 9.661l-.002-.01-3.1-1.106v-.002l-.009-.002.017-.007.016-.009.017-.006 5.582-2.49c1.41-.628 2.829-1.26 3.92-1.749 1.092-.485 1.9-.841 1.945-.861.043-.018.023-.018.054-.018z" fill="#fff"/></svg>