<svg width="19" height="11" fill="none" xmlns="http://www.w3.org/2000/svg"><path d="M9.087.004l.413.01c.387.012.697.037.941.083.286.053.556.149.752.35l.08.093.084.122a.95.95 0 01.085.172c.048.127.07.263.083.418.025.3.023.802.018 1.71l-.01 1.596.019.036c.103-.078.217-.177.301-.272.53-.592 1.374-1.966 1.78-2.916.084-.195.168-.366.257-.5a.966.966 0 01.4-.37L14.412.5a.909.909 0 01.068-.012c.039-.005.083-.009.127-.012.09-.006.212-.01.364-.015a76.61 76.61 0 011.39-.018l1.777-.01h.125l.11.055.148.074a.826.826 0 01.443.492c.067.215.03.433-.016.609-.088.336-.28.703-.586 1.16-.308.461-.751 1.044-1.37 1.813-.443.55-.677.85-.803 1.044-.112.173-.097.2-.097.208 0 .04.002.056.003.06-.002-.004.002.016.052.078.115.142.35.366.86.84.941.873 1.25 1.193 1.603 1.692.127.18.234.35.299.536.051.148.07.288.072.43l-.002.142a.669.669 0 01-.108.33 1.182 1.182 0 01-.632.465.943.943 0 01-.152.027 14.924 14.924 0 01-.524.03 56.766 56.766 0 01-2.142.038c-.152 0-.287-.002-.392-.005a1.811 1.811 0 01-.286-.024c-.144-.03-.4-.13-.578-.21-.486-.218-.804-.502-1.502-1.236-.38-.399-.583-.59-.722-.688a.387.387 0 00-.102-.056l-.001.001a.845.845 0 00-.131.144c-.061.098-.146.376-.174.79a2.31 2.31 0 01-.096.59.87.87 0 01-.366.462c-.19.12-.393.174-.645.197a9.5 9.5 0 01-1.022.013 9.49 9.49 0 01-1.08-.065 5.137 5.137 0 01-.876-.21c-.497-.156-.898-.344-1.429-.661-.557-.334-.976-.625-1.395-1.014-.413-.385-.814-.853-1.346-1.528-.74-.939-1.428-2.008-2.23-3.462-.21-.38-.455-.861-.65-1.268a16.088 16.088 0 01-.249-.54 4.68 4.68 0 01-.083-.202 1.022 1.022 0 01-.056-.2.75.75 0 01.1-.507.913.913 0 01.37-.33l.125-.05c.127-.04.263-.05.42-.056A41.1 41.1 0 012.287.423l1.46-.01h.12l.106.05.194.093c.153.073.303.163.437.338.11.143.197.329.294.546A36.1 36.1 0 006.05 3.593c.318.522.595.847.797 1.01l.08.059c.041-.092.07-.217.129-.662a6.55 6.55 0 00.023-1.293 4.802 4.802 0 00-.074-.563 1.22 1.22 0 00-.086-.291c-.034-.061-.152-.165-.363-.202a1.088 1.088 0 01-.3-.1c-.023-.014-.118-.067-.188-.173a.523.523 0 01-.072-.405.663.663 0 01.097-.22c.065-.099.154-.184.234-.25.16-.133.387-.273.62-.34.228-.067.707-.132 1.06-.156.123-.009.616-.009 1.08-.003zm-.902.958H8.11l-.024.001h-.008a7.113 7.113 0 00-.596.07c.131.103.243.228.324.376.086.158.141.36.18.552.041.203.071.435.09.675a7.462 7.462 0 01-.028 1.485c-.074.559-.112.768-.268 1.055-.123.229-.338.437-.66.481-.294.04-.558-.073-.755-.201-.395-.258-.796-.751-1.179-1.379-.273-.449-1.031-1.866-1.208-2.26-.104-.234-.15-.315-.18-.354a.065.065 0 00-.012-.014.43.43 0 00-.065-.036l-.088-.042-1.34.01c-.664.005-1.02.008-1.224.017h-.005l.008.018a25.196 25.196 0 00.859 1.728c.786 1.425 1.445 2.447 2.143 3.332.526.667.89 1.087 1.245 1.418.35.325.706.576 1.229.89.478.286.806.436 1.21.562l.382.11c.113.028.216.048.326.063.227.031.499.045.96.055.462.01.73.008.901-.008a.644.644 0 00.165-.032c.005-.018.013-.044.019-.084a3.24 3.24 0 00.023-.242c.031-.455.127-.922.314-1.221l.073-.103c.077-.1.167-.193.253-.266.058-.05.126-.099.197-.14.053-.03.176-.1.333-.107.127-.006.266.001.416.044.148.042.28.112.407.2.237.164.507.434.873.819.701.736.901.884 1.188 1.013a4.066 4.066 0 00.372.143c-.03-.007-.018-.002.098 0 .092.004.217.005.365.006a54.066 54.066 0 002.455-.056l.086-.006.006-.003.006-.007a.44.44 0 00-.017-.129 1.296 1.296 0 00-.177-.299c-.29-.41-.533-.671-1.47-1.541-.486-.451-.786-.732-.956-.942a1.196 1.196 0 01-.214-.37 1.083 1.083 0 01-.051-.352c-.001-.252.078-.456.249-.72.158-.242.426-.585.86-1.123.615-.764 1.036-1.32 1.32-1.744.285-.427.408-.691.457-.878.004-.012.005-.024.007-.034l-1.617.01a73.16 73.16 0 00-1.37.018c-.114.003-.203.007-.27.01a2.546 2.546 0 00-.169.34c-.437 1.022-1.33 2.49-1.946 3.177a3.1 3.1 0 01-.467.42 2.039 2.039 0 01-.243.157c-.04.022-.089.045-.141.064a.688.688 0 01-.229.041c-.426 0-.7-.275-.85-.56l-.095-.182-.055-.103.001-.115.01-1.712c.005-.934.006-1.38-.015-1.629a.7.7 0 00-.025-.166c-.001-.002 0-.007-.038-.057.014.015-.005-.027-.215-.067-.23-.043-.592-.067-1.176-.075a49.479 49.479 0 00-.889-.001z" fill="#fff"/></svg>