<svg width="15" height="15" viewBox="0 0 15 15" fill="none" xmlns="http://www.w3.org/2000/svg">
<path d="M7.62205 0C11.7586 0.000171459 14.9998 3.37058 15 7.52157C15.0138 11.6086 11.7304 14.9354 7.66111 14.9572C6.18907 14.9572 5.50452 14.7414 4.31542 13.8781C3.56314 14.8493 1.18198 15.6083 1.07812 14.3097C1.0781 13.3349 0.86268 12.5107 0.619139 11.6115C0.329073 10.5037 2.7883e-05 9.26992 0 7.48251C0 3.21257 3.48883 0 7.62205 0ZM7.62205 1.00001C4.00483 1.00001 0.999997 3.80047 0.999997 7.48251C1.00002 9.12906 1.29818 10.2556 1.58496 11.3507L1.76464 12.0324C1.91556 12.6393 2.03864 13.2806 2.06835 13.9943C2.1173 13.9896 2.17701 13.9818 2.24706 13.967C2.48787 13.9159 2.76314 13.8101 3.01366 13.6681C3.27161 13.5219 3.44382 13.3711 3.52538 13.2658L4.11913 12.4992L4.90331 13.0685C5.45946 13.4723 5.82925 13.6738 6.18846 13.7892C6.54829 13.9049 6.96759 13.9561 7.65818 13.9562C11.1707 13.9361 14.0119 11.0641 14 7.52548V7.52157C13.9998 3.89881 11.1826 1.00018 7.62205 1.00001ZM7.77342 2.69241L8.72263 2.74124L8.72165 2.84378C10.8789 3.40533 12.4219 5.41382 12.332 7.72665L12.33 7.75399C12.1539 10.3863 9.91032 12.3998 7.27635 12.2726L7.25974 12.2716L7.24412 12.2706C6.68229 12.2254 6.13682 12.0767 5.62987 11.84C5.59054 11.8701 5.55221 11.9016 5.51268 11.9298C5.38799 12.0187 5.2338 12.1174 5.06834 12.1925C4.95501 12.244 4.61344 12.3931 4.21288 12.296L4.19139 12.2902C3.80219 12.1867 3.57478 11.9119 3.47655 11.7775C3.35734 11.6143 3.26697 11.432 3.19823 11.2658C3.05861 10.9279 2.94776 10.5104 2.86718 10.0704C2.70601 9.19036 2.64122 8.0671 2.80566 7.02449V7.02352C3.21998 4.40733 5.16991 2.55765 7.77342 2.69241ZM7.72166 3.69047C5.70906 3.58635 4.14046 4.98577 3.79296 7.17977C3.50645 8.99623 4.01487 11.2089 4.44823 11.3243C4.6559 11.3747 5.17892 10.9505 5.50487 10.6232C6.0437 10.997 6.67141 11.2209 7.3242 11.2736C9.40978 11.3743 11.1918 9.77991 11.332 7.68759C11.4135 5.59069 9.80763 3.81437 7.72166 3.69438V3.69047Z" fill="white"/>
</svg>
