<svg width="14" height="15" viewBox="0 0 14 15" fill="none" xmlns="http://www.w3.org/2000/svg">
<path d="M11.4326 6.21582C11.4325 3.33518 9.09652 1 6.21582 1C3.33527 1.00017 1.00016 3.33528 1 6.21582C1 9.09649 3.33517 11.4324 6.21582 11.4326C9.09662 11.4326 11.4326 9.09659 11.4326 6.21582ZM12.4326 6.21582C12.4326 7.8041 11.8346 9.25178 10.8545 10.3506L13.8975 13.2988L13.5498 13.6582L13.2021 14.0166L10.1309 11.042C9.06194 11.9102 7.7002 12.4326 6.21582 12.4326C2.78289 12.4324 0 9.64878 0 6.21582C0.000155388 2.78299 2.78299 0.000171875 6.21582 0C9.6488 0 12.4325 2.78289 12.4326 6.21582Z" fill="white"/>
</svg>
