<svg width="17" height="18" viewBox="0 0 17 18" fill="none" xmlns="http://www.w3.org/2000/svg">
<path d="M13.8497 2.24781C13.6713 2.25659 13.5032 2.31153 13.3538 2.37305H13.3517C13.2002 2.43677 12.4801 2.75757 11.3865 3.24317C10.2928 3.73096 8.87341 4.36377 7.46436 4.99219C4.65039 6.24683 1.88416 7.48169 1.88416 7.48169L1.91736 7.46851C1.91736 7.46851 1.72644 7.53443 1.52722 7.67945C1.42554 7.74976 1.31348 7.84644 1.21594 7.99805C1.11841 8.14966 1.03955 8.38257 1.0686 8.62207C1.11633 9.02857 1.36536 9.27246 1.54382 9.4065C1.72437 9.54273 1.89661 9.60645 1.89661 9.60645H1.90076L4.49475 10.5315C4.61096 10.927 5.2854 13.2737 5.44727 13.8142C5.54273 14.1372 5.63611 14.3394 5.75232 14.4932C5.80835 14.5723 5.87476 14.6382 5.95361 14.6909C5.98474 14.7107 6.01795 14.7261 6.05115 14.7393C6.06152 14.7459 6.0719 14.748 6.08435 14.7502L6.05737 14.7437C6.06567 14.7459 6.0719 14.7524 6.07813 14.7546C6.09888 14.7612 6.1134 14.7634 6.14038 14.7678C6.55127 14.8997 6.88123 14.6294 6.88123 14.6294L6.8999 14.614L8.4314 13.1375L10.9984 15.2227L11.0565 15.249C11.5919 15.4973 12.1335 15.3589 12.4199 15.115C12.7084 14.8689 12.8204 14.5547 12.8204 14.5547L12.8391 14.5042L14.823 3.74414C14.879 3.47827 14.8936 3.22998 14.8313 2.98828C14.769 2.74658 14.6093 2.52027 14.4163 2.39942C14.2212 2.27637 14.0282 2.23902 13.8497 2.24781ZM13.7958 3.40137C13.7937 3.43653 13.7999 3.43213 13.7854 3.50025V3.50684L11.8202 14.1548C11.8119 14.1702 11.7974 14.2031 11.7579 14.2361C11.7164 14.2712 11.6832 14.2932 11.511 14.2207L8.37122 11.6719L6.47449 13.5022L6.87293 10.8084C6.87293 10.8084 11.7911 5.95459 12.0028 5.74585C12.2145 5.53711 12.1439 5.49317 12.1439 5.49317C12.1584 5.23828 11.8243 5.41846 11.8243 5.41846L5.35596 9.66138L5.35388 9.65039L2.25354 8.54517V8.54297C2.25147 8.54297 2.24732 8.54077 2.24524 8.54077C2.24732 8.54077 2.26184 8.53418 2.26184 8.53418L2.27844 8.52539L2.29505 8.5188C2.29505 8.5188 5.06336 7.28394 7.87732 6.0293C9.28638 5.40088 10.7058 4.76807 11.7974 4.28028C12.8889 3.79468 13.6962 3.43872 13.7418 3.41895C13.7854 3.40137 13.7646 3.40137 13.7958 3.40137Z" fill="white"/>
</svg>
