<svg width="19" height="11" viewBox="0 0 19 11" fill="none" xmlns="http://www.w3.org/2000/svg">
<path d="M9.08675 0.00395112L9.49984 0.0133216C9.88681 0.0259619 10.1965 0.0507235 10.4412 0.0967193C10.7271 0.150475 10.9969 0.245985 11.1932 0.447177L11.2733 0.539945L11.3573 0.661762C11.387 0.710147 11.4169 0.76739 11.4422 0.834179C11.4903 0.961108 11.5125 1.09727 11.5252 1.2521C11.5499 1.55202 11.5479 2.05358 11.5428 2.96129L11.533 4.55802L11.5516 4.59363C11.6548 4.51597 11.7686 4.41662 11.8534 4.32189C12.3833 3.72954 13.2267 2.35634 13.6336 1.40578C13.7171 1.21065 13.8009 1.04044 13.8895 0.905395C13.9698 0.782987 14.0961 0.622449 14.2909 0.536197L14.411 0.498715C14.4455 0.491325 14.4712 0.487574 14.4793 0.486533C14.518 0.481532 14.5619 0.478249 14.6063 0.475288C14.6962 0.469296 14.818 0.464346 14.9705 0.460296C15.2774 0.452154 15.7322 0.446401 16.3602 0.442492L18.1375 0.432184L18.2616 0.431247L18.3719 0.486533L18.5203 0.56056C18.703 0.652068 18.8852 0.802867 18.9627 1.05251C19.0297 1.26827 18.9933 1.4861 18.9471 1.6616C18.8586 1.9977 18.6663 2.36549 18.3612 2.8226C18.0535 3.28337 17.6096 3.86558 16.9901 4.63486C16.5476 5.18427 16.3139 5.48528 16.1883 5.67874C16.0755 5.8525 16.0906 5.87872 16.0907 5.88676C16.0908 5.92696 16.0927 5.94286 16.0936 5.94767C16.092 5.94319 16.0964 5.9628 16.1463 6.02451C16.2612 6.16658 16.4954 6.39065 17.0067 6.86505C17.9473 7.73789 18.2566 8.05826 18.6092 8.55736C18.7363 8.73722 18.8435 8.90624 18.908 9.09336C18.9591 9.24146 18.9775 9.38146 18.9803 9.52253L18.9784 9.66496C18.973 9.80809 18.9154 9.92306 18.87 9.9948C18.8209 10.0724 18.7603 10.1399 18.7 10.1953C18.5839 10.3021 18.4217 10.4072 18.2381 10.4596C18.1772 10.4769 18.1122 10.484 18.0858 10.4868C18.0453 10.491 17.9972 10.4946 17.9461 10.498C17.8435 10.5048 17.7111 10.5109 17.5614 10.5167C17.2603 10.5284 16.8761 10.538 16.493 10.5449C16.1098 10.5517 15.7242 10.5559 15.4198 10.5552C15.268 10.5548 15.1332 10.5535 15.0282 10.5505C14.9485 10.5482 14.8257 10.544 14.742 10.5261C14.5982 10.4951 14.3421 10.3962 14.1639 10.3162C13.6776 10.0979 13.3599 9.81354 12.6619 9.08024C12.2823 8.68134 12.0795 8.48934 11.9403 8.39244C11.883 8.35262 11.852 8.34062 11.8377 8.33622L11.8368 8.33716C11.8104 8.35954 11.7834 8.38653 11.7586 8.41399C11.7332 8.44225 11.7152 8.46561 11.7059 8.48053C11.6445 8.57899 11.5602 8.85699 11.5321 9.27046C11.5171 9.49013 11.4954 9.6922 11.4364 9.8608C11.3645 10.0656 11.2417 10.213 11.0701 10.3228C10.8807 10.4439 10.6774 10.4967 10.4246 10.5205C10.1852 10.543 9.86013 10.5425 9.40316 10.5327C8.94061 10.5227 8.61581 10.5085 8.32308 10.468C8.0224 10.4264 7.76906 10.359 7.4471 10.2581C6.95007 10.1024 6.54905 9.91436 6.01839 9.59655C5.46079 9.26261 5.04157 8.97195 4.62288 8.58266C4.20968 8.19848 3.80925 7.72986 3.27718 7.05527C2.53638 6.11606 1.84904 5.04651 1.04671 3.59286C0.837342 3.2135 0.592449 2.73162 0.397298 2.32503C0.299808 2.1219 0.213058 1.93391 0.148275 1.78435C0.11602 1.70988 0.0871766 1.64108 0.065267 1.58288C0.0489609 1.53957 0.0197617 1.45898 0.0086264 1.38235C-0.0155803 1.21577 0.00916858 1.03876 0.108236 0.876347C0.203233 0.720747 0.342932 0.616401 0.47933 0.546504L0.60433 0.495904C0.730925 0.456431 0.866851 0.446504 1.02425 0.43968C1.25203 0.429824 1.63145 0.42628 2.28597 0.421876L3.74593 0.412506L3.86507 0.411569L3.97249 0.46217L4.16585 0.554938C4.31918 0.628097 4.46902 0.71849 4.60335 0.893214C4.71309 1.03606 4.80042 1.22187 4.8973 1.43858C5.05445 1.79006 5.7921 3.17045 6.04964 3.59286C6.36807 4.11513 6.64544 4.43982 6.84652 4.60207L6.92757 4.66204C6.96817 4.57032 6.99677 4.44475 7.0555 4.00048C7.1065 3.61463 7.11247 3.13588 7.07894 2.70735C7.06225 2.49419 7.03646 2.30085 7.00472 2.14418C6.97104 1.97805 6.93685 1.88596 6.91878 1.85276C6.88533 1.79156 6.76705 1.68811 6.5555 1.65129C6.49079 1.64002 6.42437 1.62232 6.3641 1.59975C6.33446 1.58865 6.29553 1.57267 6.2557 1.55009C6.23287 1.53715 6.13798 1.48353 6.0682 1.37767C5.96877 1.22658 5.97391 1.0713 5.99593 0.972863C6.01715 0.878121 6.06023 0.80245 6.09261 0.753593C6.15845 0.654402 6.2473 0.568776 6.32699 0.502463C6.48609 0.370096 6.71367 0.230236 6.9471 0.162313C7.17516 0.0960096 7.65385 0.0308075 8.00667 0.00676228C8.1297 -0.00162481 8.62316 -0.00178877 9.08675 0.00395112ZM8.18538 0.961618C8.15488 0.962041 8.12974 0.962016 8.11019 0.962556C8.10036 0.962828 8.09167 0.963249 8.08577 0.963493C8.08118 0.963684 8.07871 0.963449 8.07796 0.963493C7.87611 0.97724 7.65292 1.00576 7.48226 1.03283C7.61324 1.13638 7.7254 1.26144 7.8055 1.40859C7.89169 1.56696 7.94713 1.76881 7.98617 1.96145C8.02715 2.16376 8.0572 2.39576 8.07601 2.63613C8.11341 3.11451 8.10882 3.65896 8.04769 4.12136C7.97389 4.67965 7.9356 4.88882 7.78011 5.17648C7.65656 5.40489 7.44207 5.61251 7.11995 5.65719C6.8264 5.69787 6.56243 5.5844 6.36507 5.45572C5.97038 5.19826 5.56875 4.70452 5.18636 4.07732C4.91263 3.62836 4.155 2.21138 3.97835 1.81621C3.87415 1.58313 3.82843 1.50181 3.79867 1.46294C3.79044 1.45224 3.78751 1.45001 3.78597 1.44889C3.78054 1.44493 3.76504 1.4345 3.72054 1.41328L3.63265 1.37111L2.29281 1.38142C1.6295 1.38588 1.27322 1.38945 1.06917 1.39828C1.06763 1.39835 1.06581 1.39822 1.06429 1.39828C1.06675 1.40401 1.06953 1.41014 1.0721 1.41609C1.13032 1.55048 1.2109 1.72685 1.3055 1.92397C1.49501 2.31882 1.73179 2.78398 1.9305 3.14401C2.71728 4.5695 3.37606 5.59121 4.07406 6.47617C4.60005 7.14306 4.96354 7.56327 5.31917 7.89393C5.66917 8.21928 6.02453 8.46987 6.54769 8.78319C7.02643 9.0699 7.35409 9.21997 7.75765 9.34636L8.14046 9.456C8.25288 9.48357 8.3558 9.50357 8.46566 9.51878C8.69309 9.55026 8.9648 9.56418 9.42562 9.57407C9.88811 9.58399 10.1558 9.58174 10.327 9.56563C10.4221 9.55667 10.4684 9.54242 10.492 9.53377C10.4966 9.51606 10.5047 9.4898 10.5106 9.45037C10.5194 9.39078 10.5269 9.3122 10.534 9.20768C10.565 8.75305 10.6612 8.2863 10.8485 7.9867L10.9207 7.88362C10.9977 7.78333 11.0883 7.69103 11.1737 7.61844C11.2321 7.56877 11.3 7.51921 11.3709 7.47788C11.4238 7.44708 11.5475 7.37834 11.7039 7.37106C11.831 7.36519 11.9702 7.37244 12.12 7.4151C12.2681 7.45732 12.4005 7.52663 12.5272 7.61469C12.7637 7.77919 13.0341 8.04892 13.4002 8.43367C14.1011 9.17009 14.3013 9.31804 14.5877 9.44663C14.6636 9.48066 14.7499 9.51584 14.826 9.54408C14.864 9.55816 14.8974 9.57027 14.9237 9.57875C14.9453 9.58572 14.9566 9.58914 14.9598 9.59C14.9293 9.58345 14.9417 9.58756 15.0584 9.59093C15.1503 9.59359 15.2748 9.59523 15.4227 9.59562C15.7177 9.59638 16.0959 9.59303 16.4744 9.58625C16.8529 9.57947 17.2289 9.5694 17.5203 9.55814C17.6665 9.55249 17.7887 9.54621 17.8778 9.54033C17.9142 9.53793 17.9427 9.53574 17.9637 9.53377C17.9653 9.53288 17.9677 9.53209 17.9696 9.53096C17.9722 9.52938 17.9738 9.52613 17.9764 9.5244C17.9741 9.46105 17.9693 9.4256 17.9588 9.39509C17.9399 9.34018 17.8992 9.262 17.7821 9.09617C17.4924 8.68622 17.2493 8.42503 16.3114 7.55472C15.8257 7.10401 15.526 6.82273 15.3563 6.61298C15.2643 6.49923 15.1887 6.38069 15.1424 6.24378C15.096 6.10641 15.0911 5.98318 15.0907 5.89051C15.0896 5.63875 15.1691 5.43464 15.3397 5.17179C15.4976 4.92855 15.7661 4.58583 16.1991 4.04827C16.8148 3.28366 17.2364 2.7282 17.5194 2.30441C17.8046 1.87709 17.9283 1.61265 17.9774 1.4264C17.9807 1.41393 17.9818 1.40217 17.9842 1.39173L16.367 1.40203C15.7394 1.40594 15.2934 1.41199 14.9979 1.41984C14.8827 1.4229 14.7937 1.42666 14.7274 1.43014C14.6845 1.49821 14.6284 1.60675 14.5584 1.77029C14.1211 2.79181 13.2272 4.25942 12.6121 4.9469C12.4734 5.10201 12.3015 5.25269 12.1453 5.36764C12.0673 5.42506 11.9839 5.4806 11.9022 5.52413C11.8614 5.54584 11.813 5.56921 11.7606 5.58784C11.7145 5.60421 11.6319 5.62908 11.5321 5.62908C11.1061 5.62895 10.8312 5.35444 10.6815 5.06872L10.5868 4.88693L10.5321 4.78385L10.533 4.6686L10.5428 2.9566C10.5481 2.02317 10.5486 1.57642 10.5282 1.32801C10.5184 1.20964 10.5063 1.17145 10.5028 1.16215C10.5018 1.15971 10.5022 1.15544 10.4647 1.10499C10.4787 1.11963 10.4603 1.0781 10.2498 1.03846C10.0205 0.995315 9.6581 0.970685 9.07406 0.963493C8.83919 0.960585 8.60619 0.959502 8.42074 0.959744C8.32789 0.959866 8.24725 0.960764 8.18538 0.961618Z" fill="white"/>
</svg>
