<svg width="205" height="397" fill="none" xmlns="http://www.w3.org/2000/svg"><path d="M22.072 22.645v68.221H2.007V0h19.492l181.159 51.596v22.358L22.072 22.644zM0 156.967c0-15.288 4.395-27.04 13.186-35.257 8.599-8.026 20.734-12.039 36.404-12.039h6.306c21.594 0 35.353 7.644 41.276 22.931 6.116-15.287 20.257-22.931 42.424-22.931h14.905c15.67 0 27.9 4.013 36.691 12.039 8.981 8.217 13.472 19.969 13.472 35.257 0 15.288-4.491 27.04-13.472 35.257-8.791 8.026-21.021 12.039-36.691 12.039h-14.905c-21.976 0-36.117-7.739-42.424-23.218-5.923 15.479-19.682 23.218-41.276 23.218H49.59c-15.67 0-27.805-4.013-36.404-12.039C4.396 184.007 0 172.255 0 156.967zm20.065 0c0 16.817 10.033 25.225 30.098 25.225h9.746c18.727 0 28.09-8.408 28.09-25.225 0-16.816-9.363-25.225-28.09-25.225h-9.746c-20.065 0-30.098 8.409-30.098 25.225zm88 0c0 16.817 9.65 25.225 28.951 25.225h16.912c20.256 0 30.384-8.408 30.384-25.225 0-16.625-10.128-25.033-30.384-25.225h-16.912c-19.301 0-28.951 8.409-28.951 25.225zM0 269.237c0-15.096 4.586-26.658 13.759-34.684 8.79-7.643 21.02-11.465 36.69-11.465h102.332c34.589 0 51.883 15.478 51.883 46.436 0 14.905-4.586 26.276-13.759 34.111-8.599 7.452-20.829 11.179-36.69 11.179h-3.727v-20.925h5.16c19.11 0 28.664-7.931 28.664-23.792 0-16.434-10.701-24.651-32.104-24.651h-45.003c14.141 5.542 21.212 16.339 21.212 32.391 0 24.842-15.766 37.263-47.297 37.263H50.45c-15.67 0-27.9-3.821-36.691-11.465C4.586 295.8 0 284.334 0 269.237zm20.352 0c0 15.861 9.65 23.792 28.95 23.792H79.4c19.301 0 28.952-7.931 28.952-23.792s-9.65-23.791-28.952-23.791H49.303c-19.3 0-28.951 7.93-28.951 23.791zm18.058 99.722c5.16 8.408 8.027 17.676 8.6 27.804H28.665c-.573-16.625-9.46-28.091-26.658-34.397v-15.479h200.651v22.072H38.411z" fill="#D9D9D9" fill-opacity=".25"/></svg>