<svg width="21" height="20" fill="none" xmlns="http://www.w3.org/2000/svg"><path d="M10.003.05a.795.795 0 00-.393.418c-.038.094-.052 1.89-.052 5.766v5.634l-1.556-1.556c-.858-.858-1.622-1.58-1.692-1.603a.755.755 0 00-.92.323c-.107.192-.13.506-.046.67.075.146 4.49 4.57 4.645 4.655a.835.835 0 00.638 0c.07-.037 1.134-1.078 2.362-2.31 2.414-2.42 2.344-2.34 2.27-2.757-.043-.216-.292-.469-.535-.54-.408-.126-.432-.107-2.128 1.585l-1.538 1.528-.01-5.7C11.036.487 11.036.46 10.937.333a1.204 1.204 0 00-.215-.221c-.16-.117-.53-.15-.718-.061z" fill="#fff"/><path d="M.435 12.098a.782.782 0 00-.399.492c-.033.117-.042.694-.033 1.762.02 1.575.024 1.599.15 2.016.324 1.064 1.008 1.875 1.974 2.344.839.408.117.375 8.18.375 8.062 0 7.34.033 8.18-.375a3.786 3.786 0 002-2.438c.09-.342.104-.515.118-1.992.019-1.612.019-1.617-.09-1.823-.14-.272-.304-.39-.59-.418a.723.723 0 00-.707.366c-.094.169-.099.24-.099 1.622 0 1.622-.033 1.889-.29 2.377-.193.365-.596.768-.929.932-.576.286-.182.272-7.593.272-7.407 0-6.999.014-7.585-.272-.356-.168-.76-.576-.942-.942-.253-.497-.286-.755-.286-2.367 0-1.383-.005-1.453-.098-1.622-.183-.323-.61-.46-.961-.31z" fill="#fff"/></svg>