<svg width="48" height="40" fill="none" xmlns="http://www.w3.org/2000/svg"><path d="M9.65 1.56c-.859.859-1.594 1.673-1.639 1.808a1.4 1.4 0 00.012.532c.079.339.632.587.938.43.113-.069.79-.713 1.503-1.425l1.3-1.311h7.799l1.051 1.05c.565.577 1.04 1.086 1.04 1.131 0 .045-.576.08-1.277.08H19.11L17.664 5.3c-1.266 1.266-1.447 1.503-1.413 1.775a.86.86 0 00.34.542c.44.328.757.159 2.068-1.164l1.13-1.13h6.092l.87.847c.939.916 1.267 1.04 1.685.622.44-.44.305-.757-.825-1.887L26.56 3.854h-2.59l-1.887-1.899-1.9-1.887L15.71.034 11.22 0 9.65 1.56z" fill="#3D8CD1"/><path d="M3.094 7.438L.97 9.55v4.024H.562c-.406 0-.825.17-.972.384-.045.068-.09 1.526-.09 3.244 0 2.317.034 3.154.147 3.3.08.103 1.345.543 3.13 1.063l2.996.893.034 2.272.023 2.284-.464.372c-.994.803-2.068 2.6-2.35 3.911-.182.848-.159 2.453.044 3.244.61 2.408 2.623 4.488 5.02 5.188 3.763 1.108 7.9-1.31 8.85-5.176l.237-.972 5.482.022 5.482.034.147.735c.407 1.99 1.944 3.967 3.786 4.838 1.255.599 1.967.757 3.323.745.927-.01 1.3-.067 2.08-.327 2.215-.746 3.832-2.374 4.578-4.6.158-.475.294-.995.294-1.154v-.293h1.786c1.627 0 1.83-.023 2.283-.26.271-.136.655-.441.836-.679l.35-.44.035-4.307c.022-4.295.022-4.318-.226-4.77-.215-.361-.735-.768-2.736-2.114-1.367-.915-2.543-1.729-2.622-1.808-.08-.08-.633-1.752-1.232-3.707-.588-1.956-1.13-3.708-1.21-3.877-.192-.498-.53-.86-1.028-1.13-.441-.238-.645-.25-3.188-.283-1.706-.023-2.825 0-3.018.079-.27.102-.723.938-3.255 6.002l-2.939 5.889v2.373c0 2.216-.011 2.374-.192 2.317-.407-.124-6.07-1.808-13.767-4.08-4.352-1.288-8.647-2.554-9.551-2.826l-1.64-.486-.033-2.159-.023-2.158h7.008l-.327.587c-1.13 2.035-1.368 2.52-1.368 2.815 0 .418.271.667.746.667.452 0 .418.034 1.808-2.521l.848-1.548h6.556l-.136.248c-.068.147-.69 1.277-1.356 2.52-.678 1.255-1.232 2.374-1.232 2.499 0 .294.452.723.768.723a.75.75 0 00.453-.203c.101-.102.881-1.447 1.718-2.996l1.514-2.792h7.313l-.192.362c-.102.204-.95 1.763-1.876 3.459-1.334 2.441-1.684 3.165-1.65 3.447.067.656.96.86 1.31.306.08-.125 1.753-3.222 3.708-6.873 1.967-3.65 3.685-6.748 3.81-6.895l.225-.248h5.448c6.048 0 5.935.011 5.935-.724 0-.768.214-.746-6.036-.746-6.217 0-6.059-.022-6.714.735-.181.192-.95 1.537-1.707 2.973l-1.379 2.622H2.439V10.24l1.73-1.73 1.717-1.718h4.521l1.673 1.673 1.662 1.662v.69c0 .53.056.768.237.994.317.407.792.395 1.12-.011.214-.283.237-.43.203-1.312l-.034-.983-2.103-2.091-2.09-2.091H5.218L3.094 7.438zm34.995 4.577c.09.147.621 1.752 1.175 3.56l1.006 3.313h-4.589l-.226-.294c-.215-.283-.237-.453-.237-2.227 0-1.639-.034-1.956-.192-2.136-.238-.272-.769-.26-1.052.022-.214.215-.226.373-.226 2.26 0 1.583.034 2.137.17 2.465.226.531.565.893 1.096 1.164.385.192.69.215 3.2.215h2.768l2.532 1.684c1.39.927 2.555 1.775 2.6 1.876.034.102.068.464.068.803v.61h-1.47c-1.322 0-1.492.023-1.695.226a.834.834 0 00-.226.509c0 .158.102.384.226.509.203.203.373.226 1.695.226h1.47v4.849l-.294.226c-.271.215-.452.237-1.922.237H42.34v-.271c0-.6-.588-2.114-1.142-2.939-2.532-3.798-7.742-4.318-10.964-1.096-.983.983-1.695 2.272-1.955 3.515l-.147.735-5.482.034-5.494.022-.18-.825c-.701-3.12-3.324-5.358-6.568-5.584-.825-.056-1.695.068-2.735.373l-.26.068V24.54c0-1.47.011-1.594.204-1.537 5.877 1.786 18.31 5.38 18.605 5.38.53 0 .994-.237 1.265-.644.193-.283.226-.61.272-2.916l.056-2.6 2.634-5.233 2.622-5.222h2.43c2.397 0 2.43 0 2.589.248zM11.719 27.49c1.842.531 3.312 2.125 3.775 4.08.644 2.713-.769 5.392-3.448 6.534-.938.395-2.724.452-3.73.113-2.825-.938-4.51-3.922-3.786-6.703.599-2.294 2.374-3.91 4.69-4.25.792-.124 1.55-.056 2.499.226zm25.025-.102c1.763.441 3.357 2.012 3.91 3.855.317 1.017.26 2.645-.113 3.605-.542 1.402-1.864 2.724-3.266 3.267-.96.373-2.588.43-3.606.113-3.176-.96-4.86-4.408-3.64-7.482.532-1.38 1.775-2.611 3.154-3.154 1.074-.43 2.385-.497 3.56-.204z" fill="#3D8CD1"/><path d="M8.95 30.032c-.667.238-1.165.667-1.526 1.312-.893 1.548-.328 3.38 1.3 4.17.644.328.802.35 1.458.306 2.306-.193 3.538-2.566 2.373-4.567-.678-1.164-2.283-1.707-3.605-1.22zm1.684 1.447c1.04.441 1.13 1.967.17 2.634-.362.26-1.221.249-1.617-.023-.927-.599-.814-2.17.18-2.6.464-.203.78-.203 1.267-.01zm23.454-1.39c-2.826 1.277-2.17 5.448.904 5.72 2.17.203 3.798-1.888 3.097-3.945-.542-1.617-2.475-2.465-4.001-1.775zm1.933 1.492c.847.565.972 1.605.271 2.306-.475.474-1.04.576-1.605.305-.96-.475-1.22-1.594-.531-2.328.576-.6 1.232-.701 1.865-.283z" fill="#3D8CD1"/></svg>