<svg width="51" height="51" fill="none" xmlns="http://www.w3.org/2000/svg"><path d="M12.91 5.668C10.657 6.754 8.904 7.66 8.726 7.829c-.22.22-.578.937-1.285 2.58-.538 1.265-.966 2.41-.966 2.56 0 .578.727.887 1.175.498.11-.09.588-1.066 1.056-2.161l.847-1.993.328.02c.329.02 13.806 3.666 13.896 3.756.03.02-.608 4.542-1.415 10.04l-1.464 9.991-2.072 2.092c-1.852 1.863-2.091 2.141-2.201 2.57l-.13.468h-5.15c-3.994 0-5.17-.03-5.239-.13-.05-.06-1.115-2.33-2.37-5.03l-2.272-4.91 2.57-5.997c1.574-3.666 2.57-6.116 2.56-6.295-.01-.528-.707-.847-1.145-.528-.1.07-1.345 2.859-2.78 6.205C.3 27.084.05 27.691.06 28.19c0 .509.19.957 2.362 5.628 2.24 4.812 2.59 5.459 3.107 5.758.14.09 1.823.13 5.867.17l5.668.049.887 1.992c.488 1.096.976 2.092 1.095 2.212.12.119.389.288.618.378.548.2 15.43 2.839 16.017 2.839.618 0 12.103-1.474 12.481-1.594.608-.21.897-.647 1.843-2.76.508-1.115.936-2.2.966-2.4.02-.229-.289-2.022-.846-4.771-.777-3.855-.927-4.452-1.156-4.751-.17-.23-1.086-.857-2.63-1.813-1.295-.807-2.43-1.544-2.52-1.634-.12-.14-.17-.657-.269-2.49l-.11-2.32-.517-1.555c-.458-1.364-.568-1.604-.927-1.962-.498-.508-.607-.538-3.456-.996l-2.261-.359-.04-.498c-.06-.588-.329-.906-.767-.906s-.707.279-.707.747c0 .438.05.428-1.116.229-1.056-.17-1.454-.11-2.052.289-.607.408-.767.757-1.554 3.297l-.637 2.092-.09 2.769c-.06 1.514-.13 2.789-.16 2.829-.04.03-.796.209-1.683.398-3.416.697-3.008.548-3.934 1.454-.458.439-.827.737-.827.648 0-.08.598-4.244 1.335-9.254l1.345-9.114 2.002-3.158 2.012-3.147 2.36 1.972 2.361 1.982.16 1.793c.09.996.219 1.893.279 2.002.229.438 1.045.379 1.265-.09.149-.338-.17-3.904-.399-4.332-.2-.399-.428-.598-3.157-2.89-1.285-1.075-2.52-2.041-2.74-2.14-.328-.15-1.424-.26-5.976-.588-3.068-.23-5.847-.409-6.176-.399-.568 0-.807.11-4.473 1.873zm9.95-.03c2.74.2 4.99.378 5.01.388.02.02-3.306 5.33-3.515 5.608-.02.02-12.302-3.287-12.8-3.456-.23-.08-.19-.11.498-.438.657-.31 1.623-.767 4.383-2.102.408-.2.896-.359 1.095-.359.19 0 2.59.16 5.33.359zm14.016 13.786c2.061.329 3.815.627 3.904.657.23.09.329.3.767 1.624.428 1.275.468 1.604.22 1.823-.27.219-7.59 2.789-7.73 2.71-.23-.14-2.51-1.963-2.83-2.262-.179-.17-.328-.389-.328-.478 0-.17.966-3.387 1.245-4.134.16-.428.458-.647.797-.578.11.02 1.883.31 3.955.638zm5.349 8.457c.09 1.842.09 2.171-.04 2.36-.08.12-.22.25-.32.28-.527.149-7.42 1.563-7.45 1.533-.04-.04.24-4.293.289-4.333.01-.02 1.654-.607 3.656-1.315l3.625-1.284.07.308c.04.18.11 1.275.17 2.45zm-10.17-1.285c1.005.817 1.115.936 1.115 1.225-.01.249-.269 3.905-.289 4.034-.02.07-1.982-.976-2.092-1.116-.11-.129-.12-.637-.06-2.6.04-1.344.1-2.44.14-2.44.03 0 .568.409 1.185.897zm13.437 3.755c1.235.767 1.514.976 1.404 1.076-.07.07-1.225.837-2.57 1.693-1.345.867-2.54 1.664-2.66 1.773-.457.409-.139 1.265.469 1.265.17 0 1.225-.627 3.028-1.793 1.524-.996 2.78-1.793 2.799-1.773.01.02.359 1.763.787 3.885l.767 3.855-.817 1.823c-.448 1.006-.866 1.882-.936 1.952-.13.15-11.475 1.644-11.545 1.524-.09-.16-.867-4.712-.827-4.821.03-.08 1.006-.757 2.182-1.504 1.165-.757 2.221-1.484 2.35-1.624.12-.13.22-.348.22-.488 0-.309-.419-.737-.718-.737-.129 0-1.314.697-2.699 1.604l-2.47 1.593-6.594.19c-3.626.11-7.102.199-7.72.199h-1.126l-.328-.737c-.19-.408-.369-.837-.409-.956-.06-.19.418-.708 3.447-3.746l3.526-3.526 1.922-.398c1.056-.22 1.982-.399 2.062-.399.1 0 .15.1.15.27.01.388.318 1.025.657 1.344.16.14.986.607 1.833 1.026 1.305.657 1.613.777 2.042.777.578 0 8.407-1.664 8.895-1.893.687-.328 1.215-1.215 1.215-2.062 0-.199.03-.358.06-.358s.757.428 1.604.966zM33.867 41.169c0 .01.18 1.006.399 2.21.219 1.196.388 2.182.368 2.192-.01.02-2.958-.498-6.544-1.145a831.433 831.433 0 00-7.232-1.285l-.717-.12-.319-.697c-.179-.389-.308-.717-.288-.727.02-.02 2.958-.11 6.514-.2 3.566-.089 6.614-.179 6.773-.199.468-.04 1.046-.06 1.046-.03z" fill="#3D8CD1"/><path d="M36.397 20.908c-.259.11-.538.488-.538.717 0 .09.09.28.21.428.189.24.268.26.896.26.787 0 1.086-.19 1.086-.688 0-.488-.29-.737-.907-.767-.298-.02-.637 0-.747.05zm-9.363 13.497c-.478.21-.598.797-.24 1.155.16.16.33.2.897.2.578 0 .718-.03.897-.22.697-.756-.468-1.603-1.554-1.135zm3.496 1.942c-.488.21-.637.827-.298 1.206.149.16.308.199.836.199.847 0 1.106-.16 1.106-.687 0-.518-.259-.737-.926-.777-.28-.01-.608.01-.718.06zM11.873 14.941c-.298.28-.288.797.01 1.076.18.17.36.22.787.22.708 0 .847-.06 1.036-.419.13-.25.13-.349.03-.588-.16-.398-.368-.488-1.056-.488-.458 0-.637.05-.806.2zm2.63 11.665a.745.745 0 00-.06 1.085c.28.28 1.365.29 1.704.02.329-.269.299-.777-.05-1.085-.369-.31-1.205-.33-1.594-.02zm-8.985.926c-.478.22-.597.797-.239 1.155.16.16.329.2.887.2.627 0 .707-.02.896-.26.27-.338.26-.567-.01-.886-.289-.319-1.056-.428-1.534-.209zm10.977 2.162a.721.721 0 00-.04 1.085c.17.15.35.2.788.2.727 0 .856-.05 1.045-.419.13-.249.13-.348.03-.587-.159-.389-.368-.489-1.016-.489-.398 0-.607.06-.806.21zM12.95 33.07a.745.745 0 00.06 1.086c.298.24 1.055.289 1.473.1.329-.15.498-.568.369-.917-.14-.358-.399-.468-1.096-.468-.478 0-.647.04-.807.2z" fill="#3D8CD1"/></svg>