<svg width="49" height="49" fill="none" xmlns="http://www.w3.org/2000/svg"><g clip-path="url(#clip0_740_11369)" fill="#3D8CD1"><path d="M25.658 12.964a4.465 4.465 0 00-.901.465c-.608.418-7.117 7.012-7.382 7.486-.313.541-.541 1.414-.541 2.06 0 .398-.029.502-.152.502-.218 0-12.26 2.818-12.752 2.99-.902.303-1.813 1.214-2.164 2.153-.104.275-.455 2.078-.787 3.995-.55 3.216-.589 3.52-.475 3.938a2.05 2.05 0 001.053 1.318c.399.21.532.219 2.344.219 1.85 0 1.926-.01 2.116-.21a.714.714 0 00.095-.834c-.161-.304-.636-.38-2.287-.38-1.48 0-1.622-.019-1.793-.19-.105-.104-.19-.256-.19-.341 0-.427 1.177-6.86 1.3-7.107.275-.531.512-.806.93-1.053l.417-.237 3.587 1.527c2.125.92 3.852 1.594 4.25 1.68l.684.152.503.91c.285.494.588.978.683 1.073.218.218.76.218.949 0 .304-.342.294-.57-.057-1.196-.19-.332-.342-.636-.342-.664 0-.066 3.369-.057 7.07.028l2.656.057.218.427c.2.399.21.532.21 2.524 0 1.898-.02 2.107-.172 2.249-.161.142-.92.161-8.17.18l-7.998.029-.228.265c-.275.323-.284.532-.028.864l.19.247h8.16c7.885 0 8.17-.01 8.52-.18.465-.247.92-.77 1.053-1.215.076-.237.095-1.148.076-2.638l-.028-2.277-.304-.646c-.275-.578-.626-.967-3.273-3.653-1.632-1.65-3.112-3.121-3.283-3.264a3.695 3.695 0 00-.74-.427l-.437-.17.038-.712c.029-.493.114-.845.266-1.139.123-.256.892-1.11 1.888-2.116 2.742-2.78 2.61-2.723 6.262-2.723 2.24 0 2.629.02 3.132.18.74.228 1.451.684 1.85 1.187.17.208 1.319 2.05 2.543 4.09l2.24 3.7.16 1.309c.152 1.177.19 1.319.409 1.49.322.256.645.237.939-.057.2-.209.227-.294.18-.636-.161-1.205-.17-1.395-.066-1.395.066 0 .711.152 1.432.332.997.247 1.376.314 1.557.238.455-.171.578-.778.227-1.12-.151-.133-.759-.332-1.973-.636l-1.756-.446-2.277-3.757c-2.533-4.204-2.941-4.716-4.146-5.304-1.063-.522-1.556-.598-4.204-.598h-2.363l.418-.427c.237-.237.636-.54.892-.664l.474-.238h7.145c7.743 0 7.44-.018 8.141.513.162.123.418.455.57.73l.284.513.048 2.325.047 2.324.266.446c.17.285.977 1.1 2.249 2.268 2.4 2.192 2.467 2.296 2.467 3.71v.93l-.465-.228c-.645-.332-3.008-.92-3.274-.816a.671.671 0 00-.465.664c0 .484.228.627 1.575.95 1.433.36 1.613.436 2.03.872.475.493.599.892.599 1.964 0 .778-.029.978-.18 1.158l-.18.228-3.34.028-3.35.029-1.072-.437c-.892-.351-1.186-.427-1.699-.427-.683 0-1.433.237-1.945.617l-.323.237h-3.425c-3.321 0-3.444.01-3.606.19-.237.265-.218.72.038.977.2.209.266.209 3.093.237l2.885.029-.095.256c-.114.294-.142 1.67-.047 1.993.066.208.066.208-1.063.208-1.271 0-1.651.095-1.812.437-.152.332-.133.446.095.74l.19.247h10.674l.417-.21c.247-.132.541-.388.712-.625.266-.39.285-.475.285-1.234 0-.721-.029-.882-.257-1.29a5.999 5.999 0 01-.265-.484c0-.02.93-.048 2.068-.067 2.316-.038 2.562-.104 3.132-.787.465-.57.493-.816.493-4.204 0-2.856-.019-3.188-.19-3.738-.104-.342-.313-.788-.465-.996-.152-.21-1.148-1.186-2.22-2.154-1.063-.978-1.983-1.879-2.05-2.012-.066-.152-.104-.901-.104-2.059 0-1.233-.047-2.03-.142-2.476-.247-1.186-1.006-2.145-2.126-2.686l-.531-.265-7.496-.02c-7.42-.018-7.505-.018-8.018.181zM18.105 25.09c.238.114 1.262 1.063 2.667 2.467l2.277 2.278H22.1c-2.866-.01-9.223-.2-9.564-.294-.513-.133-5.59-2.287-5.532-2.344.028-.02 2.173-.541 4.773-1.158 5.104-1.205 5.636-1.29 6.328-.949zm21.938 9.033c1.746.703 1.983.816 2.182 1.12.152.218.228.465.228.73 0 .712.095.693-3.369.693h-3.083l-.152-.237c-.114-.17-.152-.436-.152-.91.01-.817.285-1.358.901-1.775.854-.588 1.073-.57 3.445.38zm-11.348 5.172a714.1 714.1 0 00-3.73 1.48c-3.918 1.556-4.146 1.68-4.8 2.704-.683 1.063-.902 2.543-.55 3.596.218.617.806 1.29 1.432 1.623l.484.256 9.479.029 9.479.019.228-.21c.389-.36.247-.93-.266-1.11-.2-.066-1.29-.104-3.055-.104-2.581 0-2.742-.01-2.676-.17.304-.693.36-1.035.408-2.06.019-.692 0-1.356-.076-1.689-.484-2.334-3.093-4.45-5.475-4.421-.408 0-.806.028-.882.057zm2.277 1.66c1.186.55 2.296 1.69 2.61 2.704.246.779.17 2.477-.133 3.094-.427.882-.057.835-6.244.806-5.342-.028-5.427-.028-5.693-.227-.74-.55-.864-1.633-.332-2.724.18-.36.465-.75.655-.91.227-.19 1.565-.779 3.776-1.67l3.416-1.376.711.028c.513.019.864.104 1.234.275zm8.948.835c-.437.18-.541.788-.19 1.12.635.598 1.594-.256 1.043-.911a.765.765 0 00-.854-.209z"/></g><defs><clipPath id="clip0_740_11369"><path fill="#fff" d="M0 0h49v49H0z"/></clipPath></defs></svg>