<svg width="42" height="42" fill="none" xmlns="http://www.w3.org/2000/svg"><g clip-path="url(#clip0_740_11447)" fill="#3D8CD1"><path d="M19.638.69C10.311 6.332.205 12.566.115 12.722c-.156.27-.173 28.498-.017 28.826C.32 42.033-1.149 42 21 42c22.148 0 20.68.033 20.901-.451.074-.164.099-3.577.099-14.405 0-12.108-.017-14.224-.115-14.413-.09-.164-2.477-1.657-8.999-5.635C20.746-.304 21.254 0 21 0c-.131 0-.681.279-1.362.69zM30.77 7.726l9.59 5.85v26.782h-3.282V29.367c0-8.342-.025-11.033-.099-11.197-.213-.46-.04-.451-6.496-.451-4.438 0-6.005.024-6.16.098-.239.107-.452.451-.452.722 0 .27.213.615.451.722.156.074 1.616.098 5.66.098h5.455v21H26.25v-4.593c0-4.996 0-4.947-.451-5.152-.156-.074-1.698-.098-6.03-.098h-5.824v-3.364c0-3.658-.008-3.724-.451-3.92-.156-.075-1.14-.1-3.568-.1H6.562V19.36h5.455c4.045 0 5.505-.024 5.66-.098.239-.107.452-.451.452-.722 0-.27-.213-.615-.451-.722-.304-.14-12.002-.14-12.305 0-.476.213-.451-.41-.451 11.55V40.36H1.64V26.964l.009-13.388 9.655-5.881c5.307-3.24 9.704-5.874 9.761-5.85.058.025 4.422 2.675 9.705 5.882zM12.305 27.645v2.87H6.563v-5.742h5.742v2.872zm-2.461 5.414c0 .992.082 1.263.418 1.443.426.222.943.066 1.124-.336.057-.123.098-.59.098-1.107v-.903h3.281v8.203H6.563v-8.203h3.28v.903zm9.843 0c0 .992.082 1.263.419 1.443.426.222.943.066 1.123-.336.058-.123.099-.59.099-1.107v-.903h3.281v8.203h-8.203v-8.203h3.281v.903z"/><path d="M20.229 7.465c-.517.131-1.255.574-1.616.96-.18.196-.451.607-.59.91-.239.5-.263.624-.263 1.337 0 .739.016.812.303 1.403.37.747.845 1.206 1.608 1.567.5.238.623.262 1.329.262s.828-.024 1.329-.262c.763-.361 1.239-.82 1.608-1.567.287-.59.303-.664.303-1.41 0-.747-.016-.821-.303-1.412-.558-1.116-1.543-1.78-2.757-1.837-.344-.017-.77.008-.951.049zm1.673 1.837c.484.32.698.73.698 1.362 0 .64-.214 1.042-.722 1.378-.46.304-1.255.32-1.723.025-.623-.386-.91-1.149-.722-1.879.115-.418.615-.96 1.01-1.074.434-.132 1.107-.05 1.46.188zm-1.304 8.532c-.714.393-.41 1.525.402 1.525.418 0 .82-.402.82-.812a.826.826 0 00-1.222-.713z"/></g><defs><clipPath id="clip0_740_11447"><path fill="#fff" d="M0 0h42v42H0z"/></clipPath></defs></svg>