<svg width="55" height="55" fill="none" xmlns="http://www.w3.org/2000/svg"><path d="M52.69 12.16c.505.29.634.849.29 1.257-.107.15-1.74.892-4.264 1.955-2.245.945-4.093 1.73-4.104 1.751-.032.032 4.899 14.158 4.963 14.223.022.021.634-.15 1.364-.398.73-.247 1.43-.44 1.569-.44.354 0 .773.462.773.838 0 .569-.268.74-2.148 1.364-1.89.634-2.364.698-2.664.397-.108-.107-.398-.795-.656-1.525a54.902 54.902 0 00-.494-1.375c-.032-.032-1.332.59-1.428.677-.022.021.129.279.333.58.945 1.375.73 2.803-.613 4.071-.58.548-1.321.978-1.697.988-.15 0-.172.097-.118.806.086 1.096-.118 1.611-1.01 2.546-.945.967-1.504 1.214-2.632 1.128-.816-.065-.838-.065-.838.172 0 .72-1.407 2.277-2.32 2.589-.57.193-1.396.225-1.805.075-.236-.097-.268-.075-.343.236-.118.58-.43 1.074-1.085 1.708-.785.763-1.386 1.053-2.235 1.053-.655 0-1.407-.258-1.804-.612-.172-.172-.247-.15-1.01.247-1.44.74-2.9.623-3.964-.312-.537-.472-1.01-1.321-1.01-1.826 0-.161-.021-.29-.043-.29-.021 0-.376.161-.773.344-.666.322-.838.354-1.708.354s-1.02-.032-1.547-.322c-.924-.505-1.472-1.31-1.59-2.31-.032-.3-.064-.537-.075-.537-.01 0-.269.097-.58.215a3.132 3.132 0 01-3.287-.688c-.656-.644-.946-1.256-1.01-2.126l-.054-.72-.548.28c-.827.418-1.987.472-2.76.117-.838-.386-1.225-.762-1.622-1.557-.29-.591-.344-.827-.344-1.418a3.53 3.53 0 01.752-2.127l.268-.344-.225-1.106c-.13-.602-.237-1.107-.247-1.118-.011-.01-.118-.043-.237-.085-.193-.054-.257.064-.59 1.02-.376 1.096-.666 1.493-1.085 1.493-.376 0-4.34-1.547-4.587-1.794a.857.857 0 01-.076-1.074c.312-.44.624-.408 2.385.247.903.344 1.676.59 1.708.548.14-.14 4.974-14.094 4.899-14.158-.043-.032-1.988-.828-4.319-1.751-4.576-1.816-4.801-1.945-4.683-2.578.075-.409.419-.71.805-.71.398 0 9.68 3.728 9.98 4.007.226.204.247.301.193.785l-.064.547 1.085.29c.601.162 1.15.323 1.224.344.075.032.28-.075.473-.225.376-.323.612-.387 4.05-1.075 3.05-.601 5.854-1.02 6.928-1.02.72 0 .903.043 1.666.419.472.226 1.385.741 2.03 1.139 1.386.848 5.049 3.319 5.392 3.62.15.14.29.494.409 1.042.107.45.547 1.826.977 3.05.967 2.729.978 2.9.29 3.502-.268.248-.806.602-1.192.785-1.665.816-3.878.365-5.006-1.032-.43-.537-.645-.924-1.085-2.04l-.333-.86-1.815-.398c-1.569-.343-1.859-.44-2.063-.687-.14-.15-.247-.398-.247-.548 0-.344.451-.795.795-.795.14 0 1.031.161 1.966.366.934.204 1.869.397 2.084.43.515.085.666.278.999 1.277.73 2.192 1.493 2.976 2.879 2.976.558 0 1.697-.419 1.697-.612 0-.043-.333-1.075-.752-2.288-.408-1.214-.795-2.396-.849-2.632-.107-.408-.215-.505-2.717-2.16-3.6-2.395-4.265-2.76-5.081-2.814-.935-.064-3.717.376-8.422 1.332-1.322.269-1.472.333-1.913.71-.257.225-.558.407-.655.407-.096 0-.902-.193-1.783-.44-.88-.236-1.633-.398-1.676-.344-.096.097-3.555 9.937-3.512 9.98.01.021.268.129.558.258.752.322 1.02.601 1.02 1.052 0 .215.054.688.119 1.064.097.57.15.677.3.623.731-.28 5.039-2.761 8.315-4.802 2.18-1.354 4.093-2.481 4.265-2.524.247-.043.376.01.644.268.344.344.376.494.226.913-.13.344-7.015 4.609-10.7 6.628-2.943 1.611-3.405 1.902-3.62 2.288-.354.666-.021 1.708.666 2.063.623.322.914.225 4.2-1.397 1.74-.86 3.256-1.557 3.384-1.557.13 0 .355.096.516.225.215.172.28.312.28.623 0 .505-.087.591-1.977 1.794-.913.58-1.569 1.085-1.697 1.279-.409.676-.14 1.654.58 2.094.655.398.902.323 3.545-1.128 1.493-.816 2.567-1.342 2.75-1.342.45 0 .773.354.773.859 0 .473-.129.59-1.955 1.826-.806.537-.945.763-.945 1.461 0 .387.064.548.354.87.312.333.44.398.956.44.58.044.655.011 2.192-.773 1.718-.902 1.922-.934 2.374-.43.311.344.311.613.01 1.096-.462.741-.236 1.762.462 2.127.43.215 1.214.194 1.719-.064l.43-.226-.204-.29c-.301-.43-.452-.956-.452-1.557 0-.946.194-1.343 1.075-2.246.676-.687.902-.848 1.385-.988.323-.097.763-.172.978-.172.397 0 .397-.01.462-.483.096-.688.397-1.203 1.117-1.89.784-.764 1.192-.968 2.03-1.043l.677-.053.064-.441c.13-.73.333-1.117.989-1.805.784-.827 1.46-1.16 2.352-1.16h.666l.075-.408c.119-.644.42-1.225.946-1.794.977-1.085 2.148-1.45 3.373-1.031l.677.225 1.095-.547c.613-.301 1.117-.56 1.139-.58.021-.022-3.201-9.303-3.255-9.379-.021-.021-1.278.215-2.814.516-1.526.29-2.858.537-2.965.537-.312 0-.72-.483-.72-.86 0-.665.226-.762 3.201-1.342 2.278-.44 2.707-.558 2.643-.698-.172-.44-.172-.924.021-1.15.194-.225 9.217-4.114 9.529-4.114.075 0 .225.065.343.13zm-10.924 19.4c-.881.924-.817 1.311.397 2.482.72.698.817.763 1.235.763.387 0 .516-.065 1.02-.548.957-.903.914-1.364-.235-2.47-.795-.774-.956-.86-1.483-.807-.344.043-.526.162-.934.58zm-3.803 3.084c-.537.408-.849.902-.849 1.375 0 .386.097.494 1.461 1.858 1.268 1.246 1.504 1.44 1.805 1.44.472 0 .892-.237 1.343-.774.45-.516.505-1.01.182-1.536-.215-.365-2.492-2.535-2.782-2.654-.29-.129-.784 0-1.16.29zm-4.04 3.598c-.268.226-.547.57-.622.741-.247.623-.086.956 1.063 2.095.978.978 1.096 1.063 1.558 1.106.483.065.516.044 1.074-.515.645-.645.795-1.02.602-1.482-.065-.172-.602-.774-1.171-1.343-1.02-1-1.075-1.032-1.536-1.032-.409 0-.559.065-.967.43zm-3.512 3.17c-.172.085-.483.354-.698.611-.312.355-.387.537-.387.903 0 .386.075.526.505 1.02 1.31 1.44 2.149 1.526 3.04.301.559-.773.483-1.053-.57-2.105-.966-.967-1.245-1.075-1.89-.73z" fill="#3D8CD1"/></svg>