<svg width="42" height="42" fill="none" xmlns="http://www.w3.org/2000/svg"><path d="M20.5 7.01c-6.883 4.164-14.34 8.764-14.407 8.88-.115.2-.128 21.028-.013 21.27.164.357-.92.333 15.424.333 16.343 0 15.26.024 15.423-.333.055-.12.073-2.639.073-10.63 0-8.934-.012-10.495-.085-10.635-.066-.12-1.828-1.222-6.64-4.158-8.959-5.46-8.583-5.236-8.771-5.236-.097 0-.503.206-1.005.508zm8.213 5.193l7.076 4.316v19.763h-2.42v-8.11c0-6.157-.02-8.142-.074-8.263-.157-.34-.03-.333-4.794-.333-3.274 0-4.43.018-4.546.072-.175.079-.332.333-.332.533s.157.454.332.533c.115.054 1.193.072 4.177.072h4.025v15.496h-6.78v-3.39c0-3.686 0-3.65-.332-3.8-.115-.055-1.253-.073-4.45-.073h-4.297v-2.482c0-2.7-.006-2.748-.333-2.894-.115-.054-.841-.072-2.633-.072H10.85v-2.785h4.026c2.984 0 4.061-.018 4.176-.072.176-.079.333-.333.333-.533s-.157-.454-.333-.533c-.224-.103-8.855-.103-9.08 0-.35.158-.332-.302-.332 8.523v8.111H7.218v-9.884l.006-9.88 7.125-4.34c3.916-2.39 7.161-4.333 7.203-4.315.043.018 3.263 1.973 7.161 4.34zM15.087 26.9v2.119H10.85V24.78h4.238v2.12zm-1.815 3.995c0 .733.06.932.308 1.066.315.163.696.048.83-.249.042-.09.072-.436.072-.817v-.666h2.422v6.053H10.85V30.23h2.421v.666zm7.263 0c0 .733.06.932.31 1.066.314.163.695.048.828-.249.043-.09.073-.436.073-.817v-.666h2.421v6.053h-6.053V30.23h2.421v.666z" fill="#3D8CD1"/><path d="M20.935 12.01c-.381.096-.926.423-1.192.707a3.136 3.136 0 00-.436.672c-.176.37-.194.46-.194.987 0 .545.012.6.224 1.035.273.551.624.89 1.187 1.156.369.176.46.194.98.194s.612-.018.98-.194c.564-.266.915-.605 1.187-1.156.212-.436.224-.49.224-1.041 0-.55-.012-.605-.224-1.041-.411-.823-1.138-1.314-2.034-1.356a3.345 3.345 0 00-.702.036zm1.235 1.355c.357.236.515.539.515 1.005 0 .472-.158.769-.533 1.017-.339.224-.926.236-1.271.018-.46-.284-.672-.847-.533-1.386.085-.309.454-.708.745-.793.32-.097.817-.036 1.077.14zm-.963 6.295c-.526.291-.302 1.126.297 1.126.309 0 .605-.296.605-.599a.61.61 0 00-.902-.527z" fill="#3D8CD1"/></svg>