<svg width="38" height="37" fill="none" xmlns="http://www.w3.org/2000/svg"><path d="M17.31.609C9.093 5.58.19 11.073.11 11.21c-.137.239-.151 25.106-.014 25.395.195.427-1.098.398 18.414.398s18.219.029 18.414-.398c.065-.144.087-3.15.087-12.69 0-10.667-.015-12.531-.101-12.697-.08-.145-2.183-1.46-7.928-4.965C18.286-.266 18.734.002 18.51.002c-.116 0-.6.245-1.2.607zm9.807 6.2l8.448 5.153v23.596h-2.89v-9.684c0-7.35-.022-9.72-.087-9.865-.188-.405-.036-.397-5.724-.397-3.91 0-5.29.021-5.427.086-.21.094-.398.398-.398.636 0 .239.188.542.398.636.137.065 1.424.087 4.986.087h4.806v18.5h-8.094v-4.046c0-4.401 0-4.358-.397-4.539-.138-.065-1.496-.087-5.312-.087h-5.131v-2.963c0-3.223-.007-3.28-.397-3.454-.138-.065-1.005-.087-3.144-.087H5.79v-3.324h4.806c3.563 0 4.849-.022 4.986-.087.21-.094.398-.397.398-.636 0-.238-.188-.542-.398-.636-.267-.123-10.573-.123-10.84 0-.42.188-.398-.361-.398 10.176v9.684h-2.89V23.756l.007-11.794L9.968 6.78c4.676-2.854 8.55-5.174 8.6-5.152.05.021 3.895 2.356 8.55 5.181zM10.85 24.356v2.53H5.79v-5.06h5.06v2.53zm-2.168 4.77c0 .874.072 1.113.368 1.272.376.195.831.058.99-.297.05-.108.087-.52.087-.975v-.795h2.891v7.227H5.79V28.33h2.891v.795zm8.672 0c0 .874.072 1.113.368 1.272.376.195.831.058.99-.297.051-.108.087-.52.087-.975v-.795h2.891v7.227h-7.227V28.33h2.891v.795z" fill="#3D8CD1"/><path d="M17.831 6.578c-.455.116-1.106.506-1.424.845a3.75 3.75 0 00-.52.803c-.21.44-.231.549-.231 1.178 0 .65.014.715.267 1.235.325.658.745 1.063 1.417 1.38.44.21.549.232 1.17.232.622 0 .73-.022 1.171-.231.672-.318 1.091-.723 1.417-1.38.253-.52.267-.586.267-1.244 0-.657-.014-.722-.267-1.243-.492-.982-1.36-1.568-2.429-1.618-.303-.015-.679.007-.838.043zm1.474 1.619c.427.282.615.643.615 1.2 0 .563-.188.917-.636 1.213-.405.268-1.106.282-1.518.022-.55-.34-.802-1.012-.636-1.655.101-.368.542-.845.889-.947.383-.115.976-.043 1.286.167zm-1.149 7.516c-.629.347-.361 1.344.354 1.344.369 0 .723-.354.723-.716 0-.542-.6-.896-1.077-.628z" fill="#3D8CD1"/></svg>