<svg width="53" height="53" fill="none" xmlns="http://www.w3.org/2000/svg"><g clip-path="url(#clip0_740_11505)" fill="#3D8CD1"><path d="M21.065.093c-.828.218-1.449.673-2.888 2.122-1.645 1.677-1.604 1.646-3.954 2.174-2.174.476-3.137 1.222-3.727 2.888-.082.228-.279 1.015-.455 1.76-.166.745-.424 1.532-.559 1.77-.135.238-.86 1.015-1.604 1.729-1.14 1.107-1.408 1.418-1.688 2.018-.31.642-.341.808-.331 1.594.01.725.083 1.119.445 2.278.58 1.832.632 2.474.28 3.623-.642 2.101-.808 2.826-.756 3.499.072 1.035.518 1.8 1.656 2.888 2.143 2.06 2.102 1.998 2.62 4.15.196.84.475 1.76.61 2.06.538 1.191 1.563 1.905 3.312 2.32.518.113.942.227.963.248.02.02-.921 2.764-2.09 6.107-1.17 3.344-2.133 6.15-2.133 6.222 0 .072.114.258.238.414.32.372.466.362 2.96-.166 1.936-.414 2.019-.424 2.184-.238.094.104.767.9 1.491 1.76.808.983 1.408 1.604 1.563 1.646.331.082.652-.031.818-.3.072-.125 1.045-2.816 2.143-5.994l2.008-5.755.776-.249c1.232-.383 2.112-.331 3.83.217 1.16.373 1.543.456 2.278.466 1.263.02 1.935-.331 3.178-1.615 1.532-1.604 2.142-2.153 2.246-2.039.041.062 3.768 10.704 3.747 10.724-.01.01-.807-.145-1.77-.341-.973-.197-1.863-.331-1.987-.3-.125.03-.735.672-1.388 1.46-.797.962-1.19 1.355-1.231 1.262-.042-.072-.622-1.698-1.284-3.602-1.232-3.55-1.418-3.934-1.915-3.934-.352 0-.735.404-.735.756 0 .517 2.96 8.892 3.22 9.099a.686.686 0 00.817.083c.104-.052.828-.87 1.615-1.812.776-.942 1.439-1.708 1.47-1.708.02 0 .963.186 2.08.424 2.475.518 2.568.518 2.878.156.124-.156.238-.342.238-.414 0-.073-.962-2.878-2.132-6.222-1.17-3.343-2.112-6.086-2.091-6.107.02-.02.455-.135.963-.248 1.75-.415 2.774-1.129 3.312-2.32.135-.3.414-1.22.61-2.06.518-2.152.477-2.09 2.62-4.15 1.139-1.087 1.584-1.853 1.656-2.888.052-.673-.114-1.398-.756-3.5-.341-1.148-.3-1.79.27-3.622.362-1.139.445-1.553.455-2.277.01-.798-.02-.953-.331-1.595-.28-.6-.549-.91-1.688-2.018-.745-.714-1.47-1.49-1.604-1.729-.135-.238-.393-1.025-.559-1.77-.176-.745-.373-1.532-.456-1.76-.59-1.666-1.552-2.412-3.726-2.888-2.35-.528-2.308-.497-3.996-2.205C32.897.29 32.494.062 31.107.062c-.818-.01-1.108.052-2.381.456-1.947.62-2.547.62-4.452.01-1.387-.445-2.567-.61-3.209-.435zm3.013 1.988c1.304.414 1.532.445 2.474.445.921-.01 1.19-.062 2.422-.445 2.484-.787 2.857-.714 4.275.786C35.257 5 35.734 5.29 37.98 5.797c2.692.61 2.806.725 3.562 3.944.424 1.811.724 2.277 2.68 4.1.436.403.922.93 1.088 1.18.414.62.383 1.417-.104 2.94-.745 2.328-.755 3.011-.072 5.206.807 2.65.807 2.67-1.232 4.679-1.79 1.77-1.925 1.998-2.453 4.15-.425 1.74-.508 1.999-.839 2.454-.352.476-1.035.787-2.453 1.097-2.422.549-2.878.808-4.565 2.609-1.78 1.905-2.06 1.977-4.586 1.16-1.232-.404-1.387-.425-2.505-.425-1.118 0-1.273.02-2.505.424-2.526.818-2.805.746-4.586-1.159-1.708-1.812-2.143-2.07-4.565-2.609-1.418-.31-2.101-.62-2.453-1.097-.331-.455-.414-.714-.839-2.453-.528-2.153-.662-2.381-2.453-4.151-2.04-2.008-2.05-2.05-1.211-4.68.393-1.252.435-1.469.435-2.463s-.042-1.21-.445-2.484c-.239-.766-.466-1.636-.497-1.936-.083-.776.207-1.304 1.294-2.34 2.142-2.028 2.422-2.484 2.919-4.72.59-2.629.797-2.836 3.447-3.426 2.215-.507 2.68-.787 4.7-2.909.465-.486 1.045-.994 1.293-1.118.611-.31 1.232-.248 3.044.31zM17.038 38c.228.165.756.704 1.18 1.18 1.398 1.542 2.185 2.05 3.438 2.194l.683.083-1.584 4.544c-.88 2.495-1.615 4.555-1.636 4.586-.03.02-.569-.59-1.2-1.356-.653-.787-1.263-1.428-1.387-1.46-.125-.03-1.015.104-1.978.3-.962.208-1.76.363-1.77.342-.041-.051 3.727-10.734 3.789-10.734.03 0 .248.145.466.32z"/><path d="M25.102 5.86c-5.941.651-10.858 4.574-12.722 10.185-.538 1.625-.724 2.795-.714 4.658 0 2.536.507 4.648 1.625 6.801 3.851 7.37 12.816 10.186 20.134 6.346 4.017-2.122 6.863-6.004 7.722-10.559.26-1.325.26-3.83.01-5.176-.351-1.935-1.231-4.11-2.339-5.745-.807-1.19-1.19-1.407-1.718-.952-.414.362-.352.662.362 1.739 1.625 2.412 2.309 4.627 2.33 7.443 0 1.718-.125 2.608-.622 4.14-.683 2.143-1.78 3.903-3.395 5.466-1.128 1.087-2.008 1.729-3.23 2.35-3.675 1.873-8.146 1.915-11.842.114-1.315-.632-2.319-1.346-3.437-2.423-2.039-1.966-3.322-4.337-3.881-7.142-.26-1.346-.239-3.685.062-5.083a13.332 13.332 0 013.623-6.718c1.915-1.915 4.202-3.136 6.946-3.716 1.21-.249 3.757-.249 4.968 0 1.926.414 3.385 1.025 5.042 2.132 1.076.725 1.438.797 1.78.363.435-.549.197-.932-1.17-1.822-2.37-1.553-4.875-2.34-7.722-2.412-.766-.02-1.584-.01-1.812.01z"/><path d="M31.624 15.01c-.197.062-1.46 1.252-3.54 3.333l-3.24 3.24-1.884-1.884c-1.046-1.025-1.998-1.925-2.122-1.988-.31-.155-.901-.144-1.305.032-.528.227-1.894 1.697-2.029 2.184-.238.89-.186.963 2.961 4.12 3.085 3.105 3.457 3.385 4.379 3.385.973 0 1.2-.197 5.714-4.72 3.675-3.696 4.213-4.286 4.275-4.628.135-.735-.01-1.066-.86-1.956-.434-.456-.91-.89-1.055-.963-.383-.197-.932-.259-1.294-.155zm-2.33 6.78c-3.798 3.789-4.12 4.089-4.45 4.089-.321 0-.58-.228-3.127-2.764l-2.774-2.774.621-.621.622-.621 2.153 2.153c1.956 1.946 2.184 2.143 2.505 2.143.33 0 .62-.27 3.83-3.468l3.468-3.468.62.621.622.621-4.09 4.089z"/></g><defs><clipPath id="clip0_740_11505"><path fill="#fff" d="M0 0h53v53H0z"/></clipPath></defs></svg>