<svg width="177" height="46" fill="none" xmlns="http://www.w3.org/2000/svg"><path d="M42.357 37v-.793h5.49V37h-2.302v6.585h-.886V37h-2.302zm14.536 2.896c0 .778-.14 1.45-.418 2.017-.279.567-.66 1.004-1.147 1.311-.486.309-1.041.462-1.665.462-.624 0-1.18-.154-1.665-.462-.486-.307-.869-.744-1.148-1.31-.279-.567-.417-1.24-.417-2.018 0-.779.138-1.45.417-2.017.279-.567.662-1.004 1.148-1.311.486-.308 1.04-.462 1.665-.462.624 0 1.179.154 1.665.462.486.307.868.744 1.147 1.31.279.567.418 1.24.418 2.018zm-.858 0c0-.638-.105-1.178-.316-1.618-.21-.44-.495-.772-.854-.998a2.214 2.214 0 00-1.202-.338c-.443 0-.845.113-1.203.338-.359.226-.643.559-.854.998-.21.44-.316.979-.316 1.618 0 .638.105 1.178.316 1.618.21.44.495.772.854.998.358.225.759.338 1.203.338.444 0 .844-.113 1.202-.338.359-.226.644-.559.854-.998.211-.44.316-.979.316-1.618zm3.853 3.688v-7.377h2.473c.575 0 1.045.104 1.41.311.367.209.637.489.813.841.177.354.265.747.265 1.182 0 .434-.087.83-.263 1.185a1.964 1.964 0 01-.81.848c-.364.21-.831.316-1.4.316h-1.772v-.793h1.744c.392 0 .708-.07.946-.205.238-.137.411-.323.52-.557a1.86 1.86 0 00.164-.794c0-.296-.055-.56-.163-.793a1.206 1.206 0 00-.524-.55c-.241-.132-.56-.2-.957-.2h-1.558v6.586h-.887zm12.306-7.377V37h-3.53v6.585h-.887v-7.377h4.417v-.001zm9.057 3.689c0 .778-.14 1.45-.418 2.017-.28.567-.66 1.004-1.147 1.311-.486.309-1.041.462-1.665.462-.624 0-1.18-.154-1.665-.462-.486-.307-.87-.744-1.148-1.31-.279-.567-.418-1.24-.418-2.018 0-.779.14-1.45.418-2.017.279-.567.662-1.004 1.148-1.311.486-.308 1.04-.462 1.665-.462.624 0 1.179.154 1.665.462.486.307.868.744 1.147 1.31.279.567.418 1.24.418 2.018zm-.859 0c0-.638-.105-1.178-.316-1.618-.21-.44-.495-.772-.854-.998a2.214 2.214 0 00-1.202-.338c-.443 0-.845.113-1.203.338-.358.226-.643.559-.854.998-.21.44-.316.979-.316 1.618 0 .638.106 1.178.316 1.618.21.44.496.772.854.998.358.225.76.338 1.203.338.444 0 .844-.113 1.202-.338.359-.226.644-.559.855-.998.21-.44.316-.979.316-1.618zm3.854 3.688v-7.377h2.559c.51 0 .93.088 1.261.265.331.177.579.413.74.71.162.296.243.624.243.985 0 .317-.056.578-.166.785-.111.208-.257.37-.436.49-.18.12-.375.21-.584.267v.072c.224.014.45.094.675.238.227.144.416.35.568.62.153.269.23.598.23.987 0 .39-.085.702-.251.998-.167.296-.43.53-.79.702-.36.173-.827.26-1.405.26h-2.644v-.002zm.887-4.135h1.644c.266 0 .508-.052.723-.158.215-.106.387-.255.515-.447.127-.193.19-.419.19-.678 0-.324-.11-.6-.335-.826-.224-.227-.579-.341-1.064-.341h-1.673v2.45zm0 3.344h1.757c.58 0 .991-.114 1.235-.341.244-.227.366-.502.366-.826 0-.25-.063-.482-.189-.694a1.399 1.399 0 00-.54-.512 1.69 1.69 0 00-.829-.193h-1.8v2.566zm7.817-3.488h2.086c.524 0 .968.087 1.328.26.36.173.635.417.822.732.187.314.28.685.28 1.112 0 .428-.093.805-.28 1.131-.187.327-.46.583-.822.767-.36.185-.804.277-1.328.277h-2.745v-7.377h.888v6.6h1.857c.335 0 .617-.068.85-.204.23-.136.407-.31.528-.526.12-.215.18-.442.18-.682 0-.353-.134-.658-.403-.913-.27-.255-.654-.383-1.155-.383H92.95v-.794zm6.117-3.097v7.377h-.885v-7.377h.885zm3.282 0h.872v5.806h.072l4.002-5.806h.858v7.377h-.886v-5.792h-.071l-3.988 5.792h-.859v-7.377zm3.602-1.845h.786c0 .39-.133.708-.4.955s-.629.37-1.086.37c-.457 0-.809-.123-1.074-.37a1.248 1.248 0 01-.399-.955h.787a.81.81 0 00.155.493c.103.142.281.212.531.212.251 0 .429-.07.538-.212a.792.792 0 00.163-.493h-.001zm9.174 11.008v-2.579h.472c.162-.15.315-.36.459-.632.144-.273.267-.637.368-1.095.101-.457.168-1.04.202-1.745l.157-3.112h4.346v6.586h.842v2.564h-.842v-1.772h-5.16v1.787h-.843l-.001-.002zm1.53-2.578h3.63V37h-2.702l-.114 2.32a13.465 13.465 0 01-.151 1.46 7.438 7.438 0 01-.274 1.157c-.112.335-.242.62-.389.856zm14.335-2.897c0 .778-.139 1.45-.418 2.017-.279.567-.661 1.004-1.147 1.311-.486.309-1.041.462-1.665.462-.624 0-1.179-.154-1.665-.462-.486-.307-.869-.744-1.148-1.31-.279-.567-.417-1.24-.417-2.018 0-.779.138-1.45.417-2.017.279-.567.662-1.004 1.148-1.311.486-.308 1.041-.462 1.665-.462.624 0 1.179.154 1.665.462.486.307.868.744 1.147 1.31.279.567.418 1.24.418 2.018zm-.858 0c0-.638-.105-1.178-.316-1.618-.211-.44-.496-.772-.854-.998a2.218 2.218 0 00-1.203-.338 2.22 2.22 0 00-1.203.338c-.358.226-.643.559-.854.998-.21.44-.316.979-.316 1.618 0 .638.106 1.178.316 1.618.211.44.496.772.854.998.359.225.759.338 1.203.338.444 0 .844-.113 1.203-.338.358-.226.643-.559.854-.998.211-.44.316-.979.316-1.618zm3.853-3.689h1.059l2.487 6.124h.086l2.487-6.124h1.059v7.377h-.83V37.98h-.071l-2.287 5.605h-.801l-2.287-5.605h-.072v5.605h-.83v-7.377zM42.133 12.502H57.59v4.14H47.205v13.025h-5.072V12.502zm38.304 17.092h-5.072l-1.231-3.165h-7.777l-1.231 3.165h-5.072l6.569-17.042h7.245l6.57 17.042zM67.951 22.29h4.59l-2.03-5.283h-.53l-2.03 5.283zM86.5 12.552h15.602v4.139h-10.53v2.02h6.546c1.899 0 3.308.43 4.226 1.29.918.86 1.377 2.248 1.377 4.163s-.455 3.275-1.364 4.127c-.91.852-2.299 1.287-4.166 1.303H86.5V12.552zm11.617 13.22c.498 0 .873-.15 1.123-.45.25-.301.374-.695.374-1.182s-.125-.876-.374-1.169c-.25-.292-.625-.437-1.123-.437H91.57v3.238h6.545zm11.906-13.22h15.602v4.139h-10.53v2.02h6.545c1.9 0 3.309.43 4.227 1.29.918.86 1.377 2.248 1.377 4.163s-.455 3.275-1.365 4.127c-.909.852-2.298 1.287-4.166 1.303h-11.688V12.552h-.002zm11.617 13.22c.498 0 .873-.15 1.122-.45.25-.301.375-.695.375-1.182s-.125-.876-.375-1.169c-.249-.292-.624-.437-1.122-.437h-6.546v3.238h6.546zm16.978 3.822h-5.072V12.552h11.592c2.206 0 3.844.499 4.915 1.497 1.071.998 1.606 2.61 1.606 4.833 0 2.223-.536 3.835-1.606 4.833-1.071.998-2.709 1.497-4.915 1.497h-6.521v4.383l.001-.001zm0-8.521h5.941c.676 0 1.184-.199 1.522-.597.338-.397.507-.938.507-1.619s-.169-1.193-.507-1.582c-.338-.39-.846-.584-1.522-.584h-5.941v4.382zm18.644 0c0-3.165.821-5.478 2.464-6.94 1.642-1.46 4.041-2.19 7.197-2.19 3.156 0 5.555.73 7.197 2.19 1.643 1.462 2.464 3.775 2.464 6.94 0 3.165-.821 5.498-2.464 6.95-1.642 1.453-4.041 2.18-7.197 2.18-3.156 0-5.555-.727-7.197-2.18-1.643-1.452-2.464-3.769-2.464-6.95zm5.023-.024c0 1.542.394 2.763 1.184 3.664.788.9 1.947 1.35 3.477 1.35 1.53 0 2.681-.445 3.454-1.339.773-.892 1.159-2.118 1.159-3.676 0-1.559-.39-2.715-1.171-3.616-.782-.9-1.929-1.35-3.442-1.35-1.512 0-2.709.446-3.49 1.338-.781.893-1.171 2.103-1.171 3.628z" fill="#fff"/><path d="M20.06 12.372l-6.183 6.183h12.205v9.625l-9.785 7.37-8.98-7.03-.43-.34V6.779h6.936l.666-.627L21.079 0H0v31.728l1.248.94 9.174 6.912 5.713 4.305 16.13-12.157V12.372H20.06z" fill="#3D8CD1"/></svg>