<svg width="187" height="52" fill="none" xmlns="http://www.w3.org/2000/svg"><path d="M29.927 16.43l-6.183 6.183h12.205v9.624l-9.785 7.37-8.98-7.03-.43-.34V10.836h6.936l.666-.626 6.59-6.152H9.868v31.728l1.248.939 9.174 6.913 5.713 4.304 16.13-12.156V16.43H29.928z" fill="#3D8CD1"/><path d="M52.225 41.057v-.792h5.489v.792h-2.302v6.586h-.885v-6.586h-2.302zm14.535 2.897c0 .778-.139 1.45-.418 2.018-.278.566-.66 1.003-1.146 1.31-.486.309-1.041.462-1.665.462-.625 0-1.18-.153-1.666-.462-.486-.307-.868-.744-1.147-1.31-.279-.567-.418-1.24-.418-2.018 0-.779.139-1.45.418-2.017.279-.567.661-1.004 1.147-1.311a3.047 3.047 0 011.666-.462c.624 0 1.179.154 1.665.462.486.307.868.744 1.147 1.31.278.567.418 1.24.418 2.018zm-.857 0c0-.638-.105-1.178-.316-1.618-.21-.44-.496-.772-.854-.998A2.214 2.214 0 0063.53 41a2.22 2.22 0 00-1.203.338c-.358.226-.643.559-.854.998-.21.44-.316.979-.316 1.618 0 .639.106 1.178.316 1.618.211.44.496.772.855.998.358.225.759.338 1.203.338.443 0 .843-.113 1.202-.338.358-.226.644-.559.854-.998.21-.44.316-.979.316-1.618zm3.853 3.689v-7.378h2.473c.575 0 1.045.104 1.41.312.366.208.637.488.813.84.177.354.265.748.265 1.182 0 .434-.088.83-.264 1.185a1.965 1.965 0 01-.81.848c-.363.21-.83.316-1.4.316h-1.772v-.793h1.744c.393 0 .71-.069.947-.205.238-.137.411-.322.52-.556.109-.234.163-.5.163-.795 0-.296-.054-.56-.162-.793a1.205 1.205 0 00-.525-.55c-.24-.132-.559-.2-.957-.2h-1.557v6.586h-.888zm12.306-7.378v.793h-3.53v6.586h-.888v-7.378h4.418zm9.057 3.689c0 .778-.14 1.45-.419 2.018-.278.566-.66 1.003-1.146 1.31-.487.309-1.041.462-1.666.462-.624 0-1.178-.153-1.665-.462-.486-.307-.868-.744-1.147-1.31-.28-.567-.418-1.24-.418-2.018 0-.779.139-1.45.418-2.017.279-.567.661-1.004 1.147-1.311a3.046 3.046 0 011.665-.462c.625 0 1.18.154 1.666.462.486.307.868.744 1.146 1.31.28.567.419 1.24.419 2.018zm-.859 0c0-.638-.105-1.178-.316-1.618-.21-.44-.496-.772-.854-.998A2.214 2.214 0 0087.888 41c-.443 0-.845.113-1.203.338-.359.226-.643.559-.854.998-.21.44-.317.979-.317 1.618 0 .639.106 1.178.317 1.618.21.44.495.772.854.998.358.225.759.338 1.203.338.444 0 .844-.113 1.202-.338.358-.226.644-.559.854-.998.211-.44.316-.979.316-1.618zm3.853 3.689v-7.378h2.56c.51 0 .93.089 1.261.265.33.177.578.413.74.71.162.296.243.624.243.985 0 .317-.056.578-.166.785-.112.208-.257.37-.437.49-.18.121-.374.21-.584.267v.073c.224.014.45.093.676.237.227.145.416.35.568.62.152.27.229.598.229.987 0 .39-.084.703-.25.998-.167.296-.43.53-.79.703-.36.172-.828.26-1.405.26h-2.645v-.002zM95 43.507h1.644c.267 0 .508-.052.724-.158a1.29 1.29 0 00.514-.447c.128-.193.191-.419.191-.678 0-.324-.111-.6-.335-.826-.224-.227-.58-.34-1.065-.34h-1.672v2.449zm0 3.344h1.758c.58 0 .99-.114 1.235-.34.244-.227.366-.503.366-.827 0-.25-.063-.481-.19-.693a1.399 1.399 0 00-.539-.513 1.69 1.69 0 00-.829-.192h-1.8v2.565zm7.818-3.488h2.086c.524 0 .967.087 1.328.26.36.172.634.417.822.731.187.315.28.685.28 1.113 0 .427-.093.804-.28 1.13a1.93 1.93 0 01-.822.768c-.361.185-.804.277-1.328.277h-2.745v-7.377h.887v6.6h1.858c.334 0 .617-.069.849-.204.231-.136.408-.311.528-.526a1.37 1.37 0 00.181-.682 1.22 1.22 0 00-.403-.914c-.27-.255-.654-.383-1.155-.383h-2.086v-.793zm6.117-3.098v7.378h-.885v-7.378h.885zm3.281 0h.873v5.807h.071l4.003-5.807h.858v7.378h-.886V41.85h-.071l-3.988 5.793h-.859v-7.378h-.001zm3.603-1.844h.786c0 .39-.134.707-.4.955-.267.247-.629.37-1.086.37-.457 0-.809-.123-1.074-.37-.266-.248-.399-.566-.399-.955h.787a.81.81 0 00.155.493c.103.142.28.212.531.212.25 0 .429-.07.538-.212a.792.792 0 00.163-.493h-.001zm9.174 11.009v-2.58h.472c.162-.15.315-.36.459-.632.144-.273.266-.637.368-1.095.101-.457.168-1.04.201-1.745l.158-3.112h4.346v6.586h.842v2.564h-.842v-1.772h-5.161v1.787h-.842l-.001-.001zm1.53-2.58h3.63v-5.792h-2.702l-.115 2.32a13.235 13.235 0 01-.15 1.461 7.557 7.557 0 01-.274 1.156c-.113.335-.243.62-.389.856zm14.335-2.896c0 .778-.139 1.45-.418 2.018-.279.566-.661 1.003-1.147 1.31-.486.309-1.041.462-1.665.462-.624 0-1.179-.153-1.665-.462-.487-.307-.869-.744-1.148-1.31-.279-.567-.418-1.24-.418-2.018 0-.779.139-1.45.418-2.017.279-.567.661-1.004 1.148-1.311.486-.308 1.041-.462 1.665-.462.624 0 1.179.154 1.665.462.486.307.868.744 1.147 1.31.279.567.418 1.24.418 2.018zm-.859 0c0-.638-.105-1.178-.316-1.618-.21-.44-.495-.772-.854-.998a2.212 2.212 0 00-1.202-.338c-.443 0-.845.113-1.203.338-.358.226-.643.559-.854.998-.21.44-.316.979-.316 1.618 0 .639.106 1.178.316 1.618.211.44.496.772.854.998.358.225.759.338 1.203.338a2.21 2.21 0 001.202-.338c.359-.226.644-.559.854-.998.211-.44.316-.979.316-1.618zm3.854-3.689h1.059l2.487 6.124h.086l2.487-6.124h1.058v7.378h-.829v-5.606h-.071l-2.288 5.606h-.8l-2.287-5.606h-.072v5.606h-.83v-7.378z" fill="#000"/><path d="M52 16.56h15.457v4.139H57.072v13.025H52V16.56zm38.305 17.091h-5.073l-1.231-3.165h-7.777l-1.231 3.165H69.92l6.57-17.041h7.245l6.57 17.042zm-12.486-7.303h4.588l-2.028-5.284h-.532l-2.028 5.284zm18.547-9.739h15.602v4.14h-10.529v2.02h6.545c1.899 0 3.308.43 4.226 1.29.918.86 1.377 2.248 1.377 4.163s-.455 3.275-1.364 4.127c-.91.852-2.299 1.286-4.166 1.303h-11.69V16.608zm11.617 13.22c.499 0 .873-.15 1.123-.45.249-.3.374-.694.374-1.181 0-.488-.125-.877-.374-1.169-.25-.292-.624-.438-1.123-.438h-6.545v3.238h6.545zm11.906-13.22h15.602v4.14h-10.53v2.02h6.546c1.899 0 3.308.43 4.226 1.29.918.86 1.377 2.248 1.377 4.163s-.455 3.275-1.364 4.127c-.91.852-2.299 1.286-4.167 1.303h-11.688V16.608h-.002zm11.617 13.22c.498 0 .873-.15 1.123-.45.249-.3.374-.694.374-1.181 0-.488-.125-.877-.374-1.169-.25-.292-.625-.438-1.123-.438h-6.545v3.238h6.545zm16.978 3.822h-5.072V16.61h11.592c2.206 0 3.844.5 4.915 1.498 1.071.998 1.606 2.61 1.606 4.833 0 2.223-.536 3.834-1.606 4.832-1.071.998-2.709 1.498-4.915 1.498h-6.521v4.382h.001zm0-8.52h5.942c.676 0 1.183-.2 1.521-.597.338-.398.507-.938.507-1.62 0-.68-.169-1.192-.507-1.582-.338-.389-.845-.584-1.521-.584h-5.942v4.382zm18.644 0c0-3.166.822-5.479 2.464-6.94 1.643-1.46 4.041-2.191 7.197-2.191 3.156 0 5.555.73 7.197 2.192 1.643 1.46 2.464 3.773 2.464 6.938 0 3.166-.821 5.5-2.464 6.951-1.642 1.453-4.041 2.18-7.197 2.18-3.156 0-5.554-.727-7.197-2.18-1.642-1.453-2.464-3.77-2.464-6.95zm5.023-.025c0 1.543.395 2.763 1.184 3.664.788.901 1.947 1.351 3.477 1.351 1.531 0 2.681-.446 3.454-1.339.773-.893 1.159-2.118 1.159-3.677 0-1.558-.39-2.714-1.171-3.615-.781-.9-1.929-1.351-3.442-1.351-1.512 0-2.709.446-3.49 1.34-.781.892-1.171 2.102-1.171 3.626v.001z" fill="#312F30"/></svg>