<svg width="144" height="40" fill="none" xmlns="http://www.w3.org/2000/svg"><path d="M23.02 12.638l-4.756 4.757h9.389v7.403l-7.527 5.669-6.908-5.407-.33-.262V8.336h5.335l.512-.482 5.07-4.733H7.59v24.406l.96.723 7.057 5.318L20 36.878l12.409-9.35v-14.89h-9.39z" fill="#3D8CD1"/><path d="M40.173 31.581v-.61h4.222v.61h-1.77v5.066h-.682v-5.066h-1.77zm11.181 2.229c0 .598-.107 1.116-.321 1.551a2.423 2.423 0 01-.883 1.009c-.373.237-.8.355-1.28.355a2.34 2.34 0 01-1.281-.355 2.424 2.424 0 01-.883-1.008c-.215-.436-.321-.954-.321-1.553s.107-1.115.321-1.551c.214-.436.509-.773.883-1.009a2.34 2.34 0 011.28-.354c.48 0 .907.117 1.281.355.374.235.668.572.883 1.008.214.435.321.953.321 1.551zm-.66 0c0-.492-.08-.906-.243-1.245a1.794 1.794 0 00-.657-.768 1.703 1.703 0 00-.924-.26c-.341 0-.65.087-.926.26-.276.174-.495.43-.657.768-.162.339-.243.753-.243 1.244 0 .492.081.907.243 1.245.162.338.381.594.657.768.276.173.584.26.926.26a1.7 1.7 0 00.924-.26 1.79 1.79 0 00.657-.768c.163-.338.244-.753.244-1.245zm2.964 2.837v-5.675h1.903c.442 0 .803.08 1.085.24.281.16.49.375.625.646.136.272.204.575.204.909 0 .334-.068.638-.203.912-.134.273-.342.49-.623.652-.28.162-.64.243-1.077.243H54.21v-.61h1.341c.302 0 .546-.053.729-.158a.953.953 0 00.4-.428c.083-.18.125-.384.125-.611 0-.228-.042-.43-.125-.61a.928.928 0 00-.403-.423c-.186-.102-.43-.154-.736-.154H54.34v5.066h-.682zm9.466-5.675v.61H60.41v5.065h-.683v-5.675h3.398zm6.967 2.838c0 .598-.107 1.116-.322 1.551a2.424 2.424 0 01-.882 1.009 2.34 2.34 0 01-1.28.355 2.34 2.34 0 01-1.281-.355 2.424 2.424 0 01-.883-1.008c-.215-.436-.321-.954-.321-1.553s.106-1.115.32-1.551c.215-.436.51-.773.884-1.009a2.34 2.34 0 011.28-.354c.48 0 .907.117 1.281.355.374.235.668.572.882 1.008.215.435.322.953.322 1.551zm-.66 0c0-.492-.081-.906-.243-1.245a1.794 1.794 0 00-.657-.768 1.703 1.703 0 00-.925-.26c-.341 0-.65.087-.926.26a1.81 1.81 0 00-.657.768c-.161.339-.243.753-.243 1.244 0 .492.082.907.243 1.245.163.338.382.594.657.768.276.173.584.26.926.26.341 0 .649-.087.925-.26.275-.174.495-.43.657-.768.162-.338.243-.753.243-1.245zm2.963 2.837v-5.675h1.97c.391 0 .715.068.97.203.254.136.444.318.569.546.124.228.186.48.186.758 0 .244-.042.445-.127.604a1.03 1.03 0 01-.336.377 1.54 1.54 0 01-.449.206v.055c.172.01.346.072.52.183.174.11.32.27.436.477.118.207.177.46.177.76 0 .299-.065.54-.193.767a1.33 1.33 0 01-.608.54c-.276.133-.636.2-1.08.2h-2.035v-.001zm.683-3.182h1.264c.205 0 .391-.04.557-.121a.99.99 0 00.396-.344.923.923 0 00.147-.521.87.87 0 00-.258-.636c-.173-.174-.446-.262-.82-.262h-1.286v1.884zm0 2.573h1.352c.446 0 .762-.088.95-.262a.834.834 0 00.281-.636c0-.193-.048-.37-.145-.534a1.076 1.076 0 00-.415-.394 1.3 1.3 0 00-.638-.148h-1.385v1.974zm6.013-2.683h1.605c.403 0 .744.067 1.022.2.277.133.487.32.632.562.144.243.215.527.215.856 0 .33-.071.619-.215.87a1.483 1.483 0 01-.632.59c-.278.143-.619.214-1.022.214h-2.111v-5.675h.682v5.076h1.43c.256 0 .474-.052.652-.156a1.06 1.06 0 00.545-.929.936.936 0 00-.31-.703c-.207-.196-.503-.295-.888-.295H79.09v-.61zm4.706-2.383v5.675h-.681v-5.675h.68zm2.524 0h.671v4.467h.055l3.08-4.467h.66v5.675h-.682v-4.455h-.055l-3.068 4.455h-.66v-5.675zm2.772-1.418h.604c0 .3-.102.544-.307.734-.206.19-.484.285-.836.285s-.622-.095-.826-.285a.958.958 0 01-.307-.734h.605c0 .144.04.27.12.379.079.11.215.163.408.163.193 0 .33-.054.414-.163a.609.609 0 00.125-.38zm7.056 8.468v-1.985h.363a1.8 1.8 0 00.353-.486c.11-.21.205-.49.283-.842.078-.352.13-.8.155-1.342l.121-2.394h3.343v5.066h.648v1.972h-.648v-1.363h-3.97v1.375h-.647v-.002zm1.177-1.984h2.792v-4.456h-2.078l-.088 1.785c-.022.413-.06.788-.116 1.123a5.808 5.808 0 01-.211.89 3.132 3.132 0 01-.3.658zm11.027-2.228c0 .598-.107 1.116-.322 1.551a2.42 2.42 0 01-.882 1.009 2.34 2.34 0 01-1.281.355c-.48 0-.907-.118-1.28-.355a2.422 2.422 0 01-.883-1.008c-.215-.436-.321-.954-.321-1.553s.106-1.115.321-1.551c.214-.436.509-.773.883-1.009.373-.237.8-.354 1.28-.354s.907.117 1.281.355c.374.235.668.572.882 1.008.215.435.322.953.322 1.551zm-.66 0c0-.492-.081-.906-.243-1.245a1.8 1.8 0 00-.657-.768 1.704 1.704 0 00-.925-.26c-.341 0-.65.087-.926.26a1.81 1.81 0 00-.657.768c-.161.339-.243.753-.243 1.244 0 .492.082.907.243 1.245.163.338.382.594.657.768.276.173.584.26.926.26.341 0 .649-.087.925-.26a1.8 1.8 0 00.657-.768c.162-.338.243-.753.243-1.245zm2.964-2.838h.814l1.914 4.71h.066l1.913-4.71h.814v5.675h-.638v-4.312h-.055l-1.759 4.312h-.616l-1.759-4.312h-.055v4.312h-.639v-5.675zM40 12.738h11.89v3.184h-7.988v10.02H40V12.738zm29.465 13.148h-3.901l-.948-2.435h-5.982l-.947 2.435h-3.902l5.054-13.11h5.573l5.053 13.11zm-9.605-5.619h3.53l-1.56-4.064h-.409l-1.56 4.064zm14.268-7.49H86.13v3.183h-8.1v1.554h5.035c1.462 0 2.545.332 3.252.993.706.662 1.059 1.73 1.059 3.202 0 1.473-.35 2.52-1.05 3.175-.7.655-1.768.99-3.204 1.002H74.13v-13.11zm8.936 10.168c.383 0 .671-.115.864-.346.192-.231.288-.534.288-.909 0-.374-.096-.674-.288-.899-.193-.224-.48-.336-.864-.336h-5.035v2.49h5.035zm9.159-10.169h12.001v3.184h-8.1v1.554h5.035c1.461 0 2.545.332 3.251.993.706.662 1.059 1.73 1.059 3.202 0 1.473-.35 2.52-1.049 3.175-.7.655-1.769.99-3.205 1.002h-8.991v-13.11h-.002zm8.935 10.17c.384 0 .672-.116.864-.347.192-.231.288-.534.288-.909 0-.374-.096-.674-.288-.899-.192-.224-.48-.336-.864-.336h-5.034v2.49h5.034zm13.061 2.94h-3.902v-13.11h8.917c1.697 0 2.957.384 3.78 1.152.824.768 1.236 2.008 1.236 3.718s-.412 2.95-1.236 3.717c-.823.768-2.083 1.152-3.78 1.152h-5.016v3.371h.001zm0-6.555h4.57c.52 0 .91-.153 1.17-.46.26-.305.39-.72.39-1.244 0-.525-.13-.918-.39-1.217-.26-.3-.65-.45-1.17-.45h-4.57v3.371zm14.341 0c0-2.435.632-4.214 1.895-5.338 1.264-1.123 3.109-1.685 5.537-1.685 2.427 0 4.272.562 5.536 1.685 1.263 1.124 1.895 2.903 1.895 5.338s-.632 4.23-1.895 5.347c-1.264 1.117-3.109 1.676-5.536 1.676-2.428 0-4.273-.559-5.537-1.676-1.263-1.118-1.895-2.9-1.895-5.347zm3.864-.019c0 1.187.303 2.126.91 2.819.607.693 1.499 1.04 2.676 1.04s2.062-.344 2.656-1.031c.595-.687.892-1.63.892-2.828 0-1.2-.3-2.088-.901-2.781-.601-.693-1.484-1.04-2.647-1.04-1.164 0-2.084.344-2.685 1.03-.601.687-.901 1.618-.901 2.79v.001z" fill="#fff"/></svg>