<svg width="1282" height="706" fill="none" xmlns="http://www.w3.org/2000/svg"><g clip-path="url(#clip0_627_6373)"><path d="M2.536 505.539h3.803l1.902 1.23 2.377.308v-1.385l2.06-.307 1.269 2h5.23l.158-1.693 1.902.462v3.231l2.219 2-1.268 3.077 2.536 2.461v4.462l.634 1.692-.793 2-1.268 1.692 1.902 1.847.793 1.846 3.17.923 3.328.461 3.962 6.462-2.377.308-2.06 2-4.122-1.385-3.17-2.769-.633-1.693-.317-1.538-2.06-1.385-4.121.923-2.694-1.384-3.329-1.846-4.754.769-3.487-.616-1.585-2.615-1.11-4 2.537-.154 3.01-3.538.793-3.693-.317-1.846v-2.615l-1.585-2.462-2.535-1.846v-1.384zm251.043-262.308l9.667 8.461-.475 3.539-1.109 2.923 2.218 2.153 3.329-.769 2.06 1.231 2.536-.154-.793-4.307 1.902-1.847 1.268-3.384 2.853 2.769-2.378 2.308-.95 4.461 2.852 1.231 1.427 7.231 2.535 4.307 1.427 3.847 1.743 4.153 3.804 3.693v5.231l3.645 3.538 5.864 3.231 5.389 2 6.181-1.231h5.547l5.388-5.231 3.487-6 .792-7.077.159-4.307-3.487-3.385-.158-6-1.268-2.769.951-4.923v-5.693l-1.585-5.538-3.328-3.231v-4.461l-2.853-1.385v-4.154l-2.536-2.461-3.487-1.693v-3.692l-.951-3.692 2.061-2 2.377 2.307 2.219 1.385-.951-3.539v-3.076l-4.755-.154-3.486.461.792-4.154-3.487 2.308-2.852-2.769h-3.487l-5.864-2.154-8.4 4.154-6.498 3.077v10.461l-3.17 5.385h-10.301l-6.181 6 .317 3.385zM119.816 373.846l2.695 3.231 1.267-3.385h2.853l1.268-2 1.109-2.308.476-4.154 1.743-1.692.317-2.461 3.17-2.462-1.743-1.692 1.585-1.539 1.743-.923v-2.769l1.743-.923 2.061-2 2.694-1.231.951-2.769-2.061-1.538-.634-1.539 1.427-1.385v-2.461l1.585-1.539 3.328-.307-.792-3.846 1.109-3.539-1.268-2.769-.158-2.769-2.536-2.462 1.268-2.615-2.378-2.77-4.596-.153-3.486 4.461-4.28 1.539-.158 2.923-2.219 2.461-5.072.154-2.377 2.616v4.153l-4.754 2.923-3.17.77.951 3.538-2.219 3.846-3.804 3.693-.634 2.769 1.744 3.846 2.852 2.769-.95 3.077-1.268 2.923 3.803.923 3.487 3.077v6.616l3.328-.308z" fill="#EEE"/><path d="M112.684 377.385l-1.426 2.923-3.962 1.23-1.585 4.308-2.219 5.077-1.268 4.615.159 3.385-2.061 1.385 3.012 2.923-1.268 4.307-.951 3.847 3.011 1.538v3.385l1.902-1.846 2.06-3.231 2.536.154 3.011-1.539 2.694-.615 2.853-2.769h2.853l2.06 2 .634 2.307 2.853.308.951-.923 1.585.461 2.853 2.154 2.218-1.692h2.853l3.645-.769 1.427-2.154 2.694-2.616 3.645-1.384.951-3.231-.951-2-2.377-1.846-1.585-2.923-1.585-1.539v-2l-3.487-.923-3.169.923-3.962-.923-1.902-1.846-3.012-1.692-2.218-2.154-.793-4-2.694-1.538-.317-1.231-2.694-3.231-3.487.308-3.487 3.077z" fill="#EEE"/><path d="M97.31 412.462l-3.961-1.385-1.268-2.923-2.22-2.308-3.01.154-.951 3.539-2.536 2.923-3.804 3.692-1.743 3.077 1.743 2.923 2.06 2 2.695-2.308 1.743 2.462 2.219 2.307 3.011.462 2.22 2.154 1.584 3.846-.475 3.077-1.427 5.231 2.219.154 1.426-2 2.853-.924 1.743 1.231h2.536l2.219-2.154h2.06l.476-1.692-.634-1.692 1.902-.616h2.219l1.584 1.539 1.11-1.077.634-2.462 1.268-1.23-.476-2.77-1.902-1.846v-2.308l1.585-1.538v-2.923l.793-2.923-1.585-1.539.158-1.846-1.902-2.923-3.011 1.539-2.536-.154-2.06 3.231-1.902 1.846v-3.385l-3.011-1.538-3.645 1.077z" fill="#EEE"/><path d="M90.338 458.923v-4.154l-2.22-3.846-2.218-3.385L87.96 446l1.268-2.923h2.377l1.744-1.539 2.219.154 1.426-2 2.853-.923L101.59 440h2.536l1.109 1.692 2.061.769 1.584 1.231v3.231l2.378.615.634 1.846 2.06.924.634 4.307 2.219 3.539.634 4.461 2.219.462 1.584 1.538V468l2.536.461 2.853 1.693-2.377 2.307-3.012-1.077-1.901 1.847v2.923l-2.061.923-.951-2.923-3.011-2.923-4.596-2.77-2.853.616-5.547-1.077v-2.154l-2.853-2.923-1.426 1.384h-3.487l-4.12-.923 1.901-4.461z" fill="#EEE"/><path d="M106.82 501.692l-1.268-4.461-3.011-1.693-3.17-3.538 1.268-4.154-1.268-6-3.804-2.769-4.437-3.385-1.427-4.461-3.01-2.308-.952-2.769 2.536-2.923 4.12.923h3.487l1.427-1.385 2.853 2.923v2.154l5.547 1.077 2.852-.615 4.596 2.769 3.012 2.923.951 2.923.792 2.615-1.743 1.385 2.535 2.461-1.584 2.924h-2.061v3.846l.634 2.923-3.011 1.538V498l-2.377.154.634 2.461-3.487 1.846-.634-.769z" fill="#EEE"/><path d="M107.454 502.308l3.487-1.846-.634-2.462 2.377-.154v-3.384l3.011-1.539-.634-2.923v-3.846h2.061l1.585-2.923-1.427-1.385-1.109-1.077 1.743-1.384-.792-2.616 2.06-.923v-2.923l1.902-1.846 3.011 1.077 2.378-2.308 3.486.616 1.585 2.923 3.645 1.23-.792 3.539 2.377 2.308 3.011.307 2.853 3.846 2.061 2-.951 2.924 2.377 2.307 3.804 1.539 1.267 2.461 2.378 2.308 1.268 3.846 1.585 4-1.427 1.385h-4.121l-3.011-1.693-.634-2.154-3.011-.615-2.853 2.462h-5.705L134.238 510l-4.754 4.615h-5.23l-1.744 1.693h-2.852l-1.427-1.846h-3.487v-2.154l-1.584-1.539-3.487-1.538v-4.154l-2.219-2.769zM62.92 611.385L59.907 610l-4.437-2.923-1.427-4.615-3.01-4.462-.951-3.846 2.377-2.308 2.853-.461 2.06-2h2.06l1.11 2.307 1.743 2.462h3.963l3.01-3.692 2.378.769v3.077l2.22 1.538.475 2.462 1.109 1.538h-3.487l-.95 1.693 1.584 1.538 1.11 1.692-1.11 2.462-2.853 1.077-1.901-.154-2.378 2.308-2.535.923zm7.131 13.692l.793 6.307 2.853 2.77 4.437.615 2.536 2.462.634 2 1.902-3.077h3.01l.318-2-.951-3.077.95-4.616 2.695-1.077 4.12.154-.792-3.384-3.803-3.385L87.168 620v2.307l-1.427 1.385-3.645.154-1.268 1.231-2.06-1.539h-2.536l-1.743 1.077-1.743-.308-2.695.77z" fill="#EEE"/><path d="M93.032 633.077l-1.902 4-2.377 3.692-3.012 2.154-.95-3.538-3.487-.462 1.902-3.077h3.01l.318-2-.951-3.077.95-4.615 2.695-1.077 1.426 2.616 3.17 2.461-.792 2.923zm29.161-8.923l-2.06 2v3.231l2.06 2 1.268 3.692-.951 3.692-.951 3.385-2.377 2.308v1.384l-1.902 1.846-4.437 7.077v5.385l1.268 6.615-.793 5.077.476 6.308-4.755 2.154-3.17-1.385-4.596 1.539-4.438-.923-.633-3.693-2.22-6.461-.475-4.616-3.17-2.154V660l-1.584-4.154-2.853-3.538 1.743-2.923 3.487-.462 2.219-1.692 3.328.308 2.06-1.539 3.329 1.846 1.267-4.615 3.487-4.154 3.645-2 2.061-.615-.317-4.462-4.121-.308-2.219-2.923-2.853-3.077 1.268-3.077-2.06-.923V620h2.536l1.426-1.231-.951-1.538 1.585-1.539 2.536.923 3.011-.923 3.17-2 2.694 1.847 1.427 2 2.218.769.951 2.461-.634 3.385z" fill="#EEE"/><path d="M124.729 624.923l4.279-1.231h3.804l3.487-3.846 2.852-1.231v-2.769l-2.218-1.538h-2.695l-.634-1.539 6.498-4.461v-1.846l-1.267-1.231v-2.308l-1.427-1.846 1.585-1.539 2.219.923.317 1.539h1.426l.317-2.462 4.279.308 1.268-3.077-2.06-2 1.426-4.923 2.378-1.231.475-2.307.475-2.462-4.437-.154-1.902-2.461-.317-3.693.634-2.923.475-3.23-2.377-1.539L142.48 566l-3.645-.769-2.061-2v-2.462l-1.902-.615-1.426 3.846-2.06.769-2.061-2-2.377.923-2.219-2.154-3.645 3.231v4.154l2.536.154 3.011-1.539v2.923l-1.902 4-4.12 2.924h-4.597l-4.279 4.307-2.377-.615-.951.923-2.219-.769-1.585-1.539-1.426-5.846-2.536-.615-1.902-1.846v-2.616L97.627 566h-2.376v1.846l-1.427 1.385h-3.486l-1.902-1.385-2.536 2 2.219 1.077.95 2.615h2.061l1.585-.615.792 2.462 1.585 1.538 3.645-.615 2.219.923.476 2.769 1.901 2.154.634 2.461 1.902 1.847 1.268 3.538-1.426 2.615 1.585 2.77 2.06 2 1.585 2v2.307l2.219 2.154.475 2.923 1.743 2.462v4.461l2.695 1.846 1.426 2 2.219.77.951 2.461-.317 3.385 2.377.769zm196.682-29.077l1.268 2.769 2.853 2.77 1.902 1.846.792 3.384 2.853 2.77-2.853 3.692-2.536 2.461h-4.437l-4.596.308-2.378-2.308-1.584-3.23h-2.061l-2.219 2.153h-3.486l-3.962-3.846-.793-2.154-3.011-2.923v-4.923l-2.536-2.461h-4.596l-3.804 1.384-1.426-2.923-3.804-2.923L277.51 590l-4.596 2.154-4.279.615-3.486-.923-2.378-4.461-3.486-2.924-2.378 3.847h-2.536v-3.077l2.378-2.308-1.585-3.385-2.06-5.077-.793-5.23-3.011-3.539-4.755-1.692-1.426-3.385-2.536-2.461-4.755.769h-2.852v-3.692l-1.427-3.846.159-2.154h7.132l2.06-4 3.804-2.616 2.219.616 1.267-2.616 5.547-.923 2.695-6.154 4.596-2.461 3.487-3.385 1.267-5.384h3.329l3.328 3.23-2.377 2.308 2.06 1.846 1.268 2.154-.159 5.077 1.585 1.538-1.109 5.385 2.219 1.385 2.694 2.615 1.743 4.308v4.307l1.268 2.616-1.109 2.615v3.693l-.793 1.846 2.378 1.23 2.06-2h3.487l1.268 2.154-1.268 2.923-3.329 1.231.793 1.539 2.06.461-.634 3.846-1.268 1.231.634 3.077h1.902l.476 1.692 2.377 2.308 2.377-1.077 1.744-1.692 2.06 1.077.792 2 2.219 1.538 2.536.616 2.536-1.847 1.743-3.846h7.132l2.377-.923 3.329 1.385h2.06l1.426 2.461-.951 2.462-3.803 1.846.317 2.462h2.06l.792 2.461z" fill="#EEE"/><path d="M364.203 571.692l-5.072-.923-3.645.923-3.17-2.769-4.596-2.308h-4.279l-1.426 4.308 1.426 2.923-2.853 2.769 2.219 1.385 2.219 2.154 2.694 2.615-2.536 2.462h-2.852l-3.487-3.385-5.23.154-3.487 1.384 1.427 4.923-1.427 3.539-3.486.923-3.963-.923-1.585 4.154-.633-3.077H318.4l-.317-2.462 3.804-1.846.951-2.461-1.427-2.462h-2.06l-3.328-1.385-2.377.924h-7.132l1.268-2 3.169-1.385.476-2.923 2.694-4.769h2.06v-3.385l2.695-3.385v-2.153l4.12-4 3.17-1.077v-1.385l3.328-.308 1.427 1.846h2.377v-3.692l-1.426-4.308-4.914-1.538-2.06 1.385-4.913-.462-2.536-4-.634-5.231-1.902-1.846-.792-3.692 4.438-3.231 3.011.923 3.328 1.539 2.219 2.153v2.616l4.121 1.538 2.694-2.615 4.596-1.077v-2.308l2.377-4.307.951-2.923-.792-3.231 2.694-1.077 3.328 2.154 1.11 2 3.645 1.23.634 1.539 2.694.308 2.694 2.615 2.536-2.462 2.853 1.539 2.219 2.154 2.06 2 .159 4.307.634 4.924-1.902 2.923h-3.487l-2.06 2 1.109 3.692-1.902 1.846h-2.694l-.792 2.615 2.377 2.308 2.536.154.475 1.846h3.962l1.585 3.846-3.011 2.923-.317 2.308zm120.133 35.539l-3.328 3.231-5.547 1.538-4.755 2.462-2.219-3.077-4.279 2h-3.487l1.268-5.231 4.755-2.154v-2.769h-3.962l-3.646-2.154-2.218 2.154-3.963-1.231 1.268-4.615-2.852-2.77-3.963 2.308-4.437-1.231-1.11-3.384 2.536-2.462v-3.692l.951-2.769-1.585-4.923-3.011-1.385v-2.308l1.109-2.307 2.061-2v-2.616l1.585-.307 2.06-2 .792-2v-3.385l5.072-4.923 3.804-.616 1.426-1.384v-2.462l-3.011-1.538-.951-2.308-1.902-1.846-2.694-1.385v-2.153l3.169-1.539-1.426-4 .317-3.077 2.853-3.077 1.426-2.307 3.011-2 3.17 3.076-1.902 1.847v2.307l2.695.923 3.486 1.077 2.219 1.077 2.536 1.539h4.121l1.426-1.846 3.487 1.692 3.011.923h4.754l3.963-1.846 3.169-3.077 1.744-2.462.634 1.847-1.11 2.461-1.268 2.615v4l2.378 2.308-.634 4.923 2.219 4.462 1.267 3.384v9.385l-3.169 3.077.634 2.154v2.923l-1.585 1.538-2.853-1.077-2.536 1.077-3.803 4.308-2.219 5.385.951 6.923v4l2.06 2v2.307l-2.219 2.154-1.743 4.308z" fill="#EEE"/><path d="M504.622 624.154L502.403 622l-2.377-4.769-2.536-2.462-3.487-1.385v-3.538h2.853l2.377-3.077-.95-2.769h-3.646l-3.011 2.923-4.279.154-3.17.154 1.744-4.616 2.218-2.154v-2.307l-2.06-2v-4l-.951-6.923 2.219-5.385 3.804-4.308 2.535-1.077 2.853 1.077 1.585-1.538v-2.923l-.634-2.154 3.17-3.077v-9.385l4.438 1.077 2.377 2.308h4.913l5.388.769 4.597 2.308 5.388 2.154 3.328 3.231 2.695 2.615 3.962 5.385h8.717l3.486 4.615h4.121l4.755-1.231 2.852-2.769 2.536 1.231.793 4.923v3.692l1.584 1.539-1.901 1.846 2.218 2.154 2.536-2.462 2.694-2.923 5.072.308.634 6.461 1.426 2.769 1.11 5.847-.793 8.307 2.536 3.693-6.656 3.692h-3.962l-2.695 2-2.694-1.539-2.694 2.616-2.378-2.308-3.803 3.692-1.744 4.462-2.694 1.231-2.694-3.846h-2.219l-1.743-2.616v-2.769l-3.646-3.539-1.901-1.846-4.121.154-5.864 1.846-5.864 4.308h-6.498l-3.962 1.538-3.011 1.077-2.219-2.153-1.427 1.846-3.011 2zm123.461 71.692l-4.754 1.077-3.328 3.231-6.023-.154-5.072 2.769-2.535 2.462-5.864-.923-1.744-2.923-2.219-3.846-1.109-4-3.17 3.077-5.23 2-4.754-1.539-5.389-1.692v-4.616l-4.279-2.461-1.585-3.539-3.487-2.153-.792-4.616 3.962-.308v-3.384l-1.743-1.692-2.695-2.616 1.902-1.846 4.279-1.385 5.231-1.846h3.486l4.755-4.769v-3.231l2.377-2.307 3.804 2.307 1.902-2.461h2.06l1.585-2.308-2.219-2.154 1.743-3.077 3.17-1.538 3.962 3.384h3.962l3.487 1.693h1.902l.158 3.538-2.535 2.462-3.012 2.923.951 3.846-1.901 1.846 4.12 4h3.17l1.902-3.846h2.06l.634 4.461 1.426 4.308 4.597 4.462 3.645 3.384-.951 2.77-3.328.769-1.585 1.538 3.011 2.923v3.231l2.06 2.769z" fill="#EEE"/><path d="M566.749 677.846l-2.853-2.461-3.803-1.539-2.536-2.461h-5.072l-2.536 2.461-5.071.769-2.061-2-4.437.77-2.377-2.308-2.219-2.154V666l-2.219-2.462-3.17.924-2.219 4.461-4.437.769-2.536-5.077-1.426-4.461-.951-5.077-3.487-5.846v-4.616l-3.17-2.923v-6.461l-2.377-7.846-3.487-3.385 2.377-1.077 2.061-2.308 2.219 2.154 6.973-2.615h6.656l5.865-4.308 5.863-1.846 4.121-.154 5.547 5.385V622l1.744 2.615h2.218l2.695 3.847 2.694-1.231 1.743-4.462 3.804-3.692 2.377 2.308 2.695-2.616 2.694 1.539 2.694-2h3.962l6.657-3.693 2.377 4.462h3.645l2.536 4.769 2.219 2.154.792 3.692 3.17 1.846h3.011l.159 2.616-3.012 1.385 2.061 3.692v3.077l1.268 3.231-3.17 1.538-1.743 3.077 2.218 2.154-1.584 2.307h-2.061l-1.902 2.462-3.803-2.308-2.378 2.308V660l-2.218 2.154-2.536 2.615h-3.487l-5.23 1.846-4.279 1.385-1.902 1.846 2.694 2.616 1.744 1.692v3.384l-3.804.308zm158.962-25.385l-3.169 3.077-2.536 4.923-2.694 2.616-.793 5.077 2.536 2.923v4.308l3.487 3.384v4.616l-4.755 3.076-4.596 4.462h-9.668l-5.388-1.385-5.547.923-3.962-1.23-5.865-2-3.169-3.077-3.804-3.693-4.596-1.384-5.389 2.154-3.486-3.385-4.279-1.846-3.487 3.385h-4.438l-1.426 4.153h-5.23l-6.657 4.154-3.962 3.846h-3.962l-.792 4.154-1.585-2.769v-3.231l-3.012-2.923 1.585-1.538 3.329-.77.95-2.769-3.645-3.384-4.596-4.462-1.426-4.308-.634-4.461 1.743-1.692 3.487.923 3.962.307 3.804-3.692v-4.308l4.279-2.154 3.487 3.385 4.596 1.539h4.596l4.12 2h3.17l4.279-1.693 5.864-4.923 4.28-1.231v-4.923l3.011-2.923v-3.231l4.596-1.23 1.268-7.077 1.902-1.846 5.23.923 3.803-3.693 4.438.154 1.743-1.692 2.219.769 1.11-2.461h3.645l3.011 2.153 4.596.616 3.804 3.538 2.536 1.231h4.437l1.744-1.692 2.06 2 1.585 1.538-2.378 2.308v3.385l-2.218 2.153.792 3.385 1.902 1.846.158 3.692zM1069.94 584l-2.37 2.307-4.6-1.23-3.8-.923-5.87.769h-5.39l-2.21 2.154-6.03 2.154-6.02-1.231-2.53-4.769-2.86-2.77s-3.48-2-3.48-2.769c0-.769-3.81-3.692-3.81-3.692l-4.75-.769-2.06-4.616-4.6-3.538-3.17-3.077-4.44-1.231-1.58-4.154-3.963-1.692-2.378-2.308-8.082-.769h-4.28l-4.754 2.461-6.023-.923-4.596 1.539h-5.071l-6.815 4.923-3.17 3.077-2.853-4.923-1.268-2.462h-3.486l-.951-4.154-1.744-2.461 3.012-1.692v-1.385h-1.585l-2.695-2.769-2.218-.308.475-4.923-1.268-2.308-1.426-3.846-3.17-1.538-2.377 3.077-2.378-.924-.158-3.384-1.585-1.539-2.377-.615-2.536 2.462-1.268 2.923-4.121-1.077-1.267-2.462 2.377-2.923-1.427-2.308-2.694.923-3.486-.923-2.378-2.307v-2.308l3.487-3.385 3.962-3.23h3.962l1.744-1.693 2.218 2.154 3.012.616 1.426-1.385h3.962l1.585 2s2.536.308 2.536 0 .792-2.923.792-2.923l5.072.923 1.743-1.692 3.645-.77 3.329 1.539 4.279 4.154 3.328-1.385 3.645-.923 1.585-2.154 2.694 1.231 2.061-2h2.219l2.06 2 7.924-7.692 4.279.615v-2.615l5.389-2 3.962.769s3.804-2.308 3.962-2.462c.159-.154-.317-4-.317-4l6.499-3.846 6.18-4.923 1.59.923 2.53-1.231 2.22-2.769 3.17-.461 2.85-2.77 3.65-.615 3.64 2-1.42 3.385s.31 2.615.15 2.615c-.15 0-2.53 3.385-2.53 3.385v6l-1.43-.154-1.11 2.615 2.22 3.539v2.615l-2.38 1.385-1.42 3.23 2.53 2.923 4.92.616 1.74-1.539 3.17-.923 5.55 7.385 2.37-2.154 2.54.154 3.65-5.231 3.8-1.384 1.27-1.231-.8-3.693.96-3.076 3.96-.77 2.06-2 2.22-3.692 3.8-.308 3.49 3.385.95 5.846 3.64 2.462-1.42 4.769-6.5 2.308-3.49-.154-1.58 2.154 4.12 4 .16 2.615-3.65 3.846-.47 5.692-3.49 3.077-.16 2.616-2.69 3.231 2.37 3.538-1.9 3.385.79 7.846 2.22 2.154h2.06l2.22 3.384 1.75-1.692 4.43.461.8 3.077 3.8 2.616.32 2.769 1.74.461 2.22 1.693.16 4.615-1.9.769.95 3.077-.95 2.308.47 4.308-4.6-1.077z" fill="#EEE"/><path d="M1114.8 566.769l-4.76 2.462-1.27 3.846-3.17 5.077-3.64 4.461 1.58 4.923-4.28 3.385-4.27 2.308-3.65 1.231-.95 3.538h-3.8l-3.81-2.154-2.85-.923v-4.461l-3.17-2.77-2.54-2.461-.47-4.308.95-2.308-.95-3.077 1.9-.769 2.06.462 2.06-3.231 1.9-1.846-.31-4.154 3.32-.462 3.49.616 4.6-2.154 3.32 1.538 3.97 4.616 2.53-3.385s5.23-.923 5.55-1.231c.32-.307 2.06-3.692 2.06-3.692l4.12-.461 3.49-1.385-.32 3.231 1.27 1.231-.48 2.307h-3.48zm50.55-12.615l2.22 5.692 1.59 6.308 1.26 5.692 1.27 7.538v7.385l-1.27 3.846v16.923l-1.26 7.077 1.26 7.231-.47 9.385v4.461l-3.96 6.462-2.54 5.384-3.01 5.385h-2.54l-5.07 2-4.28 2.308-2.85-1.231v-2.616l-1.58-1.538-1.59 3.385v3.538l-1.74-1.692-2.54-2.462v2l-.79 4.923.79 3.385-1.11 3.846-1.74 1.692v5.077l-3.8-.154-1.59-1.538 1.43-4.462 2.37-4.615v-3.846l-2.06-4.615-4.28-4.154-2.21-2.154-1.75-4.462-3.8-3.692-3.65-1.231-.15-3.846 2.53-2.462 2.22-2.153v-3.847l2.85-2.769 3.17-1.538 3.33 1.077 2.85-2.769 1.75-3.539-3.17-4.923 1.58-4.154-2.06-4.308-.47-4.461-2.86-3.692.8-3.077-2.22-3.693 3.96-.461v-1.693l-2.22-2.153.48-3.693 3.48-4.615 2.86.769.79.769 2.69-.153.95-1.385 4.12.615.32-1.23 4.12-.616 3.17-3.846v-5.538l-2.38-.616.64-3.231 4.75-1.692 1.27-2.769.48-3.846-1.59-3.693-1.58-.461-1.27 2.461-3.33.308-.95-2.769-3.65-.462-.63-2.615 3.96-3.231 1.43-5.384 2.38-.308 2.85 2.154 2.22 2.154 2.85-.154 1.27 2.461-.95 2 3.48 2.462 3.33-2.769-.16 6.923zM1131.12 220l2.54 2.462v6.307l2.06 4.616.47 7.384-1.42 4.462-1.59-3.846-3.64-1.692v4.923l-3.02-2.923-2.06-2-1.58-3.385-5.55-5.077 1.59 4.308-1.59 4.615h-5.39v3.077l-1.74 6.462-2.22 2.461.16 8.615 3.64 2.308-.63 5.385 3.65 5.384v5.847l1.11 7.692 3.32 3.231v3.538l2.86 2.769 2.53-.461 2.38-2 1.74-1.693h3.01l-.15 3.693-3.17.923v5.231l-6.03.923 1.43 6.769-.63 2.923-3.81 1.538v4.154l-1.42 3.693s-4.76 1.077-3.81.153c.95-.923-1.74-1.692-1.74-1.692v-2.461l.79-2.462 3.33-1.077-1.59-1.538-3.64 1.384-3.8.616v1.692l-6.03 2.769-2.85 3.385-3.17.769-2.54 2.462-.95 2.923.95 3.692 2.22 2.154-2.53 2.769-4.28-1.538 1.27 4.153-3.17 3.077-2.86 2.462-.95-3.077-4.43-4.308h-2.38l-1.74 1.539-2.38-1.231-3.49-.154-3.01 3.539-2.69.153-2.22-3.23v-4.154l3.8-2-3.01-4v-2.923l-2.7-.923-4.59-2.77-2.7-1.384-7.6-.462-4.12 4.616-3.17-.154.63-3.692-3.01-2.924-.79-2.307-2.7-2.616-4.75-2.307-1.27-2.77-3.33-4.307v-2.308l-1.58-.769.79-3.846 1.9-1.846-2.85-1.693.63-3.384 5.23-2v-1.847l3.96.154-.31-4.307-3.01-.923-2.06-2.616 2.53-2.308h2.54v-3.076l2.53-1.693v-2.154l3.17-.769 1.91 2.154 2.69-.308 1.43-2.769-.96-2.461 2.7-4.308.95-2.769 2.69-.462v-2.461l-1.42-3.539-3.33-1.846-3.17-3.077-.32-7.385-3.01-1.538-2.06-2.769v-3.231l2.38-.462-1.11-3.23-3.33-.923.64-2.924 3.48-1.384V220l1.59-1.538h3.96l.32-4h5.07l2.06-2-1.27-4 1.74-3.231-2.37-3.846 4.43-1.846 2.06 2 2.38 3.384h3.33l3.96-1.538 1.27-2.462 4.12.923 4.75-.461 4.28-5.692 6.34.923 6.66-7.539 5.07.462.16 2 1.27 1.23-.95 2.77 4.75 2 .64 2.923 4.75-.923 1.58 3.538 3.33 1.385.16 2.615 2.54 2.462 3.01-.77h3.49l.63 2.308h2.22l1.58 1.846-1.27 4.308h1.75l1.42-2 1.43 1.385v2.615l4.28.769zm-865.338 71.384l-.792 1.077 1.268 1.539 1.585-1.539-2.061-1.077zM551.693 120l-1.585.461 1.268 1.539v1.538h2.06v-2.769l-1.743-.769zM435.68 293.846h-2.06l-2.219-3.231-1.268.769-3.803-3.538-2.853-3.077 1.109-3.231 2.853-.923 1.109-1.692-2.06-1.539.159-4.307-1.268-.308-1.268-3.231-2.695-.154-2.218-3.077.792-3.846 2.853-3.846 3.487.308 1.109 1.231 1.268.461.475-2.308 4.121-1.23 3.328-3.385-2.219-2.308 2.853-1.846 3.328 1.231.951-2.615v-2.616h4.121l2.06 2 2.061-2 .475-1.846 4.596-.923-1.585-1.538-3.962-1.385v-1.385l4.596-1.23 4.755-1.231 2.377-2.308h3.17v-2.154l4.438-.154-2.378-2.307 3.804-.154 1.426 1.384-.158-3.538 1.902-1.846-2.061-2.308 1.268-2 2.219 2.154h2.694v-2.615l3.963 1.384 2.06-2.154 2.06-2.307h2.536l4.438-2 3.169 1.077h4.596l3.012-2.923 3.486.307 1.585 2.308h3.804l1.902 1.692 3.328-.923h4.596l3.011-2.923 3.487-1.846L533.15 210h4.437l2.536 3.846v4.308l-3.804 3.384-3.486 3.231-4.596.308-5.389 2.461-4.913-1.692-2.377 2.308-5.706-.154h-7.449l-2.694 2.769h-5.706l-4.12 2.308 1.268 2.769-2.853 1.077-3.487-.308h-3.17l-.316 2-3.329-.923v3.231l-3.328 2.308-2.694 2v-3.077l-2.219 2 .475 3.538h-2.218l-1.585-1.538v4.307l-1.585-1.538-2.06 2-1.744 1.692h-2.377l-1.743 2.308-2.378 3.846h-3.803l-3.17 2.462v3.384l-3.17 1.231-1.109 3.538-2.536 2.462v4.461l-1.268 3.231 1.585 4.616-1.427 4.615 2.061 3.077.951 3.231-1.11 1.077-3.169 1.384v-2.307l-2.695-1.385zm115.537-161.385L550.108 134l-3.962.769-2.536 1.385 1.902.923-.951 2 1.585.461h3.328l2.694-2.615 1.902-1.846-.634-2.923-2.219.307zm-12.52-2.615l-.793.769 1.585 1.539 2.853-1.077v-2.308h-1.585l-2.06 1.077zm-2.061 4.615L534.418 132l-1.585 1.538-1.268 2.308v2.923l2.536.462.634 1.692 3.169-.769 2.061-2 1.585-1.539.792-2.461h-2.219l-3.487.307zm-9.033 10.154l-.951.923v1.846h2.06l.793-2.307-1.902-.462zm-4.121-7.384l-1.109-1.077h-3.329v2.153L517.301 140l1.109 1.077 3.646-.77 1.426 1.385 3.17-.769.951-2 2.218.769-1.267-2.615-2.061-2-3.011 2.154zm16.641-24.462l-.951 1.692 1.585 1.539 1.585-1.539-2.219-1.692zm-3.328 4h-2.377v2.615l2.535 2.462v2l2.219-1.077-1.426-2.769-.951-3.231zm-15.056 7.692h-2.061l-.475.462 1.743 1.692.793-2.154zm1.743 3.385l-1.426 1.385 1.426 1.538 1.585-.154-1.585-2.769zm1.426-6.462v1.847h2.061l-.476-2.154-1.585.307zm3.012 4.77v1.692h1.743l-1.426-1.385-.317-.307zm1.585 3.846l.792.769 1.426-1.385-2.218.616zm2.218-7.693v2l1.744.154v-2.154h-1.744zm-2.694-4.153l1.109 1.846.951-.923-.951-.923h-1.109zm-19.494 12.307l-1.109 1.077 1.902 1.846h2.218v-3.538L510.962 128l-1.427 2.461zm4.913-2.307l.793 2h1.585v-1.693l-2.378-.307zm-8.4-11.693L504.464 118v1.538l-1.744 1.693-3.011-2.154-2.536 1.384v1.693l-3.17-2.154-2.377.923.793 3.538 2.218-.769V126l2.378.615 2.219-2.154 3.011-1.23 2.536.769h3.803l2.695-2.616-2.536-2.461 1.743-1.692-3.011-1.693-1.427.923zm-8.558-3.692h-3.328l-1.902-1.846-1.426 2.615 1.743 1.693.634 2 3.962-1.385 1.427 1.385 2.535-1.077 1.11 1.077v-2.154l-1.744-1.693h-1.584l-1.427-.615zm3.011 15.385h-1.267l.475 1.846 2.694.154-1.902-2zm.476 3.846l-1.426 1.384 1.109 1.077 2.536.616-1.585-1.539-.634-1.538zm10.935-18.769v1.846h1.585l1.585-1.539-3.17-.307zM326.958 314l-3.486 3.384-2.536 3.077v-4.307l2.853-2.77-3.487-5.077-2.377-2.307h-3.646l-5.388 1.692-4.755-2.461-5.864 2.153-6.181-.923-.158 6.77-3.487 2.769 1.426 3.384-1.743 1.693-5.705-1.693-2.219-4.461-3.487-3.385-1.109-5.692-1.268-8.769h-3.487l-3.487 3.538V304l-.475 4.307 2.536 2.462-.951 4.923-5.072 3.539-4.438-4.308-4.12-4-1.11 1.231-1.584 2.307-2.061-1.384-.951.923-1.585-2-1.267 1.384.158 3.077-1.268 2.77-2.536 1.23-.951 2.154-.475 4.923 3.804 3.693-1.585 4-3.328.923.475 2.615-.634 3.077-3.962 3.846-1.426.308-1.585 1.692-3.012 6 .476 1.846-1.585 1.539 1.109 5.384 2.378 1.385v2.461l3.169 1.539.793 2 1.268.769 1.902 1.846h2.06l1.743 1.693.793 2.153 3.962.154 3.011.77 1.427 1.384 2.535.616.951 2.461 2.378 2.308 1.584 1.077v2l1.744.615h3.486v-1.231l1.585.462h2.219v2.461l1.268 1.385h1.268v1.538l2.377 1.231 1.585 1.539 2.06-2 .634-1.693 2.219.923 1.585 2.462-1.743 1.692 2.377 1.231v1.231h1.743l2.219.923-.951.923 1.268 1.846 1.268 1.231 2.219-1.846 1.585.461 1.109 1.693.793.769 1.901 1.846-.634 2.154 1.744.923 2.536-.615-.159-1.385 1.743.461h3.17l.476 1.539 2.06.461 1.743-2 2.061-1.538 1.743-2.769-2.219-2.154 1.585-1.539 2.377-1.538.317-1.692 3.17-1.846 2.694-2.616 1.744-.769 2.536-2.462-1.744-1.692-.951-3.077-2.06.923-1.268-1.23h-1.743l-2.536.461-1.11 2.462-1.267-.462-1.744 2.462-1.743-1.693-1.902-.615-2.06-.923-.317-3.385 2.377-1.231-.475-2.153.951-.924.792-1.846 2.377-.615 2.853.615.475-1.846-.475-3.077-1.426-1.384.792-2.923 2.694-1.693v-2.769l.793-2.769-2.061-2-2.06-2.923v-2.308l-.475-2.615h2.535l2.853 2 2.378.769 1.743 1.692 3.487.616 2.852 1.692 3.17 3.077.634 3.077 2.377-1.231 2.695-.923 2.06 1.231 2.536.615 2.535 2h1.744l1.268 1.231 1.743-1.692 1.743-3.077-1.584-1.539-.634-2.615 1.268-2.616-.951-1.846-2.219-2.154-.793-1.692 1.744-1.692 1.426-1.385v-1.384l1.426-1.385 1.11-2.923 2.219-2.154-1.585-1.539-3.804-1.692-.475 1.231-3.487 1.231-1.902-.616-2.377-2.769-1.744-1.692-.792-3.385-3.17-3.077-1.743-2.307-1.109-4.154-1.585-3.231-1.744-1.846zm790.532 123.846l-1.43.308-1.1-2.923v-2.462l4.43 1.231 2.22 1.077 1.27 2.769 2.38 2.308 4.28.769 1.11 2.769 4.91 3.077h2.53l2.06 2.923 1.75 4.616 2.69 2.615 5.07 5.077 3.33.769 4.6 1.692 4.28 3.693 5.86 3.23 3.8 3.231 5.08 2.462 4.28 2.461 2.85 2.154 4.91 1.846-.63 2.154-1.75 1.692-3.32 1.077h-2.54l.63 3.539-.63 2.461v2l3.01 4.462s2.85 3.077 2.22 3.538c-.48.462.16 5.231.16 5.231l2.22 2.154 3.48 3.385 3.02 1.846h4.43l2.54 2.461h3.01l1.59 3.231 3.8.154 2.38-2.308 4.12 2.308 2.37 3.077s.8 2 0 2c-.79 0-5.54-2.154-5.54-2.154l-2.06 2h-4.44l-1.43 3.385.8 3.384 2.85 2.769 2.06 4.462-2.85 2.154-2.22-2.769-3.01-2.923-5.23-4.77v-3.23l-3.49-3.385-3.33-3.231-2.22-2.923-2.85-5.231-3.49-3.23-3.64-2-3.49-1.077-3.01-6-6.5-8.616-5.23-5.077-4.28-4.154-3.8-5.076-2.38-3.847-6.66-2.923-5.23-2.154-3.17-.307-4.12-5.539v-2.461l-4.43-4.462-2.38-4.307-4.91-1.539 1.26-3.385v-2.461l3.97 1.231.63-3.385-2.38-2.308v-1.23l-2.37-2.308-2.7-1.077zM1264.41 526l.63 3.538.32 3.385 1.43.461v-2.769l1.1-2.154v-3.077l-3.48.616zm11.88 2v1.538l2.22 1.231v-2.461l-2.22-.308zm-7.13-13.692l2.06.769.64-2.769-1.11-5.385 1.9-1.846-.32-3.846-3.01-.77-.79 4.462 1.11 1.077-.95 3.231.47 5.077zm5.23-22.308l-.79.769.63 2.923 1.43-2-1.27-1.692zm2.06-10.308l.8-4.308-1.27-2.769.63-2.923 2.38-2.308.63 3.077-.47 3.231.63 3.692-1.27 2.77-2.06-.462zm2.38-37.538v6.769h2.38l-.64-2.923v-4l-1.74.154z" fill="#EEE"/><path d="M1181.84 323.692s1.74 3.846 2.53 4.616l5.39 3.538 5.55 2.923 8.56 2.462 3.96.769 3.64 2.308 2.22 2.923 7.61 3.846 6.66 2.769 6.97 3.077 3.64 3.538h3.97l2.85 2.77 3.65 1.846h5.86l2.22 2.923v-3.846l-.95-5.231-2.06-8.154-.8-6.308-3.8-3.538-5.23-5.077-3.49-1.385-2.06-7.077 1.59-3.538v-3.538l4.44-.616v-1.846l-5.87-1.385-1.11-1.692-3.48-1.231-3.97-6-1.42-7.846 2.06-4.308 3.48-2.153 2.38-1.539-1.42-3.538-3.97-3.077-6.81.769-2.85-2.769-3.65-.923-4.28-6.77-1.27-4.615 3.97-1.231 1.58-3.692-3.96-3.846h-3.33l-2.06 2-5.23-1.077-5.23-3.539-.95-4.461-5.23-5.077-1.43 2.923-1.9 1.846v1.693l1.58 3.384h-5.54l-3.33-3.231-5.55-2.769-.63-4.308-.79-5.384-3.81-3.692-2.85-2.77-2.38-2.307-3.01-4.923 2.22-2.154v-5.077h2.38l3.64-3.539-3.64-1.692v-3.692l-2.22-5.693 2.38-.153 2.85 2.769 3.8 1.692v-3.077l-3.48-5.077v-2.923l1.58-5.384-2.22-2.154 4.28-5.846 2.54-5.847 5.07-1.538 3.64 1.692 3.49-2.923-2.22-2.154-3.49-3.692-2.06-7.846v-5.692l-3.8-3.385-2.06-6-.95-6.308-2.06-4.615-1.27-5.385-2.22 3.077-3.48.308-2.54-2.462-3.01.923-.95 4.923-1.43 4.924-3.01 4.461s1.74 1.692 1.74 2.615c0 .924-2.06 6-2.06 6l-2.06 4.308-3.33 2-2.21-2.154-3.02.923-2.69 2.616-3.49.615-3.01 4-2.38-2.308-1.26-3.23-1.59-3.077-1.11-4-2.53-.769-3.49 2.307-2.06 2-2.85-1.231-4.76.77.95 2.923-1.58 2.307-2.06-.615-4.76 1.385v3.384l-2.22 1.539-1.26 4-3.33-.308-3.96 2.923 1.42 1.385-2.06 2-3.33 1.692-1.74 3.539v3.384l1.43 1.539 5.07.461.16 2 1.27 1.231-.96 2.769 4.76 2 .63 2.923 4.76-.923 1.58 3.539 3.33 1.384s.16 2 .16 2.616c0 .615 2.53 2.461 2.53 2.461l3.02-.769h3.48l.64 2.308h2.22l1.58 1.846-1.27 4.307h1.75l1.42-2 1.43 1.385v2.615l4.12.462 1.9-2.615 1.74.153.48-2.461h-3.96l-3.33-3.231-3.49-3.384-2.37-2.154 1.26-3.077v-4.154l4.44-2.308 3.17-3.077 1.27 1.231-3.8 3.539v4.461l4.27 2.462 2.86 3.538 2.37 2.308 2.54.923h2.54l2.53 4.923 2.38 2.308v6.153l-1.43 4.616.16 3.846 2.38 2 2.38 7.231 2.06 4.923 1.74 6 1.58 6.461 3.81 4.923 2.38 7.231.95 6.308 2.06 5.846-1.59 1.539-1.74 1.692 1.9 3.231-1.43 2.923-1.74 1.692v1.692l3.65.77 3.48 4.615.64 4.461 2.85 2.77v4.154l3.96 4.153 5.71 5.231z" fill="#EEE"/><path d="M1177.72 226.461v3.693l-.32 3.384 2.06 1.385 1.43 1.692.15 3.077 2.86 1.077-.64-3.077-1.26-2.308 1.26-3.846v-4.769l-3.32-1.385-2.22 1.077zm67.51 17.693l-2.38.769 1.27 2.461h8.24l2.54-2.461-3.33-1.077-3.33 1.384-3.01-1.076zm12.05 124.307l-1.11 3.077-1.59 1.539 1.9 1.846 1.11 2.307-.31 3.077-.16 3.847 1.9 1.846 2.06-1.077v-4l1.9-1.846-1.42-3.385-2.38-2.308.16-3.077-2.06-1.846zm7.45 26.308v2.461l1.74.77 1.27-1.539-3.01-1.692zm-4.76-159.385l-2.22 1.539 1.27 1.231 1.59-1.539 1.58-1.538-2.22.307zm-88.91-105.076v-7.077l-1.43-6.308-3.48-5.077 1.58-1.538-4.75-3.077 1.26-1.693h4.28l2.54-5.384 3.96-1.539v-4.153l-2.85-2.77-1.59-3.384-3.17 2.307-2.21-1.692-2.54.462-2.06 2h-3.65l-.95 1.846h-3.64v-2.77l-4.44.154-2.38.462-3.01-.154-1.27 2-2.53 2.462-4.28.153-2.38 1.693v3.692l-2.53.923-2.06-2 3.17-3.692h-2.22l-3.49 1.385 1.43-3.078 4.28-1.692h3.01l3.17-5.077-.8-4.461-1.58-5.692-3.33-3.231-3.17-3.077-1.74 1.692-.16-3.692h-3.01l-4.44 1.23-2.69-2.615v-2.615l-3.49-.616 1.27-1.23 1.74-.77-1.58-1.538.31-1.846 2.06 1.23 2.22 1.693h3.81l2.53-2 2.54 2 3.33-3.23V54l-1.59-2.923 3.49-4.923h3.8l3.01 1.23 4.28-1.384 2.22-4.615 4.28-4.462 4.6-.461 1.74-5.077-3.49-.924v-1.538h4.28l-1.43-3.077v-2.461l-2.06 2.769-2.21.615-2.54-3.846-3.65-3.538v2l-4.75-1.693-2.22 2.154-3.64-.615 4.59-2.923V14s1.27-3.538 0-2.308c-1.27 1.231-4.28 1.231-4.28 1.231l2.22-4.461-2.06-2-2.53-2.154s1.26-4.462 0-3.385c-1.27 1.077-4.76 2.154-4.76 2.154L1124.31 8h-1.43l-4.76 1.692-2.85 2.77-2.06 2.769-.47 3.538-2.22-.154v1.693l3.17.769-3.81 2.461-1.26 3.539 3.64.923 5.55.462 4.75-.924v2.308l-4.75 2.462-2.7 2.615-4.12-3.077-4.59 1.385-3.17-3.077-2.86 1.538-4.43 2-3.65 3.693-6.81 2-3.65 5.077-5.07 2-4.12 4-3.96 3.846-4.28 2.461-6.02 2.462-3.17 3.077-6.82 6.615-6.18 5.692-1.59 5.693-3.48 4.923-1.27 3.538 1.27 3.385h-2.22l-3.17 1.692-.48 4.154-3.64 1.692-.95 3.693v2.153h3.96l1.27 2.77 5.07-.77 6.81 2.924 2.22.461 1.27 3.077-.95 3.077-3.96.923-4.44 2-3.17 1.231h-4.6l-3.01-2.923 2.86-2.77-3.81-3.692-2.06 2-2.22 3.846 2.86 3.846-.8 2.308 2.06 2-1.26 4.616-5.08 3.538v3.846l-2.53 2.462h-3.01l-1.75 3.384v6.462l1.59 2.154 4.75 1.538 3.97.462.95 2.461 3.64 1.385 3.17 5.077-4.12 3.077-1.9 4.615v3.846l-2.7 1.846v4l-2.37 3.693 1.58 3.846 3.17 1.692v4.462l3.96.615 3.81 1.539 4.12-1.385h3.33l2.37 2.308 2.06 4.153h2.22l4.44-1.846 2.06 2 2.38 3.385h3.33l3.96-1.539 1.27-2.461 4.12.923 4.75-.462 4.28-5.692 6.34.923 2.85-2.769 3.81-4.769-1.43-1.539v-3.384l1.74-3.539 3.33-1.692 2.06-2-1.42-1.385.95-.923 3.01-2 3.33.308.95-3.692 2.69-2V164l4.76-1.385 2.06.616 1.58-2.308-.95-2.923 4.76-.769 2.85 1.231 2.06-2 3.49-2.308 2.53.769 1.11 4 1.59 3.077 1.26 3.231 2.38 2.307 3.01-4 3.49-.615 2.69-2.615 3.01-.923 2.22 2.153 3.33-2 2.06-4.307 2.06-6-1.74-2.616 3.01-4.461 1.43-4.923.95-4.923 3.01-.923 2.53 2.461 3.49-.308 2.22-3.23zm-140.9-97.846l-1.58-.616-1.43 1.385-3.01 1.538-2.53 2.462.15 4.154-1.1 1.077.47 3.384 2.06 2.77 2.06 4.615 3.17.615 2.22-2.154 1.58-2.923-1.74-1.846 2.7-3.692-.48-4v-4.77l-2.54-2zM34.233 300.154l3.17.615 2.694-.769.951-1.846 2.378.307 2.218 2.154.159 3.077 1.902.616.317 2.307 2.852.462.634-2.154-1.584-1.538 1.267-1.231.793.769 2.694 2.154v3.384l-.317 2.924 1.585 2.461 1.585 1.077.634 3.846-1.426 2.923-6.657 3.231-10.143-11.692-5.706-13.077zm81.462 112.769L113.793 410l2.695-.616 2.852-2.769h2.695l2.06 2 .634 2.308 2.853.308.951-.923 1.585.461 2.694 2 2.536-1.538h2.852l3.646-.77 2.852.77 1.585 2.769 1.902 1.846h3.328l1.268 2.308 1.268 2.154-1.426 2-1.11 2v2.923l-3.011 2-2.853-1.847-1.109 1.077v2.154l-2.694.462-2.378-2.308-2.06-1.077-3.487.923-1.743 1.693-1.743-.616-2.853 3.693-4.438-1.693h-3.17l-2.852-.923-.476-2.769-1.902-1.846v-2.308l1.585-1.538v-2.924l.793-2.923-1.585-1.538.158-2zm71.954-38l1.426-1.385.475-2.923-2.535-4-2.853-1.077.792-1.692 1.268-2.461-1.109-2.923-.476-2.924-1.585-1.538-2.377-.769 1.268-2.462v-2.307l-2.536-1.077-.317-2.308-2.853-.154-1.743 1.692-2.219-2.615.634-5.077-1.743-.461-2.06-2-1.902 1.538-2.061.462-3.169-1.231-3.17-.308h-4.596l-1.427-2.769-1.743.769-1.426 1.385-2.695-.308-3.328.308-1.585 1.538v2.462l-1.426 1.384.634 1.539 2.06 1.538-.951 2.769-2.694 1.231-2.06 2-1.744.923v2.769l-1.743.924-1.585 1.538 1.743 1.692 1.268 2.462 1.744 1.692h3.803l1.744 1.692 3.011-.153 2.377 1.384h4.279l2.219 2.154 2.853.308 1.743-1.693h3.329l2.218-2.153h2.695l2.219 1.077 1.584 1.538.793 2.769h2.853l1.901 2.308h2.536l.476-1.692 1.743 1.692 2.694 1.231 3.329 1.692z" fill="#EEE"/><path d="M158.963 396v2.461l1.109.154.317 2.154h3.011l1.743 1.077 2.536 1.385h3.17l2.06 2h3.329l2.694 1.538 2.536.769 2.377-2.154 3.962-2.461-1.426-3.077V398l2.219-2.154-.951-3.385 1.109-2.461h2.853l1.268-4 3.962-1.693v-3.846l1.109-3.23-2.852-.924-3.17.616-2.378-.923-1.743-1.077s-2.377-1.231-2.853-1.231c-.475 0-3.169-1.231-3.169-1.231l-1.744-1.692-.475 1.692h-2.536l-1.902-2.307h-2.853s-.158-2.77-.792-2.77-1.585-1.538-1.585-1.538l-2.219-1.077h-2.852l-2.219 2.154h-3.329l-1.743 1.692-2.853-.308-2.218-2.153h-4.28l-2.377-1.385-3.011.154-1.743-1.692h-3.487l-1.744-1.693-1.267-2.461-3.17 2.461-.317 2.462-1.744 1.692-.475 4.154-1.109 2.308-1.268 2h-2.853l-1.268 3.384.317 1.231 2.694 1.538.793 4 2.536 2.462 2.694 1.538 1.902 1.847 3.962.923 3.17-.923 3.486.923v2l1.585 1.538 1.585 2.923 2.219 1.693 1.268 2.153 1.268-1.538h2.377l1.585-2.154 3.17-1.692z" fill="#EEE"/><path d="M177.822 428.615l-.951-1.846v-2.461l-1.902-.77-.95-2.615 2.218-1.692-.158-2.616 1.585-1.538.792-2.462 2.219-1.076s-.792-2.154-.634-2.462c.159-.308 1.426-1.692 1.426-1.692l-2.535-.77-2.695-1.538h-3.328l-2.06-2h-3.17l-2.536-1.385-1.743-1.077h-3.011l-.317-2.153-1.11-.154v-2.462l-3.169 1.231-1.585 2.154h-2.378l-1.268 1.538-.95 3.231-3.646 1.539-2.694 2.615-1.426 2.154 2.852.769 1.268 2.461 2.061 2.154h3.328l1.268 2.308 1.268 2.154-2.536 4.154v2.923l1.743 2.769 2.536.462v2.153l-.792 2.462.792 2.462-.951 3.23.317 2.616 3.011-.462.476-2 2.536-.461.792.769 3.645-.154 1.11-1.077 3.169.615 1.902.616 2.061-.462.95-.923 2.378.154h2.377v-2.769l1.268-.616.634-2 .317-3.692-1.585-1.538-2.219-.77zm-9.984-9.846l-1.268 1.693.475 2h-2.694l-.793-.77-.792-.769-1.426 1.385-2.061.154.793-2.154v-3.693l1.426.154 1.268-1.846-.475-1.077 1.267-1.077 1.744-.461v1.23l.634 1.231v.308l1.902.769 1.426 1.385-1.426 1.538z" fill="#EEE"/><path d="M165.936 415.231v-.308l-.634-1.231v-1.231l-1.744.462-1.267 1.077.475 1.077-1.268 1.846-1.426-.154v3.692l-.793 2.154 2.061-.154 1.426-1.384.792.769.793.769h2.694l-.475-2 1.268-1.692 1.584-1.385-1.426-1.384-2.06-.923zm308.415-78.923l-1.585 2.308-1.902 1.846-1.268 1.231 1.902 1.846.476 1.538 1.585.462v6.615h-1.902l-2.378-1.231h-2.377l-3.962 3.385-3.487.154-1.585 3.692-5.388-.923-1.427 2.308-2.377 2.307-2.377 1.231-4.438 1.539-3.803.923-4.597-2.308-2.377.462-2.694-2.308-5.389-2-5.388-3.385-3.962-1.538-6.498-2.462-3.17-3.077-3.962-.461-6.34-4-3.169-3.077-4.914-2.154-4.754-4-4.438.462-3.328 2.153-20.92.154-1.585-1.538-3.804-1.693-.475 1.231-3.487 1.231-1.902-.615s-2.06-2.308-2.377-2.77l-1.744-1.692-.792-3.385-3.17-3.076-1.743-2.308-1.109-4.154-1.585-3.231-1.585-2 4.754-.923 3.963-5.692v-4.923l1.584-3.385 5.231-2.461v-3.077l5.071-2.923v-4.923l-.792-4.616h3.486l1.11 2.462 4.596 4.461 3.487 5.077v6.769l-1.268 3.539-1.744 1.692-3.011-2.923-4.279-.923-6.498 2.154v5.077l1.585 4.615v3.846l4.596 1.231 4.438 2 5.071-2.308v-3.538l5.23-1.231 5.072 2.308-.793-3.077 7.766 1.385 4.279-.77 7.608.923h4.437l2.219 3.847h2.061v-3.539l6.498-2h3.486l1.427 5.077h-3.804l-1.268 3.538-3.011.924 4.596 4.153h3.17l6.022-2.461 5.706 1.077 6.181 6 2.06-2h4.279l5.389-1.693 2.06 2-.634 2.77-3.17 2.154v3.384l3.804 3.077.317-3.538 1.743-1.693 3.963.923v-3.077l3.803-.615.793-4.615-.634-5.693 3.645-1.692 3.17-.923 3.645 3.538 1.585-1.538 4.12 4.923 4.755 4.615 3.804 3.693.792 1.846z" fill="#EEE"/><path d="M448.359 304.308l-2.852 1.385-2.219.769.475 4.615.317 2.462 2.061.461.792 3.693 3.804.307 1.268-3.077-1.902-3.077.158-3.384-1.902-4.154zm-64.504-15.385L379.893 290l-2.377 3.077-1.744 2.308 1.268 3.384 2.853 1.077 2.694 1.077 2.536-1.692 3.17.462 1.585-3.693-2.536-3.231-.158-2.615-3.329-1.231zm84.949 68.308l.317-2.154 1.585-.769.951-2.154h1.902v-6.615l-1.585-.462-.476-1.538-1.902-1.847 3.17-3.077 1.585-2.307 1.585 3.077L480.69 344l3.17 4.923 3.487 4.462v3.846l2.853 4.308 3.962-2.308v-4.154l4.596-4.154-3.17-.923-2.219-5.077.793-5.385-3.804-2.461-2.06-4.154 1.902-1.846 3.962-2V326l.951-4.615 1.743-2.308v-2.923l-2.536-.769 1.427-3.847 2.219-2.769 3.962-1.384 4.279-2 1.585-1.539 3.486-3.384 2.536-5.693 2.061-4.615 2.218-4.615 3.804-2.001 2.377 3.385h4.755l2.377 2.308h4.279l1.744 6.615-2.061 2-.95 7.077-5.706 5.539-1.585 5.077 3.487 2.923-1.268 6.615-.951 5.231-3.962 5.846-1.426 8.308-2.219 7.384-1.585 3.693 1.585 5.23 3.486 3.385-.634 3.077-4.437 3.384-.793 7.231-4.437 1.231-5.23 5.077-3.012 4.308-2.852 1.538-5.072-.923-3.011 2-3.328-2-2.061-2-3.011-.923v3.692l3.011 4.462 3.012 1.384 3.962 2.77 3.486-.154 2.378 3.384h3.645s1.585-2.615.634-3.384c-.793-.77 2.06-2 2.06-2h2.536l1.268-1.231 5.071-1.385 3.963-2.153v-4.154l1.743-1.693 3.17-3.077 2.536-2.461 1.267-4.615-.951-4.154-.475-3.693 2.694-2.615 2.695-2.615h4.279l4.596-.616 1.268 3.846 1.902 1.846 2.377 6.001-3.17 3.076.159 4.616v2.923l3.962 3.846 4.596.923v-2.769l-4.121-1.539-1.743-1.692v-2.308l-.476-3.538 3.17-.923 1.268-2.462L550.9 370l1.427-3.077-2.061-3.846-2.536-2.308-1.584-1.538-4.914-1.693-2.852-2.769-2.378 2.308-3.011 1.385-1.585-2.154h-3.645l-.634-3.693 2.377-2.307-.633-6.308 2.852-4.308 1.744-5.077 3.962-3.846-1.427-4.307-1.267-3.693.475-4-2.853-2.769 3.17-3.077 5.072-4.923h4.279l2.377-3.692 1.585-4.154-1.427-3.385 1.427-2.923h3.17l-.951 4.154v5.692l-.793 5.077-3.645 3.539v8.461l4.279 3.077 2.377 2 3.17-1.846 3.17 3.077 3.487 3.077v-2.308l-1.268-3.077-2.378-2.307-3.645-1.693v-1.538l-3.011-2.923-1.426-4.308 4.279-2.769 2.06 2 3.17 3.077 2.377-2.154-.634-2.923-.317-2.308 2.378-2.308.158 2.308h1.902l.792 2.154 1.585 1.538 2.694.616 2.853 1.538.634 2.462-1.902 1.846.476 2-3.804.615-1.743 1.693-1.11 1.077 1.268 2.615.951-.923 1.11 2.308 4.279 2.307-.476 4.616v6.769h-3.803l-1.585 2.308-3.012 2.923-3.645 2.615.159 3.538 1.743 1.693.476 2.154 2.535 2.461 3.804.616.475 2.461 1.268 1.231 2.378-2 1.268 1.231 2.377-2.308-.159 3.846 3.17.616v3.076l1.902 4.462-1.109 2.769h-1.585l1.585 2.923-1.268 3.693-2.219 2.153-.793 2.462-2.852-.615-.159 3.076 1.902 1.847.634 3.538-1.743 2.923 1.743 1.692v2.77l4.438 2.461 1.743 3.385-2.694 2.461v2l1.426 2.308v3.539l-1.743 1.384 2.218 3.846h2.378l2.377 2.308 1.743 3.538.476 4.462-2.06 2 .951 4.154 4.596.923 2.377 2.308 2.377-2.308.793 4.615-.793 4.154 1.427 3.077-2.695 2.615-2.852 3.539-2.061 3.692 3.011 4.154v4.923l-2.852 2.769-.317 4.462-1.744 1.692-4.754 4.616-4.279-5.077h-2.853l-3.011.923-3.012-4.923-5.864-1.693-1.901 1.847-4.121-5.231-1.585-4.154-4.279 2.769-3.645 2-1.585 2.769h-14.422l-3.17-3.076-4.279-2.154 1.426-3.693-5.389-2.153-1.901 1.846-3.17-3.077-4.913-1.231-3.487.769-3.962-4.154h-3.487l-3.011-4.615h-3.487l-6.973.769-1.427-3.846.951-3.846-4.596-4.462v-3.384l-1.109-5.231-4.755-4.615h-5.388l-2.219 2.153-3.011-2.923-2.853 2.77-5.389-.924-3.011-3.384 3.487-3.385-4.596-3.846-4.597-2.308-4.279 1.693-4.279-1.693-5.388 1.231-3.962-3.846-3.487-3.385-1.902-1.846 3.645-3.538 1.585-4.769-.792-5.231.475-6.462 5.23.154v-4.308l6.498-3.538 6.498-1.385h6.815l1.426-4.307h3.804l3.645-3.539 4.755-2.308-3.17-3.076 3.645-1.539v-2.461l-3.962-2 1.268-1.231zm86.534-76.462l-1.585 1.385 1.109 1.538 2.219-1.384 2.694.769-.792-1.539-3.645-.769zm-8.4 7.077l-.951 2.308 1.426 1.231 1.585-2-2.06-1.539zm-19.494-11.384l-2.06 1.384.792 1.539-1.426 2 .317 1.23 3.328.923 3.17-1.384 1.902.154v-1.846l-2.853-.77 1.426-1.538-1.585-2.308-2.06.769-.951-.153zm481.166 209.231l-2.22-5.077v-3.847l-2.69-2.615 2.37-2.308.64-5.077-5.55-2.307h-4.436l-.476-2.616 3.17-.615-1.585-3.231.951-6-3.804-.615-3.803-3.846 3.328-.77.317-4.615-1.426-1.385-.951-2.461 1.268-3.077-2.536-2.462 2.06-2.769-1.743-1.692v-4.154l4.12-2 2.695-1.538 3.331.307 2.69-2.615 3.65-1.385.47-3.384-2.38-2.308 1.27-3.231 4.6-.923 6.18-6-.32-6.769 4.44-1.385v-2.154l-4.28-4.153-.95-2.923-4.75-4.616-3.02-.615-.63-3.846.79-4.462-2.37-2.308 3.64-4.615v-4.154l.32-5.077-1.9-1.846-.96-3.692-1.74-1.693-.16-4.461 3.49-.769 3.01.769 3.96 2 3.97-2 3.17-.923 3.16-3.077 2.22-3.846 3.01.154 1.75-1.077 1.27 1.23 1.74-.615v-3.231l-.32-5.384 3.17.154 4.12-4.616 7.61.462 7.29 4.154 2.69.923v2.923l3.02 4-4.28 1.846v4.461l2.22 3.231 2.69-.154 3.01-3.538 3.49.154 2.38 1.23 1.74-1.538h2.38l4.43 4.308.95 3.077h-2.37l-2.38 2.153 1.58 2.462 1.27 1.231-3.48 2.154h-4.6l-4.6 4.307-2.85 2.77-3.17 5.23-3.49 3.385-3.48 6.615-.64 6.462 3.17 6.308-3.01 2.923-.95 6.307 1.74 4.462 2.86 2.769-2.38 3.846v12.308l-1.27 4.923v6.615l2.06 2.154v9.846l-1.74 6.616v5.384l-3.01 4.923v4.924l-1.59 4.307 1.75 4h3.01l2.38-2.307h3.32l2.54-2.462 2.85-2.769 2.06 2 2.38 1.231v2.461l1.9 3.385 2.38 2.307 2.06-2v-3.077l-2.85-1.23v-2.923l2.22-2.308v2l2.37 1.692 1.27-.461 1.27 1.23v6l3.96-1.538v-2l2.22-2.923 1.43-1.231 2.21 1.539.48-3.231-1.9-1.846-1.75-3.385-2.21-3.846 3.64-2 2.22-2.154 4.44-.923h5.23l4.28.462 1.9 1.846s4.59-.77 5.55-.77c.95 0 3.8-1.23 3.8-1.23l2.53 2.461-1.9 1.846-1.42 1.385-1.27 2.154h7.13l.79 2.461 3.01 2.923 3.65-.461 1.9 1.846 2.06 3.692.64 7.385 2.53 7.846 4.12 5.692 5.07 4.924 2.06 2 .96 3.384 3.96 3.846 2.85 4.616.95 2.769 3.65 5.538 3.17 3.077v8.154l-1.27 7.077 2.22 7.077-3.33 2.769-3.49-2.461.95-2-1.27-2.462-2.85.154-2.22-2.154-2.85-2.154-2.38.308-1.42 5.385-3.97 3.23.64 2.616 3.64.461.95 2.77 3.33-.308 1.27-2.462 1.59.462 1.58 3.692-.47 3.846-1.27 2.77-4.76 1.692-.63 3.231 2.38.615v5.538l-3.17 3.847-4.12.615-.32 1.231-4.12-.616-.95 1.385-2.7.154-.79-.769-2.85-.77-3.49 4.616-.47 3.692 2.21 2.154V590l-3.96.462-.95-4.308-3.96-4.154 3.01-2.923v-4.308l-2.54-2.461-2.85-2.769-.79-2.462.47-2.308-1.26-1.23.31-3.231-3.48 1.385-4.12.461-2.06 3.692-5.55 1.231-2.54 3.385-3.96-4.616-3.33-1.538-3.01 1.231-1.58.769-3.49-.615-3.33.461.32 4.154s-1.43 2.154-1.9 1.846c-.48-.461-1.9 3.385-1.9 3.385l-2.38-.616-.16-4.615-2.22-1.692-1.74-.462-.32-2.769-3.8-2.616-.8-3.076-4.43-.462-1.75 1.692-2.22-3.384h-2.06l-2.21-2.154-.8-7.846 1.9-3.385-2.37-3.538 2.69-3.231.16-2.616 3.49-3.076.47-5.693s3.65-3.538 3.65-3.846c0-.461-.16-2.615-.16-2.615l-4.12-4 1.58-2.154 3.49.154 6.5-2.308 1.42-4.769-3.64-2.462-.95-5.846-3.49-3.385-3.8.308-2.22 3.692-2.06 2-3.96.77-.95 3.077.79 3.692-1.27 1.231-3.8 1.384-1.91 2.616-1.74 2.615s-2.22-.308-2.53-.154c-.32.308-2.38 2.154-2.38 2.154l-5.55-7.385-3.17.924-1.74 1.538-4.92-.615-2.53-2.923 1.43-3.231 2.37-1.385v-2.615l-2.22-3.539 1.11-2.615 1.43.154v-6l2.54-3.385-.16-2.615 1.42-3.385-3.64-2-3.65.616-2.85 2.769-3.17.461-2.22 2.77-2.53 1.23-.48-1.23z" fill="#EEE"/><path d="M1069.31 455.231l-1.74 1.846v4.77l3.01-1.231 1.58 1.538 1.75-1.692.63-3.385-1.9-2.769-3.33.923zM83.681 562.461l-1.585-2-2.218-.923-2.22-3.384-1.584-1.539 2.694-2.154-.634-3.077 2.22-.615-1.586-1.538-5.388-5.539-2.378 1.231-2.06-2 .159-2 .633-2.462-2.852-1.23-1.744 1.692-2.377-2.154-2.219-1.538-2.377-.462-.792 2.462 1.584 2.923-.634 4.923-3.01-.923h-2.378l-4.596.154-3.487 1.384-1.426 2.923-3.012-.923-3.17-3.846-2.377.462-2.218 2.153.95 3.847-1.267 3.538 1.584 3.077 2.378 2.154-.476 5.846 2.06 2.923 1.586 3.385.792 6.615-.634 8.923 1.585 4.615 2.536-.461 2.06 2.769 1.585 2 2.219.462 2.377-2.308 2.853-.462 2.06-2h2.06l1.11 2.308 1.743 2.462h3.962l3.011-3.693 1.11-2.153-.793-2.77 2.06-.615 3.329-2.462-1.902-1.846L74.172 578l-1.268-2.308-1.585-1.231 1.585-2.307v-2.308l1.585-1.692 1.585.461 1.11 1.539 2.852-.308 1.743-1.692-.316-4 2.218-1.693zm-20.92 10.616v4.307l-1.11 2.154-.792-2.615-1.902.769-1.743 1.692-2.06 2.924-2.22 2.153-1.426 1.231v1.539l-2.06.307-.95.923-1.11-2-3.011-3.692 1.743-1.692 1.585.769h4.437l.476-1.538-.793-1.847v-3.23h1.902l1.268-2.308 2.219.154 1.268-1.231-1.11-2.615-2.218-1.385-.634.769H52.3l-1.425-1.538-1.585-1.539-1.11-1.077-.95-1.692v-1.846l1.109-.462 1.426 1.385.951.923 1.268 1.846 2.536.769 1.11-.461 2.535.769.634 2.154 1.743.923L61.81 570l1.426.923-.475 2.154z" fill="#EEE"/><path d="M88.753 618.615l.792-1.538-2.219-1.539L85.742 614l-2.853.615-3.645-3.538-.793-2.308-3.011-.615-3.17-.923.951-2.154-.95-2-1.586-1.539.951-1.692h3.487l-1.11-1.538-.475-2.462-2.219-1.538v-3.077l-2.377-.769 1.11-2.154-.793-2.77 2.06-.615 3.328-2.461-1.901-1.847L74.33 578l-1.267-2.308-1.585-1.23 1.585-2.308v-2.308l1.584-1.692 1.585.461 1.11 1.539 2.853-.308 1.743-1.692h2.219l1.426 1.538 2.219 1.077.95 2.616h2.061l1.585-.616 1.11 2.616 1.584 1.538 3.645-.615 2.219.923.476 2.769 1.902 2.154.633 2.461 1.902 1.847 1.268 3.538-1.426 2.615 1.585 2.77 2.06 2 1.585 2v2.307l2.219 2.154.475 2.923 1.744 2.462v4.461l-3.17 2-3.011.923-2.536-.923-1.585 1.539.951 1.538-1.427 1.231h-2.535v1.692l2.06.923-1.268 3.077H99.53l-1.585-1.538v-1.077l-1.426.154-1.585 2-1.744.307-.792-3.384-3.645-3.539z" fill="#EEE"/><path d="M105.869 629.077l2.06 2.769 4.121.308.317 4.462-2.06.615-3.646 2-3.486 4.154-1.268 4.615-3.328-1.846-2.06 1.539-3.329-.308-2.219 1.692-3.486.462 1.267-3.385-3.01-3.077 3.01-2.154 2.378-3.692 1.902-4 .792-2.923-3.17-2.462-1.426-2.615 4.12.154 2.06-.616 1.269-1.538 1.426-.154v1.385L99.688 626h3.328l2.853 3.077zM62.92 611.385l2.377-.923 2.377-2.308 1.902.154 2.853-1.077 3.17.923 3.01.615.793 2.308 3.645 3.539L85.9 614l1.585 1.539 2.219 1.538-.793 1.539-1.585 1.23v2.308l-1.426 1.385-3.645.153-1.268 1.231-1.743-1.538H76.39l-1.902 1.231-1.743-.308-2.695.923-2.852-2.462.792-3.846-3.487-2.769-1.585-4.769zm92.239-103.846l-.317 3.384 1.267 4.616 4.438.615 2.694 1.385v2.307l4.121-.154 4.755 4.462.634 5.385-3.646 3.384 2.695 2.462 1.426-1.385 2.853 1.077.792 4 1.902 1.846h2.853l.634 2.923 2.377 2.308.159 3.846-1.427 3.077-2.536 1.846h-3.962L173.702 558l-2.536 2.462V564l-3.487 1.385-3.645-.154-2.536 2.461-1.426-4-2.378-2.307-2.852 1.846-4.121-.154-2.06-2-4.755 1.231-1.426 3.538-3.646-.769-2.06-2v-2.461l-1.902-.616-1.426 3.846-2.06.77-2.061-2-2.377.923-2.219-2.154-3.645 3.231-4.279-4-.951-3.539 1.268-3.231v-3.538l-4.438-3.077 2.536-2.462v-2.461l3.328-1.385 2.694 2.616 4.121-.616 2.853-5.231-1.744-6.923 4.755-4.615L132.97 522l-2.852-4.154-.317-2.615 4.754-4.615 1.427-4.616h5.705l2.853-2.461 3.011.615.634 2.154 3.011 1.692h3.963m41.682-123.846v-3.846l1.109-3.231-2.853-.923-3.169.615-4.121-1.846 1.426-1.384.476-2.924-2.536-4-2.853-1.076 2.061-4.154 2.218-2.154 3.804.615 1.268-1.692 2.536-.616 2.536-3.23 1.109-2.616 1.743-3.384 4.596-2.462 3.012-4.154 2.219 1.231 3.645-2 3.328-1.077 3.328.616 2.853 1.23 3.328-.615 2.536 1.538.158 1.693 2.853 3.077-3.011 6 .475 1.846-1.584 1.538 1.109 5.385 2.377 1.385V366l3.17 1.538.792 2.001 1.268.769 1.902 1.846h2.061l1.743 1.692.792 2.154 3.962.154 3.012.769 1.426 1.385 2.536.615.951 2.462 2.377 2.307 1.585 1.077v2l1.743.616h3.487v-1.231l1.585.461h2.219v2.462l1.268 1.385h1.268V392l2.377 1.231 1.585 1.538 2.06-2 .634-1.692 2.219.923 1.585 2.462-1.744 1.692 2.378 1.231v1.23h1.743l2.219.924-.951.923 2.536 3.076-4.438 4.308-2.694 2.616-3.804-1.693-2.06 1.846 4.437 4.462-2.852 1.385V420l-1.268 1.231-4.596-4-2.536 3.692-4.438-1.077-1.902 1.846-2.694-3.846-4.121-2.154-3.328-1.538-1.426-3.692-3.962-3.847-5.23-.923-2.695-5.538-4.12 1.846-4.438-1.846-4.913 1.231-4.438 1.846-4.754-4.616v-7.692l-3.804-3.692-1.902 1.846-5.071-3.385-2.061-2-3.645.308-3.011.154z" fill="#EEE"/><path d="M121.084 568.769v-4.154l-4.279-4-.951-3.538 1.268-3.231v-3.538l-4.438-3.077 2.536-2.462v-2.461l3.328-1.385 2.695 2.615 4.12-.615 2.853-5.231-1.743-6.923 4.754-4.615 1.744-4.154-2.853-4.154-.317-2.615h-5.23l-1.744 1.692h-2.852l-1.427-1.846h-3.486v-2.769l-1.585-1.539-1.585 2-1.427 3.385-7.448.923.158 3.077-2.853-.462-2.853 2.769.793 4.308-3.011 1.692-4.438 4.308-4.755-5.077-3.17-3.385-3.486 1.385-3.804-1.538-4.437 2-3.012 3.077 2.378.769 2.377 2.308 3.487.769 2.377 1.692-.792 3.538-3.487-1.384-4.596-.615-.634 2.461-.159 2 2.22 2.154 2.218-1.385 6.973 7.077-2.218.616.633 3.077-2.694 2.153L77.817 556l2.219 3.384 2.219.924 1.585 2-1.902 1.846.317 4h2.219l1.426 1.538 2.536-2 1.902 1.385h3.645l1.426-1.385v-1.846h2.377l1.11 2.769v2.616l1.902 1.846 2.535.615.793 3.385.634 2.461 1.585 1.539 2.219.769.95-.923 2.378.615 4.279-4.307h4.279l4.121-2.924 1.902-3.999v-2.924l-3.012 1.539-2.377-.154zm40.414-1.076l-1.426-4-2.377-2.308-2.853 1.846-4.121-.154-2.06-2-4.755 1.231-1.426 3.538 1.109 3.846 2.378 1.539-1.268 6.154.317 3.692 1.901 2.462 4.438.154-1.109 4.769-2.378 1.23-1.426 4.924 2.06 2-1.268 3.076-4.279-.307-.317 2.461h-1.426l-.317-1.538-2.219-.923-1.585 1.538 1.427 1.846v2.308l1.268 1.231v1.846l-6.498 4.462.634 1.538h2.694l2.219 1.539 3.645.615 1.426 1.385 3.011.769s-.475 1.538 1.585 1.538c2.061 0 4.279-.308 4.279-.308h6.815l3.487-.461 2.06-2-2.535-2.462-1.744-3.384-.475-3.539 3.011.462 2.06 2.154 2.061-2v-5.385l-1.11-6.615.951-5.077-2.377-2.308-3.804-3.538-2.536-1.539 2.536-2.461 1.268-5.077-2.853-2.769-1.267-3.847 3.169-2.153zM108.405 438h-2.06l-2.219 2.154 1.109 1.692 2.061.769 1.585 1.231v3.231l2.377.615.634 1.846 2.06.923.634 4.308 2.219 3.539.634 4.461 2.219.462 1.585 1.538 2.377-1.846h2.536l1.743-1.692-1.109-2.154 3.962-2.308 1.109-2.769 3.17-1.077-1.426-4.308 1.426-1.384-3.645-2.308L128.85 440l-1.426-6.769-4.438-1.693h-3.17l-2.853-.923-1.267 1.231-.634 2.462-.951 1.076-1.585-1.538h-2.219l-1.902.615.634 1.693-.634 1.846z" fill="#EEE"/><path d="M148.977 452.923l-2.852.154-.951 1.692h-3.012l-1.109 2.308h-2.377l-2.061-2.77-1.426-1.384-3.17 1.077-1.109 2.769-3.962 2.308 1.109 2.154-1.743 1.692h-2.695l-2.377 1.846v3.385l2.536.461 2.853 1.692 3.486.616 1.585 2.923 3.646 1.231-.793 3.538 2.377 2.308 3.012.308 3.169 4.153 2.378-1.846h2.218l.634-3.077-2.218-2.154.475-2.769-1.268-1.538.634-2 2.694-.923 3.329-3.231 4.12-2.923-.792-5.231-2.694-2.615-2.536 1.692-1.268-2 .951-2-.793-1.846z" fill="#EEE"/><path d="M154.842 443.385L153.257 446v2.308l-2.06 1.538-2.219 3.077-2.853.154-.951 1.692s-3.011-.615-3.011 0c0 .616-1.11 2.308-1.11 2.308h-2.377l-2.06-2.769-1.427-1.385-1.426-4.307 1.426-1.847-3.645-1.846-2.536-4.923-1.426-6.769 2.853-3.692 1.743.615 1.744-1.692 3.486-.923 2.061 1.077 2.377 2.307 2.694-.461v-2.154l1.11-1.077 2.852 1.846 3.012-2 1.743 2.769 2.536.462v2.154l-.793 2.461.793 2.462-.951 3.231v2.769z" fill="#EEE"/><path d="M156.268 464.615l-.793-5.23-2.694-2.616-2.536 1.693-1.267-2 .95-2-.95-1.539 2.218-3.077 2.061-1.538V446l1.585-2.615 3.011-.462.475-2 2.536-.461.792.769 3.646-.154 1.109-1.077 3.17.615 1.902.616 2.06-.462.951-.923 2.377.154h2.378l1.901 1.539-.792 2.307 3.011.923.476 2.616 2.06.615 2.536 4v3.539l1.902 1.23 1.268 1.231v1.846l.633 1.846-1.901 1.846-2.378.616-1.268 1.231-1.901 1.846h-2.219v1.538l-1.744 1.693-2.218 1.538-1.902-.923-2.378-2.308-1.901.154-2.378-2.154-2.219 2.462-3.645-.462-1.268-3.23-3.645-1.077-3.011.153z" fill="#EEE"/><path d="M155 502.154l2.853-1.231 1.902-.154 2.06-2 3.487-1.846 3.962-2.308 1.109-2h3.329l.475-6.154-1.585-2.923.793-5.077-.793-3.076 1.902-1.847 2.219-2.461-2.377-2.308-1.902.154-2.378-2.154-2.218 2.462-3.646-.462-1.267-3.231-3.646-1.077-2.852.154-4.121 2.923-3.328 3.231-2.695.923-.634 2 1.268 1.539-.475 2.769 2.219 2.154-.634 3.077h-2.219l-2.377 1.846 1.743 1.692-.951 2.923L146.6 492l3.804 1.538 1.268 2.462 2.377 2.308.951 3.846zm37.403-40.308l2.219 2.154h3.645l.951 2.769 1.902 1.846v3.693l2.536 2.461.95 3.231 3.329.923 1.585-2.308 4.754-.153.951-.924 3.328-.153-.475 2.307 1.426 1.385h2.061l1.109 2.308-2.06 2.923.951 2-1.744 1.692-.634 2.769-5.23.616-1.902-2-3.169 2.153-2.853-.307-2.694-2.616-2.378-2.307h-4.12l-1.11 1.077-4.12-3.539V480l-3.17-3.077h-2.377l-3.487-1.385-1.902-1.846-2.219.77-.317-2.462 2.219-1.538 1.743-1.693v-1.538h2.219l3.17-3.077 2.377-.616 2.536-1.692z" fill="#EEE"/><path d="M176.713 471.231l1.902.923.317 2.462 2.219-.77 1.902 1.847 3.486 1.384h2.378l3.169 3.077v3.692l4.121 3.539 1.109-1.077h4.121l5.072 4.923 2.852.308 1.902 2.923v4.769l-2.06 2v2.615l1.585 1.539-.793 2.154-1.585.615-1.901 3.385-2.378 3.384-2.377-2.769-3.011.769h-2.536l-4.121-2.154-4.596-1.846-2.694-1.846-.951-3.384-4.279.153-3.011-2.769-2.219-.769-1.744-1.692-.317-2.308-3.011-1.539 1.11-2h3.328l.475-6.153-1.585-2.923.793-5.077-.793-3.077 4.121-4.308z" fill="#EEE"/><path d="M204.29 514.923l1.585 3.077 2.535 2.461h6.974l2.377 2.308 1.902 3.539v3.538l4.121 1.231 1.267 5.231 3.646 3.538-.793 4.154 2.853 2.769 1.426 2.154-.158 2.154-4.913-.923-2.536 2.461-4.596 1.539-3.962-2.154h-4.279l-2.061 2.923h-8.875l-.951 2.154-2.536 2.461-.475 3.693-4.913-.923-2.853-2.77v-3.846l1.268-3.846-2.06-2h-3.487l-.159-3.846-2.377-2.308-.634-2.923h-2.853l-1.902-1.846-.792-4-2.853-1.077-1.426 1.385-2.694-2.462 3.645-3.384-.634-5.385-4.755-4.462-4.12.154v-2.308L160.547 516l-4.437-.615-1.268-4.616.317-3.385 1.426-1.384-1.585-4 2.853-1.231 1.902-.154 2.06-2 3.487-1.846 3.962-2.308 3.011 1.539.317 2.308 1.744 1.692 2.219.769 3.011 2.769 4.279-.153.951 3.384 2.694 1.846 4.596 1.846 4.121 2.154h2.536l3.011-.769 2.536 3.077z" fill="#EEE"/><path d="M221.881 486.154l5.231 3.538v3.385l4.12-.923 3.011 1.384 3.012 2.924 2.852 2.461 3.012-1.231 1.585 1.539 1.109 4.615 2.853 2.769.951 2.462-2.695 4.154-3.803 1.692-1.744 1.692-3.011-4-4.279-1.692-1.902 1.846-3.645-3.846-2.536 2.462-3.487-.77-2.694 2.616v4.461l1.743 1.693-.633 3.077-3.646.461-2.377-2.308h-6.973l-2.536-2.461-1.585-3.077 2.377-3.385 1.902-3.384 1.585-.616.792-2.154-1.584-1.538v-2.615l2.06-2v-4.77l-1.902-2.923 3.17-2.154 1.902 2 5.23-.615.634-2.769 1.901-2z" fill="#EEE"/><path d="M266.099 521.846l-1.426-3.23.951-2.462-4.913-4.154h-3.17l-2.377 2.308-5.23-5.077-2.694 4.154-3.804 1.692-1.743 1.692-3.012-4-4.279-1.692-1.902 1.846-3.645-3.846-2.536 2.462-3.486-.77-2.695 2.616v4.461l1.744 1.693-.634 3.077-3.645.461 1.901 3.539v3.538l4.121 1.231 1.268 5.231 3.645 3.538-.792 4.154 2.852 2.769 1.427 2.154h7.132l2.06-4 3.804-2.615 2.219.615 1.267-2.615 5.548-.923 2.694-6.154 4.596-2.462 3.487-3.384 1.267-5.847zm101.907 13.846l5.23-3.384 3.17 1.384h2.694l3.012 1.231 2.06-.769 2.694 4.461 4.755-3.538h4.279l1.585 2-2.377 4 3.486 4.769 2.378.769v4.462l3.169.615 2.378 2.154h3.486l1.268 2.615 2.695.462-.634 3.692 7.924 4.77.634 5.846-2.377 3.384h-5.072l-4.438 1.231-3.645-2-4.437.769h-5.389l-5.23-2.615h-2.06l-2.378 2.308-3.962.769-3.804-2h-3.486l-4.596-1.385-6.815.154 1.109-2.769 3.011-2.923-1.585-3.846h-3.962l-.475-1.847-2.536-.153-2.377-2.308.792-2.615h2.694l1.902-1.847-1.109-3.692 2.06-2h3.487l1.902-2.923-.634-4.923-.476-4.308zm-26.626-12l-2.535 2.462-2.378-3.385h-2.852l-4.597-3.231-2.535-3.538-2.219.923-2.536-.923-1.585-5.231-3.328-.615-1.743-3.539h-4.121l-4.121-3.23v-2.308l-2.536-.923-2.06 2-7.766 2.154-1.268 1.23 1.744 2.462v2.615l-4.121 3.077h-3.011l-2.377 1.077-1.268-1.231-2.061 1.077.634 2.616v1.692l1.268 1.231-1.585 1.538-2.536 2.462h-2.535l-.634 2-1.427 2.154-2.377.923.951 1.846-.159 5.077 1.585 1.538-1.109 5.385 2.219 1.384 2.694 2.616 1.743 4.308v4.307l1.268 2.616-1.109 2.615v3.692l-.793 1.847 2.378 1.23 2.06-2h3.487l1.268 2.154-1.268 2.923-3.328 1.231.792 1.538 2.06.462-.634 3.846-1.267 1.231.633 3.077h1.902l.476 1.692 2.377 2.308 2.377-1.077 1.744-1.692 2.06 1.076.792 2.001 2.219 1.538 2.536.615 2.536-1.846 1.743-3.846 1.268-2 3.17-1.385.475-2.923 2.695-4.769h2.06v-3.385l2.694-3.384v-2.154l4.121-4 3.17-1.077v-1.384l3.328-.308 1.426 1.846h2.377v-3.692L332.505 550l-4.913-1.539-2.06 1.385-4.913-.461-2.536-4-.634-5.231-1.902-1.846-.792-3.693 4.437-3.23 3.011.923 3.329 1.538 2.219 2.154v2.615l4.12 1.539 2.694-2.616 4.597-1.076v-2.308l2.377-4.308.951-2.923-1.11-3.231zM193.037 385.846l3.962-1.692 2.536-.462 3.645-.307 2.06 2 5.072 3.384 1.902-1.846 3.804 3.693v7.692l4.754 4.615v3.385l-5.23.154-1.268 2.769h-2.694l-3.804 4h-2.536L204.131 416l-4.121-.923-1.901-1.846h-4.597L190.66 416h-3.329l-1.743 1.692-2.377-2.307-2.219-1.693-.317-2-.634-2.461 1.426-1.692 2.378-2.154 3.962-2.462-1.427-3.077V398l2.219-2.154-.951-3.384 1.11-2.462h2.853l1.426-4.154z" fill="#EEE"/><path d="M272.756 423.538l2.377-2.615-4.596-4-2.536 3.692-4.437-1.076-1.902 1.846-2.694-3.847-7.449-3.692-1.427-3.692-3.962-3.846-5.23-.923-2.694-5.539-4.121 1.846-4.437-1.846-4.913 1.231-4.438 1.846v3.385l-5.23.154-1.268 2.769h-2.694l-3.804 4h-2.536L203.656 416l2.694 2.615h3.487l1.743 1.693 2.853-2.77 1.585.308 1.268 3.539 4.437 2.769h2.695v4.461l3.803 1.847V434l4.755 1.077 6.181-1.539 2.219-2.153h3.486l1.427 3.23 2.219 2.154h3.803l1.427 1.385 3.169-3.077 4.913-1.692 2.061 2 2.377-2.462h5.706l.792-9.385z" fill="#EEE"/><path d="M190.818 415.846l2.853-2.769h4.596l1.902 1.846 4.121.923 2.694 2.616h3.487l1.743 1.692 2.853-2.769 1.585.308 1.268 3.538 4.437 2.769h2.695v4.462l3.803 1.846v3.538h-4.12l-1.585 4h-4.121l-2.853-2.769-2.219 2.154-1.109 4.154-2.536 2.461-5.23.616-4.437 1.384 1.743-6.153 2.06-5.077-5.23-5.077-3.011-2.923-5.072-1.693v-2.769l1.744-3.077-2.061-3.231z" fill="#EEE"/><path d="M185.747 417.539l1.743-1.693h3.328l2.061 3.231-1.744 3.077v2.769l5.072 1.693 3.011 2.923 5.23 5.077-2.06 5.076-1.743 6.154-4.121.616-2.536 2.461-3.328.616-2.219 2.154-2.536-4-2.06-.616-.476-2.615-3.011-.923.793-2.308-1.902-1.539v-2.769l1.268-.615.634-2 .317-3.692-1.585-1.539-1.902-.769-.951-1.846V424l-1.902-.769-.951-2.615 2.219-1.693-.158-2.615 1.584-1.539.793-2.461 2.219-1.077.317 2 2.218 1.692 2.378 2.616z" fill="#EEE"/><path d="M188.441 455.539V452l2.219-2.154 3.328-.615 2.536-2.462 4.12-.615 4.438-1.385 5.23-.615 2.536-2.462 1.109-4.153 2.219-2.154 2.853 2.769h4.121l1.584-4h4.121l4.755 1.077 6.181-1.539 2.218-2.153h3.487l1.427 3.23 2.218 2.154h3.804l1.426 1.385 4.28 3.077 5.23 5.077-3.17 3.077-2.536 2.461-4.279-2.461-3.328.615-2.378 2.308-2.852 4-5.389-3.231-2.536 2.461-4.12-.153.317 4.307-2.061 2 1.902 3.385-5.864 3.231v4.769l-3.645 3.077-1.743 2.769h-2.061l-1.426-1.385.475-2.307-3.328.154-.951.923-4.754.153-1.585 2.308-3.328-.923-.951-3.231-3.012-2.461v-3.692l-1.901-1.847-.951-2.769h-3.646l-2.218-2.154-.793-1.846v-1.846l-3.328-2.615z" fill="#EEE"/><path d="M222.833 481.231l-1.11-2.308 1.743-2.769 3.646-3.077v-4.769l5.864-3.231 3.486 1.692h7.449l.476 3.539 2.219 2.154-1.11 3.077 2.219 4.154-4.913 1.23-4.596 2.616v4.769l-3.804 1.385-3.487-1.385-3.962 1.538-5.071-3.692-.951-2 1.902-2.923zm22.188-25.077l2.852-4 2.378-2.308 3.328-.615 4.279 2.461 5.705-5.538-5.23-5.077-4.279-3.077 3.17-3.077 4.913-1.692 2.06 2 2.378-2.462h5.705l.634-9.23 2.377-2.616 1.268-1.231v-3.538l2.853-1.385-4.437-4.461 2.06-1.846 3.804 1.692 7.131-6.923 2.219-1.846 1.585.461 3.804 4.462-.634 2.154 1.743.923.317 2.923-2.536 2.461v4l-3.803.923v2.616l-2.695 2.615v2.923l2.061 2v2.923l.951 3.077-1.268 2.77L291.14 440l2.219-2.769 1.426-4 3.487-.923 3.645 1.692 2.219 2.154 3.17-2.923 1.743 1.692.951 2.154 3.011-.308 1.902-1.846h3.328l1.902 1.846 3.645 1.693 2.695 2.615 2.219 1.846-.476 3.385-3.328 2.769-3.17 1.231-3.645 3.538v3.231l2.06 2-1.109 3.077v3.231l-4.438 2.769h-3.486l-.159-4-4.121.154-4.754-4.462-3.645 2.616-2.219 3.692-1.11 3.385-2.535 2.461h-3.487l-1.902-1.846-3.645 3.692v5.693l-3.328 3.23-2.536 2.462-1.902 4-3.328-3.692-1.11-4.77v-3.077l-1.109-2.923v-6.153l-3.328-1.847-1.427-4.615-4.437-.923-3.329-1.846-1.426 2.461-2.219-2.154-3.645 1.847-3.17-2-2.218-3.385z" fill="#EEE"/><path d="M236.938 455.384l2.536-2.461 5.388 3.231 2.219 3.384 3.17 2 3.645-2 2.219 2.154 1.426-2.461 3.328 1.846 4.438.923 1.426 4.615 3.328 1.846v6.154l1.11 2.923-3.487 1.846-2.536-2.461h-4.437l-1.902-1.846-4.596 2.615-6.498 1.692-2.219-4.153 1.109-3.077-2.218-2.154-.476-3.539h-7.449l-3.486-1.692-1.902-3.385 2.06-2-.317-4.307 4.121.307z" fill="#EEE"/><path d="M292.884 505.693l1.743 2.461v2.615l-4.121 3.077h-3.011l-2.377 1.077-1.268-1.23-2.06 1.076.633 2.616v1.692l1.268 1.231-4.12 4h-2.219l-2.219 4.154-2.377.923-2.378-2.154 2.378-2.308-3.328-3.23h-3.329l-1.426-3.231.951-2.462-4.913-4.154h-3.17l-2.377 2.308-5.23-5.077-.951-2.461-2.853-2.77-1.109-4.615-1.585-1.538-3.012 1.23-6.022-5.538-3.011-1.385-4.121.923v-3.384l3.962-1.539 3.487 1.385 3.804-1.385v-4.769l4.596-2.615 4.913-1.231 6.498-1.692 4.596-2.616 1.902 1.846h4.437l2.536 2.462 3.487-1.846v3.077l1.109 4.769 3.328 3.692 4.121.462 1.902 2.615 3.487 1.539 1.426 1.846h2.377l.476 3.538 2.694 2-2.694 1.539.158 1.692 3.012 1.385z" fill="#EEE"/><path d="M277.51 484.769l5.864-5.692v-5.692l3.646-3.693 1.902 1.847h3.486l2.536-2.462 1.109-3.385 2.219-3.692 3.645-2.615 4.755 4.461 4.121-.154.158 4h3.487l-.951 4.308-.159 4.923-2.535 4.308-.634 4.769-2.219 4.923-6.498 3.231v2.154l2.536 3.846-2.061 2-7.765 2.154-1.268 1.231-3.17-1.077-.159-1.693 2.695-1.538-2.695-2-.475-3.539h-2.377l-1.427-1.846-3.486-1.538-1.902-2.616-4.121-.461 1.743-4.462zm191.77-134h-2.378l-3.962 3.385-3.487.154-1.584 3.692-5.389-.923-1.426 2.308-2.378 2.308-2.377 1.23-4.596 1.539-3.804.923-4.596-2.308-2.377.462-2.694-2.308-5.389-2-5.389-3.385-3.962-1.538-6.498-2.462-3.169-3.077-3.963-.461-6.339-4-3.17-3.077-4.913-2.154-4.754-4-4.438.462-3.328 2.154-20.921.153-2.218 2.154-1.11 2.923-1.426 1.385v1.385l-1.427 1.384-1.743 1.692.793 1.693 2.218 2.154.951 1.846-1.268 2.615.634 2.616 1.585 1.538-1.743 3.077-1.744 1.692-1.267-1.231h-1.744l-2.536-2-2.535-.615-2.061-1.231-2.694.923-2.377 1.231-.634-3.077-3.17-3.077-2.853-1.692-3.486-.615-1.744-1.693-2.377-.769-2.853-2h-2.536l.476 2.615v2.308l2.06 2.923 2.06 2-.792 2.769v2.77l-2.694 1.692-.793 2.923 1.427 1.385.475 3.077-.475 1.846-2.853-.616-2.377.616-.793 1.846-.951.923.476 2.154-2.378 1.231.317 3.384 2.061.923 1.902.616 1.743 1.692 1.743-2.462 1.268.462 1.11-2.462 2.535-.461h1.744l1.268 1.231 2.06-.923.158 2.615 1.744 1.692-2.536 2.462-1.743.769-2.695 2.615-3.169 1.847-.317 1.692-2.378 1.538-1.584 1.539 2.218 2.154-1.743 2.769-2.06 1.538-1.744 2-2.06-.461-.475-1.539h-3.17l-1.744-.461.159 1.384-2.536.616.317 2.923-2.536 2.461v4l-3.803.924v2.615l-2.695 2.615v2.923l2.061 2v2.923l.951 3.077-1.268 2.77 1.426 1.384 2.219-2.769 1.426-4 3.487-.923 3.645 1.692 2.219 2.154 3.17-2.923 1.743 1.692.951 2.154 3.011-.308 1.902-1.846h3.328l3.012-1.23v-2.308l-2.061-2 1.902-3.539 4.121 2.154 1.426-1.384 1.427 1.384 1.901-1.846 2.536.923 1.11 1.539-.476 2.461 2.06 2.462 2.536-.923 4.438 1.846 2.853 2.769 3.169-1.538 3.646 1.384 2.06-2 2.06.616 1.427 1.384 2.06-.615 1.268-2.462h2.06l4.596 3.077 4.596 2.308 5.072 1.846 6.973 1.077 1.11-2.769 1.902-1.846.634-3.385 4.913-4.769v-2.616l1.585-3.077-.793-3.384 2.694-4.923 4.121-2.462.475-3.538 4.755-2.923-.792-4.308 1.743-3.385 4.121-4 3.011-2.923 2.536.923V396l3.486-.461 3.804-3.693 3.804-1.846 2.06-2.307 3.804-.616 5.23.154v-4.308l6.498-3.538 6.498-1.385h6.815l1.426-4.307h3.804l3.645-3.539 4.755-2.308-3.17-3.077 3.645-1.538v-2.462l-3.962-2 .634-3.538 1.585-.769.951-2.154-.951-1.539z" fill="#EEE"/><path d="M318.875 464.923l-4.437 2.769-.951 4.308-.159 4.923-2.535 4.308-.634 4.769-2.219 4.923-6.498 3.231v2.154l2.536 3.846 2.535.923v2.308l4.121 3.23h4.121l1.743 3.539 3.328.615 1.585 5.231 2.536.923 2.219-.923 2.694-2.769 1.585-1.539v-3.384l1.426-2.616 1.268 1.231h3.962l3.329-1.538.951-3.693 2.06-3.384h2.694l2.377 3.538 1.585-1.538 2.219-2.154-1.585-1.539-.158-1.846 3.645-2.307 3.487.769 2.536-2 2.535-2.462-2.219-2.154v-1.384l2.061-2 1.426-4.462-2.536-4v-4.923l3.329-2.769h3.486l2.695-2.615 3.011-4.462 4.121-3.538 2.218-5.385v-4l4.121-2V442l-6.973-1.077-5.072-1.846-4.596-2.308-4.596-3.077h-2.061l-1.267 2.462-2.061.615-1.426-1.384-2.06-.616-2.061 2-3.645-1.384-3.17 1.538-2.853-2.769-4.437-1.846-2.536.923-2.06-2.462.475-2.461-1.109-1.539-2.536-.923-2.377 1.846-1.427-1.384-1.426 1.384-4.121-2.153-1.902 3.538 2.061 2v2.308l-3.011 1.23 1.901 1.847 3.646 1.692 2.694 2.615 2.219 1.847-.476 3.384-3.328 2.769-3.17 1.231-3.645 3.539v3.23l2.06 2-1.109 3.077v3.077m503.037 202.462l-6.973-.923-2.853-1.693-9.192 1.231h-5.864l-4.755 4.615-5.23 1.231-5.071 1.385-7.291-.616-4.913-2-3.17-3.077-2.852-6-3.646-3.538-5.23-2h-5.071l-5.706 1.385-3.962-3.847h-7.766l-4.596-3.384-2.377 2.308-.317-3.693-1.902-1.846-.792-3.385 2.218-2.153V638l2.378-2.308 5.23-5.077 1.426-1.384 1.743-1.693 2.853 1.693-.634 2.615 3.804 1.692 2.219 2 4.913 1.539 2.219 2.154 2.535 1.384 2.853 2.77 6.498-1.385 2.377 2.462 3.012 2.461h3.169v2.769l2.219 3.539h5.706l1.109 3.538 4.596-2.461h3.329v-5.693l4.596-4.461 5.388-6.308 2.694-6.769 7.132-6.923 8.083-9.385 1.268-13.846 2.853-9.231-4.438-1.384-2.219-10.462-1.901-8.615 1.584-2.769 2.061-2-3.487-2.308-3.328-1.077-1.268-5.231 6.339-4.461h3.17v-4.154l3.011-1.385 4.438 1.539 4.596-1.539V544l3.17-2.154 1.585 1.692h5.071l3.012-2 1.901 1.847 6.181 1.23 2.536-2.461 2.694 1.538 3.963-3.846h3.011v-7.692l3.645-1.692 2.219-4.462 3.804.923 1.743 1.692-4.438 4v5.231l3.804 1.846 1.585 4.616 2.377 2.769 1.585 4.923 3.487 3.692 3.17-1.23 4.437 2.153 3.011 2.923 1.268 3.077-1.743 6-4.596 1.385-3.804 3.692-2.853 4.462-2.06 4.461-3.328 3.231-2.536 4.769 1.585 4.77 3.17.923v2.307l2.377 2.308-1.426 4.769-7.608 7.385-4.437 2-2.695 2.615-3.486 1.385-.951 5.538-2.695 2.616-3.011 1.231-1.902 6.615h-3.169l-3.963-.615-5.23 5.076-2.694 1.385-2.219-.923h-2.219l-2.218 2.154v3.692l1.584 1.846-2.535 1.077v6.923l3.486-.461 2.378 2.307-6.498 6.308.792 3.692h-7.132" fill="#EEE"/><path d="M947.276 603.231l1.268-8.308 1.585-3.384-1.585-6.308-2.853-2.769-2.536-2.462-3.17 2.462-2.218-2.769 1.584-3.847 2.219-6.461 3.17-3.077 6.339-3.539-2.852-4.923-1.268-2.461h-3.487l-.951-4.154-1.743-2.462 3.011-1.692v-1.384h-1.585l-2.694-2.77-2.219-.307.476-4.923-1.268-2.308-1.427-3.846-3.169-1.539-2.378 3.077-2.377-.923-.159-3.385-1.584-1.538-2.378-.615-2.536 2.461-1.267 2.923-4.121-1.077-1.268-2.461 2.377-2.923-1.426-2.308-2.694.923-3.487-.923-2.377-2.308v-2.307l-3.329-.923v-3.385l-3.011-.923-3.17-4-4.437-1.539-.951-4.461-2.06-2-2.536 1.846h-2.536l-1.902-1.846-3.17-.154-3.486 3.385 1.426 1.384-1.585 3.385 1.744 1.692-1.585 4 5.864 5.692 3.169-1.384v2.461l1.427 1.385-.793 3.846-3.169 1.846-1.744 3.385-4.596-1.231-3.011 1.539-3.645-.308v5.231l3.803 1.846L874.53 544l2.378 2.769 1.584 4.924 3.487 3.692 3.17-1.231 4.438 2.154 3.011 2.923 1.268 3.077-1.744 6-4.596 1.385-3.804 3.692-2.852 4.461-2.061 4.462-3.328 3.231-2.536 4.769 1.585 4.769 3.17.923v2.308l2.377 2.308-1.426 4.769-4.596 4.308-3.011 2.923-4.438 2-2.694 2.615-3.487 1.385-.951 5.538-2.694 2.615-3.011 1.231-1.11 3.693-.951 2.923h-3.17l-3.962-.616-5.23 5.077-2.694 1.385-2.219-.923h-2.219l-2.218 2.154v3.692l1.584 1.846-2.535 1.077v6.923l3.486-.462 2.378 2.308-6.498 6.308.792 3.692 2.853 2.769 1.585 2.923 5.388 1.693 6.023-.769h8.241l5.864-1.693h6.498l2.536-2.461 4.913-4.77 6.498-2.923 4.596-3.077 3.487-3.384 1.743-5.692 7.29-7.077 5.072-2.154 3.804 1.384 4.279 2.154 5.547-3.077 3.962-2.307 5.389.923 7.449.615 6.656-2.308 3.962-3.846 2.694-6.154 4.28-1.23v-5.385l-1.744-1.692-3.011-5.693 2.219-5.384v-5.231z" fill="#EEE"/><path d="M884.357 493.693l-1.585-4.308-2.536-.308v-2.923l-2.694-2.923-2.219-2.154h-3.17V484l-2.853 2.769-4.437-.615v-2.769l-1.902-1.539v-3.384l-3.962-.462-4.438-2-4.279.462-4.279-.616-2.377 2.77-1.268 3.846-2.853 2.769 1.109 3.846-1.426 4.308-3.804 3.692v6.769l-5.23 3.539v4l-2.219-3.077v-3.385l-2.694-2.615-2.536 1.077-.634 3.231-6.656 2.461h-3.17l-1.268 3.692-2.06 2.924-4.279.307-4.755-4.615-.475-9.692.634-5.847v-5.538l.792-4.923v-4.769l-3.487-1.385-2.535-.923-.317-2.308-1.11-2.615-2.219-2.154v-2.615l1.585-1.539.476-3.538-2.219-2.154h-2.853l-3.17-1.385v-3.077l1.268-1.23-1.426-1.385-1.109-4.308-2.536-4.307-3.011-2-3.329.923-3.328.307v-3.846l2.694-.769v-2.462l-2.852-2.769-1.11 2.154-1.743 1.692-2.378-.461-2.694 2.615-2.694.923-1.585 3.539v3.538l1.426 3.846-1.109 3.231v2.769l3.487 3.385 2.219 2.154-.951 2.769-1.427 2.308 2.536 2.461-2.536 2.462-1.743 1.231v5.23l-2.06 1.231-.793 3.539-3.487 1.384.951 4.616-1.585 1.384-.633 4.308.95 3.846 2.061.923 3.328 3.231 1.426-1.385 3.17 1.231v3.385l1.11 2.923-2.219-.308-1.585 2.615-1.268 2.308.634 1.846h3.17l1.585 3.077 1.109 2.769-1.743 1.693-1.902 2.923v2.461l-.951 2.154h-3.011l-2.536-2.461h-3.487l-1.268-2.308-3.17-1.385-.633-2-2.536-.615-3.487 2.154-.951 3.846 1.902 4-2.694 3.846-4.28 4.154-3.011 4.154-.951 4.154-1.585 3.538 2.853 2.769-2.694 1.846-3.962-2.615-1.902-4.461-3.328-3.231-3.012 1.538-1.426 4.154-5.072 1.846-3.962-.615-4.279.923-.158 5.846-2.378 2.308V570l2.853 2.769 1.902 4.462v2.615l-3.011 1.539-1.427 3.538h-2.852l-.793 3.693-1.426 3.077 2.219 3.076.158 3.077-1.585 1.077v4.616l.793 2.615-1.427 2.462.476 3.077-5.864.307v2.462l-2.536-.462-.951 2.462 3.804 2.308 5.705 5.538 2.695 1.538h3.645l3.011 2.154 4.596.616 3.804 3.538 2.536 1.231h4.437l1.744-1.692 3.803 3.692 8.558-8.308 3.17 2.154-.951 2.154 3.804 1.692 2.219 2 4.913 1.539 2.219 2.154 2.535 1.384 2.853 2.769 6.498-1.384 5.389 4.923h3.17v2.769l2.218 3.538h5.706l1.109 3.539 4.596-2.462h3.329v-5.692l4.596-4.461 5.388-6.308 2.695-6.769 7.131-6.923 8.083-9.385 1.268-13.846 2.853-9.231-4.438-1.385-4.279-19.077L813.83 568l2.06-2-3.486-2.307-3.329-1.077-1.267-5.231 6.339-4.462h3.17v-3.692l3.011-1.385 4.438 1.539 4.596-1.539V544l3.169-2.154 1.585 1.693h5.072l3.011-2 1.902 1.846 6.181 1.231 2.536-2.462 2.694 1.539 3.962-3.847h3.012v-7.692l3.645-1.692L868.35 526l3.803.923 1.744 1.693-4.438 4 3.645.307 3.011-1.538 4.597 1.231 1.743-3.385 3.17-1.846.792-3.846-1.426-1.385v-2.461l-3.17 1.384-5.864-5.692 1.585-4-1.744-1.692 1.585-3.385-1.426-1.385 3.487-3.384 3.169.154 1.902 1.846h2.536l2.536-1.846.634-2.154-5.864-5.846zm-447.251 83.538l-1.743-3.539h-5.072l-3.962-2.307-4.437-.462-.634-5.846-7.925-4.769.634-3.693-2.694-.461-1.268-2.615h-3.487l-2.377-2.154-3.17-.616v-4.461l-2.377-.769-3.487-4.77 2.378-4 2.535-1.846-1.109-3.538 1.585-1.539-.792-4.307 3.486-3.385 3.011.769 2.378-2.308 2.694 1.077 4.596-2.307v-3.231l-.951-2.615 1.11-3.693L418.88 512h4.28l3.169-.923v-2.615l1.585-1.539 5.547 1.539 2.219-2.154h6.023l1.743-1.693 3.17-1.076 3.328-1.231 1.585-1.539-.159-3.077h2.219l2.694 2.154 2.378 1.231 2.694 2.615h3.011l3.962 1.077 3.17 3.077 2.219 4 2.694 4.308v3.538l4.121.616v3.384l2.06 2 3.328 1.077 1.902 1.846h3.645l2.536 2.154h3.328l-1.743 2.462-3.17 3.077-3.962 1.846h-4.754l-3.012-.923-3.486-1.692-2.061 1.846h-3.328l-2.536-1.539-2.219-1.077-3.486-1.077-2.695-.923v-2.307l1.902-1.847-3.169-3.076-3.012 2-1.743 2.923-2.377 2.307-.317 3.077 1.426 4-3.17 1.539v2.154l2.695 1.384 1.901 1.846.951 2.308 3.012 1.538v2.616l-1.427 1.384-3.803.616-2.219 2.154-2.853 2.769v3.385l-.792 2-2.061 2-1.585.307v2.616l-2.06 2-1.109 2.307v2.308h-3.963" fill="#EEE"/><path d="M395.9 535.077h-4.279l-4.754 3.539-2.695-4.462-2.06.769-3.011-1.231h-2.695l-3.169-1.384-5.23 3.385-2.061-2.001-2.218-2.153-2.853-1.539-2.536 2.462-2.694-2.616-2.695-.307-.634-1.539-3.645-1.231-1.109-2-3.328-2.153-2.695 1.076-2.535 2.462-2.378-3.385h-2.852l-4.597-3.23-2.535-3.539 2.694-2.769 1.585-1.539v-3.384l1.426-2.615 1.268 1.23h3.962l3.328-1.538.951-3.693 2.061-3.384h2.694l2.377 3.538 1.585-1.538 2.219-2.154-1.585-1.538-.158-1.847 3.645-2.307 3.486.769 2.536-2 2.536-2.462-2.219-2.153v-1.385l2.061-2 1.426-4.462-2.536-4v-4.923l3.328-2.769h3.487l2.694-2.615 3.012-4.462 4.12-3.538 2.219-5.385v-4l4.121-2V442l1.109-2.769 1.902-1.846 2.853 1.692v2.462l1.585 1.538 1.743 1.231 2.694 2.615 4.755 4.616 3.011 5.23 2.377 2.308v5.231l-2.06 2.615 1.11 6-1.268 4.923 2.535 2.462v3.846l-2.377 2.308.793 4.461 3.328 1.693 2.377 2.769.159 3.077h2.377l2.377 2.307-1.268 2.308v4.462l2.219 2.153-1.109 3.693.951 2.615v3.231l-4.597 2.308-2.694-1.077-2.377 2.307-3.011-.769-3.487 3.385.792 4.307-1.585 1.539 1.11 3.538-2.536 1.847-2.853-1.539z" fill="#EEE"/><path d="M433.303 386.615l-.475 6.462.792 5.231-1.585 4.769-3.645 3.538 1.902 1.846 3.487 3.385 3.962 3.846 5.388-1.231 4.279 1.693 4.28-1.693 4.596 2.308 4.596 3.846-3.487 3.385 3.011 3.384 5.389.924 2.853-2.77 3.011 2.923 2.219-2.153h5.388l4.755 4.615 1.109 5.231v3.384l4.596 4.462-.951 3.846 1.427 3.846 6.973-.769h3.487l3.011 4.615h3.487l3.962 4.154 3.487-.769 4.913 1.231 3.17 3.077 1.901-1.847 5.389 2.154-1.426 3.693 4.279 2.153 3.17 3.077h14.422l1.585-2.769 3.645-2 4.279-2.769 1.585 4.154 4.121 5.231 1.901-1.847 5.864 1.693 3.012 4.923 3.011-.923h2.853l4.279 5.077v6l5.071 3.23 5.706 2.462-3.011 4.769-7.132 3.077-4.596 4.462-7.449-5.231-7.925 3.231-1.426 4.769-5.388-2.616-3.804.924-4.596-4.462-5.072 1.846-6.498-.769-1.743-2.462h-6.974l-4.754-2-6.498.923-2.378 4.616-2.377 5.692.317 6.154-6.656 1.846-5.389 3.846-.634 4.154-5.705 3.231h-3.329l-2.535-2.154h-3.646l-1.901-1.846-3.329-1.077-2.06-2v-3.385l-4.121-.615v-3.538L474.034 512l-2.219-4-3.169-3.077-3.963-1.077h-3.011l-2.694-2.615-5.072-3.385h-2.218l.158 3.077-1.585 1.538-6.498 2.308-1.743 1.692h-6.181l-2.219 2.154-5.547-1.538-1.585 1.538v2.616l-3.17.923h-4.279L416.186 510l-2.218-2.154v-4.462l1.268-2.307-2.378-2.308h-2.377l-.159-3.077-2.377-2.769-3.328-1.692-.792-4.462 2.377-2.308s.634-3.23 0-3.846l-2.536-2.461 1.109-4-.792-6.923s1.268-1.847 2.06-2.616c.793-.615 0-5.231 0-5.231l-2.377-2.307-3.011-5.231-4.755-4.615-2.694-2.616-3.328-2.769v-2.462l-2.853-1.692.634-3.384 4.913-4.77v-2.615l1.585-3.077-.793-3.385 2.695-4.923 4.12-2.461.476-3.539 4.754-2.923-.792-4.307 1.743-3.385 4.121-4 3.011-2.923 2.536.923V396l3.487-.462 3.803-3.692 3.804-1.846 2.06-2.308 4.121-1.077zm228.538-219.692l-1.585 2-1.426 2.615-1.268-.461.951-3.385v-3.538l-3.962 1.231s-2.377.461-2.853.769l-3.328 1.077-1.268 2.615-.792 2.308-1.585 2 .475 2.308-3.17 2.307 1.427 1.231 2.219-.769 1.902 2.461.158 2.308 1.585 2 4.121.308.475 2.307 2.853-1.692 1.426 2.308 3.962 1.384 3.804-1.846 1.902-2.461-1.427-2.77-2.377-3.23 1.902-1.231.792-3.077-.95-3.385.316-3.384-4.279-2.308zm-52.617 101.846l-2.219 1.077s.951 2.616.951 2.308c0-.308 1.585-.769 1.585-.769l-.317-2.616z" fill="#EEE"/><path d="M733.16 349.538l1.11 2.616 1.585 3.384 3.486 2.308.317 6.462 3.487 6.154v2.615l.951 4.923 1.109 7.538-3.011.924-2.06 3.23-1.902 1.846 1.109 3.231 1.11-1.077 3.803 1.539v3.231l1.427 1.384-1.427 1.231v3.385l3.487 1.846 1.109 5.384 4.121 4-1.426 3.847-2.378 3.692.951 2.923v2.615L748.85 430v3.846l2.061.923h3.328l1.585-1.538h1.902l1.743 2 3.645-1.385 2.695 1.231 2.218-2.154 3.012.154.158 2.308-1.109 2.153-1.744 1.693-2.377-.462-2.694 2.616-2.695.923-1.584 3.538v3.539l1.426 3.846-1.109 3.231v2.769l3.486 3.384 2.219 2.154-.951 2.769-1.426 2.308 2.536 2.462-2.536 2.461-1.744 1.231v5.231l-2.06 1.231-.792 3.538-3.487 1.385.951 4.615-1.585 1.538-.634 4.308.951 3.846 2.06.923 3.329 3.231 1.426-1.384 3.17 1.23v3.385l1.109 2.923-2.219-.308-1.585 2.616-1.267 2.307.633 1.847h3.17l1.585 3.077 1.109 2.769-1.743 1.692-1.902 2.923v2.462l-.951 2.153h-3.011l-2.536-2.461h-3.486l-1.268-2.308-3.17-1.384-.634-2-2.536-.616-3.486 2.154-.951 3.846 1.901 4-2.694 3.846-4.279 4.154-3.011 4.154-.951 4.154-1.585 3.538 2.853 2.77-2.695 1.846-3.962-2.616-1.902-4.461-3.328-3.231-3.011 1.539-1.426 4.153-5.072 1.847-3.962-.616-4.279.923-.159 5.846-2.377 2.308v5.539l2.853 2.769 1.901 4.461v2.616l-3.011 1.538-1.426 3.539h-2.853l-.792 3.692-1.427 3.077 2.219 3.077.159 3.077-1.585 1.077V604l.792 2.615-1.426 2.462.475 3.077-5.864.308v2.461l-2.536-.461-.95 2.461 3.803 2.308 5.706 5.538 2.694 1.539-1.109 2.461-2.219-.769-1.744 1.692-4.437-.153-3.804 3.692-5.23-.923-1.902 1.846-1.268 7.077-4.596 1.231v3.23l-3.011 2.923v4.923l-4.279 1.231-5.864 4.923-4.279 1.693h-3.17l-4.121-2h-4.596l-4.596-1.539-3.487-3.384 1.427-2 1.743-4.308 3.645-1.539 3.328-3.23-.475-4 3.328-3.231 1.268-4-1.109-3.231v-3.692l-4.279-4.154-1.268-4.615-4.121-4 1.268-5.231-1.268-2.462-3.804 1.231-5.864-.615-1.902 1.846-3.962-.769-3.803-4-2.219-3.693 3.645-3.538 2.377-.923-.317-5.539-2.06-4-2.853-.923-1.585-1.384-.634-3.077.951-4.154v-5.846l2.536-4.462 4.438-2.154-.159-4.307-5.388-1.693h-3.487l-.951-3.077-3.011-4.615 1.902-4.923 6.498-6.769-2.061-2-5.864.461-1.268-4.461-3.803-3.693-2.378-3.538-4.754-1.231h-6.498l-5.389 1.385-4.437-1.385-1.268-3.846 3.645-3.538-3.962-7.847 4.596-4.461 7.132-3.077 3.011-4.769-5.705-2.462-5.072-3.231v-6l4.755-4.615 1.743-1.692.317-4.462 2.853-2.769v-4.923l-3.012-4.154 2.061-3.692 2.853-3.539 2.694-2.615-1.427-3.077.793-4.154-.793-4.615-2.377 2.307-2.377-2.307-4.596-.923-.951-4.154 2.06-2-.475-4.462-1.744-3.538-2.377-2.308h-2.377l-2.219-3.846 1.743-1.385v-3.538l-1.426-2.308v-2l2.694-2.461-1.743-3.385-4.438-2.462v-2.769l-1.743-1.692 1.743-2.923-.634-3.539-1.902-1.846.159-3.077 2.853.616.792-2.462 2.219-2.154 1.268-3.692-1.585-2.923h1.585l1.109-2.769-1.902-4.462v-3.077l-3.169-.615.158-3.846-2.377 2.307c-.317.308-1.268-1.23-1.268-1.23l-2.377 2-1.268-1.231-.476-2.462-3.803-.615-2.536-2.462-.476-2.154-1.743-1.692-.159-3.538 3.646-2.616 3.011-2.923 1.585-2.307h3.962v-6.77l.475-4.615-4.279-2.308-1.268-2.461-.792 1.077-1.268-2.616 2.694-2.615 3.804-.616-.476-2 1.902-1.846-.634-2.461-2.852-1.539-2.536-.461-1.744-1.693-.792-2.153h-1.902l-.158-2.308 3.962.769 3.328-.461L574.99 308l5.23 2.769-1.426 3.846 1.268 1.231 3.487 3.385h5.388l.793-3.077-2.219-2.923.158-2.769-3.803-1.385-2.853-4.462-1.585-1.538 1.268-4.615 1.743-3.847-1.585-1.538-.951-4.923 3.963-3.539h9.509l4.754 1.693v-1.231h7.766l5.23-2.154h3.804l2.06-2-2.06-2.923-2.377-.769-2.061-2 2.378-2.308c1.585-1.538 1.585 1.539 1.585 1.539l2.377-.616-1.585-1.692 1.109-2.462-1.743-1.692 2.06-2.769 2.853-2.154-2.853-.154-.158-2.923 5.547.154 2.219-4.462 5.547-2 2.06-2 7.608-1.077 1.901-1.846 5.389-1.538 1.268-1.385-3.645-1.231 2.06-2 5.23-1.23 4.438-.616.951-2.154 3.645-.615-1.902 3.538v2.77l2.536-2.462 6.181.154.634-3.077 3.962-.769 3.962.769-1.743-2.308-2.378-1.692-1.268-2.154h4.438l4.596-1.384h1.427l-.476-3.385-1.585-1.231v-4.615l.951-3.077 3.011-7.231 3.646-2.461 3.169-3.385 3.962 2.308 3.012-.462.951 4-3.17 3.077-2.536 3.385 6.34.307 1.268-1.23h3.962l2.852 2.769-2.535 2.461s-.159 2.462.951 2.462c1.267 0 4.437 1.385 4.437 1.385l.951-3.385-1.743-1.692 4.437-2.308h3.963l4.12-2.769 2.378 2.307 3.169-1.538 2.378 2.308 2.06 3.846 2.377 2 1.427-1.539 2.06 2 2.694 2.616-.475 4.154-3.962-.77 1.584 1.539 3.963 2.154 2.535 4.153-2.377 2.308v3.846l-2.06 2.77-1.902 3.846-2.377 2.307-3.963 4.616v2l-1.267 5.384-3.012 2.923-1.268 6-4.754 1.231-1.585 4.462-3.328 3.231-.793 5.076-.951 3.539 3.646-1.539-.951-3.846 3.645-2.154s3.17-.923 5.071-.923c1.744 0 2.378-3.538 2.378-3.538l3.486-2.769 3.17-1.231 1.902-3.539-1.585-1.538-2.377-.154.158-1.538-.158-3.077 3.011-.154h2.377l.476 3.385 1.585 1.23-.476 1.846-1.426 1.385.951 2.308 1.743 2.615 1.744 1.692-.634 3.847 1.426 2.923 4.121 1.538v2l5.388 3.846 2.536 2.462v4.769l2.853 5.231h3.169l.317 4h-1.584l-.793 2.769-3.804 3.692-3.328 2.154.159 4v3.077l-3.012 1.077-1.109 3.846 2.219 2.154v3.231l-1.268 2.615-4.121-1.231-3.011.924-4.438 6-4.279 1.538.317 1.538z" fill="#EEE"/><path d="M703.84 210.308l-.792 1.077 1.585 1.077.792-1.231-1.585-.923zm-7.766-15.846l-1.901 1.077 2.535 1.23 1.744 1.231 2.06-.461-.475-2.308-2.061.461-1.902-1.23zm-17.909-8.616v-2.461l.159-4.462-1.268-2.461-1.902.154-2.536 3.076.159 2.616-1.11 1.846.793 4.769-2.219 2.154.159 4.769-1.11 4-.951 4 1.585.923 3.487-2.615 2.06-1.231 4.596-2.307 3.645-.308 4.597-3.385 2.218-4-1.426-3.538-1.585-2.616-2.219.923-2.218-3.692-1.585-1.538-2.061 2.307-1.268 3.077zm-19.652 35.231l-1.902 2.154-2.377.461 2.219 1.539 2.219-2.154-.159-2zm-30.429-.769l-.951 1.384 1.268 1.077 1.584-2.307-1.901-.154zm-34.392 32.615l-2.06 1.539 1.109 2.154 1.743-.308-.792-3.385zM592.9 276l-.317 2h3.169l1.585 1.539.159-2.616-1.902-.307L592.9 276zm-10.619-104.769l-1.109 1.077 1.267.769 2.061 1.385.475-1.846-2.694-1.385zm-11.094 123.231L569.919 296l.792 2.154 1.268 1.538 1.744-2 .792-2.307-1.585-1.539-1.743.616zm26.467-146.154l-1.585.308-.951.923 1.585 1.538 2.061-.615 1.267-1.231-2.377-.923zm34.55-2.923l-1.426 1.384 1.109 1.077 1.11 1.077 2.377-2.154v-1.538l-3.17.154zm14.423-2l-.476 2.923-2.694 1.231-4.121 2.615v3.692l1.585 1.539-2.219 2.154-1.426 2.769 1.902 2.615.792 2.616 3.487 2.923 3.17-2.923h2.06l3.17-1.693 3.803-1.23-1.109-3.539v-4.461l2.219-1.847-1.902-1.846-3.804-3.692-1.426-2.923-3.011-.923zm-8.876 24.307l-2.536-.307.476 3.231v2l3.328.923 1.427 1.384 2.06-2 1.109-2.923-1.902-1.538-3.962-.77zm-40.255 74.924l-.951.923 1.268 1.077 2.06-.616-2.377-1.384zM582.28 507.385l2.219 4.615 1.585 3.385-3.645 3.538 1.268 3.846 4.437 1.385 5.389-1.385h6.498l4.755 1.231 2.377 3.538 3.804 3.693 1.267 4.461 5.864-.461 2.061 2-3.487 3.692-3.17 3.077-1.902 4.923 3.012 4.615.951 3.077h3.486l5.389 1.693.634 4.461-4.438 2.154-2.536 4.462v5.846l-3.803 1.538-4.279 4.154-2.219-2.154-4.438 2.308-3.645-1.539h-4.279l-6.815 5.847h-6.974l-4.12 2-5.072-.308-5.23 5.384-2.219-2.153 1.902-1.847-1.585-1.538v-3.692l-.792-4.923-2.536-1.231-2.853 2.769-4.754 1.231h-4.121l-3.487-4.616h-8.716l-3.963-5.384-2.694-2.616-3.328-3.23-5.389-2.154-4.596-2.308-5.388-.769h-4.913l-2.378-2.308-4.437-1.077-1.268-3.384-2.219-4.462.634-4.923-2.377-2.308v-4l2.218-5.077-.634-1.846 5.706-3.23.634-4.154 5.389-3.846 6.656-1.847-.317-6.153 4.755-10.154 6.498-.923 4.754 2h6.974l1.743 2.461 6.498.769 5.071-1.846 4.597 4.462 3.803-.923 5.389 2.615 1.426-4.769 7.925-3.231 7.448 5.539z" fill="#EEE"/><path d="M617.623 582.616l-.634-3.077.951-4.154-3.804 1.538-4.279 4.154-2.219-2.154-4.437 2.308-3.645-1.539h-4.28l-6.815 5.847h-6.814l-4.121 2 .634 6.461 1.426 2.769 1.11 5.847-.793 8.307 2.536 3.693 2.377 4.461h3.645l2.536 4.769 2.219 2.154.792 3.692 3.17 1.847h3.012l.158 2.615-3.011 1.385 1.743 2.923.476 3.846 1.267 3.231 3.963 3.384h3.962l3.486 1.693h1.902l.159 3.538h2.694v-3.231l2.853-2.769 3.487-3.385-2.061-1.692-1.268-2.461.476-2.154 1.585-1.539-1.902-2.461-2.06-2 3.645-5.231v-5.692l1.268-1.231v-2.462l-3.487-.615-2.377 2.308-2.853-2.77 3.645-.923v-3.538l.951-3.077-2.06-3.846-1.427-3.846 3.012-2.462 3.645-3.538 2.377-.923v-5.077l-2.377-4.462-2.853-.923-1.585-1.538z" fill="#EEE"/><path d="M618.416 598.923l2.219 3.692 3.803 4 3.962.769 1.902-1.846 5.864.616 3.804-1.231 1.268 2.461-1.268 5.231 4.121 4 1.268 4.616 4.279 4.153v3.693l1.109 3.23-1.268 4-3.328 3.231.475 4-3.328 3.231-3.645 1.538-1.743 4.308-1.427 2-4.279 2.154v4.308l-3.804 3.692-7.448-1.231-1.744 1.693h-2.06l-2.219 4h-3.17l-4.12-4 1.902-1.847-.951-3.846 5.388-5.231h2.694v-3.23l6.34-6.154-1.743-1.846-1.268-2.462.475-2.154 1.585-1.538-1.902-2.462-2.06-2 3.328-4.769.317-6.154 1.268-1.23v-2.462l-3.487-.615-2.377 2.307-2.853-2.769 3.645-1.385v-3.077l.951-3.076-2.06-3.847-1.426-3.846 3.011-2.615zM51.825 564.154l-1.268-1.846-2.219-2.154-1.109.461v1.847l.95 1.692 4.28 4.307h2.06l.634-.769 2.22 1.385 1.109 2.615-1.268 1.231-2.22-.154-1.267 2.308h-1.902v3.231l.793 1.846-.476 1.538h-4.596l-1.585-.769-1.743 1.692 3.011 3.693 1.11 2 .95-.923 2.06-.308v-1.539l1.427-1.23 2.219-2.154 2.06-2.923 1.744-1.693 1.901-.769.793 2.616 1.11-2.154v-7.077l-1.427-.923L59.908 568l-1.743-.923-.634-2.154-2.536-.769-1.11.461-2.06-.461zM1011.94 150l-3.81 3.692v2.769l1.91 1.847h-3.97l-3.64 2.769-5.073 2.154-5.547-5.385-2.694-2.615-5.547.307-6.656.923-3.804 4.462-4.279 4.154-5.072 7.231V178l-3.962 4.923-3.804 3.692-4.279.154-3.803-2-5.389 2.923s1.268 5.077.634 4.462c-.634-.616-3.804-3.846-3.804-3.846l-2.852 3.076h-4.438s-2.694-.923-1.426-2.153c1.267-1.231 3.011-3.539 3.011-3.539l-3.645-2.461-6.023 2.461-4.279 2-1.743 4.923-.793 2.769 1.268 6.308v3.692l-3.487 3.077.951-7.538-3.803-1.231-3.012 2.923-3.486 1.539 1.426-5.231s3.804-1.385 3.804-2.462c0-1.23-.793-2-.793-2l-5.864 2.462-7.449 2.769-1.585 4.462-5.547 2.769h-3.803l-2.536 2.461 4.279 2.462.634 2.769-4.438 3.846v4.154l2.378 1.539 2.06-5.077 1.426 1.231v4.307l3.487 1.693 3.011 2.923 1.427.769-3.011 2.923-3.804-.154-2.219 2.308-1.743 1.692 4.754 2v2.923l-4.437-1.231-3.804.154-5.23 1.231-2.853 5.077.951 5.077h-5.072l-4.437 1.231-2.853-2.77-5.071-.615v3.538l2.535 2.462v2.769l1.268 2.923 2.061 6.462-.476 3.692-4.596-2.308-1.743 1.693-4.28-.769-3.011-2-3.962-3.847-4.121.154v-3.077s-1.743-2.769-1.743-1.692c0 1.077-2.219 2-2.219 2l-2.853-2.769 1.585-1.539 2.536-.769v-4.308l-2.06-2-3.804 2.308v-3.692l-2.377-2.308h-2.378l1.585-4.769-4.754-1.539-1.427 1.385-4.437-3.385s-.476 1.847-1.902 1.847-1.268 3.538-1.268 3.538l-1.585 1.231-1.585-1.693-1.585.462-.792 2.308-3.17-2.154-2.06-2-2.536 1.846-2.377-2.308-.634 2.308-.793 4.462 3.012 4.461.634 3.846s.951 3.539 0 3.539-5.389.769-5.389.769l-4.279 3.538-4.279 1.539-2.378-3.692-.633 2.153-.159 1.539h-6.181l-3.328-3.231 1.426-1.385-1.585-2.307-6.022 1.692-7.608 1.385-5.071 2.461-3.645 3.539-1.902 1.846 2.853 2.461h-2.378l-2.377-3.384v-3.846l-2.06-2-2.536 3.384-.793 2.308-3.962-1.539-3.486-.769.475 3.385 1.585 1.231-.476 1.846-1.426 1.384.951 2.308 1.743 2.615 1.744 1.693-.634 3.846 1.426 2.923 4.121 1.538v2l5.388 3.847 2.536 2.461v4.769l2.853 5.231h3.17l.317 4h-1.585l-.793 2.769-3.803 3.693-3.329 2.154.159 7.076-3.011 1.077-1.11 3.847 2.219 2.153v3.231l-1.268 2.616-4.121-1.231-3.011.923-4.437 6-4.28 1.538v1.539l1.11 2.615 1.585 3.385 3.486 2.307.317 6.462 3.487 6.154v2.615l.951 4.923 1.109 7.539-3.011.923-2.06 3.231-1.902 1.846 1.109 3.23 1.11-1.076 3.804 1.538V398l1.426 1.384-1.426 1.231V404l3.486 1.846 1.11 5.385 4.12 4-1.426 3.846-2.377 3.692.951 2.923v2.616l-1.268 1.23v3.846l2.06.923h3.328l1.585-1.538h1.902l1.743 2 3.645-1.385 2.695 1.231 2.219-2.154 3.011.154.158 2.308 2.853 2.769v2.462l-2.694.769v3.846l3.328-.308 3.328-.923 3.012 2 2.535 4.308 1.11 4.308 1.426 1.384-1.268 1.231v2.769l3.17 1.385h2.853l2.218 2.154-.475 3.538-1.585 1.539v2.615l2.219 2.154 1.109 2.615.317 2.308 2.536.923 3.487 1.385v4.769l-.793 4.923v5.538l-.634 5.847.476 9.692 4.755 4.615 4.279-.307 2.06-2.923 1.268-3.693h3.17l6.656-2.461.634-3.231 2.536-1.077 2.694 2.615v3.385l2.219 3.077v-4l5.23-3.539v-6.461l3.804-3.692 1.426-4.308-1.109-3.846 2.852-2.769 1.268-3.847 2.378-2.769 4.279.616 4.279-.462 4.438 2 3.962.462v3.538l1.902 1.538v2.77l4.437.615 2.853-2.769v-2.923h3.17l2.218 2.154 2.695 2.923v2.769l2.536.308 1.584 4.307 2.695 2.616 3.011 2.923-.634 2.154 2.06 2 .951 4.461 4.438 1.539 3.17 4 3.011.923v3.384l3.328.923 3.487-3.384 3.962-3.231h3.962l1.743-1.692 2.219 2.154 3.012.615 1.426-1.385h3.962l1.585 2h2.536l.792-2.923 5.072.923 1.743-1.692 3.645-.769 3.329 1.538 4.279 4.154 3.328-1.385 3.645-.923 1.585-2.153 2.694 1.23 2.061-2h2.218l2.061 2 2.06-2 5.864-5.692 4.279.615v-2.615l5.389-2 3.962.769 3.962-2.461-.317-4 6.496-3.846 6.18-4.924-2.22-5.076v-3.847l-2.69-2.615 2.38-2.308.63-5.077-5.55-2.307h-4.433l-.476-2.616 3.17-.615-1.585-3.231.951-6-3.804-.615-3.803-3.846 3.328-.77.317-4.615-1.427-1.385-.951-2.461 1.268-3.077-2.535-2.462 2.06-2.769-1.743-1.692v-4.154l4.12-2 2.694-1.538 3.329.307 2.69-2.615 3.65-1.385.47-3.384-2.37-2.308 1.27-3.231 4.59-.923 6.18-6-.31-6.769 4.43-1.385v-2.154l-4.28-4.153-.95-2.924-4.75-4.615-3.01-.615-.64-3.846.8-4.462-2.38-2.308 3.64-4.615v-4.154l.32-5.077-1.9-1.846-.95-3.692-1.75-1.693-.15-4.461 3.48-.769 3.01.769 3.97 2 3.96-2 3.17-.923 3.17-3.077 2.22-3.846 3.01.154 1.74-1.077 1.27 1.23 1.74-.615v-3.231l-.31-5.384.63-3.693-3.01-2.923-.79-2.307-2.7-2.616-4.75-2.308-1.27-2.769-3.33-4.307V302l-1.58-.769.79-3.847 1.27-1.23-2.22-2.154.63-3.385 5.23-2v-1.846l3.96.154-.31-4.308-3.01-.923-2.07-2.615 2.54-2.308h2.54v-3.077l2.53-1.692v-2.154l3.17-.769 1.9 2.154 2.7-.308 1.42-2.769-.95-2.462 2.7-4.308.95-2.769 2.69-.461v-2.462l-1.42-3.538-3.33-1.846-3.17-3.077v-3.539l-.32-3.846-3.01-1.538-2.06-2.77v-3.23l2.38-.462-1.11-3.231-3.33-.923.63-2.923 3.49-1.385V220l1.59-1.539h3.96l.31-4h5.08l2.06-2-1.27-4 1.74-3.23-2.38-3.847h-2.21l-2.06-4.153-2.38-2.308h-3.33l-4.12 1.385-3.8-1.539-3.97-.615v-4.462l-3.17-1.692-1.58-3.846 2.38-3.693v-4l2.69-1.846v-3.846l1.9-4.615 4.12-3.077-3.17-5.077-3.64-1.385-.95-2.461-3.97-.462-4.75-1.538-1.9-2.154zm-141.53 5.231l-.317-1.385 2.694 1.231 1.426-1.385 1.902-1.846 2.853-2.769 1.743 2h.951l2.219-2.154 2.06-2.462 3.962-1.692 2.853 2.154-1.585 4.461v2.462l-1.902 1.846-3.011 1.385-3.328 1.231h-3.328l-2.536 2.461-3.962-1.385-2.061-2.769-.633-1.384zm-6.657 3.692h-5.864l-1.902 1.846-3.011 2-2.219-2.154-5.23 1.539.317 3.23 1.426 1.385 2.061 2 1.426 1.385-2.06 1.538-2.694-2.308-1.427 1.385-2.06-2-4.596.923-2.061-1.077-.951 2.308 1.427 1.385-2.694 1.538v3.385l2.218 2.153-.475 2.462h2.06l2.536 2.462-.792 2.769 3.328 1.538 4.438.154 1.901 1.692h3.329l3.803-1.077v-2.769l-2.377-2.154 1.268-1.23 1.902 1.846 3.328-6 3.17-3.077 1.426 1.384 2.853-2.769.951-2.615-3.328-1.077-2.219 2.154-2.695-2-3.328-2-3.328-2.308 1.109-2.308 1.744-1.692 1.426 4.462 2.06 2 3.487.615 2.219-.923h1.902l1.743-1.692-.951-3.693h-3.011l.792-3.23V158l-2.377.923zm3.011 31.231l-1.584 1.384 1.267 3.539 2.061 2 1.743-3.231v-2.615L868.983 190l-2.219.154z" fill="#EEE"/><path d="M874.213 193.231l-2.06 2 1.11 2.769 2.06 2-1.268 2.769 1.109 1.077 1.585-3.384 4.121-.924 3.645-1.384 4.913-2.769-2.536-4.616h-3.486l-4.913-1.538-2.219 2-2.061 2zm-40.889-7.539l-1.585-1.538-2.853-.154 1.902 1.846 1.11 4.154h2.377v-2.308l-.951-2zm-91.13 68.77l-3.328 3.23v2.154h2.852l.951 2.154 2.378-1.077 2.694-2.615V254h-3.487l-2.06.462zM860.901 130l-1.11 2 1.11 1.077 1.426-1.077-1.426-2zm-10.144 77.231l-3.486-.769-1.11.923 2.061.923 2.535 2 1.11-1.385-1.11-1.692zm-687.04 91.384h18.384v5.693l2.219 7.23 7.607 21.231 4.755 2.154 2.853 5.231 2.219 8.154-2.853 6-2.536 3.23-2.536.308-1.268 2.154-3.803-.616-2.219 2.154-1.585-5.846-1.585-1.538-2.377-.77 1.268-2.461v-2.308l-2.536-1.077-.317-2.307-2.853-.154-1.743 1.692-2.219-2.615.634-5.077-1.743-.462-2.061-2-1.902 1.539-2.06.461-3.17-1.231-3.169-.307h-4.597l-1.426-2.769-1.743.769-1.427 1.384-2.694-.307-.792-3.846 1.109-3.539-1.268-2.769-.158-2.769-2.536-2.462 1.268-2.615-2.378-2.77 3.963-2.307 5.388 1.231.793-2.924 1.743-1.692 3.487 1.539 2.852 2.923 4.438 1.384 1.585 3.539-.634.615v1.077l-.951 3.539 1.426-.308 1.744 1.231.792-.616h.793l1.743-.769v-1.538l.951-1.077v-1.539l-.475-.615-1.427 1.538-.475-5.692-3.646-3.077v-6.615l3.17-.77.951-.923-4.437-1.692-2.536-3.231z" fill="#EEE"/><path d="M182.102 298.616v5.692l2.218 7.231 7.608 21.23 4.754 2.154 2.853 5.231 2.219 8.154 4.596-2.462 3.011-4.153 2.219 1.23 3.645-2 3.329-1.077 3.328.616 2.853 1.231 3.328-.616 2.536 1.539.158 1.692 2.853 3.077 1.585-1.692 1.426-.308 3.962-3.846.634-3.077-.475-2.616 3.328-.923 1.585-4-3.804-3.692.476-4.923.95-2.154 2.536-1.231 1.268-2.769-.158-3.077 1.268-1.384 1.584 2 .951-.924 2.061 1.385 2.535-3.538 2.853-4.923-3.011-9.231 3.645-3.539 1.585-6.923 3.962-3.846 4.913-1.538 2.853-6 .793-4.308-2.853-2.769 2.219-2.154-.159-4.923-2.536.154-2.06-1.231-3.328.769-2.219-2.154 1.109-2.923.476-3.538-9.668-8.462-7.449 13.385-3.486-1.539-6.974 5.385-3.17.154v6.615l-3.645 1.385v5.077l-4.754 3.692h-5.547l-1.427 12.923v5.077l-8.4 2.923-26.942.462zm-16.483 21.076c0 .154 0 .154-.159.154-.158.154 0 .154 0 .308s-.158.154-.158.307v.308c0 .154 0 .154-.158.154-.159 0 0 .154-.159.154-.158.154 0 .307-.158.307-.159.154 0 .154-.159.154-.158.154 0 .154 0 .308s0 .154-.158.154c-.159.154-.159.154-.159.308v.615c0 .154.159.154.159.154v.307c0 .154 0 .154.158.154h.317c.159 0 .159 0 .159-.154.158 0 .158-.153.316-.153.159 0 .159-.154.159-.154.158 0 .317-.154.317 0 .158.154.158 0 .158.154.159.153 0 .153.159.153l.158.154c0 .154 0 .154.159.154.158.154.158 0 .158.154.159.154.317-.154.317 0l.159.154c.158 0 .158 0 .158.154l.159.154h.317c.158 0 .317.153.317 0l.158-.154s.317 0 .317-.154c.159 0 .159-.154.317-.154.159 0 .159 0 .159-.154.158-.154.158 0 .317 0 .158 0 .158 0 .158-.154.159-.154.159 0 .159-.154.158-.153.158 0 .317-.153.158 0 .158-.154.158-.154v-.923c0-.154.159-.154.159-.154l.158-.154c0-.154.159 0 .159-.154s.158-.154.158-.154c0-.154.159-.154.159-.154v-1.076c0-.154 0-.154.158-.154.158-.154 0-.154 0-.308v-.308c0-.154-.158-.154-.158-.154 0-.153 0-.153-.159-.153l-.158-.154c0-.154 0-.154-.159-.154-.158-.154-.158 0-.317-.154h-.951c-.158 0-.158.154-.158.154h-.317c-.159 0-.317-.154-.317 0l-.159.154h-.317c-.158 0-.158.154-.317.154-.158 0-.158-.154-.317-.154h-1.109c-.159 0-.317-.154-.317 0-.159.154-.159.154-.317.154-.159 0-.159.153-.159.153-.158 0-.158.154-.158.154h-.158v.154h.158M27.418 519.077l.95-1.539.476-1.384.634-.769 1.11-1.077 1.268-.154 2.852.615 2.06-1.077 4.438-5.077 2.22-8.615-2.378-4-1.11-1.539L38.671 492l-.951-1.077-.317-1.231-.951-1.23-1.744-.924-.158-1.384-2.06.461-1.268.923-1.585 1.693-1.585-.308-1.268.308.159 1.384.475 1.231-1.426.308-.317-1.231-1.11.923-.634.154-1.743-1.077-.317-1.846-.634.769-1.11-1.846-1.584-.308-.793-.615-1.268.308-1.109 1.077-1.11-1.231-1.267 1.077-.159 1.384-.475 1.385-1.427-.462-.317-1.23-1.426.307.634 2 .792 1.077.317 1.231-2.218-.154-.634-3.231-.476-2 1.11-1.538-1.744-.923-.317 1.384v3.539l.476 1.846.95 1.077 1.269 1.846.475 2 1.743 1.539.476 2 .95 1.846v-1.539l1.903.462-1.585-1.693-1.268-1.846 2.377.923 1.11 1.847 1.426.153.95 1.231.476 1.385-.158 2 2.06.154.793-.308 1.584-.769 1.11 1.077.317 1.23-.317 1.539.158 1.231.951 1.23 2.06-.461 1.902 1.692-1.585-.461-1.109 1.077 1.585.153-.476 1.539 1.11-.923 1.268-.923.158.615-1.11 1.077-.474 1.385-1.268.923-.317.769v.615" fill="#EEE"/><path d="M50.557 522.615l.793-.307 1.426-.308.634-.154 1.426-.307 2.22-.154 2.218-.154 7.449-5.385-1.743-7.384-1.902-1.693-1.744-1.077-1.11-1.23.476-1.539.317-1.538.476-.77-.951-1.23-.317-.77-.159-1.384-.792.308-.792-.462-.951-.615-.159-.77-.95-.307-.952-1.231-1.743-1.231-.317-1.231-.634.923-.317.77-1.268.923-.634.923-.792.154-.159 1.538-1.901 1.846-1.11 1.077-1.585-.461-.475-1.385.634-.769-.793-.462-1.11-.615-1.425-.308-.793.154-.634.154-.475.923.317 1.231.792.615-.475.769-1.268 1.077-.476.77-.317 1.538.159.615.158 1.385-.158 1.538-1.427.308-.95-.461-1.427.307.159.77-.318 1.538-.316 1.538.792.462.317.769-.475 1.385-.318 1.538.793.616 1.426-.462L35.66 516l-1.427.308-1.426.307-.793-.461-1.426.308.158.615 1.585.462 1.744.307 1.267-.307 1.268-1.077 2.06-.462.635-.923 1.584 1.077 1.585.308 2.06-.308.952.308 1.743 1.23.159.616-.476.769-.792.154-.634.154-1.427.461.317 1.385 1.427-.462 1.426-.307.476-.77 1.426-.461.475-.769.951.615.159.615.158.77.159.615" fill="#EEE"/><path d="M83.206 524.308l-1.743.769-.951.308-.317.154-.476.153-1.743-.769-2.06-.769-.635.308-1.584.615-1.11.615-1.11.462-2.218 2.308-1.268-2-.634.769-2.06.461 1.268-.923-2.06-1.692-1.427-.308-.95-.615-1.427-.462-1.585-.153-1.585-.462L55.788 522l.475-.769 1.426-.462.317-1.384-.158-.769.475-1.539L60.067 516l.95.462.952.615 1.584.308.317-1.539-.95-.461-.159-.616.475-1.077-.95-1.076-.317-1.385.317-1.385.633-.923-.158-.615.475-.923.476-.923.792-.154 1.268-.923.317-.923 1.11 1.23.317 1.385 1.267-.923 2.06-1.231.318-1.538.317-1.539 1.268-.307.475-1.539-.158-.769 1.11-1.539 1.425-.461V498l1.11 1.231 2.377.154 1.427-.308 1.426-.461h.634l.634-.154 2.377.154.159-.616.158-.308 1.268 1.231 2.536 2.308 1.11 1.077.158 9.384-2.06 6.924-1.11 4-1.902 1.692" fill="#EEE"/><path d="M83.998 522.923l-1.11 1.692.793.462.951 1.385 2.377.923.317 1.384 3.804 4 4.438-4.307.317-.308.633-.308.476-.154.634-.461.95-.462-.792-4.307.476-.616.475-.461.634-.462.476-.615.792-.616.476.154 2.377.308-.159-3.077.793-.154 1.268-.154h.634l.634-.154h.951l.475-.153h.317l.476-.154 1.901-.154.317-.769.159-.616.475-.923.159-.461.317-.616.317-.461.158-.308.317-.308.317-.307.476-.616-3.804-1.538v-4.154l-2.219-2.615-.634-.77-.634-1.692-.158-1.077-.159-.308-.158-.461-.159-.308v-.615l-2.06-1.077-.951-.616-.475-.461-.793-.923-.634-.769-.792-.77-.476-.615-.792 2-1.268.923-.475.769-1.427.308-2.219.308-1.11 1.692-1.109 1.538-.633.924-1.268.923.95 1.23-1.109 1.693-1.268.923.951 1.231-.634.769-.317 1.538-1.426.308h-.793l-.633.923-.318 1.385.159 1.384-.317 1.539-1.426.307v.616l.158.769.317 1.385-.792.153 1.11 1.847-.318 1.538v.615" fill="#EEE"/><g clip-path="url(#clip1_627_6373)"><path d="M446 493.803c-.941-1.181-1.647-2.362-2.353-3.543-3.53-5.433-7.059-11.102-9.883-16.772-1.411-2.834-2.823-5.669-3.529-8.74-1.176-4.016-.706-7.795.941-11.102 2.588-5.197 6.588-8.032 12.236-9.213 8.705-1.653 17.411 4.725 19.058 13.465.471 2.834 0 5.433-.941 8.031-1.412 4.252-3.529 8.504-5.882 12.52a254.755 254.755 0 01-9.177 14.882c-.235 0-.235.236-.47.472z" fill="#3D8CD1"/></g><path d="M166.418 353.632c-.941-1.181-1.647-2.362-2.353-3.543-3.529-5.433-7.059-11.103-9.882-16.772-1.412-2.835-2.824-5.669-3.529-8.74-1.177-4.016-.706-7.795.941-11.103 2.588-5.196 6.588-8.031 12.235-9.212 8.706-1.654 17.412 4.724 19.059 13.464.47 2.835 0 5.434-.941 8.032-1.412 4.252-3.53 8.504-5.883 12.52a254.525 254.525 0 01-9.176 14.882c-.235 0-.235.236-.471.472zm-82 275c-.941-1.181-1.647-2.362-2.353-3.543-3.53-5.433-7.058-11.103-9.882-16.772-1.412-2.835-2.824-5.669-3.53-8.74-1.176-4.016-.705-7.795.942-11.103 2.588-5.196 6.588-8.031 12.235-9.212 8.706-1.654 17.412 4.724 19.059 13.464.47 2.835 0 5.434-.941 8.032-1.412 4.252-3.53 8.504-5.883 12.52a254.753 254.753 0 01-9.176 14.882c-.236 0-.236.236-.47.472zm-54-116c-.941-1.181-1.647-2.362-2.353-3.543-3.53-5.433-7.059-11.103-9.882-16.772-1.412-2.835-2.824-5.669-3.53-8.74-1.176-4.016-.705-7.795.942-11.103 2.588-5.196 6.588-8.031 12.235-9.212 8.706-1.654 17.412 4.724 19.059 13.464.47 2.835 0 5.434-.941 8.032-1.412 4.252-3.53 8.504-5.883 12.52a254.753 254.753 0 01-9.176 14.882c-.235 0-.235.236-.47.472zm723-158c-.941-1.181-1.647-2.362-2.353-3.543-3.529-5.433-7.059-11.103-9.882-16.772-1.412-2.835-2.824-5.669-3.529-8.74-1.177-4.016-.706-7.795.941-11.103 2.588-5.196 6.588-8.031 12.235-9.212 8.706-1.654 17.412 4.724 19.059 13.464.47 2.835 0 5.434-.941 8.032-1.412 4.252-3.53 8.504-5.883 12.52a254.525 254.525 0 01-9.176 14.882c-.235 0-.235.236-.471.472zm-126 262c-.941-1.181-1.647-2.362-2.353-3.543-3.529-5.433-7.059-11.103-9.882-16.772-1.412-2.835-2.824-5.669-3.529-8.74-1.177-4.016-.706-7.795.941-11.103 2.588-5.196 6.588-8.031 12.235-9.212 8.706-1.654 17.412 4.724 19.059 13.464.47 2.835 0 5.434-.941 8.032-1.412 4.252-3.53 8.504-5.883 12.52a254.525 254.525 0 01-9.176 14.882c-.235 0-.235.236-.471.472zm89-50c-.941-1.181-1.647-2.362-2.353-3.543-3.529-5.433-7.059-11.103-9.882-16.772-1.412-2.835-2.824-5.669-3.529-8.74-1.177-4.016-.706-7.795.941-11.103 2.588-5.196 6.588-8.031 12.235-9.212 8.706-1.654 17.412 4.724 19.059 13.464.47 2.835 0 5.434-.941 8.032-1.412 4.252-3.53 8.504-5.883 12.52a254.525 254.525 0 01-9.176 14.882c-.235 0-.235.236-.471.472zm331.002-321c-.94-1.181-1.65-2.362-2.35-3.543-3.53-5.433-7.06-11.103-9.89-16.772-1.41-2.835-2.82-5.669-3.53-8.74-1.17-4.016-.7-7.795.94-11.103 2.59-5.196 6.59-8.031 12.24-9.212 8.71-1.654 17.41 4.724 19.06 13.464.47 2.835 0 5.434-.94 8.032-1.41 4.252-3.53 8.504-5.88 12.52-2.83 4.96-5.89 9.921-9.18 14.882-.24 0-.24.236-.47.472zm37 313c-.94-1.181-1.65-2.362-2.35-3.543-3.53-5.433-7.06-11.103-9.89-16.772-1.41-2.835-2.82-5.669-3.53-8.74-1.17-4.016-.7-7.795.94-11.103 2.59-5.196 6.59-8.031 12.24-9.212 8.71-1.654 17.41 4.724 19.06 13.464.47 2.835 0 5.434-.94 8.032-1.41 4.252-3.53 8.504-5.88 12.52-2.83 4.96-5.89 9.921-9.18 14.882-.24 0-.24.236-.47.472z" fill="#3D8CD1"/></g><defs><clipPath id="clip0_627_6373"><path fill="#fff" d="M0 0h1282v706H0z"/></clipPath><clipPath id="clip1_627_6373"><path fill="#fff" transform="translate(426 439)" d="M0 0h40v60H0z"/></clipPath></defs></svg>