<svg width="411" height="20" fill="none" xmlns="http://www.w3.org/2000/svg"><g opacity=".5"><path fill-rule="evenodd" clip-rule="evenodd" d="M13 6V3a1 1 0 112 0v3h-2zm-3 0V1a1 1 0 112 0v5h-2zM7 6V3a1 1 0 112 0v3H7zM4 6V5a1 1 0 112 0v1H4z" fill="#fff" fill-opacity=".2"/><path d="M14 2.5a.5.5 0 01.354.146v.001A.5.5 0 0114.5 3v2.5h-1V3a.5.5 0 01.146-.353h0A.5.5 0 0114 2.5zm-3-2a.5.5 0 01.354.146v.001A.5.5 0 0111.5 1v4.5h-1V1a.5.5 0 01.146-.353h0A.5.5 0 0111 .5zm-3 2a.5.5 0 01.354.146v.001A.5.5 0 018.5 3v2.5h-1V3a.5.5 0 01.146-.353h0A.5.5 0 018 2.5zm-3 2a.5.5 0 01.354.146v.001A.5.5 0 015.5 5v.5h-1V5a.5.5 0 01.146-.353h0A.5.5 0 015 4.5z" stroke="#fff" stroke-opacity=".2"/></g><path fill-rule="evenodd" clip-rule="evenodd" d="M17 16V9a1 1 0 10-2 0v3.051a3.494 3.494 0 00-.5-.051 3.501 3.501 0 00-3.5 3.5c.006.168.025.335.056.5H0V6h20v10h-3zM5 9a1.998 1.998 0 00-1.962 2.39 1.997 1.997 0 001.572 1.572 2.005 2.005 0 002.053-.851A1.999 1.999 0 005 9z" fill="#fff" fill-opacity=".2"/><path d="M19.5 6.5v9h-2V9c0-.397-.158-.78-.44-1.06h.002a1.499 1.499 0 00-2.124 0A1.5 1.5 0 0014.5 9v2.5a4.002 4.002 0 00-4 4H.5v-9h19zM5 8.5a2.497 2.497 0 00-2.31 1.543 2.5 2.5 0 00.416 2.59l.126.135c.35.35.796.587 1.28.684h0c.486.096.988.047 1.444-.142h.001A2.506 2.506 0 007.5 11 2.5 2.5 0 005 8.5z" stroke="#fff" stroke-opacity=".2"/><g opacity=".7"><path d="M5 13a2 2 0 100-4 2 2 0 000 4z" fill="#fff" fill-opacity=".2"/><path d="M5 9.5a1.5 1.5 0 110 3 1.5 1.5 0 010-3z" stroke="#fff" stroke-opacity=".2"/></g><g opacity=".5"><path fill-rule="evenodd" clip-rule="evenodd" d="M17 16.937A6.478 6.478 0 0111.5 20h-1a6.499 6.499 0 01-6-4h6.556a3.291 3.291 0 01-.056-.5 3.5 3.5 0 013.5-3.5c.168.005.335.022.5.051V9a1 1 0 112 0v7.937z" fill="#fff" fill-opacity=".2"/><path d="M16 8.5a.5.5 0 01.354.146v.001A.5.5 0 0116.5 9v7.786a5.976 5.976 0 01-5 2.714h-1a5.999 5.999 0 01-5.195-3h6.355l-.113-.594a2.79 2.79 0 01-.047-.417 3 3 0 012.991-2.989c.142.005.283.02.422.044l.587.102V9a.5.5 0 01.146-.353h0A.5.5 0 0116 8.5z" stroke="#fff" stroke-opacity=".2"/></g><path fill-rule="evenodd" clip-rule="evenodd" d="M69.108 16s-.23-1.4-.307-1.752h-3.318c-.092.275-.551 1.752-.551 1.752h-2.707l3.839-9.156a1.271 1.271 0 011.346-.84h2l2.1 10h-2.4L69.108 16zm-1.331-6.44l-.184-.855c-.122.381-.352.977-.336.961 0 0-.826 2.212-1.025 2.792h2.14c-.106-.503-.595-2.899-.595-2.899zm-5.568-1.25a4.334 4.334 0 00-1.927-.383c-1.025 0-1.484.427-1.5.854 0 .474.55.778 1.468 1.236 1.484.7 2.172 1.572 2.157 2.716-.015 2.06-1.774 3.4-4.5 3.4a7.895 7.895 0 01-2.875-.533l.35-2.243.353.168c.751.37 1.58.553 2.417.534a1.347 1.347 0 001.56-.977c0-.442-.336-.763-1.346-1.25-.98-.473-2.28-1.266-2.264-2.7.016-1.938 1.805-3.3 4.36-3.3a6.543 6.543 0 012.325.41l-.352 2.167-.226-.1zM50.829 16L52.45 6h2.585l-1.621 10h-2.586zm-6.225 0l-2.007-7.528-.157-.61c.354.176.689.388 1 .632.941.768 1.746 1.69 2.38 2.726l-.007-.043.05.26.276 1.372L48.673 6h2.738l-4.07 10H44.6h.004z" fill="#fff" fill-opacity=".2"/><path d="M60.462 6.331h.003a6.044 6.044 0 011.76.252l-.183 1.123a4.83 4.83 0 00-1.76-.28c-.576 0-1.051.12-1.402.35-.358.233-.582.586-.597.987l-.001.008v.01c0 .468.285.791.587 1.022.297.226.71.438 1.158.662l.01.005c.7.33 1.17.682 1.462 1.05.282.356.414.747.408 1.207v.002c-.007.873-.375 1.578-1.035 2.078-.673.51-1.678.826-2.965.826h-.001a7.392 7.392 0 01-2.317-.366l.184-1.175a5.71 5.71 0 002.342.466c.44.07.894-.016 1.275-.254l.001-.001c.397-.25.684-.64.804-1.092l.017-.063v-.066c0-.382-.16-.7-.453-.974-.202-.188-.474-.364-.814-.545l-.361-.182-.362-.184c-.362-.195-.721-.428-1.01-.712-.377-.369-.616-.802-.61-1.348v-.001c.013-1.547 1.448-2.805 3.86-2.805zm6.89.17l.028.003h1.623l1.891 9h-1.362l-.056-.332c-.066-.389-.145-.84-.186-1.03l-.086-.394h-4.081l-.115.342a90.26 90.26 0 00-.312.988l-.132.422h-1.587l3.548-8.463.006-.014.005-.013a.772.772 0 01.815-.509zM54.448 6.5l-1.46 9h-1.572l1.46-9h1.572zm-3.782 0l-3.662 9H44.99l-1.737-6.509c.82.692 1.527 1.507 2.095 2.417l.025.123v.004l.277 1.373.346 1.722.613-1.647L49.02 6.5h1.647zm16.45 2.053c-.058.18-.143.415-.214.611l-.088.244-.03.084c0 .005-.003.013-.006.024v0l-.027.072-.096.259-.306.824a97.34 97.34 0 00-.59 1.625l-.228.662h3.459l-.13-.604-.336-1.634-.18-.88-.057-.277-.016-.077-.004-.02v-.007l-.002-.005-.184-.854-.394-1.83-.571 1.783zm.145.99l-.358-.23a.503.503 0 01.278-.14l.08.37z" stroke="#fff" stroke-opacity=".2"/><g opacity=".5"><path fill-rule="evenodd" clip-rule="evenodd" d="M43.435 8.494a5.903 5.903 0 00-1-.633l-.147-.554a10.36 10.36 0 00-2.323-1.009v-.31h3.97a1.043 1.043 0 011.016.825l.86 4.407a10.802 10.802 0 00-2.376-2.726z" fill="#fff" fill-opacity=".2"/><path d="M43.934 6.488l.092.008a.543.543 0 01.409.332l.027.089.445 2.283c-.359-.39-.744-.756-1.155-1.093l-.009-.006a6.403 6.403 0 00-.88-.579l-.091-.343-.053-.199-.177-.104-.29-.164a10.914 10.914 0 00-.434-.224h2.116z" stroke="#fff" stroke-opacity=".2"/></g><path d="M109.994 9.203a7.5 7.5 0 11-3.37-5.968l1.633-1.293A9.462 9.462 0 00102.5 0 9.5 9.5 0 0093 9.5a9.5 9.5 0 009.5 9.5 9.5 9.5 0 009.335-11.271l-1.841 1.474z" fill="#fff" fill-opacity=".2"/><path d="M102.5.5a8.96 8.96 0 014.921 1.465l-.832.659A8 8 0 10110.5 9.5l-.002-.06.963-.772A9 9 0 01102.5 18.5a9 9 0 01-9-9 9 9 0 019-9z" stroke="#fff" stroke-opacity=".2"/><path d="M102.5 12l8.549-6.649a9.539 9.539 0 00-1.05-1.684L102.5 9.5 99 7.313v2.492L102.5 12z" fill="#fff" fill-opacity=".2"/><path d="M109.9 4.376c.186.268.357.547.513.835l-7.944 6.179L99.5 9.528V8.215l2.735 1.709.296.185.276-.214 7.093-5.519z" stroke="#fff" stroke-opacity=".2"/><g opacity=".5"><path fill-rule="evenodd" clip-rule="evenodd" d="M148 18a7.952 7.952 0 01-4-1.08 7.988 7.988 0 000-13.841 8.003 8.003 0 0111.74 4.85 7.998 7.998 0 01-1.384 6.946A8.004 8.004 0 01148 18z" fill="#fff" fill-opacity=".2"/><path d="M147.512 2.517a7.5 7.5 0 015.842 2.22l.294.315a7.483 7.483 0 011.719 6.413 7.505 7.505 0 01-7.366 6.035H148a7.453 7.453 0 01-3.002-.633A8.471 8.471 0 00148.5 10a8.49 8.49 0 00-3.501-6.868 7.504 7.504 0 012.513-.615z" stroke="#fff" stroke-opacity=".2"/></g><path fill-rule="evenodd" clip-rule="evenodd" d="M140 10a7.991 7.991 0 004 6.921 8 8 0 110-13.842A7.996 7.996 0 00140 10z" fill="#fff" fill-opacity=".2"/><path d="M139.997 2.5a7.5 7.5 0 013.003.633A8.496 8.496 0 00139.5 10a8.49 8.49 0 003.5 6.866 7.499 7.499 0 01-6.756-.367 7.502 7.502 0 010-12.998 7.505 7.505 0 013.753-1.001z" stroke="#fff" stroke-opacity=".2"/><g opacity=".75"><path fill-rule="evenodd" clip-rule="evenodd" d="M144 16.921a7.988 7.988 0 010-13.842 7.988 7.988 0 010 13.842z" fill="#fff" fill-opacity=".2"/><path d="M144 3.663A7.481 7.481 0 01147.5 10a7.488 7.488 0 01-3.5 6.336A7.488 7.488 0 01140.5 10a7.493 7.493 0 013.5-6.337z" stroke="#fff" stroke-opacity=".2"/></g><path fill-rule="evenodd" clip-rule="evenodd" d="M188.839 14.268l-2.02.734a.261.261 0 01-.198-.01.261.261 0 01-.135-.144l-1.047-2.832h-4.9l-1.044 2.826a.264.264 0 01-.332.155l-2.017-.734a.248.248 0 01-.161-.319l4.078-10.7a2.097 2.097 0 013.069-.913c.342.223.611.54.775.913L189 13.95a.25.25 0 01-.074.271.262.262 0 01-.087.047zm-5.53-8.324l-.321-.9v-.007L181.143 10h3.692l-1.526-4.056zM176.984 17h12.032a.982.982 0 01.954.984.987.987 0 01-.954.985h-12.032a.982.982 0 01-.954-.985.987.987 0 01.954-.984z" fill="#fff" fill-opacity=".2"/><path d="M189 17.5l.093.012a.485.485 0 01-.093.958h-12a.484.484 0 01-.47-.486.49.49 0 01.377-.472L177 17.5h12zm-6.015-15.01c.271 0 .538.07.774.2l.1.06a1.6 1.6 0 01.59.695l3.989 10.436-1.566.57-.964-2.608-.121-.326h-5.596l-.121.326-.962 2.602-1.564-.569 3.979-10.44c.109-.244.28-.456.493-.619l.095-.067c.26-.17.564-.26.874-.26zm-.466 2.373l-1.845 4.963-.251.674h5.134l-.254-.676-1.526-4.055-.319-.893-.291.103-.648-.116z" stroke="#fff" stroke-opacity=".2"/><path fill-rule="evenodd" clip-rule="evenodd" d="M219.01 15V9.655h-.244L217.026 15h-2.072l-1.736-5.345h-.242V15H210V6h2.976a1.722 1.722 0 011.66 1.186l1.223 4.16h.257l1.225-4.16A1.723 1.723 0 01219.01 6h2.976v9h-2.976z" fill="#fff" fill-opacity=".2"/><path d="M212.982 6.5c.26-.004.515.076.727.228h.001c.21.15.367.362.448.606l1.221 4.153.105.36h1.006l.106-.36 1.219-4.145h.001c.082-.248.24-.464.454-.614l.001-.001c.213-.152.469-.231.731-.227h2.484v8h-1.976V9.155h-1.107l-.112.345-1.628 5h-1.346l-1.624-4.999-.112-.346h-1.105V14.5H210.5v-8h2.482z" stroke="#fff" stroke-opacity=".2"/><path fill-rule="evenodd" clip-rule="evenodd" d="M229.978 15V9.655h-.227l-1.881 4.485a1.47 1.47 0 01-.539.627 1.466 1.466 0 01-.793.233h-2.525V6h3v5.345h.238l1.905-4.49.015-.034a1.456 1.456 0 011.312-.817h2.525v9h-3.028l-.002-.004z" fill="#fff" fill-opacity=".2"/><path d="M226.513 6.5v5.345h1.07l.128-.305 1.905-4.49.005-.009a.95.95 0 01.353-.392h.001a.96.96 0 01.508-.145h2.025v8h-2.03V9.155h-1.06l-.127.307-1.879 4.476a.969.969 0 01-.352.409.966.966 0 01-.521.153h-2.026v-8h2z" stroke="#fff" stroke-opacity=".2"/><path fill-rule="evenodd" clip-rule="evenodd" d="M241.547 12.014h-3.528V15h-3V9.993h9.953a3.596 3.596 0 01-3.425 2.021z" fill="#fff" fill-opacity=".2"/><path d="M244.037 10.493c-.16.177-.339.336-.536.473l-.191.123a3.096 3.096 0 01-1.737.426h-4.054V14.5h-2v-4.007h8.518z" stroke="#fff" stroke-opacity=".2"/><g opacity=".7"><path fill-rule="evenodd" clip-rule="evenodd" d="M244.919 9.006h-5.412c-2.472 0-4.528-1.3-4.961-3.006h7.023c1.89 0 3.422 1.117 3.422 2.494 0 .173-.024.345-.072.512z" fill="#fff" fill-opacity=".2"/><path d="M241.569 6.5c.851 0 1.6.252 2.125.635.526.383.797.87.797 1.36l-.001.01h-4.983c-1.987 0-3.567-.883-4.218-2.005h6.28z" stroke="#fff" stroke-opacity=".2"/></g><path fill-rule="evenodd" clip-rule="evenodd" d="M281 19a9 9 0 009-9 9 9 0 00-9-9 9 9 0 00-9 9 9 9 0 009 9zm0-5.5a3.5 3.5 0 100-7 3.5 3.5 0 000 7z" fill="#fff" fill-opacity=".2"/><path d="M281 1.5a8.5 8.5 0 018.5 8.5 8.5 8.5 0 01-8.5 8.5 8.5 8.5 0 01-8.5-8.5 8.5 8.5 0 018.5-8.5zm0 4.5a4 4 0 100 8 4 4 0 000-8z" stroke="#fff" stroke-opacity=".2"/><path d="M272 4h-7l3.733 12H272V4z" fill="#fff" fill-opacity=".2"/><path d="M271.5 4.5v11h-2.399l-3.421-11h5.82z" stroke="#fff" stroke-opacity=".2"/><path d="M322.17 10.606l3.67 7.674h-5.76l-3.012-6.297a3.32 3.32 0 00-1.341 2.672c0 .827.3 1.584.796 2.164A3.378 3.378 0 01313.375 19c-1.864 0-3.375-1.528-3.375-3.414 0-.408.071-.799.201-1.162.682-2.495 3.02-4.529 5.629-5.03l-3.67-7.674h5.76l3.012 6.297a3.313 3.313 0 001.341-2.672c0-.827-.3-1.584-.796-2.164A3.378 3.378 0 01324.625 1C326.489 1 328 2.528 328 4.414c0 .408-.071.799-.2 1.161-.683 2.495-3.021 4.53-5.63 5.031z" fill="#fff" fill-opacity=".2"/><path d="M324.625 1.5c1.583 0 2.875 1.299 2.875 2.914 0 .35-.061.684-.171.993l-.007.018-.005.018c-.628 2.295-2.803 4.204-5.241 4.672l-.637.122.28.584 3.327 6.96h-4.65l-2.876-6.013-.263-.548-.486.361a3.822 3.822 0 00-1.544 3.074c0 .834.266 1.607.717 2.236a2.87 2.87 0 01-2.569 1.609c-1.583 0-2.875-1.299-2.875-2.914 0-.35.061-.684.172-.993l.012-.037c.627-2.295 2.801-4.203 5.24-4.671l.637-.122-.28-.584-3.327-6.96h4.65l2.876 6.013.262.547.487-.36a3.812 3.812 0 001.544-3.074c0-.835-.267-1.608-.718-2.237a2.871 2.871 0 012.57-1.608z" stroke="#fff" stroke-opacity=".2"/><path d="M353.921 14.205V8.349h3.427V6.218H348v2.131h3.426v5.856h2.495zm6.92-7.987h-2.495v7.987h2.495V6.218zm1.826 0v7.987h2.296V9.792l4.274 4.413h2.129V6.218h-2.295v4.379l-4.175-4.379h-2.229zm13.603 4.967l2.878 3.02h3.21l-4.009-4.161 3.859-3.826h-3.027l-2.911 3.003h-.665V6.218h-2.412v7.987h2.412v-3.02h.665zM387.321 6c-3.244 0-5.19 1.846-5.19 4.228 0 2.383 1.946 4.229 5.19 4.229 3.227 0 5.173-1.846 5.173-4.229 0-2.382-1.946-4.228-5.173-4.228zm0 6.51c-1.614 0-2.645-.973-2.645-2.282 0-1.309 1.031-2.265 2.645-2.265 1.596 0 2.644.956 2.644 2.265 0 1.309-1.048 2.282-2.644 2.282zm14.319-6.292h-8v7.987h2.412v-2.786h5.239V9.658h-5.239v-1.41h5.588v-2.03zm9.08 0h-8v7.987h2.412v-2.786h5.239V9.658h-5.239v-1.41h5.588v-2.03z" fill="#fff" fill-opacity=".2"/><path d="M387.321 6.5c1.52 0 2.69.435 3.472 1.102a3.372 3.372 0 011.201 2.625c0 1.047-.424 1.965-1.201 2.628-.782.668-1.952 1.102-3.472 1.102-1.528 0-2.703-.434-3.487-1.102-.779-.663-1.203-1.58-1.203-2.628 0-1.046.424-1.963 1.203-2.625.784-.667 1.959-1.102 3.487-1.102zm22.899.218v1.03h-5.588v2.41h5.239v.76h-5.239v2.787h-1.412V6.718h7zm-9.08 0v1.03h-5.588v2.41h5.239v.76h-5.239v2.787h-1.412V6.718h7zm-26.035 0V9.72h1.376l.148-.152 2.765-2.851h1.599l-2.996 2.97-.351.348.343.355 3.194 3.314h-1.821l-2.73-2.865-.148-.155h-1.379v3.02h-1.412V6.718h1.412zm-10.423 0l4.027 4.224.862.904V6.718h1.295v6.987h-1.418l-4.126-4.26-.859-.888v5.148h-1.296V6.718h1.515zm-4.341 0v6.987h-1.495V6.718h1.495zm-3.493 0v1.13h-3.427v5.857h-1.495V7.85H348.5V6.718h8.348zm30.473.745c-.904 0-1.69.269-2.258.766-.571.5-.887 1.205-.887 1.998 0 .794.315 1.503.886 2.007.566.502 1.352.776 2.259.776.899 0 1.684-.275 2.251-.775a2.633 2.633 0 00.893-2.008c0-.795-.322-1.5-.895-2-.568-.495-1.352-.764-2.249-.764z" stroke="#fff" stroke-opacity=".2"/></svg>