<svg width="13" height="21" fill="none" xmlns="http://www.w3.org/2000/svg"><path d="M10.28 0c-.173 0-.387.127-.64.38L.28 9.72c-.013.027-.06.093-.14.2a.51.51 0 00-.14.34c0 .187.093.373.28.56l9.36 9.34c.253.253.467.38.64.38.093 0 .18-.02.26-.06.067-.04.14-.093.22-.16a2.97 2.97 0 01.14-.16l1.14-1.18.24-.28a.487.487 0 00.14-.36c0-.147-.02-.253-.06-.32-.04-.08-.12-.18-.24-.3l-7.48-7.44 7.48-7.46c.12-.12.2-.213.24-.28.04-.08.06-.193.06-.34a.487.487 0 00-.14-.36l-.24-.28L10.9.38a1.92 1.92 0 01-.12-.14 1.048 1.048 0 00-.2-.16.53.53 0 00-.3-.08z" fill="#3D8CD1"/></svg>