<svg width="56" height="43" fill="none" xmlns="http://www.w3.org/2000/svg"><path d="M52.991 5.354c-4.792 1.116-8.748 3.625-11.869 7.53-3.009 3.792-4.513 8.03-4.513 12.715 1.672-2.788 4.625-4.183 8.86-4.183 2.897 0 5.349 1.06 7.355 3.18C54.94 26.714 56 29.335 56 32.458c0 3.012-1.114 5.521-3.343 7.53C50.539 41.995 47.809 43 44.466 43c-4.57 0-8.136-2.12-10.699-6.358-1.894-3.012-2.842-6.748-2.842-11.21 0-5.354 1.95-10.54 5.851-15.56C40.788 4.74 45.47 1.45 50.818 0l2.173 5.354zm-30.925 0c-4.792 1.116-8.749 3.625-11.869 7.53-3.009 3.792-4.513 8.03-4.513 12.715 1.671-2.788 4.625-4.183 8.86-4.183 2.897 0 5.348 1.06 7.354 3.18 2.118 2.119 3.177 4.74 3.177 7.863 0 3.012-1.115 5.521-3.344 7.53C19.614 41.995 16.884 43 13.541 43c-4.57 0-8.136-2.12-10.7-6.358C.948 33.63 0 29.894 0 25.432c0-5.354 1.95-10.54 5.85-15.56C9.864 4.74 14.544 1.45 19.893 0l2.174 5.354z" fill="#3D8CD1"/></svg>